G04 #@! TF.GenerationSoftware,KiCad,Pcbnew,(5.1.6)-1*
G04 #@! TF.CreationDate,2020-08-08T21:35:18+09:00*
G04 #@! TF.ProjectId,Meno_V101,4d656e6f-5f56-4313-9031-2e6b69636164,rev?*
G04 #@! TF.SameCoordinates,PX6cf7820PY7a67730*
G04 #@! TF.FileFunction,Soldermask,Top*
G04 #@! TF.FilePolarity,Negative*
%FSLAX46Y46*%
G04 Gerber Fmt 4.6, Leading zero omitted, Abs format (unit mm)*
G04 Created by KiCad (PCBNEW (5.1.6)-1) date 2020-08-08 21:35:18*
%MOMM*%
%LPD*%
G01*
G04 APERTURE LIST*
%ADD10R,1.700000X1.700000*%
%ADD11O,1.700000X1.700000*%
%ADD12R,3.300000X3.300000*%
%ADD13C,2.600000*%
%ADD14R,2.600000X2.600000*%
%ADD15R,0.640000X0.700000*%
%ADD16R,0.500000X0.700000*%
%ADD17R,0.400000X1.900000*%
%ADD18R,1.000000X0.700000*%
%ADD19O,2.000000X1.000000*%
%ADD20O,2.100000X1.050000*%
%ADD21C,0.650000*%
%ADD22R,1.150000X0.600000*%
%ADD23R,1.150000X0.300000*%
%ADD24C,3.200000*%
%ADD25R,2.000000X1.500000*%
%ADD26R,2.000000X3.800000*%
%ADD27R,0.700000X0.640000*%
%ADD28R,0.700000X0.500000*%
%ADD29R,1.200000X0.900000*%
%ADD30R,1.100000X1.100000*%
%ADD31R,0.900000X0.800000*%
%ADD32R,0.650000X1.060000*%
%ADD33C,0.600000*%
G04 APERTURE END LIST*
D10*
X41615000Y50754700D03*
D11*
X39075000Y50754700D03*
X36535000Y50754700D03*
X33995000Y50754700D03*
X31455000Y50754700D03*
X28915000Y50754700D03*
X26375000Y50754700D03*
X23835000Y50754700D03*
X21295000Y50754700D03*
X18755000Y50754700D03*
D10*
X63459000Y50754700D03*
D11*
X60919000Y50754700D03*
X58379000Y50754700D03*
X55839000Y50754700D03*
X53299000Y50754700D03*
X50759000Y50754700D03*
X48219000Y50754700D03*
X45679000Y50754700D03*
D10*
X63459000Y48210000D03*
D11*
X60919000Y48210000D03*
X58379000Y48210000D03*
X55839000Y48210000D03*
X53299000Y48210000D03*
X50759000Y48210000D03*
X48219000Y48210000D03*
X45679000Y48210000D03*
X43139000Y48210000D03*
X40599000Y48210000D03*
X38059000Y48210000D03*
X35519000Y48210000D03*
X32979000Y48210000D03*
X30439000Y48210000D03*
X27899000Y48210000D03*
X25359000Y48210000D03*
X22819000Y48210000D03*
X20279000Y48210000D03*
X17739000Y48210000D03*
D10*
X56600000Y40000000D03*
D11*
X54060000Y40000000D03*
X56600000Y37460000D03*
X54060000Y37460000D03*
X56600000Y34920000D03*
X54060000Y34920000D03*
X56600000Y32380000D03*
X54060000Y32380000D03*
X56600000Y29840000D03*
X54060000Y29840000D03*
X56600000Y27300000D03*
X54060000Y27300000D03*
X56600000Y24760000D03*
X54060000Y24760000D03*
X56600000Y22220000D03*
X54060000Y22220000D03*
X56600000Y19680000D03*
X54060000Y19680000D03*
X56600000Y17140000D03*
X54060000Y17140000D03*
X56600000Y14600000D03*
X54060000Y14600000D03*
X56600000Y12060000D03*
X54060000Y12060000D03*
D10*
X63585000Y30474700D03*
D11*
X66125000Y30474700D03*
X63585000Y27934700D03*
X66125000Y27934700D03*
X63585000Y25394700D03*
X66125000Y25394700D03*
D10*
X63459000Y5080000D03*
D11*
X60919000Y5080000D03*
X58379000Y5080000D03*
X55839000Y5080000D03*
X53299000Y5080000D03*
X50759000Y5080000D03*
X48219000Y5080000D03*
X45679000Y5080000D03*
X43139000Y5080000D03*
X40599000Y5080000D03*
X38059000Y5080000D03*
X35519000Y5080000D03*
X32979000Y5080000D03*
X30439000Y5080000D03*
X27899000Y5080000D03*
D10*
X63459000Y2535000D03*
D11*
X60919000Y2535000D03*
X58379000Y2535000D03*
X55839000Y2535000D03*
X53299000Y2535000D03*
X50759000Y2535000D03*
X27899000Y2535000D03*
X30439000Y2535000D03*
X32979000Y2535000D03*
X35519000Y2535000D03*
X38059000Y2535000D03*
X40599000Y2535000D03*
X43139000Y2535000D03*
D10*
X45679000Y2535000D03*
G36*
G01*
X9705000Y38687500D02*
X9705000Y38812500D01*
G75*
G02*
X9767500Y38875000I62500J0D01*
G01*
X10517500Y38875000D01*
G75*
G02*
X10580000Y38812500I0J-62500D01*
G01*
X10580000Y38687500D01*
G75*
G02*
X10517500Y38625000I-62500J0D01*
G01*
X9767500Y38625000D01*
G75*
G02*
X9705000Y38687500I0J62500D01*
G01*
G37*
G36*
G01*
X9705000Y38187500D02*
X9705000Y38312500D01*
G75*
G02*
X9767500Y38375000I62500J0D01*
G01*
X10517500Y38375000D01*
G75*
G02*
X10580000Y38312500I0J-62500D01*
G01*
X10580000Y38187500D01*
G75*
G02*
X10517500Y38125000I-62500J0D01*
G01*
X9767500Y38125000D01*
G75*
G02*
X9705000Y38187500I0J62500D01*
G01*
G37*
G36*
G01*
X9705000Y37687500D02*
X9705000Y37812500D01*
G75*
G02*
X9767500Y37875000I62500J0D01*
G01*
X10517500Y37875000D01*
G75*
G02*
X10580000Y37812500I0J-62500D01*
G01*
X10580000Y37687500D01*
G75*
G02*
X10517500Y37625000I-62500J0D01*
G01*
X9767500Y37625000D01*
G75*
G02*
X9705000Y37687500I0J62500D01*
G01*
G37*
G36*
G01*
X9705000Y37187500D02*
X9705000Y37312500D01*
G75*
G02*
X9767500Y37375000I62500J0D01*
G01*
X10517500Y37375000D01*
G75*
G02*
X10580000Y37312500I0J-62500D01*
G01*
X10580000Y37187500D01*
G75*
G02*
X10517500Y37125000I-62500J0D01*
G01*
X9767500Y37125000D01*
G75*
G02*
X9705000Y37187500I0J62500D01*
G01*
G37*
G36*
G01*
X9705000Y36687500D02*
X9705000Y36812500D01*
G75*
G02*
X9767500Y36875000I62500J0D01*
G01*
X10517500Y36875000D01*
G75*
G02*
X10580000Y36812500I0J-62500D01*
G01*
X10580000Y36687500D01*
G75*
G02*
X10517500Y36625000I-62500J0D01*
G01*
X9767500Y36625000D01*
G75*
G02*
X9705000Y36687500I0J62500D01*
G01*
G37*
G36*
G01*
X9705000Y36187500D02*
X9705000Y36312500D01*
G75*
G02*
X9767500Y36375000I62500J0D01*
G01*
X10517500Y36375000D01*
G75*
G02*
X10580000Y36312500I0J-62500D01*
G01*
X10580000Y36187500D01*
G75*
G02*
X10517500Y36125000I-62500J0D01*
G01*
X9767500Y36125000D01*
G75*
G02*
X9705000Y36187500I0J62500D01*
G01*
G37*
G36*
G01*
X9705000Y35687500D02*
X9705000Y35812500D01*
G75*
G02*
X9767500Y35875000I62500J0D01*
G01*
X10517500Y35875000D01*
G75*
G02*
X10580000Y35812500I0J-62500D01*
G01*
X10580000Y35687500D01*
G75*
G02*
X10517500Y35625000I-62500J0D01*
G01*
X9767500Y35625000D01*
G75*
G02*
X9705000Y35687500I0J62500D01*
G01*
G37*
G36*
G01*
X9705000Y35187500D02*
X9705000Y35312500D01*
G75*
G02*
X9767500Y35375000I62500J0D01*
G01*
X10517500Y35375000D01*
G75*
G02*
X10580000Y35312500I0J-62500D01*
G01*
X10580000Y35187500D01*
G75*
G02*
X10517500Y35125000I-62500J0D01*
G01*
X9767500Y35125000D01*
G75*
G02*
X9705000Y35187500I0J62500D01*
G01*
G37*
G36*
G01*
X10705000Y34187500D02*
X10705000Y34937500D01*
G75*
G02*
X10767500Y35000000I62500J0D01*
G01*
X10892500Y35000000D01*
G75*
G02*
X10955000Y34937500I0J-62500D01*
G01*
X10955000Y34187500D01*
G75*
G02*
X10892500Y34125000I-62500J0D01*
G01*
X10767500Y34125000D01*
G75*
G02*
X10705000Y34187500I0J62500D01*
G01*
G37*
G36*
G01*
X11205000Y34187500D02*
X11205000Y34937500D01*
G75*
G02*
X11267500Y35000000I62500J0D01*
G01*
X11392500Y35000000D01*
G75*
G02*
X11455000Y34937500I0J-62500D01*
G01*
X11455000Y34187500D01*
G75*
G02*
X11392500Y34125000I-62500J0D01*
G01*
X11267500Y34125000D01*
G75*
G02*
X11205000Y34187500I0J62500D01*
G01*
G37*
G36*
G01*
X11705000Y34187500D02*
X11705000Y34937500D01*
G75*
G02*
X11767500Y35000000I62500J0D01*
G01*
X11892500Y35000000D01*
G75*
G02*
X11955000Y34937500I0J-62500D01*
G01*
X11955000Y34187500D01*
G75*
G02*
X11892500Y34125000I-62500J0D01*
G01*
X11767500Y34125000D01*
G75*
G02*
X11705000Y34187500I0J62500D01*
G01*
G37*
G36*
G01*
X12205000Y34187500D02*
X12205000Y34937500D01*
G75*
G02*
X12267500Y35000000I62500J0D01*
G01*
X12392500Y35000000D01*
G75*
G02*
X12455000Y34937500I0J-62500D01*
G01*
X12455000Y34187500D01*
G75*
G02*
X12392500Y34125000I-62500J0D01*
G01*
X12267500Y34125000D01*
G75*
G02*
X12205000Y34187500I0J62500D01*
G01*
G37*
G36*
G01*
X12705000Y34187500D02*
X12705000Y34937500D01*
G75*
G02*
X12767500Y35000000I62500J0D01*
G01*
X12892500Y35000000D01*
G75*
G02*
X12955000Y34937500I0J-62500D01*
G01*
X12955000Y34187500D01*
G75*
G02*
X12892500Y34125000I-62500J0D01*
G01*
X12767500Y34125000D01*
G75*
G02*
X12705000Y34187500I0J62500D01*
G01*
G37*
G36*
G01*
X13205000Y34187500D02*
X13205000Y34937500D01*
G75*
G02*
X13267500Y35000000I62500J0D01*
G01*
X13392500Y35000000D01*
G75*
G02*
X13455000Y34937500I0J-62500D01*
G01*
X13455000Y34187500D01*
G75*
G02*
X13392500Y34125000I-62500J0D01*
G01*
X13267500Y34125000D01*
G75*
G02*
X13205000Y34187500I0J62500D01*
G01*
G37*
G36*
G01*
X13705000Y34187500D02*
X13705000Y34937500D01*
G75*
G02*
X13767500Y35000000I62500J0D01*
G01*
X13892500Y35000000D01*
G75*
G02*
X13955000Y34937500I0J-62500D01*
G01*
X13955000Y34187500D01*
G75*
G02*
X13892500Y34125000I-62500J0D01*
G01*
X13767500Y34125000D01*
G75*
G02*
X13705000Y34187500I0J62500D01*
G01*
G37*
G36*
G01*
X14205000Y34187500D02*
X14205000Y34937500D01*
G75*
G02*
X14267500Y35000000I62500J0D01*
G01*
X14392500Y35000000D01*
G75*
G02*
X14455000Y34937500I0J-62500D01*
G01*
X14455000Y34187500D01*
G75*
G02*
X14392500Y34125000I-62500J0D01*
G01*
X14267500Y34125000D01*
G75*
G02*
X14205000Y34187500I0J62500D01*
G01*
G37*
G36*
G01*
X14580000Y35187500D02*
X14580000Y35312500D01*
G75*
G02*
X14642500Y35375000I62500J0D01*
G01*
X15392500Y35375000D01*
G75*
G02*
X15455000Y35312500I0J-62500D01*
G01*
X15455000Y35187500D01*
G75*
G02*
X15392500Y35125000I-62500J0D01*
G01*
X14642500Y35125000D01*
G75*
G02*
X14580000Y35187500I0J62500D01*
G01*
G37*
G36*
G01*
X14580000Y35687500D02*
X14580000Y35812500D01*
G75*
G02*
X14642500Y35875000I62500J0D01*
G01*
X15392500Y35875000D01*
G75*
G02*
X15455000Y35812500I0J-62500D01*
G01*
X15455000Y35687500D01*
G75*
G02*
X15392500Y35625000I-62500J0D01*
G01*
X14642500Y35625000D01*
G75*
G02*
X14580000Y35687500I0J62500D01*
G01*
G37*
G36*
G01*
X14580000Y36187500D02*
X14580000Y36312500D01*
G75*
G02*
X14642500Y36375000I62500J0D01*
G01*
X15392500Y36375000D01*
G75*
G02*
X15455000Y36312500I0J-62500D01*
G01*
X15455000Y36187500D01*
G75*
G02*
X15392500Y36125000I-62500J0D01*
G01*
X14642500Y36125000D01*
G75*
G02*
X14580000Y36187500I0J62500D01*
G01*
G37*
G36*
G01*
X14580000Y36687500D02*
X14580000Y36812500D01*
G75*
G02*
X14642500Y36875000I62500J0D01*
G01*
X15392500Y36875000D01*
G75*
G02*
X15455000Y36812500I0J-62500D01*
G01*
X15455000Y36687500D01*
G75*
G02*
X15392500Y36625000I-62500J0D01*
G01*
X14642500Y36625000D01*
G75*
G02*
X14580000Y36687500I0J62500D01*
G01*
G37*
G36*
G01*
X14580000Y37187500D02*
X14580000Y37312500D01*
G75*
G02*
X14642500Y37375000I62500J0D01*
G01*
X15392500Y37375000D01*
G75*
G02*
X15455000Y37312500I0J-62500D01*
G01*
X15455000Y37187500D01*
G75*
G02*
X15392500Y37125000I-62500J0D01*
G01*
X14642500Y37125000D01*
G75*
G02*
X14580000Y37187500I0J62500D01*
G01*
G37*
G36*
G01*
X14580000Y37687500D02*
X14580000Y37812500D01*
G75*
G02*
X14642500Y37875000I62500J0D01*
G01*
X15392500Y37875000D01*
G75*
G02*
X15455000Y37812500I0J-62500D01*
G01*
X15455000Y37687500D01*
G75*
G02*
X15392500Y37625000I-62500J0D01*
G01*
X14642500Y37625000D01*
G75*
G02*
X14580000Y37687500I0J62500D01*
G01*
G37*
G36*
G01*
X14580000Y38187500D02*
X14580000Y38312500D01*
G75*
G02*
X14642500Y38375000I62500J0D01*
G01*
X15392500Y38375000D01*
G75*
G02*
X15455000Y38312500I0J-62500D01*
G01*
X15455000Y38187500D01*
G75*
G02*
X15392500Y38125000I-62500J0D01*
G01*
X14642500Y38125000D01*
G75*
G02*
X14580000Y38187500I0J62500D01*
G01*
G37*
G36*
G01*
X14580000Y38687500D02*
X14580000Y38812500D01*
G75*
G02*
X14642500Y38875000I62500J0D01*
G01*
X15392500Y38875000D01*
G75*
G02*
X15455000Y38812500I0J-62500D01*
G01*
X15455000Y38687500D01*
G75*
G02*
X15392500Y38625000I-62500J0D01*
G01*
X14642500Y38625000D01*
G75*
G02*
X14580000Y38687500I0J62500D01*
G01*
G37*
G36*
G01*
X14205000Y39062500D02*
X14205000Y39812500D01*
G75*
G02*
X14267500Y39875000I62500J0D01*
G01*
X14392500Y39875000D01*
G75*
G02*
X14455000Y39812500I0J-62500D01*
G01*
X14455000Y39062500D01*
G75*
G02*
X14392500Y39000000I-62500J0D01*
G01*
X14267500Y39000000D01*
G75*
G02*
X14205000Y39062500I0J62500D01*
G01*
G37*
G36*
G01*
X13705000Y39062500D02*
X13705000Y39812500D01*
G75*
G02*
X13767500Y39875000I62500J0D01*
G01*
X13892500Y39875000D01*
G75*
G02*
X13955000Y39812500I0J-62500D01*
G01*
X13955000Y39062500D01*
G75*
G02*
X13892500Y39000000I-62500J0D01*
G01*
X13767500Y39000000D01*
G75*
G02*
X13705000Y39062500I0J62500D01*
G01*
G37*
G36*
G01*
X13205000Y39062500D02*
X13205000Y39812500D01*
G75*
G02*
X13267500Y39875000I62500J0D01*
G01*
X13392500Y39875000D01*
G75*
G02*
X13455000Y39812500I0J-62500D01*
G01*
X13455000Y39062500D01*
G75*
G02*
X13392500Y39000000I-62500J0D01*
G01*
X13267500Y39000000D01*
G75*
G02*
X13205000Y39062500I0J62500D01*
G01*
G37*
G36*
G01*
X12705000Y39062500D02*
X12705000Y39812500D01*
G75*
G02*
X12767500Y39875000I62500J0D01*
G01*
X12892500Y39875000D01*
G75*
G02*
X12955000Y39812500I0J-62500D01*
G01*
X12955000Y39062500D01*
G75*
G02*
X12892500Y39000000I-62500J0D01*
G01*
X12767500Y39000000D01*
G75*
G02*
X12705000Y39062500I0J62500D01*
G01*
G37*
G36*
G01*
X12205000Y39062500D02*
X12205000Y39812500D01*
G75*
G02*
X12267500Y39875000I62500J0D01*
G01*
X12392500Y39875000D01*
G75*
G02*
X12455000Y39812500I0J-62500D01*
G01*
X12455000Y39062500D01*
G75*
G02*
X12392500Y39000000I-62500J0D01*
G01*
X12267500Y39000000D01*
G75*
G02*
X12205000Y39062500I0J62500D01*
G01*
G37*
G36*
G01*
X11705000Y39062500D02*
X11705000Y39812500D01*
G75*
G02*
X11767500Y39875000I62500J0D01*
G01*
X11892500Y39875000D01*
G75*
G02*
X11955000Y39812500I0J-62500D01*
G01*
X11955000Y39062500D01*
G75*
G02*
X11892500Y39000000I-62500J0D01*
G01*
X11767500Y39000000D01*
G75*
G02*
X11705000Y39062500I0J62500D01*
G01*
G37*
G36*
G01*
X11205000Y39062500D02*
X11205000Y39812500D01*
G75*
G02*
X11267500Y39875000I62500J0D01*
G01*
X11392500Y39875000D01*
G75*
G02*
X11455000Y39812500I0J-62500D01*
G01*
X11455000Y39062500D01*
G75*
G02*
X11392500Y39000000I-62500J0D01*
G01*
X11267500Y39000000D01*
G75*
G02*
X11205000Y39062500I0J62500D01*
G01*
G37*
G36*
G01*
X10705000Y39062500D02*
X10705000Y39812500D01*
G75*
G02*
X10767500Y39875000I62500J0D01*
G01*
X10892500Y39875000D01*
G75*
G02*
X10955000Y39812500I0J-62500D01*
G01*
X10955000Y39062500D01*
G75*
G02*
X10892500Y39000000I-62500J0D01*
G01*
X10767500Y39000000D01*
G75*
G02*
X10705000Y39062500I0J62500D01*
G01*
G37*
D12*
X12580000Y37000000D03*
G36*
G01*
X19330000Y29503750D02*
X19330000Y30416250D01*
G75*
G02*
X19573750Y30660000I243750J0D01*
G01*
X20061250Y30660000D01*
G75*
G02*
X20305000Y30416250I0J-243750D01*
G01*
X20305000Y29503750D01*
G75*
G02*
X20061250Y29260000I-243750J0D01*
G01*
X19573750Y29260000D01*
G75*
G02*
X19330000Y29503750I0J243750D01*
G01*
G37*
G36*
G01*
X17455000Y29503750D02*
X17455000Y30416250D01*
G75*
G02*
X17698750Y30660000I243750J0D01*
G01*
X18186250Y30660000D01*
G75*
G02*
X18430000Y30416250I0J-243750D01*
G01*
X18430000Y29503750D01*
G75*
G02*
X18186250Y29260000I-243750J0D01*
G01*
X17698750Y29260000D01*
G75*
G02*
X17455000Y29503750I0J243750D01*
G01*
G37*
G36*
G01*
X14425000Y31856250D02*
X14425000Y31343750D01*
G75*
G02*
X14206250Y31125000I-218750J0D01*
G01*
X13768750Y31125000D01*
G75*
G02*
X13550000Y31343750I0J218750D01*
G01*
X13550000Y31856250D01*
G75*
G02*
X13768750Y32075000I218750J0D01*
G01*
X14206250Y32075000D01*
G75*
G02*
X14425000Y31856250I0J-218750D01*
G01*
G37*
G36*
G01*
X12850000Y31856250D02*
X12850000Y31343750D01*
G75*
G02*
X12631250Y31125000I-218750J0D01*
G01*
X12193750Y31125000D01*
G75*
G02*
X11975000Y31343750I0J218750D01*
G01*
X11975000Y31856250D01*
G75*
G02*
X12193750Y32075000I218750J0D01*
G01*
X12631250Y32075000D01*
G75*
G02*
X12850000Y31856250I0J-218750D01*
G01*
G37*
D13*
X7460000Y2000000D03*
X4460000Y6700000D03*
D14*
X10460000Y6700000D03*
D15*
X4080000Y44280000D03*
D16*
X2410000Y44280000D03*
X3210000Y44280000D03*
D15*
X1540000Y44280000D03*
D16*
X3210000Y42880000D03*
D15*
X4080000Y42880000D03*
D16*
X2410000Y42880000D03*
D15*
X1540000Y42880000D03*
X37570000Y14700000D03*
X36630000Y14700000D03*
X36630000Y13300000D03*
X37570000Y13300000D03*
G36*
G01*
X26550000Y37656250D02*
X26550000Y37143750D01*
G75*
G02*
X26331250Y36925000I-218750J0D01*
G01*
X25893750Y36925000D01*
G75*
G02*
X25675000Y37143750I0J218750D01*
G01*
X25675000Y37656250D01*
G75*
G02*
X25893750Y37875000I218750J0D01*
G01*
X26331250Y37875000D01*
G75*
G02*
X26550000Y37656250I0J-218750D01*
G01*
G37*
G36*
G01*
X28125000Y37656250D02*
X28125000Y37143750D01*
G75*
G02*
X27906250Y36925000I-218750J0D01*
G01*
X27468750Y36925000D01*
G75*
G02*
X27250000Y37143750I0J218750D01*
G01*
X27250000Y37656250D01*
G75*
G02*
X27468750Y37875000I218750J0D01*
G01*
X27906250Y37875000D01*
G75*
G02*
X28125000Y37656250I0J-218750D01*
G01*
G37*
D17*
X32500000Y13900000D03*
X33700000Y13900000D03*
X34900000Y13900000D03*
D18*
X1300000Y51700000D03*
X1300000Y48000000D03*
X7300000Y51700000D03*
X7300000Y48000000D03*
G36*
G01*
X25590000Y32275000D02*
X25590000Y32425000D01*
G75*
G02*
X25665000Y32500000I75000J0D01*
G01*
X26990000Y32500000D01*
G75*
G02*
X27065000Y32425000I0J-75000D01*
G01*
X27065000Y32275000D01*
G75*
G02*
X26990000Y32200000I-75000J0D01*
G01*
X25665000Y32200000D01*
G75*
G02*
X25590000Y32275000I0J75000D01*
G01*
G37*
G36*
G01*
X25590000Y31775000D02*
X25590000Y31925000D01*
G75*
G02*
X25665000Y32000000I75000J0D01*
G01*
X26990000Y32000000D01*
G75*
G02*
X27065000Y31925000I0J-75000D01*
G01*
X27065000Y31775000D01*
G75*
G02*
X26990000Y31700000I-75000J0D01*
G01*
X25665000Y31700000D01*
G75*
G02*
X25590000Y31775000I0J75000D01*
G01*
G37*
G36*
G01*
X25590000Y31275000D02*
X25590000Y31425000D01*
G75*
G02*
X25665000Y31500000I75000J0D01*
G01*
X26990000Y31500000D01*
G75*
G02*
X27065000Y31425000I0J-75000D01*
G01*
X27065000Y31275000D01*
G75*
G02*
X26990000Y31200000I-75000J0D01*
G01*
X25665000Y31200000D01*
G75*
G02*
X25590000Y31275000I0J75000D01*
G01*
G37*
G36*
G01*
X25590000Y30775000D02*
X25590000Y30925000D01*
G75*
G02*
X25665000Y31000000I75000J0D01*
G01*
X26990000Y31000000D01*
G75*
G02*
X27065000Y30925000I0J-75000D01*
G01*
X27065000Y30775000D01*
G75*
G02*
X26990000Y30700000I-75000J0D01*
G01*
X25665000Y30700000D01*
G75*
G02*
X25590000Y30775000I0J75000D01*
G01*
G37*
G36*
G01*
X25590000Y30275000D02*
X25590000Y30425000D01*
G75*
G02*
X25665000Y30500000I75000J0D01*
G01*
X26990000Y30500000D01*
G75*
G02*
X27065000Y30425000I0J-75000D01*
G01*
X27065000Y30275000D01*
G75*
G02*
X26990000Y30200000I-75000J0D01*
G01*
X25665000Y30200000D01*
G75*
G02*
X25590000Y30275000I0J75000D01*
G01*
G37*
G36*
G01*
X25590000Y29775000D02*
X25590000Y29925000D01*
G75*
G02*
X25665000Y30000000I75000J0D01*
G01*
X26990000Y30000000D01*
G75*
G02*
X27065000Y29925000I0J-75000D01*
G01*
X27065000Y29775000D01*
G75*
G02*
X26990000Y29700000I-75000J0D01*
G01*
X25665000Y29700000D01*
G75*
G02*
X25590000Y29775000I0J75000D01*
G01*
G37*
G36*
G01*
X25590000Y29275000D02*
X25590000Y29425000D01*
G75*
G02*
X25665000Y29500000I75000J0D01*
G01*
X26990000Y29500000D01*
G75*
G02*
X27065000Y29425000I0J-75000D01*
G01*
X27065000Y29275000D01*
G75*
G02*
X26990000Y29200000I-75000J0D01*
G01*
X25665000Y29200000D01*
G75*
G02*
X25590000Y29275000I0J75000D01*
G01*
G37*
G36*
G01*
X25590000Y28775000D02*
X25590000Y28925000D01*
G75*
G02*
X25665000Y29000000I75000J0D01*
G01*
X26990000Y29000000D01*
G75*
G02*
X27065000Y28925000I0J-75000D01*
G01*
X27065000Y28775000D01*
G75*
G02*
X26990000Y28700000I-75000J0D01*
G01*
X25665000Y28700000D01*
G75*
G02*
X25590000Y28775000I0J75000D01*
G01*
G37*
G36*
G01*
X25590000Y28275000D02*
X25590000Y28425000D01*
G75*
G02*
X25665000Y28500000I75000J0D01*
G01*
X26990000Y28500000D01*
G75*
G02*
X27065000Y28425000I0J-75000D01*
G01*
X27065000Y28275000D01*
G75*
G02*
X26990000Y28200000I-75000J0D01*
G01*
X25665000Y28200000D01*
G75*
G02*
X25590000Y28275000I0J75000D01*
G01*
G37*
G36*
G01*
X25590000Y27775000D02*
X25590000Y27925000D01*
G75*
G02*
X25665000Y28000000I75000J0D01*
G01*
X26990000Y28000000D01*
G75*
G02*
X27065000Y27925000I0J-75000D01*
G01*
X27065000Y27775000D01*
G75*
G02*
X26990000Y27700000I-75000J0D01*
G01*
X25665000Y27700000D01*
G75*
G02*
X25590000Y27775000I0J75000D01*
G01*
G37*
G36*
G01*
X25590000Y27275000D02*
X25590000Y27425000D01*
G75*
G02*
X25665000Y27500000I75000J0D01*
G01*
X26990000Y27500000D01*
G75*
G02*
X27065000Y27425000I0J-75000D01*
G01*
X27065000Y27275000D01*
G75*
G02*
X26990000Y27200000I-75000J0D01*
G01*
X25665000Y27200000D01*
G75*
G02*
X25590000Y27275000I0J75000D01*
G01*
G37*
G36*
G01*
X25590000Y26775000D02*
X25590000Y26925000D01*
G75*
G02*
X25665000Y27000000I75000J0D01*
G01*
X26990000Y27000000D01*
G75*
G02*
X27065000Y26925000I0J-75000D01*
G01*
X27065000Y26775000D01*
G75*
G02*
X26990000Y26700000I-75000J0D01*
G01*
X25665000Y26700000D01*
G75*
G02*
X25590000Y26775000I0J75000D01*
G01*
G37*
G36*
G01*
X25590000Y26275000D02*
X25590000Y26425000D01*
G75*
G02*
X25665000Y26500000I75000J0D01*
G01*
X26990000Y26500000D01*
G75*
G02*
X27065000Y26425000I0J-75000D01*
G01*
X27065000Y26275000D01*
G75*
G02*
X26990000Y26200000I-75000J0D01*
G01*
X25665000Y26200000D01*
G75*
G02*
X25590000Y26275000I0J75000D01*
G01*
G37*
G36*
G01*
X25590000Y25775000D02*
X25590000Y25925000D01*
G75*
G02*
X25665000Y26000000I75000J0D01*
G01*
X26990000Y26000000D01*
G75*
G02*
X27065000Y25925000I0J-75000D01*
G01*
X27065000Y25775000D01*
G75*
G02*
X26990000Y25700000I-75000J0D01*
G01*
X25665000Y25700000D01*
G75*
G02*
X25590000Y25775000I0J75000D01*
G01*
G37*
G36*
G01*
X25590000Y25275000D02*
X25590000Y25425000D01*
G75*
G02*
X25665000Y25500000I75000J0D01*
G01*
X26990000Y25500000D01*
G75*
G02*
X27065000Y25425000I0J-75000D01*
G01*
X27065000Y25275000D01*
G75*
G02*
X26990000Y25200000I-75000J0D01*
G01*
X25665000Y25200000D01*
G75*
G02*
X25590000Y25275000I0J75000D01*
G01*
G37*
G36*
G01*
X25590000Y24775000D02*
X25590000Y24925000D01*
G75*
G02*
X25665000Y25000000I75000J0D01*
G01*
X26990000Y25000000D01*
G75*
G02*
X27065000Y24925000I0J-75000D01*
G01*
X27065000Y24775000D01*
G75*
G02*
X26990000Y24700000I-75000J0D01*
G01*
X25665000Y24700000D01*
G75*
G02*
X25590000Y24775000I0J75000D01*
G01*
G37*
G36*
G01*
X25590000Y24275000D02*
X25590000Y24425000D01*
G75*
G02*
X25665000Y24500000I75000J0D01*
G01*
X26990000Y24500000D01*
G75*
G02*
X27065000Y24425000I0J-75000D01*
G01*
X27065000Y24275000D01*
G75*
G02*
X26990000Y24200000I-75000J0D01*
G01*
X25665000Y24200000D01*
G75*
G02*
X25590000Y24275000I0J75000D01*
G01*
G37*
G36*
G01*
X25590000Y23775000D02*
X25590000Y23925000D01*
G75*
G02*
X25665000Y24000000I75000J0D01*
G01*
X26990000Y24000000D01*
G75*
G02*
X27065000Y23925000I0J-75000D01*
G01*
X27065000Y23775000D01*
G75*
G02*
X26990000Y23700000I-75000J0D01*
G01*
X25665000Y23700000D01*
G75*
G02*
X25590000Y23775000I0J75000D01*
G01*
G37*
G36*
G01*
X25590000Y23275000D02*
X25590000Y23425000D01*
G75*
G02*
X25665000Y23500000I75000J0D01*
G01*
X26990000Y23500000D01*
G75*
G02*
X27065000Y23425000I0J-75000D01*
G01*
X27065000Y23275000D01*
G75*
G02*
X26990000Y23200000I-75000J0D01*
G01*
X25665000Y23200000D01*
G75*
G02*
X25590000Y23275000I0J75000D01*
G01*
G37*
G36*
G01*
X25590000Y22775000D02*
X25590000Y22925000D01*
G75*
G02*
X25665000Y23000000I75000J0D01*
G01*
X26990000Y23000000D01*
G75*
G02*
X27065000Y22925000I0J-75000D01*
G01*
X27065000Y22775000D01*
G75*
G02*
X26990000Y22700000I-75000J0D01*
G01*
X25665000Y22700000D01*
G75*
G02*
X25590000Y22775000I0J75000D01*
G01*
G37*
G36*
G01*
X25590000Y22275000D02*
X25590000Y22425000D01*
G75*
G02*
X25665000Y22500000I75000J0D01*
G01*
X26990000Y22500000D01*
G75*
G02*
X27065000Y22425000I0J-75000D01*
G01*
X27065000Y22275000D01*
G75*
G02*
X26990000Y22200000I-75000J0D01*
G01*
X25665000Y22200000D01*
G75*
G02*
X25590000Y22275000I0J75000D01*
G01*
G37*
G36*
G01*
X25590000Y21775000D02*
X25590000Y21925000D01*
G75*
G02*
X25665000Y22000000I75000J0D01*
G01*
X26990000Y22000000D01*
G75*
G02*
X27065000Y21925000I0J-75000D01*
G01*
X27065000Y21775000D01*
G75*
G02*
X26990000Y21700000I-75000J0D01*
G01*
X25665000Y21700000D01*
G75*
G02*
X25590000Y21775000I0J75000D01*
G01*
G37*
G36*
G01*
X25590000Y21275000D02*
X25590000Y21425000D01*
G75*
G02*
X25665000Y21500000I75000J0D01*
G01*
X26990000Y21500000D01*
G75*
G02*
X27065000Y21425000I0J-75000D01*
G01*
X27065000Y21275000D01*
G75*
G02*
X26990000Y21200000I-75000J0D01*
G01*
X25665000Y21200000D01*
G75*
G02*
X25590000Y21275000I0J75000D01*
G01*
G37*
G36*
G01*
X25590000Y20775000D02*
X25590000Y20925000D01*
G75*
G02*
X25665000Y21000000I75000J0D01*
G01*
X26990000Y21000000D01*
G75*
G02*
X27065000Y20925000I0J-75000D01*
G01*
X27065000Y20775000D01*
G75*
G02*
X26990000Y20700000I-75000J0D01*
G01*
X25665000Y20700000D01*
G75*
G02*
X25590000Y20775000I0J75000D01*
G01*
G37*
G36*
G01*
X25590000Y20275000D02*
X25590000Y20425000D01*
G75*
G02*
X25665000Y20500000I75000J0D01*
G01*
X26990000Y20500000D01*
G75*
G02*
X27065000Y20425000I0J-75000D01*
G01*
X27065000Y20275000D01*
G75*
G02*
X26990000Y20200000I-75000J0D01*
G01*
X25665000Y20200000D01*
G75*
G02*
X25590000Y20275000I0J75000D01*
G01*
G37*
G36*
G01*
X27840000Y18025000D02*
X27840000Y19350000D01*
G75*
G02*
X27915000Y19425000I75000J0D01*
G01*
X28065000Y19425000D01*
G75*
G02*
X28140000Y19350000I0J-75000D01*
G01*
X28140000Y18025000D01*
G75*
G02*
X28065000Y17950000I-75000J0D01*
G01*
X27915000Y17950000D01*
G75*
G02*
X27840000Y18025000I0J75000D01*
G01*
G37*
G36*
G01*
X28340000Y18025000D02*
X28340000Y19350000D01*
G75*
G02*
X28415000Y19425000I75000J0D01*
G01*
X28565000Y19425000D01*
G75*
G02*
X28640000Y19350000I0J-75000D01*
G01*
X28640000Y18025000D01*
G75*
G02*
X28565000Y17950000I-75000J0D01*
G01*
X28415000Y17950000D01*
G75*
G02*
X28340000Y18025000I0J75000D01*
G01*
G37*
G36*
G01*
X28840000Y18025000D02*
X28840000Y19350000D01*
G75*
G02*
X28915000Y19425000I75000J0D01*
G01*
X29065000Y19425000D01*
G75*
G02*
X29140000Y19350000I0J-75000D01*
G01*
X29140000Y18025000D01*
G75*
G02*
X29065000Y17950000I-75000J0D01*
G01*
X28915000Y17950000D01*
G75*
G02*
X28840000Y18025000I0J75000D01*
G01*
G37*
G36*
G01*
X29340000Y18025000D02*
X29340000Y19350000D01*
G75*
G02*
X29415000Y19425000I75000J0D01*
G01*
X29565000Y19425000D01*
G75*
G02*
X29640000Y19350000I0J-75000D01*
G01*
X29640000Y18025000D01*
G75*
G02*
X29565000Y17950000I-75000J0D01*
G01*
X29415000Y17950000D01*
G75*
G02*
X29340000Y18025000I0J75000D01*
G01*
G37*
G36*
G01*
X29840000Y18025000D02*
X29840000Y19350000D01*
G75*
G02*
X29915000Y19425000I75000J0D01*
G01*
X30065000Y19425000D01*
G75*
G02*
X30140000Y19350000I0J-75000D01*
G01*
X30140000Y18025000D01*
G75*
G02*
X30065000Y17950000I-75000J0D01*
G01*
X29915000Y17950000D01*
G75*
G02*
X29840000Y18025000I0J75000D01*
G01*
G37*
G36*
G01*
X30340000Y18025000D02*
X30340000Y19350000D01*
G75*
G02*
X30415000Y19425000I75000J0D01*
G01*
X30565000Y19425000D01*
G75*
G02*
X30640000Y19350000I0J-75000D01*
G01*
X30640000Y18025000D01*
G75*
G02*
X30565000Y17950000I-75000J0D01*
G01*
X30415000Y17950000D01*
G75*
G02*
X30340000Y18025000I0J75000D01*
G01*
G37*
G36*
G01*
X30840000Y18025000D02*
X30840000Y19350000D01*
G75*
G02*
X30915000Y19425000I75000J0D01*
G01*
X31065000Y19425000D01*
G75*
G02*
X31140000Y19350000I0J-75000D01*
G01*
X31140000Y18025000D01*
G75*
G02*
X31065000Y17950000I-75000J0D01*
G01*
X30915000Y17950000D01*
G75*
G02*
X30840000Y18025000I0J75000D01*
G01*
G37*
G36*
G01*
X31340000Y18025000D02*
X31340000Y19350000D01*
G75*
G02*
X31415000Y19425000I75000J0D01*
G01*
X31565000Y19425000D01*
G75*
G02*
X31640000Y19350000I0J-75000D01*
G01*
X31640000Y18025000D01*
G75*
G02*
X31565000Y17950000I-75000J0D01*
G01*
X31415000Y17950000D01*
G75*
G02*
X31340000Y18025000I0J75000D01*
G01*
G37*
G36*
G01*
X31840000Y18025000D02*
X31840000Y19350000D01*
G75*
G02*
X31915000Y19425000I75000J0D01*
G01*
X32065000Y19425000D01*
G75*
G02*
X32140000Y19350000I0J-75000D01*
G01*
X32140000Y18025000D01*
G75*
G02*
X32065000Y17950000I-75000J0D01*
G01*
X31915000Y17950000D01*
G75*
G02*
X31840000Y18025000I0J75000D01*
G01*
G37*
G36*
G01*
X32340000Y18025000D02*
X32340000Y19350000D01*
G75*
G02*
X32415000Y19425000I75000J0D01*
G01*
X32565000Y19425000D01*
G75*
G02*
X32640000Y19350000I0J-75000D01*
G01*
X32640000Y18025000D01*
G75*
G02*
X32565000Y17950000I-75000J0D01*
G01*
X32415000Y17950000D01*
G75*
G02*
X32340000Y18025000I0J75000D01*
G01*
G37*
G36*
G01*
X32840000Y18025000D02*
X32840000Y19350000D01*
G75*
G02*
X32915000Y19425000I75000J0D01*
G01*
X33065000Y19425000D01*
G75*
G02*
X33140000Y19350000I0J-75000D01*
G01*
X33140000Y18025000D01*
G75*
G02*
X33065000Y17950000I-75000J0D01*
G01*
X32915000Y17950000D01*
G75*
G02*
X32840000Y18025000I0J75000D01*
G01*
G37*
G36*
G01*
X33340000Y18025000D02*
X33340000Y19350000D01*
G75*
G02*
X33415000Y19425000I75000J0D01*
G01*
X33565000Y19425000D01*
G75*
G02*
X33640000Y19350000I0J-75000D01*
G01*
X33640000Y18025000D01*
G75*
G02*
X33565000Y17950000I-75000J0D01*
G01*
X33415000Y17950000D01*
G75*
G02*
X33340000Y18025000I0J75000D01*
G01*
G37*
G36*
G01*
X33840000Y18025000D02*
X33840000Y19350000D01*
G75*
G02*
X33915000Y19425000I75000J0D01*
G01*
X34065000Y19425000D01*
G75*
G02*
X34140000Y19350000I0J-75000D01*
G01*
X34140000Y18025000D01*
G75*
G02*
X34065000Y17950000I-75000J0D01*
G01*
X33915000Y17950000D01*
G75*
G02*
X33840000Y18025000I0J75000D01*
G01*
G37*
G36*
G01*
X34340000Y18025000D02*
X34340000Y19350000D01*
G75*
G02*
X34415000Y19425000I75000J0D01*
G01*
X34565000Y19425000D01*
G75*
G02*
X34640000Y19350000I0J-75000D01*
G01*
X34640000Y18025000D01*
G75*
G02*
X34565000Y17950000I-75000J0D01*
G01*
X34415000Y17950000D01*
G75*
G02*
X34340000Y18025000I0J75000D01*
G01*
G37*
G36*
G01*
X34840000Y18025000D02*
X34840000Y19350000D01*
G75*
G02*
X34915000Y19425000I75000J0D01*
G01*
X35065000Y19425000D01*
G75*
G02*
X35140000Y19350000I0J-75000D01*
G01*
X35140000Y18025000D01*
G75*
G02*
X35065000Y17950000I-75000J0D01*
G01*
X34915000Y17950000D01*
G75*
G02*
X34840000Y18025000I0J75000D01*
G01*
G37*
G36*
G01*
X35340000Y18025000D02*
X35340000Y19350000D01*
G75*
G02*
X35415000Y19425000I75000J0D01*
G01*
X35565000Y19425000D01*
G75*
G02*
X35640000Y19350000I0J-75000D01*
G01*
X35640000Y18025000D01*
G75*
G02*
X35565000Y17950000I-75000J0D01*
G01*
X35415000Y17950000D01*
G75*
G02*
X35340000Y18025000I0J75000D01*
G01*
G37*
G36*
G01*
X35840000Y18025000D02*
X35840000Y19350000D01*
G75*
G02*
X35915000Y19425000I75000J0D01*
G01*
X36065000Y19425000D01*
G75*
G02*
X36140000Y19350000I0J-75000D01*
G01*
X36140000Y18025000D01*
G75*
G02*
X36065000Y17950000I-75000J0D01*
G01*
X35915000Y17950000D01*
G75*
G02*
X35840000Y18025000I0J75000D01*
G01*
G37*
G36*
G01*
X36340000Y18025000D02*
X36340000Y19350000D01*
G75*
G02*
X36415000Y19425000I75000J0D01*
G01*
X36565000Y19425000D01*
G75*
G02*
X36640000Y19350000I0J-75000D01*
G01*
X36640000Y18025000D01*
G75*
G02*
X36565000Y17950000I-75000J0D01*
G01*
X36415000Y17950000D01*
G75*
G02*
X36340000Y18025000I0J75000D01*
G01*
G37*
G36*
G01*
X36840000Y18025000D02*
X36840000Y19350000D01*
G75*
G02*
X36915000Y19425000I75000J0D01*
G01*
X37065000Y19425000D01*
G75*
G02*
X37140000Y19350000I0J-75000D01*
G01*
X37140000Y18025000D01*
G75*
G02*
X37065000Y17950000I-75000J0D01*
G01*
X36915000Y17950000D01*
G75*
G02*
X36840000Y18025000I0J75000D01*
G01*
G37*
G36*
G01*
X37340000Y18025000D02*
X37340000Y19350000D01*
G75*
G02*
X37415000Y19425000I75000J0D01*
G01*
X37565000Y19425000D01*
G75*
G02*
X37640000Y19350000I0J-75000D01*
G01*
X37640000Y18025000D01*
G75*
G02*
X37565000Y17950000I-75000J0D01*
G01*
X37415000Y17950000D01*
G75*
G02*
X37340000Y18025000I0J75000D01*
G01*
G37*
G36*
G01*
X37840000Y18025000D02*
X37840000Y19350000D01*
G75*
G02*
X37915000Y19425000I75000J0D01*
G01*
X38065000Y19425000D01*
G75*
G02*
X38140000Y19350000I0J-75000D01*
G01*
X38140000Y18025000D01*
G75*
G02*
X38065000Y17950000I-75000J0D01*
G01*
X37915000Y17950000D01*
G75*
G02*
X37840000Y18025000I0J75000D01*
G01*
G37*
G36*
G01*
X38340000Y18025000D02*
X38340000Y19350000D01*
G75*
G02*
X38415000Y19425000I75000J0D01*
G01*
X38565000Y19425000D01*
G75*
G02*
X38640000Y19350000I0J-75000D01*
G01*
X38640000Y18025000D01*
G75*
G02*
X38565000Y17950000I-75000J0D01*
G01*
X38415000Y17950000D01*
G75*
G02*
X38340000Y18025000I0J75000D01*
G01*
G37*
G36*
G01*
X38840000Y18025000D02*
X38840000Y19350000D01*
G75*
G02*
X38915000Y19425000I75000J0D01*
G01*
X39065000Y19425000D01*
G75*
G02*
X39140000Y19350000I0J-75000D01*
G01*
X39140000Y18025000D01*
G75*
G02*
X39065000Y17950000I-75000J0D01*
G01*
X38915000Y17950000D01*
G75*
G02*
X38840000Y18025000I0J75000D01*
G01*
G37*
G36*
G01*
X39340000Y18025000D02*
X39340000Y19350000D01*
G75*
G02*
X39415000Y19425000I75000J0D01*
G01*
X39565000Y19425000D01*
G75*
G02*
X39640000Y19350000I0J-75000D01*
G01*
X39640000Y18025000D01*
G75*
G02*
X39565000Y17950000I-75000J0D01*
G01*
X39415000Y17950000D01*
G75*
G02*
X39340000Y18025000I0J75000D01*
G01*
G37*
G36*
G01*
X39840000Y18025000D02*
X39840000Y19350000D01*
G75*
G02*
X39915000Y19425000I75000J0D01*
G01*
X40065000Y19425000D01*
G75*
G02*
X40140000Y19350000I0J-75000D01*
G01*
X40140000Y18025000D01*
G75*
G02*
X40065000Y17950000I-75000J0D01*
G01*
X39915000Y17950000D01*
G75*
G02*
X39840000Y18025000I0J75000D01*
G01*
G37*
G36*
G01*
X40915000Y20275000D02*
X40915000Y20425000D01*
G75*
G02*
X40990000Y20500000I75000J0D01*
G01*
X42315000Y20500000D01*
G75*
G02*
X42390000Y20425000I0J-75000D01*
G01*
X42390000Y20275000D01*
G75*
G02*
X42315000Y20200000I-75000J0D01*
G01*
X40990000Y20200000D01*
G75*
G02*
X40915000Y20275000I0J75000D01*
G01*
G37*
G36*
G01*
X40915000Y20775000D02*
X40915000Y20925000D01*
G75*
G02*
X40990000Y21000000I75000J0D01*
G01*
X42315000Y21000000D01*
G75*
G02*
X42390000Y20925000I0J-75000D01*
G01*
X42390000Y20775000D01*
G75*
G02*
X42315000Y20700000I-75000J0D01*
G01*
X40990000Y20700000D01*
G75*
G02*
X40915000Y20775000I0J75000D01*
G01*
G37*
G36*
G01*
X40915000Y21275000D02*
X40915000Y21425000D01*
G75*
G02*
X40990000Y21500000I75000J0D01*
G01*
X42315000Y21500000D01*
G75*
G02*
X42390000Y21425000I0J-75000D01*
G01*
X42390000Y21275000D01*
G75*
G02*
X42315000Y21200000I-75000J0D01*
G01*
X40990000Y21200000D01*
G75*
G02*
X40915000Y21275000I0J75000D01*
G01*
G37*
G36*
G01*
X40915000Y21775000D02*
X40915000Y21925000D01*
G75*
G02*
X40990000Y22000000I75000J0D01*
G01*
X42315000Y22000000D01*
G75*
G02*
X42390000Y21925000I0J-75000D01*
G01*
X42390000Y21775000D01*
G75*
G02*
X42315000Y21700000I-75000J0D01*
G01*
X40990000Y21700000D01*
G75*
G02*
X40915000Y21775000I0J75000D01*
G01*
G37*
G36*
G01*
X40915000Y22275000D02*
X40915000Y22425000D01*
G75*
G02*
X40990000Y22500000I75000J0D01*
G01*
X42315000Y22500000D01*
G75*
G02*
X42390000Y22425000I0J-75000D01*
G01*
X42390000Y22275000D01*
G75*
G02*
X42315000Y22200000I-75000J0D01*
G01*
X40990000Y22200000D01*
G75*
G02*
X40915000Y22275000I0J75000D01*
G01*
G37*
G36*
G01*
X40915000Y22775000D02*
X40915000Y22925000D01*
G75*
G02*
X40990000Y23000000I75000J0D01*
G01*
X42315000Y23000000D01*
G75*
G02*
X42390000Y22925000I0J-75000D01*
G01*
X42390000Y22775000D01*
G75*
G02*
X42315000Y22700000I-75000J0D01*
G01*
X40990000Y22700000D01*
G75*
G02*
X40915000Y22775000I0J75000D01*
G01*
G37*
G36*
G01*
X40915000Y23275000D02*
X40915000Y23425000D01*
G75*
G02*
X40990000Y23500000I75000J0D01*
G01*
X42315000Y23500000D01*
G75*
G02*
X42390000Y23425000I0J-75000D01*
G01*
X42390000Y23275000D01*
G75*
G02*
X42315000Y23200000I-75000J0D01*
G01*
X40990000Y23200000D01*
G75*
G02*
X40915000Y23275000I0J75000D01*
G01*
G37*
G36*
G01*
X40915000Y23775000D02*
X40915000Y23925000D01*
G75*
G02*
X40990000Y24000000I75000J0D01*
G01*
X42315000Y24000000D01*
G75*
G02*
X42390000Y23925000I0J-75000D01*
G01*
X42390000Y23775000D01*
G75*
G02*
X42315000Y23700000I-75000J0D01*
G01*
X40990000Y23700000D01*
G75*
G02*
X40915000Y23775000I0J75000D01*
G01*
G37*
G36*
G01*
X40915000Y24275000D02*
X40915000Y24425000D01*
G75*
G02*
X40990000Y24500000I75000J0D01*
G01*
X42315000Y24500000D01*
G75*
G02*
X42390000Y24425000I0J-75000D01*
G01*
X42390000Y24275000D01*
G75*
G02*
X42315000Y24200000I-75000J0D01*
G01*
X40990000Y24200000D01*
G75*
G02*
X40915000Y24275000I0J75000D01*
G01*
G37*
G36*
G01*
X40915000Y24775000D02*
X40915000Y24925000D01*
G75*
G02*
X40990000Y25000000I75000J0D01*
G01*
X42315000Y25000000D01*
G75*
G02*
X42390000Y24925000I0J-75000D01*
G01*
X42390000Y24775000D01*
G75*
G02*
X42315000Y24700000I-75000J0D01*
G01*
X40990000Y24700000D01*
G75*
G02*
X40915000Y24775000I0J75000D01*
G01*
G37*
G36*
G01*
X40915000Y25275000D02*
X40915000Y25425000D01*
G75*
G02*
X40990000Y25500000I75000J0D01*
G01*
X42315000Y25500000D01*
G75*
G02*
X42390000Y25425000I0J-75000D01*
G01*
X42390000Y25275000D01*
G75*
G02*
X42315000Y25200000I-75000J0D01*
G01*
X40990000Y25200000D01*
G75*
G02*
X40915000Y25275000I0J75000D01*
G01*
G37*
G36*
G01*
X40915000Y25775000D02*
X40915000Y25925000D01*
G75*
G02*
X40990000Y26000000I75000J0D01*
G01*
X42315000Y26000000D01*
G75*
G02*
X42390000Y25925000I0J-75000D01*
G01*
X42390000Y25775000D01*
G75*
G02*
X42315000Y25700000I-75000J0D01*
G01*
X40990000Y25700000D01*
G75*
G02*
X40915000Y25775000I0J75000D01*
G01*
G37*
G36*
G01*
X40915000Y26275000D02*
X40915000Y26425000D01*
G75*
G02*
X40990000Y26500000I75000J0D01*
G01*
X42315000Y26500000D01*
G75*
G02*
X42390000Y26425000I0J-75000D01*
G01*
X42390000Y26275000D01*
G75*
G02*
X42315000Y26200000I-75000J0D01*
G01*
X40990000Y26200000D01*
G75*
G02*
X40915000Y26275000I0J75000D01*
G01*
G37*
G36*
G01*
X40915000Y26775000D02*
X40915000Y26925000D01*
G75*
G02*
X40990000Y27000000I75000J0D01*
G01*
X42315000Y27000000D01*
G75*
G02*
X42390000Y26925000I0J-75000D01*
G01*
X42390000Y26775000D01*
G75*
G02*
X42315000Y26700000I-75000J0D01*
G01*
X40990000Y26700000D01*
G75*
G02*
X40915000Y26775000I0J75000D01*
G01*
G37*
G36*
G01*
X40915000Y27275000D02*
X40915000Y27425000D01*
G75*
G02*
X40990000Y27500000I75000J0D01*
G01*
X42315000Y27500000D01*
G75*
G02*
X42390000Y27425000I0J-75000D01*
G01*
X42390000Y27275000D01*
G75*
G02*
X42315000Y27200000I-75000J0D01*
G01*
X40990000Y27200000D01*
G75*
G02*
X40915000Y27275000I0J75000D01*
G01*
G37*
G36*
G01*
X40915000Y27775000D02*
X40915000Y27925000D01*
G75*
G02*
X40990000Y28000000I75000J0D01*
G01*
X42315000Y28000000D01*
G75*
G02*
X42390000Y27925000I0J-75000D01*
G01*
X42390000Y27775000D01*
G75*
G02*
X42315000Y27700000I-75000J0D01*
G01*
X40990000Y27700000D01*
G75*
G02*
X40915000Y27775000I0J75000D01*
G01*
G37*
G36*
G01*
X40915000Y28275000D02*
X40915000Y28425000D01*
G75*
G02*
X40990000Y28500000I75000J0D01*
G01*
X42315000Y28500000D01*
G75*
G02*
X42390000Y28425000I0J-75000D01*
G01*
X42390000Y28275000D01*
G75*
G02*
X42315000Y28200000I-75000J0D01*
G01*
X40990000Y28200000D01*
G75*
G02*
X40915000Y28275000I0J75000D01*
G01*
G37*
G36*
G01*
X40915000Y28775000D02*
X40915000Y28925000D01*
G75*
G02*
X40990000Y29000000I75000J0D01*
G01*
X42315000Y29000000D01*
G75*
G02*
X42390000Y28925000I0J-75000D01*
G01*
X42390000Y28775000D01*
G75*
G02*
X42315000Y28700000I-75000J0D01*
G01*
X40990000Y28700000D01*
G75*
G02*
X40915000Y28775000I0J75000D01*
G01*
G37*
G36*
G01*
X40915000Y29275000D02*
X40915000Y29425000D01*
G75*
G02*
X40990000Y29500000I75000J0D01*
G01*
X42315000Y29500000D01*
G75*
G02*
X42390000Y29425000I0J-75000D01*
G01*
X42390000Y29275000D01*
G75*
G02*
X42315000Y29200000I-75000J0D01*
G01*
X40990000Y29200000D01*
G75*
G02*
X40915000Y29275000I0J75000D01*
G01*
G37*
G36*
G01*
X40915000Y29775000D02*
X40915000Y29925000D01*
G75*
G02*
X40990000Y30000000I75000J0D01*
G01*
X42315000Y30000000D01*
G75*
G02*
X42390000Y29925000I0J-75000D01*
G01*
X42390000Y29775000D01*
G75*
G02*
X42315000Y29700000I-75000J0D01*
G01*
X40990000Y29700000D01*
G75*
G02*
X40915000Y29775000I0J75000D01*
G01*
G37*
G36*
G01*
X40915000Y30275000D02*
X40915000Y30425000D01*
G75*
G02*
X40990000Y30500000I75000J0D01*
G01*
X42315000Y30500000D01*
G75*
G02*
X42390000Y30425000I0J-75000D01*
G01*
X42390000Y30275000D01*
G75*
G02*
X42315000Y30200000I-75000J0D01*
G01*
X40990000Y30200000D01*
G75*
G02*
X40915000Y30275000I0J75000D01*
G01*
G37*
G36*
G01*
X40915000Y30775000D02*
X40915000Y30925000D01*
G75*
G02*
X40990000Y31000000I75000J0D01*
G01*
X42315000Y31000000D01*
G75*
G02*
X42390000Y30925000I0J-75000D01*
G01*
X42390000Y30775000D01*
G75*
G02*
X42315000Y30700000I-75000J0D01*
G01*
X40990000Y30700000D01*
G75*
G02*
X40915000Y30775000I0J75000D01*
G01*
G37*
G36*
G01*
X40915000Y31275000D02*
X40915000Y31425000D01*
G75*
G02*
X40990000Y31500000I75000J0D01*
G01*
X42315000Y31500000D01*
G75*
G02*
X42390000Y31425000I0J-75000D01*
G01*
X42390000Y31275000D01*
G75*
G02*
X42315000Y31200000I-75000J0D01*
G01*
X40990000Y31200000D01*
G75*
G02*
X40915000Y31275000I0J75000D01*
G01*
G37*
G36*
G01*
X40915000Y31775000D02*
X40915000Y31925000D01*
G75*
G02*
X40990000Y32000000I75000J0D01*
G01*
X42315000Y32000000D01*
G75*
G02*
X42390000Y31925000I0J-75000D01*
G01*
X42390000Y31775000D01*
G75*
G02*
X42315000Y31700000I-75000J0D01*
G01*
X40990000Y31700000D01*
G75*
G02*
X40915000Y31775000I0J75000D01*
G01*
G37*
G36*
G01*
X40915000Y32275000D02*
X40915000Y32425000D01*
G75*
G02*
X40990000Y32500000I75000J0D01*
G01*
X42315000Y32500000D01*
G75*
G02*
X42390000Y32425000I0J-75000D01*
G01*
X42390000Y32275000D01*
G75*
G02*
X42315000Y32200000I-75000J0D01*
G01*
X40990000Y32200000D01*
G75*
G02*
X40915000Y32275000I0J75000D01*
G01*
G37*
G36*
G01*
X39840000Y33350000D02*
X39840000Y34675000D01*
G75*
G02*
X39915000Y34750000I75000J0D01*
G01*
X40065000Y34750000D01*
G75*
G02*
X40140000Y34675000I0J-75000D01*
G01*
X40140000Y33350000D01*
G75*
G02*
X40065000Y33275000I-75000J0D01*
G01*
X39915000Y33275000D01*
G75*
G02*
X39840000Y33350000I0J75000D01*
G01*
G37*
G36*
G01*
X39340000Y33350000D02*
X39340000Y34675000D01*
G75*
G02*
X39415000Y34750000I75000J0D01*
G01*
X39565000Y34750000D01*
G75*
G02*
X39640000Y34675000I0J-75000D01*
G01*
X39640000Y33350000D01*
G75*
G02*
X39565000Y33275000I-75000J0D01*
G01*
X39415000Y33275000D01*
G75*
G02*
X39340000Y33350000I0J75000D01*
G01*
G37*
G36*
G01*
X38840000Y33350000D02*
X38840000Y34675000D01*
G75*
G02*
X38915000Y34750000I75000J0D01*
G01*
X39065000Y34750000D01*
G75*
G02*
X39140000Y34675000I0J-75000D01*
G01*
X39140000Y33350000D01*
G75*
G02*
X39065000Y33275000I-75000J0D01*
G01*
X38915000Y33275000D01*
G75*
G02*
X38840000Y33350000I0J75000D01*
G01*
G37*
G36*
G01*
X38340000Y33350000D02*
X38340000Y34675000D01*
G75*
G02*
X38415000Y34750000I75000J0D01*
G01*
X38565000Y34750000D01*
G75*
G02*
X38640000Y34675000I0J-75000D01*
G01*
X38640000Y33350000D01*
G75*
G02*
X38565000Y33275000I-75000J0D01*
G01*
X38415000Y33275000D01*
G75*
G02*
X38340000Y33350000I0J75000D01*
G01*
G37*
G36*
G01*
X37840000Y33350000D02*
X37840000Y34675000D01*
G75*
G02*
X37915000Y34750000I75000J0D01*
G01*
X38065000Y34750000D01*
G75*
G02*
X38140000Y34675000I0J-75000D01*
G01*
X38140000Y33350000D01*
G75*
G02*
X38065000Y33275000I-75000J0D01*
G01*
X37915000Y33275000D01*
G75*
G02*
X37840000Y33350000I0J75000D01*
G01*
G37*
G36*
G01*
X37340000Y33350000D02*
X37340000Y34675000D01*
G75*
G02*
X37415000Y34750000I75000J0D01*
G01*
X37565000Y34750000D01*
G75*
G02*
X37640000Y34675000I0J-75000D01*
G01*
X37640000Y33350000D01*
G75*
G02*
X37565000Y33275000I-75000J0D01*
G01*
X37415000Y33275000D01*
G75*
G02*
X37340000Y33350000I0J75000D01*
G01*
G37*
G36*
G01*
X36840000Y33350000D02*
X36840000Y34675000D01*
G75*
G02*
X36915000Y34750000I75000J0D01*
G01*
X37065000Y34750000D01*
G75*
G02*
X37140000Y34675000I0J-75000D01*
G01*
X37140000Y33350000D01*
G75*
G02*
X37065000Y33275000I-75000J0D01*
G01*
X36915000Y33275000D01*
G75*
G02*
X36840000Y33350000I0J75000D01*
G01*
G37*
G36*
G01*
X36340000Y33350000D02*
X36340000Y34675000D01*
G75*
G02*
X36415000Y34750000I75000J0D01*
G01*
X36565000Y34750000D01*
G75*
G02*
X36640000Y34675000I0J-75000D01*
G01*
X36640000Y33350000D01*
G75*
G02*
X36565000Y33275000I-75000J0D01*
G01*
X36415000Y33275000D01*
G75*
G02*
X36340000Y33350000I0J75000D01*
G01*
G37*
G36*
G01*
X35840000Y33350000D02*
X35840000Y34675000D01*
G75*
G02*
X35915000Y34750000I75000J0D01*
G01*
X36065000Y34750000D01*
G75*
G02*
X36140000Y34675000I0J-75000D01*
G01*
X36140000Y33350000D01*
G75*
G02*
X36065000Y33275000I-75000J0D01*
G01*
X35915000Y33275000D01*
G75*
G02*
X35840000Y33350000I0J75000D01*
G01*
G37*
G36*
G01*
X35340000Y33350000D02*
X35340000Y34675000D01*
G75*
G02*
X35415000Y34750000I75000J0D01*
G01*
X35565000Y34750000D01*
G75*
G02*
X35640000Y34675000I0J-75000D01*
G01*
X35640000Y33350000D01*
G75*
G02*
X35565000Y33275000I-75000J0D01*
G01*
X35415000Y33275000D01*
G75*
G02*
X35340000Y33350000I0J75000D01*
G01*
G37*
G36*
G01*
X34840000Y33350000D02*
X34840000Y34675000D01*
G75*
G02*
X34915000Y34750000I75000J0D01*
G01*
X35065000Y34750000D01*
G75*
G02*
X35140000Y34675000I0J-75000D01*
G01*
X35140000Y33350000D01*
G75*
G02*
X35065000Y33275000I-75000J0D01*
G01*
X34915000Y33275000D01*
G75*
G02*
X34840000Y33350000I0J75000D01*
G01*
G37*
G36*
G01*
X34340000Y33350000D02*
X34340000Y34675000D01*
G75*
G02*
X34415000Y34750000I75000J0D01*
G01*
X34565000Y34750000D01*
G75*
G02*
X34640000Y34675000I0J-75000D01*
G01*
X34640000Y33350000D01*
G75*
G02*
X34565000Y33275000I-75000J0D01*
G01*
X34415000Y33275000D01*
G75*
G02*
X34340000Y33350000I0J75000D01*
G01*
G37*
G36*
G01*
X33840000Y33350000D02*
X33840000Y34675000D01*
G75*
G02*
X33915000Y34750000I75000J0D01*
G01*
X34065000Y34750000D01*
G75*
G02*
X34140000Y34675000I0J-75000D01*
G01*
X34140000Y33350000D01*
G75*
G02*
X34065000Y33275000I-75000J0D01*
G01*
X33915000Y33275000D01*
G75*
G02*
X33840000Y33350000I0J75000D01*
G01*
G37*
G36*
G01*
X33340000Y33350000D02*
X33340000Y34675000D01*
G75*
G02*
X33415000Y34750000I75000J0D01*
G01*
X33565000Y34750000D01*
G75*
G02*
X33640000Y34675000I0J-75000D01*
G01*
X33640000Y33350000D01*
G75*
G02*
X33565000Y33275000I-75000J0D01*
G01*
X33415000Y33275000D01*
G75*
G02*
X33340000Y33350000I0J75000D01*
G01*
G37*
G36*
G01*
X32840000Y33350000D02*
X32840000Y34675000D01*
G75*
G02*
X32915000Y34750000I75000J0D01*
G01*
X33065000Y34750000D01*
G75*
G02*
X33140000Y34675000I0J-75000D01*
G01*
X33140000Y33350000D01*
G75*
G02*
X33065000Y33275000I-75000J0D01*
G01*
X32915000Y33275000D01*
G75*
G02*
X32840000Y33350000I0J75000D01*
G01*
G37*
G36*
G01*
X32340000Y33350000D02*
X32340000Y34675000D01*
G75*
G02*
X32415000Y34750000I75000J0D01*
G01*
X32565000Y34750000D01*
G75*
G02*
X32640000Y34675000I0J-75000D01*
G01*
X32640000Y33350000D01*
G75*
G02*
X32565000Y33275000I-75000J0D01*
G01*
X32415000Y33275000D01*
G75*
G02*
X32340000Y33350000I0J75000D01*
G01*
G37*
G36*
G01*
X31840000Y33350000D02*
X31840000Y34675000D01*
G75*
G02*
X31915000Y34750000I75000J0D01*
G01*
X32065000Y34750000D01*
G75*
G02*
X32140000Y34675000I0J-75000D01*
G01*
X32140000Y33350000D01*
G75*
G02*
X32065000Y33275000I-75000J0D01*
G01*
X31915000Y33275000D01*
G75*
G02*
X31840000Y33350000I0J75000D01*
G01*
G37*
G36*
G01*
X31340000Y33350000D02*
X31340000Y34675000D01*
G75*
G02*
X31415000Y34750000I75000J0D01*
G01*
X31565000Y34750000D01*
G75*
G02*
X31640000Y34675000I0J-75000D01*
G01*
X31640000Y33350000D01*
G75*
G02*
X31565000Y33275000I-75000J0D01*
G01*
X31415000Y33275000D01*
G75*
G02*
X31340000Y33350000I0J75000D01*
G01*
G37*
G36*
G01*
X30840000Y33350000D02*
X30840000Y34675000D01*
G75*
G02*
X30915000Y34750000I75000J0D01*
G01*
X31065000Y34750000D01*
G75*
G02*
X31140000Y34675000I0J-75000D01*
G01*
X31140000Y33350000D01*
G75*
G02*
X31065000Y33275000I-75000J0D01*
G01*
X30915000Y33275000D01*
G75*
G02*
X30840000Y33350000I0J75000D01*
G01*
G37*
G36*
G01*
X30340000Y33350000D02*
X30340000Y34675000D01*
G75*
G02*
X30415000Y34750000I75000J0D01*
G01*
X30565000Y34750000D01*
G75*
G02*
X30640000Y34675000I0J-75000D01*
G01*
X30640000Y33350000D01*
G75*
G02*
X30565000Y33275000I-75000J0D01*
G01*
X30415000Y33275000D01*
G75*
G02*
X30340000Y33350000I0J75000D01*
G01*
G37*
G36*
G01*
X29840000Y33350000D02*
X29840000Y34675000D01*
G75*
G02*
X29915000Y34750000I75000J0D01*
G01*
X30065000Y34750000D01*
G75*
G02*
X30140000Y34675000I0J-75000D01*
G01*
X30140000Y33350000D01*
G75*
G02*
X30065000Y33275000I-75000J0D01*
G01*
X29915000Y33275000D01*
G75*
G02*
X29840000Y33350000I0J75000D01*
G01*
G37*
G36*
G01*
X29340000Y33350000D02*
X29340000Y34675000D01*
G75*
G02*
X29415000Y34750000I75000J0D01*
G01*
X29565000Y34750000D01*
G75*
G02*
X29640000Y34675000I0J-75000D01*
G01*
X29640000Y33350000D01*
G75*
G02*
X29565000Y33275000I-75000J0D01*
G01*
X29415000Y33275000D01*
G75*
G02*
X29340000Y33350000I0J75000D01*
G01*
G37*
G36*
G01*
X28840000Y33350000D02*
X28840000Y34675000D01*
G75*
G02*
X28915000Y34750000I75000J0D01*
G01*
X29065000Y34750000D01*
G75*
G02*
X29140000Y34675000I0J-75000D01*
G01*
X29140000Y33350000D01*
G75*
G02*
X29065000Y33275000I-75000J0D01*
G01*
X28915000Y33275000D01*
G75*
G02*
X28840000Y33350000I0J75000D01*
G01*
G37*
G36*
G01*
X28340000Y33350000D02*
X28340000Y34675000D01*
G75*
G02*
X28415000Y34750000I75000J0D01*
G01*
X28565000Y34750000D01*
G75*
G02*
X28640000Y34675000I0J-75000D01*
G01*
X28640000Y33350000D01*
G75*
G02*
X28565000Y33275000I-75000J0D01*
G01*
X28415000Y33275000D01*
G75*
G02*
X28340000Y33350000I0J75000D01*
G01*
G37*
G36*
G01*
X27840000Y33350000D02*
X27840000Y34675000D01*
G75*
G02*
X27915000Y34750000I75000J0D01*
G01*
X28065000Y34750000D01*
G75*
G02*
X28140000Y34675000I0J-75000D01*
G01*
X28140000Y33350000D01*
G75*
G02*
X28065000Y33275000I-75000J0D01*
G01*
X27915000Y33275000D01*
G75*
G02*
X27840000Y33350000I0J75000D01*
G01*
G37*
D19*
X1700000Y41170000D03*
X1700000Y32530000D03*
D20*
X5880000Y41170000D03*
X5880000Y32530000D03*
D21*
X5350000Y33960000D03*
X5350000Y39740000D03*
D22*
X6455000Y40050000D03*
X6455000Y33650000D03*
X6455000Y39250000D03*
X6455000Y34450000D03*
D23*
X6455000Y36600000D03*
X6455000Y37100000D03*
X6455000Y36100000D03*
X6455000Y35600000D03*
X6455000Y35100000D03*
X6455000Y37600000D03*
X6455000Y38100000D03*
X6455000Y38600000D03*
D24*
X15199210Y50754717D03*
X65998312Y35554717D03*
X65998312Y7615000D03*
X13929210Y2534717D03*
D25*
X9850000Y13990000D03*
X9850000Y18590000D03*
X9850000Y16290000D03*
D26*
X3550000Y16290000D03*
G36*
G01*
X17455000Y41543750D02*
X17455000Y42456250D01*
G75*
G02*
X17698750Y42700000I243750J0D01*
G01*
X18186250Y42700000D01*
G75*
G02*
X18430000Y42456250I0J-243750D01*
G01*
X18430000Y41543750D01*
G75*
G02*
X18186250Y41300000I-243750J0D01*
G01*
X17698750Y41300000D01*
G75*
G02*
X17455000Y41543750I0J243750D01*
G01*
G37*
G36*
G01*
X19330000Y41543750D02*
X19330000Y42456250D01*
G75*
G02*
X19573750Y42700000I243750J0D01*
G01*
X20061250Y42700000D01*
G75*
G02*
X20305000Y42456250I0J-243750D01*
G01*
X20305000Y41543750D01*
G75*
G02*
X20061250Y41300000I-243750J0D01*
G01*
X19573750Y41300000D01*
G75*
G02*
X19330000Y41543750I0J243750D01*
G01*
G37*
G36*
G01*
X17455000Y31903750D02*
X17455000Y32816250D01*
G75*
G02*
X17698750Y33060000I243750J0D01*
G01*
X18186250Y33060000D01*
G75*
G02*
X18430000Y32816250I0J-243750D01*
G01*
X18430000Y31903750D01*
G75*
G02*
X18186250Y31660000I-243750J0D01*
G01*
X17698750Y31660000D01*
G75*
G02*
X17455000Y31903750I0J243750D01*
G01*
G37*
G36*
G01*
X19330000Y31903750D02*
X19330000Y32816250D01*
G75*
G02*
X19573750Y33060000I243750J0D01*
G01*
X20061250Y33060000D01*
G75*
G02*
X20305000Y32816250I0J-243750D01*
G01*
X20305000Y31903750D01*
G75*
G02*
X20061250Y31660000I-243750J0D01*
G01*
X19573750Y31660000D01*
G75*
G02*
X19330000Y31903750I0J243750D01*
G01*
G37*
G36*
G01*
X46460000Y41013750D02*
X46460000Y41926250D01*
G75*
G02*
X46703750Y42170000I243750J0D01*
G01*
X47191250Y42170000D01*
G75*
G02*
X47435000Y41926250I0J-243750D01*
G01*
X47435000Y41013750D01*
G75*
G02*
X47191250Y40770000I-243750J0D01*
G01*
X46703750Y40770000D01*
G75*
G02*
X46460000Y41013750I0J243750D01*
G01*
G37*
G36*
G01*
X44585000Y41013750D02*
X44585000Y41926250D01*
G75*
G02*
X44828750Y42170000I243750J0D01*
G01*
X45316250Y42170000D01*
G75*
G02*
X45560000Y41926250I0J-243750D01*
G01*
X45560000Y41013750D01*
G75*
G02*
X45316250Y40770000I-243750J0D01*
G01*
X44828750Y40770000D01*
G75*
G02*
X44585000Y41013750I0J243750D01*
G01*
G37*
G36*
G01*
X4860001Y24100000D02*
X1959999Y24100000D01*
G75*
G02*
X1710000Y24349999I0J249999D01*
G01*
X1710000Y24975001D01*
G75*
G02*
X1959999Y25225000I249999J0D01*
G01*
X4860001Y25225000D01*
G75*
G02*
X5110000Y24975001I0J-249999D01*
G01*
X5110000Y24349999D01*
G75*
G02*
X4860001Y24100000I-249999J0D01*
G01*
G37*
G36*
G01*
X4860001Y28375000D02*
X1959999Y28375000D01*
G75*
G02*
X1710000Y28624999I0J249999D01*
G01*
X1710000Y29250001D01*
G75*
G02*
X1959999Y29500000I249999J0D01*
G01*
X4860001Y29500000D01*
G75*
G02*
X5110000Y29250001I0J-249999D01*
G01*
X5110000Y28624999D01*
G75*
G02*
X4860001Y28375000I-249999J0D01*
G01*
G37*
G36*
G01*
X13936250Y15360000D02*
X13423750Y15360000D01*
G75*
G02*
X13205000Y15578750I0J218750D01*
G01*
X13205000Y16016250D01*
G75*
G02*
X13423750Y16235000I218750J0D01*
G01*
X13936250Y16235000D01*
G75*
G02*
X14155000Y16016250I0J-218750D01*
G01*
X14155000Y15578750D01*
G75*
G02*
X13936250Y15360000I-218750J0D01*
G01*
G37*
G36*
G01*
X13936250Y13785000D02*
X13423750Y13785000D01*
G75*
G02*
X13205000Y14003750I0J218750D01*
G01*
X13205000Y14441250D01*
G75*
G02*
X13423750Y14660000I218750J0D01*
G01*
X13936250Y14660000D01*
G75*
G02*
X14155000Y14441250I0J-218750D01*
G01*
X14155000Y14003750D01*
G75*
G02*
X13936250Y13785000I-218750J0D01*
G01*
G37*
D27*
X19580000Y35430000D03*
D28*
X19580000Y36300000D03*
D27*
X19580000Y37970000D03*
D28*
X19580000Y37100000D03*
D27*
X18180000Y35430000D03*
D28*
X18180000Y37100000D03*
X18180000Y36300000D03*
D27*
X18180000Y37970000D03*
X9600000Y42540000D03*
X9600000Y41600000D03*
X8200000Y41600000D03*
X8200000Y42540000D03*
G36*
G01*
X27375000Y35543750D02*
X27375000Y36056250D01*
G75*
G02*
X27593750Y36275000I218750J0D01*
G01*
X28031250Y36275000D01*
G75*
G02*
X28250000Y36056250I0J-218750D01*
G01*
X28250000Y35543750D01*
G75*
G02*
X28031250Y35325000I-218750J0D01*
G01*
X27593750Y35325000D01*
G75*
G02*
X27375000Y35543750I0J218750D01*
G01*
G37*
G36*
G01*
X28950000Y35543750D02*
X28950000Y36056250D01*
G75*
G02*
X29168750Y36275000I218750J0D01*
G01*
X29606250Y36275000D01*
G75*
G02*
X29825000Y36056250I0J-218750D01*
G01*
X29825000Y35543750D01*
G75*
G02*
X29606250Y35325000I-218750J0D01*
G01*
X29168750Y35325000D01*
G75*
G02*
X28950000Y35543750I0J218750D01*
G01*
G37*
G36*
G01*
X28775000Y13743750D02*
X28775000Y14256250D01*
G75*
G02*
X28993750Y14475000I218750J0D01*
G01*
X29431250Y14475000D01*
G75*
G02*
X29650000Y14256250I0J-218750D01*
G01*
X29650000Y13743750D01*
G75*
G02*
X29431250Y13525000I-218750J0D01*
G01*
X28993750Y13525000D01*
G75*
G02*
X28775000Y13743750I0J218750D01*
G01*
G37*
G36*
G01*
X30350000Y13743750D02*
X30350000Y14256250D01*
G75*
G02*
X30568750Y14475000I218750J0D01*
G01*
X31006250Y14475000D01*
G75*
G02*
X31225000Y14256250I0J-218750D01*
G01*
X31225000Y13743750D01*
G75*
G02*
X31006250Y13525000I-218750J0D01*
G01*
X30568750Y13525000D01*
G75*
G02*
X30350000Y13743750I0J218750D01*
G01*
G37*
G36*
G01*
X44756250Y24275000D02*
X44243750Y24275000D01*
G75*
G02*
X44025000Y24493750I0J218750D01*
G01*
X44025000Y24931250D01*
G75*
G02*
X44243750Y25150000I218750J0D01*
G01*
X44756250Y25150000D01*
G75*
G02*
X44975000Y24931250I0J-218750D01*
G01*
X44975000Y24493750D01*
G75*
G02*
X44756250Y24275000I-218750J0D01*
G01*
G37*
G36*
G01*
X44756250Y25850000D02*
X44243750Y25850000D01*
G75*
G02*
X44025000Y26068750I0J218750D01*
G01*
X44025000Y26506250D01*
G75*
G02*
X44243750Y26725000I218750J0D01*
G01*
X44756250Y26725000D01*
G75*
G02*
X44975000Y26506250I0J-218750D01*
G01*
X44975000Y26068750D01*
G75*
G02*
X44756250Y25850000I-218750J0D01*
G01*
G37*
G36*
G01*
X22743750Y26850000D02*
X23256250Y26850000D01*
G75*
G02*
X23475000Y26631250I0J-218750D01*
G01*
X23475000Y26193750D01*
G75*
G02*
X23256250Y25975000I-218750J0D01*
G01*
X22743750Y25975000D01*
G75*
G02*
X22525000Y26193750I0J218750D01*
G01*
X22525000Y26631250D01*
G75*
G02*
X22743750Y26850000I218750J0D01*
G01*
G37*
G36*
G01*
X22743750Y28425000D02*
X23256250Y28425000D01*
G75*
G02*
X23475000Y28206250I0J-218750D01*
G01*
X23475000Y27768750D01*
G75*
G02*
X23256250Y27550000I-218750J0D01*
G01*
X22743750Y27550000D01*
G75*
G02*
X22525000Y27768750I0J218750D01*
G01*
X22525000Y28206250D01*
G75*
G02*
X22743750Y28425000I218750J0D01*
G01*
G37*
G36*
G01*
X31425000Y37656250D02*
X31425000Y37143750D01*
G75*
G02*
X31206250Y36925000I-218750J0D01*
G01*
X30768750Y36925000D01*
G75*
G02*
X30550000Y37143750I0J218750D01*
G01*
X30550000Y37656250D01*
G75*
G02*
X30768750Y37875000I218750J0D01*
G01*
X31206250Y37875000D01*
G75*
G02*
X31425000Y37656250I0J-218750D01*
G01*
G37*
G36*
G01*
X29850000Y37656250D02*
X29850000Y37143750D01*
G75*
G02*
X29631250Y36925000I-218750J0D01*
G01*
X29193750Y36925000D01*
G75*
G02*
X28975000Y37143750I0J218750D01*
G01*
X28975000Y37656250D01*
G75*
G02*
X29193750Y37875000I218750J0D01*
G01*
X29631250Y37875000D01*
G75*
G02*
X29850000Y37656250I0J-218750D01*
G01*
G37*
G36*
G01*
X11650000Y42656250D02*
X11650000Y42143750D01*
G75*
G02*
X11431250Y41925000I-218750J0D01*
G01*
X10993750Y41925000D01*
G75*
G02*
X10775000Y42143750I0J218750D01*
G01*
X10775000Y42656250D01*
G75*
G02*
X10993750Y42875000I218750J0D01*
G01*
X11431250Y42875000D01*
G75*
G02*
X11650000Y42656250I0J-218750D01*
G01*
G37*
G36*
G01*
X13225000Y42656250D02*
X13225000Y42143750D01*
G75*
G02*
X13006250Y41925000I-218750J0D01*
G01*
X12568750Y41925000D01*
G75*
G02*
X12350000Y42143750I0J218750D01*
G01*
X12350000Y42656250D01*
G75*
G02*
X12568750Y42875000I218750J0D01*
G01*
X13006250Y42875000D01*
G75*
G02*
X13225000Y42656250I0J-218750D01*
G01*
G37*
G36*
G01*
X13423750Y17760000D02*
X13936250Y17760000D01*
G75*
G02*
X14155000Y17541250I0J-218750D01*
G01*
X14155000Y17103750D01*
G75*
G02*
X13936250Y16885000I-218750J0D01*
G01*
X13423750Y16885000D01*
G75*
G02*
X13205000Y17103750I0J218750D01*
G01*
X13205000Y17541250D01*
G75*
G02*
X13423750Y17760000I218750J0D01*
G01*
G37*
G36*
G01*
X13423750Y19335000D02*
X13936250Y19335000D01*
G75*
G02*
X14155000Y19116250I0J-218750D01*
G01*
X14155000Y18678750D01*
G75*
G02*
X13936250Y18460000I-218750J0D01*
G01*
X13423750Y18460000D01*
G75*
G02*
X13205000Y18678750I0J218750D01*
G01*
X13205000Y19116250D01*
G75*
G02*
X13423750Y19335000I218750J0D01*
G01*
G37*
G36*
G01*
X17943750Y5025000D02*
X18456250Y5025000D01*
G75*
G02*
X18675000Y4806250I0J-218750D01*
G01*
X18675000Y4368750D01*
G75*
G02*
X18456250Y4150000I-218750J0D01*
G01*
X17943750Y4150000D01*
G75*
G02*
X17725000Y4368750I0J218750D01*
G01*
X17725000Y4806250D01*
G75*
G02*
X17943750Y5025000I218750J0D01*
G01*
G37*
G36*
G01*
X17943750Y3450000D02*
X18456250Y3450000D01*
G75*
G02*
X18675000Y3231250I0J-218750D01*
G01*
X18675000Y2793750D01*
G75*
G02*
X18456250Y2575000I-218750J0D01*
G01*
X17943750Y2575000D01*
G75*
G02*
X17725000Y2793750I0J218750D01*
G01*
X17725000Y3231250D01*
G75*
G02*
X17943750Y3450000I218750J0D01*
G01*
G37*
G36*
G01*
X24156250Y4150000D02*
X23643750Y4150000D01*
G75*
G02*
X23425000Y4368750I0J218750D01*
G01*
X23425000Y4806250D01*
G75*
G02*
X23643750Y5025000I218750J0D01*
G01*
X24156250Y5025000D01*
G75*
G02*
X24375000Y4806250I0J-218750D01*
G01*
X24375000Y4368750D01*
G75*
G02*
X24156250Y4150000I-218750J0D01*
G01*
G37*
G36*
G01*
X24156250Y2575000D02*
X23643750Y2575000D01*
G75*
G02*
X23425000Y2793750I0J218750D01*
G01*
X23425000Y3231250D01*
G75*
G02*
X23643750Y3450000I218750J0D01*
G01*
X24156250Y3450000D01*
G75*
G02*
X24375000Y3231250I0J-218750D01*
G01*
X24375000Y2793750D01*
G75*
G02*
X24156250Y2575000I-218750J0D01*
G01*
G37*
G36*
G01*
X28425000Y7656250D02*
X28425000Y7143750D01*
G75*
G02*
X28206250Y6925000I-218750J0D01*
G01*
X27768750Y6925000D01*
G75*
G02*
X27550000Y7143750I0J218750D01*
G01*
X27550000Y7656250D01*
G75*
G02*
X27768750Y7875000I218750J0D01*
G01*
X28206250Y7875000D01*
G75*
G02*
X28425000Y7656250I0J-218750D01*
G01*
G37*
G36*
G01*
X26850000Y7656250D02*
X26850000Y7143750D01*
G75*
G02*
X26631250Y6925000I-218750J0D01*
G01*
X26193750Y6925000D01*
G75*
G02*
X25975000Y7143750I0J218750D01*
G01*
X25975000Y7656250D01*
G75*
G02*
X26193750Y7875000I218750J0D01*
G01*
X26631250Y7875000D01*
G75*
G02*
X26850000Y7656250I0J-218750D01*
G01*
G37*
G36*
G01*
X17725000Y8431250D02*
X17725000Y7918750D01*
G75*
G02*
X17506250Y7700000I-218750J0D01*
G01*
X17068750Y7700000D01*
G75*
G02*
X16850000Y7918750I0J218750D01*
G01*
X16850000Y8431250D01*
G75*
G02*
X17068750Y8650000I218750J0D01*
G01*
X17506250Y8650000D01*
G75*
G02*
X17725000Y8431250I0J-218750D01*
G01*
G37*
G36*
G01*
X16150000Y8431250D02*
X16150000Y7918750D01*
G75*
G02*
X15931250Y7700000I-218750J0D01*
G01*
X15493750Y7700000D01*
G75*
G02*
X15275000Y7918750I0J218750D01*
G01*
X15275000Y8431250D01*
G75*
G02*
X15493750Y8650000I218750J0D01*
G01*
X15931250Y8650000D01*
G75*
G02*
X16150000Y8431250I0J-218750D01*
G01*
G37*
D29*
X11100000Y51750000D03*
X11100000Y48450000D03*
D30*
X22800000Y8200000D03*
X22800000Y11000000D03*
X21900000Y17850000D03*
X19100000Y17850000D03*
D31*
X18825000Y10075000D03*
X18825000Y8175000D03*
X20825000Y9125000D03*
G36*
G01*
X17737000Y10331250D02*
X17737000Y9818750D01*
G75*
G02*
X17518250Y9600000I-218750J0D01*
G01*
X17080750Y9600000D01*
G75*
G02*
X16862000Y9818750I0J218750D01*
G01*
X16862000Y10331250D01*
G75*
G02*
X17080750Y10550000I218750J0D01*
G01*
X17518250Y10550000D01*
G75*
G02*
X17737000Y10331250I0J-218750D01*
G01*
G37*
G36*
G01*
X16162000Y10331250D02*
X16162000Y9818750D01*
G75*
G02*
X15943250Y9600000I-218750J0D01*
G01*
X15505750Y9600000D01*
G75*
G02*
X15287000Y9818750I0J218750D01*
G01*
X15287000Y10331250D01*
G75*
G02*
X15505750Y10550000I218750J0D01*
G01*
X15943250Y10550000D01*
G75*
G02*
X16162000Y10331250I0J-218750D01*
G01*
G37*
D32*
X22050000Y5000000D03*
X21100000Y5000000D03*
X20150000Y5000000D03*
X20150000Y2800000D03*
X22050000Y2800000D03*
G36*
G01*
X7625000Y46456250D02*
X7625000Y45943750D01*
G75*
G02*
X7406250Y45725000I-218750J0D01*
G01*
X6968750Y45725000D01*
G75*
G02*
X6750000Y45943750I0J218750D01*
G01*
X6750000Y46456250D01*
G75*
G02*
X6968750Y46675000I218750J0D01*
G01*
X7406250Y46675000D01*
G75*
G02*
X7625000Y46456250I0J-218750D01*
G01*
G37*
G36*
G01*
X6050000Y46456250D02*
X6050000Y45943750D01*
G75*
G02*
X5831250Y45725000I-218750J0D01*
G01*
X5393750Y45725000D01*
G75*
G02*
X5175000Y45943750I0J218750D01*
G01*
X5175000Y46456250D01*
G75*
G02*
X5393750Y46675000I218750J0D01*
G01*
X5831250Y46675000D01*
G75*
G02*
X6050000Y46456250I0J-218750D01*
G01*
G37*
D33*
X40800000Y12200000D03*
X31380000Y6500000D03*
X26550000Y6460000D03*
X21100000Y3870000D03*
X6810000Y18590000D03*
X6810000Y16290000D03*
X6810000Y13990000D03*
X20150000Y3870000D03*
X22050000Y3870000D03*
X25560000Y11320000D03*
X22910000Y25010000D03*
X21880000Y23410000D03*
X10710000Y45990000D03*
X64480000Y14440000D03*
X45750000Y37910000D03*
X60750000Y41420000D03*
X22630000Y22790000D03*
X21280000Y24010000D03*
X44470000Y37950000D03*
X44340000Y7350000D03*
X20620000Y14040000D03*
X12740000Y6920000D03*
X29234200Y32498300D03*
X28239100Y46194400D03*
X30656000Y45828000D03*
X31970000Y37558000D03*
X27878800Y17261100D03*
X12941300Y41412700D03*
X29141500Y16157300D03*
X52625900Y15323100D03*
X31200000Y10180000D03*
X31820000Y9580000D03*
X28103800Y22850000D03*
X30100000Y11400000D03*
X27567200Y22003600D03*
X24426100Y33155700D03*
X10730500Y43880400D03*
X24394900Y32200500D03*
X7180000Y43350000D03*
X24439100Y40349000D03*
X34515400Y42549900D03*
X40400000Y27100000D03*
X38083900Y42839400D03*
X25020000Y25560000D03*
X35290700Y42076600D03*
X24590000Y26460000D03*
X38366800Y38382800D03*
X24428600Y35440000D03*
X24410000Y36960000D03*
X33314100Y45815300D03*
X39705100Y25403100D03*
X37210000Y39820000D03*
X33915000Y46445000D03*
X39340000Y30010000D03*
X39820000Y41061400D03*
X29360000Y40970000D03*
X27566400Y25616500D03*
X36456500Y20152500D03*
X38480000Y40500000D03*
X31631200Y41060000D03*
X28373800Y24725700D03*
X36900500Y17097600D03*
X38491700Y39700000D03*
X27234700Y44309300D03*
X25052900Y24350000D03*
X38067200Y43886500D03*
X30222100Y43168700D03*
X27573300Y23850000D03*
X30657900Y44928800D03*
X28132700Y26900000D03*
X26082900Y19696100D03*
X27583200Y20350000D03*
X26653800Y19126700D03*
X40411700Y24772200D03*
X54071100Y41708900D03*
X55826100Y43463900D03*
X48700000Y16600000D03*
X40328300Y15503000D03*
X34060700Y19945500D03*
X40950600Y14979700D03*
X34006500Y17389300D03*
X39300000Y14200000D03*
X33991600Y16502700D03*
X34930000Y10200000D03*
X31526900Y20140000D03*
X45335300Y19799800D03*
X44640000Y29840000D03*
X28916800Y12444400D03*
X27806800Y15406900D03*
X38581400Y17150000D03*
X35990000Y17445300D03*
X41852600Y16109200D03*
X35189600Y19937000D03*
X33574000Y35386700D03*
X33645600Y36793500D03*
X36475800Y31255700D03*
X31572700Y35294100D03*
X34513100Y32766900D03*
X33960000Y7990000D03*
X30754800Y35253000D03*
X34324200Y35768500D03*
X33453900Y31936900D03*
X52781100Y7679500D03*
X34959600Y35252200D03*
X34474500Y31259500D03*
X52103100Y8346600D03*
X35491200Y31969100D03*
X31452600Y31450000D03*
X35713800Y32766900D03*
X31960100Y36577800D03*
X31960000Y20950000D03*
X30917200Y36088800D03*
X20459800Y36969400D03*
X18118500Y33563600D03*
X5120000Y38100000D03*
X4116100Y40316100D03*
X5074850Y35604850D03*
X3230000Y40330000D03*
X18200000Y6740000D03*
X2490000Y22285100D03*
X43516800Y25270000D03*
X10142500Y39381900D03*
X15994200Y36250000D03*
X6471700Y46992100D03*
X4880000Y37150000D03*
X8711500Y33349700D03*
M02*
