G04 #@! TF.GenerationSoftware,KiCad,Pcbnew,(5.1.6)-1*
G04 #@! TF.CreationDate,2020-08-08T21:35:18+09:00*
G04 #@! TF.ProjectId,Meno_V101,4d656e6f-5f56-4313-9031-2e6b69636164,rev?*
G04 #@! TF.SameCoordinates,PX6cf7820PY7a67730*
G04 #@! TF.FileFunction,Soldermask,Bot*
G04 #@! TF.FilePolarity,Negative*
%FSLAX46Y46*%
G04 Gerber Fmt 4.6, Leading zero omitted, Abs format (unit mm)*
G04 Created by KiCad (PCBNEW (5.1.6)-1) date 2020-08-08 21:35:18*
%MOMM*%
%LPD*%
G01*
G04 APERTURE LIST*
%ADD10R,1.700000X1.700000*%
%ADD11O,1.700000X1.700000*%
%ADD12C,2.600000*%
%ADD13R,2.600000X2.600000*%
%ADD14O,2.000000X1.000000*%
%ADD15O,2.100000X1.050000*%
%ADD16C,0.650000*%
%ADD17C,3.200000*%
%ADD18C,0.600000*%
G04 APERTURE END LIST*
D10*
X41615000Y50754700D03*
D11*
X39075000Y50754700D03*
X36535000Y50754700D03*
X33995000Y50754700D03*
X31455000Y50754700D03*
X28915000Y50754700D03*
X26375000Y50754700D03*
X23835000Y50754700D03*
X21295000Y50754700D03*
X18755000Y50754700D03*
D10*
X63459000Y50754700D03*
D11*
X60919000Y50754700D03*
X58379000Y50754700D03*
X55839000Y50754700D03*
X53299000Y50754700D03*
X50759000Y50754700D03*
X48219000Y50754700D03*
X45679000Y50754700D03*
D10*
X63459000Y48210000D03*
D11*
X60919000Y48210000D03*
X58379000Y48210000D03*
X55839000Y48210000D03*
X53299000Y48210000D03*
X50759000Y48210000D03*
X48219000Y48210000D03*
X45679000Y48210000D03*
X43139000Y48210000D03*
X40599000Y48210000D03*
X38059000Y48210000D03*
X35519000Y48210000D03*
X32979000Y48210000D03*
X30439000Y48210000D03*
X27899000Y48210000D03*
X25359000Y48210000D03*
X22819000Y48210000D03*
X20279000Y48210000D03*
X17739000Y48210000D03*
D10*
X56600000Y40000000D03*
D11*
X54060000Y40000000D03*
X56600000Y37460000D03*
X54060000Y37460000D03*
X56600000Y34920000D03*
X54060000Y34920000D03*
X56600000Y32380000D03*
X54060000Y32380000D03*
X56600000Y29840000D03*
X54060000Y29840000D03*
X56600000Y27300000D03*
X54060000Y27300000D03*
X56600000Y24760000D03*
X54060000Y24760000D03*
X56600000Y22220000D03*
X54060000Y22220000D03*
X56600000Y19680000D03*
X54060000Y19680000D03*
X56600000Y17140000D03*
X54060000Y17140000D03*
X56600000Y14600000D03*
X54060000Y14600000D03*
X56600000Y12060000D03*
X54060000Y12060000D03*
D10*
X63585000Y30474700D03*
D11*
X66125000Y30474700D03*
X63585000Y27934700D03*
X66125000Y27934700D03*
X63585000Y25394700D03*
X66125000Y25394700D03*
D10*
X63459000Y5080000D03*
D11*
X60919000Y5080000D03*
X58379000Y5080000D03*
X55839000Y5080000D03*
X53299000Y5080000D03*
X50759000Y5080000D03*
X48219000Y5080000D03*
X45679000Y5080000D03*
X43139000Y5080000D03*
X40599000Y5080000D03*
X38059000Y5080000D03*
X35519000Y5080000D03*
X32979000Y5080000D03*
X30439000Y5080000D03*
X27899000Y5080000D03*
D10*
X63459000Y2535000D03*
D11*
X60919000Y2535000D03*
X58379000Y2535000D03*
X55839000Y2535000D03*
X53299000Y2535000D03*
X50759000Y2535000D03*
X27899000Y2535000D03*
X30439000Y2535000D03*
X32979000Y2535000D03*
X35519000Y2535000D03*
X38059000Y2535000D03*
X40599000Y2535000D03*
X43139000Y2535000D03*
D10*
X45679000Y2535000D03*
D12*
X7460000Y2000000D03*
X4460000Y6700000D03*
D13*
X10460000Y6700000D03*
D14*
X1700000Y41170000D03*
X1700000Y32530000D03*
D15*
X5880000Y41170000D03*
X5880000Y32530000D03*
D16*
X5350000Y33960000D03*
X5350000Y39740000D03*
D17*
X15199210Y50754717D03*
X65998312Y35554717D03*
X65998312Y7615000D03*
X13929210Y2534717D03*
D18*
X40800000Y12200000D03*
X31380000Y6500000D03*
X26550000Y6460000D03*
X21100000Y3870000D03*
X6810000Y18590000D03*
X6810000Y16290000D03*
X6810000Y13990000D03*
X20150000Y3870000D03*
X22050000Y3870000D03*
X25560000Y11320000D03*
X22910000Y25010000D03*
X21880000Y23410000D03*
X10710000Y45990000D03*
X64480000Y14440000D03*
X45750000Y37910000D03*
X60750000Y41420000D03*
X22630000Y22790000D03*
X21280000Y24010000D03*
X44470000Y37950000D03*
X44340000Y7350000D03*
X20620000Y14040000D03*
X12740000Y6920000D03*
X29234200Y32498300D03*
X28239100Y46194400D03*
X30656000Y45828000D03*
X31970000Y37558000D03*
X27878800Y17261100D03*
X12941300Y41412700D03*
X29141500Y16157300D03*
X52625900Y15323100D03*
X31200000Y10180000D03*
X31820000Y9580000D03*
X28103800Y22850000D03*
X30100000Y11400000D03*
X27567200Y22003600D03*
X24426100Y33155700D03*
X10730500Y43880400D03*
X24394900Y32200500D03*
X7180000Y43350000D03*
X24439100Y40349000D03*
X34515400Y42549900D03*
X40400000Y27100000D03*
X38083900Y42839400D03*
X25020000Y25560000D03*
X35290700Y42076600D03*
X24590000Y26460000D03*
X38366800Y38382800D03*
X24428600Y35440000D03*
X24410000Y36960000D03*
X33314100Y45815300D03*
X39705100Y25403100D03*
X37210000Y39820000D03*
X33915000Y46445000D03*
X39340000Y30010000D03*
X39820000Y41061400D03*
X29360000Y40970000D03*
X27566400Y25616500D03*
X36456500Y20152500D03*
X38480000Y40500000D03*
X31631200Y41060000D03*
X28373800Y24725700D03*
X36900500Y17097600D03*
X38491700Y39700000D03*
X27234700Y44309300D03*
X25052900Y24350000D03*
X38067200Y43886500D03*
X30222100Y43168700D03*
X27573300Y23850000D03*
X30657900Y44928800D03*
X28132700Y26900000D03*
X26082900Y19696100D03*
X27583200Y20350000D03*
X26653800Y19126700D03*
X40411700Y24772200D03*
X54071100Y41708900D03*
X55826100Y43463900D03*
X48700000Y16600000D03*
X40328300Y15503000D03*
X34060700Y19945500D03*
X40950600Y14979700D03*
X34006500Y17389300D03*
X39300000Y14200000D03*
X33991600Y16502700D03*
X34930000Y10200000D03*
X31526900Y20140000D03*
X45335300Y19799800D03*
X44640000Y29840000D03*
X28916800Y12444400D03*
X27806800Y15406900D03*
X38581400Y17150000D03*
X35990000Y17445300D03*
X41852600Y16109200D03*
X35189600Y19937000D03*
X33574000Y35386700D03*
X33645600Y36793500D03*
X36475800Y31255700D03*
X31572700Y35294100D03*
X34513100Y32766900D03*
X33960000Y7990000D03*
X30754800Y35253000D03*
X34324200Y35768500D03*
X33453900Y31936900D03*
X52781100Y7679500D03*
X34959600Y35252200D03*
X34474500Y31259500D03*
X52103100Y8346600D03*
X35491200Y31969100D03*
X31452600Y31450000D03*
X35713800Y32766900D03*
X31960100Y36577800D03*
X31960000Y20950000D03*
X30917200Y36088800D03*
X20459800Y36969400D03*
X18118500Y33563600D03*
X5120000Y38100000D03*
X4116100Y40316100D03*
X5074850Y35604850D03*
X3230000Y40330000D03*
X18200000Y6740000D03*
X2490000Y22285100D03*
X43516800Y25270000D03*
X10142500Y39381900D03*
X15994200Y36250000D03*
X6471700Y46992100D03*
X4880000Y37150000D03*
X8711500Y33349700D03*
M02*
