G04 #@! TF.GenerationSoftware,KiCad,Pcbnew,(5.1.6)-1*
G04 #@! TF.CreationDate,2020-08-03T01:11:42+09:00*
G04 #@! TF.ProjectId,Meno_V101,4d656e6f-5f56-4313-9031-2e6b69636164,rev?*
G04 #@! TF.SameCoordinates,PX6cf7820PY7a67730*
G04 #@! TF.FileFunction,Legend,Top*
G04 #@! TF.FilePolarity,Positive*
%FSLAX46Y46*%
G04 Gerber Fmt 4.6, Leading zero omitted, Abs format (unit mm)*
G04 Created by KiCad (PCBNEW (5.1.6)-1) date 2020-08-03 01:11:42*
%MOMM*%
%LPD*%
G01*
G04 APERTURE LIST*
%ADD10C,0.150000*%
%ADD11C,0.500000*%
%ADD12C,0.120000*%
%ADD13C,0.200000*%
G04 APERTURE END LIST*
D10*
X68942857Y53847620D02*
X69276190Y52847620D01*
X69609523Y53847620D01*
X69942857Y53228572D02*
X70704761Y53228572D01*
X71752380Y52942858D02*
X71704761Y52895239D01*
X71561904Y52847620D01*
X71466666Y52847620D01*
X71323809Y52895239D01*
X71228571Y52990477D01*
X71180952Y53085715D01*
X71133333Y53276191D01*
X71133333Y53419048D01*
X71180952Y53609524D01*
X71228571Y53704762D01*
X71323809Y53800000D01*
X71466666Y53847620D01*
X71561904Y53847620D01*
X71704761Y53800000D01*
X71752380Y53752381D01*
X72180952Y53847620D02*
X72180952Y53038096D01*
X72228571Y52942858D01*
X72276190Y52895239D01*
X72371428Y52847620D01*
X72561904Y52847620D01*
X72657142Y52895239D01*
X72704761Y52942858D01*
X72752380Y53038096D01*
X72752380Y53847620D01*
X73085714Y53847620D02*
X73657142Y53847620D01*
X73371428Y52847620D02*
X73371428Y53847620D01*
X-1700000Y53300000D02*
X68400000Y53300000D01*
X11761904Y54947620D02*
X11761904Y55947620D01*
X12142857Y55947620D01*
X12238095Y55900000D01*
X12285714Y55852381D01*
X12333333Y55757143D01*
X12333333Y55614286D01*
X12285714Y55519048D01*
X12238095Y55471429D01*
X12142857Y55423810D01*
X11761904Y55423810D01*
X12761904Y54947620D02*
X12761904Y55614286D01*
X12761904Y55423810D02*
X12809523Y55519048D01*
X12857142Y55566667D01*
X12952380Y55614286D01*
X13047619Y55614286D01*
X13523809Y54947620D02*
X13428571Y54995239D01*
X13380952Y55042858D01*
X13333333Y55138096D01*
X13333333Y55423810D01*
X13380952Y55519048D01*
X13428571Y55566667D01*
X13523809Y55614286D01*
X13666666Y55614286D01*
X13761904Y55566667D01*
X13809523Y55519048D01*
X13857142Y55423810D01*
X13857142Y55138096D01*
X13809523Y55042858D01*
X13761904Y54995239D01*
X13666666Y54947620D01*
X13523809Y54947620D01*
X14714285Y54947620D02*
X14714285Y55947620D01*
X14714285Y54995239D02*
X14619047Y54947620D01*
X14428571Y54947620D01*
X14333333Y54995239D01*
X14285714Y55042858D01*
X14238095Y55138096D01*
X14238095Y55423810D01*
X14285714Y55519048D01*
X14333333Y55566667D01*
X14428571Y55614286D01*
X14619047Y55614286D01*
X14714285Y55566667D01*
X15619047Y55614286D02*
X15619047Y54947620D01*
X15190476Y55614286D02*
X15190476Y55090477D01*
X15238095Y54995239D01*
X15333333Y54947620D01*
X15476190Y54947620D01*
X15571428Y54995239D01*
X15619047Y55042858D01*
X16523809Y54995239D02*
X16428571Y54947620D01*
X16238095Y54947620D01*
X16142857Y54995239D01*
X16095238Y55042858D01*
X16047619Y55138096D01*
X16047619Y55423810D01*
X16095238Y55519048D01*
X16142857Y55566667D01*
X16238095Y55614286D01*
X16428571Y55614286D01*
X16523809Y55566667D01*
X16809523Y55614286D02*
X17190476Y55614286D01*
X16952380Y55947620D02*
X16952380Y55090477D01*
X17000000Y54995239D01*
X17095238Y54947620D01*
X17190476Y54947620D01*
X17523809Y54947620D02*
X17523809Y55614286D01*
X17523809Y55947620D02*
X17476190Y55900000D01*
X17523809Y55852381D01*
X17571428Y55900000D01*
X17523809Y55947620D01*
X17523809Y55852381D01*
X18142857Y54947620D02*
X18047619Y54995239D01*
X18000000Y55042858D01*
X17952380Y55138096D01*
X17952380Y55423810D01*
X18000000Y55519048D01*
X18047619Y55566667D01*
X18142857Y55614286D01*
X18285714Y55614286D01*
X18380952Y55566667D01*
X18428571Y55519048D01*
X18476190Y55423810D01*
X18476190Y55138096D01*
X18428571Y55042858D01*
X18380952Y54995239D01*
X18285714Y54947620D01*
X18142857Y54947620D01*
X18904761Y55614286D02*
X18904761Y54947620D01*
X18904761Y55519048D02*
X18952380Y55566667D01*
X19047619Y55614286D01*
X19190476Y55614286D01*
X19285714Y55566667D01*
X19333333Y55471429D01*
X19333333Y54947620D01*
X21142857Y55042858D02*
X21095238Y54995239D01*
X20952380Y54947620D01*
X20857142Y54947620D01*
X20714285Y54995239D01*
X20619047Y55090477D01*
X20571428Y55185715D01*
X20523809Y55376191D01*
X20523809Y55519048D01*
X20571428Y55709524D01*
X20619047Y55804762D01*
X20714285Y55900000D01*
X20857142Y55947620D01*
X20952380Y55947620D01*
X21095238Y55900000D01*
X21142857Y55852381D01*
X21714285Y54947620D02*
X21619047Y54995239D01*
X21571428Y55042858D01*
X21523809Y55138096D01*
X21523809Y55423810D01*
X21571428Y55519048D01*
X21619047Y55566667D01*
X21714285Y55614286D01*
X21857142Y55614286D01*
X21952380Y55566667D01*
X22000000Y55519048D01*
X22047619Y55423810D01*
X22047619Y55138096D01*
X22000000Y55042858D01*
X21952380Y54995239D01*
X21857142Y54947620D01*
X21714285Y54947620D01*
X22904761Y54947620D02*
X22904761Y55947620D01*
X22904761Y54995239D02*
X22809523Y54947620D01*
X22619047Y54947620D01*
X22523809Y54995239D01*
X22476190Y55042858D01*
X22428571Y55138096D01*
X22428571Y55423810D01*
X22476190Y55519048D01*
X22523809Y55566667D01*
X22619047Y55614286D01*
X22809523Y55614286D01*
X22904761Y55566667D01*
X23761904Y54995239D02*
X23666666Y54947620D01*
X23476190Y54947620D01*
X23380952Y54995239D01*
X23333333Y55090477D01*
X23333333Y55471429D01*
X23380952Y55566667D01*
X23476190Y55614286D01*
X23666666Y55614286D01*
X23761904Y55566667D01*
X23809523Y55471429D01*
X23809523Y55376191D01*
X23333333Y55280953D01*
X24238095Y55042858D02*
X24285714Y54995239D01*
X24238095Y54947620D01*
X24190476Y54995239D01*
X24238095Y55042858D01*
X24238095Y54947620D01*
X24238095Y55566667D02*
X24285714Y55519048D01*
X24238095Y55471429D01*
X24190476Y55519048D01*
X24238095Y55566667D01*
X24238095Y55471429D01*
X40337095Y1150000D02*
X40241857Y1197620D01*
X40099000Y1197620D01*
X39956142Y1150000D01*
X39860904Y1054762D01*
X39813285Y959524D01*
X39765666Y769048D01*
X39765666Y626191D01*
X39813285Y435715D01*
X39860904Y340477D01*
X39956142Y245239D01*
X40099000Y197620D01*
X40194238Y197620D01*
X40337095Y245239D01*
X40384714Y292858D01*
X40384714Y626191D01*
X40194238Y626191D01*
X40813285Y197620D02*
X40813285Y1197620D01*
X41384714Y197620D01*
X41384714Y1197620D01*
X29915190Y197620D02*
X29915190Y1197620D01*
X30581857Y1197620D02*
X30772333Y1197620D01*
X30867571Y1150000D01*
X30962809Y1054762D01*
X31010428Y864286D01*
X31010428Y530953D01*
X30962809Y340477D01*
X30867571Y245239D01*
X30772333Y197620D01*
X30581857Y197620D01*
X30486619Y245239D01*
X30391380Y340477D01*
X30343761Y530953D01*
X30343761Y864286D01*
X30391380Y1054762D01*
X30486619Y1150000D01*
X30581857Y1197620D01*
X32812333Y197620D02*
X32479000Y673810D01*
X32240904Y197620D02*
X32240904Y1197620D01*
X32621857Y1197620D01*
X32717095Y1150000D01*
X32764714Y1102381D01*
X32812333Y1007143D01*
X32812333Y864286D01*
X32764714Y769048D01*
X32717095Y721429D01*
X32621857Y673810D01*
X32240904Y673810D01*
X33193285Y245239D02*
X33336142Y197620D01*
X33574238Y197620D01*
X33669476Y245239D01*
X33717095Y292858D01*
X33764714Y388096D01*
X33764714Y483334D01*
X33717095Y578572D01*
X33669476Y626191D01*
X33574238Y673810D01*
X33383761Y721429D01*
X33288523Y769048D01*
X33240904Y816667D01*
X33193285Y911905D01*
X33193285Y1007143D01*
X33240904Y1102381D01*
X33288523Y1150000D01*
X33383761Y1197620D01*
X33621857Y1197620D01*
X33764714Y1150000D01*
X34757095Y1197620D02*
X35376142Y1197620D01*
X35042809Y816667D01*
X35185666Y816667D01*
X35280904Y769048D01*
X35328523Y721429D01*
X35376142Y626191D01*
X35376142Y388096D01*
X35328523Y292858D01*
X35280904Y245239D01*
X35185666Y197620D01*
X34899952Y197620D01*
X34804714Y245239D01*
X34757095Y292858D01*
X35661857Y1197620D02*
X35995190Y197620D01*
X36328523Y1197620D01*
X37868523Y1197620D02*
X37392333Y1197620D01*
X37344714Y721429D01*
X37392333Y769048D01*
X37487571Y816667D01*
X37725666Y816667D01*
X37820904Y769048D01*
X37868523Y721429D01*
X37916142Y626191D01*
X37916142Y388096D01*
X37868523Y292858D01*
X37820904Y245239D01*
X37725666Y197620D01*
X37487571Y197620D01*
X37392333Y245239D01*
X37344714Y292858D01*
X38201857Y1197620D02*
X38535190Y197620D01*
X38868523Y1197620D01*
X42877095Y1150000D02*
X42781857Y1197620D01*
X42639000Y1197620D01*
X42496142Y1150000D01*
X42400904Y1054762D01*
X42353285Y959524D01*
X42305666Y769048D01*
X42305666Y626191D01*
X42353285Y435715D01*
X42400904Y340477D01*
X42496142Y245239D01*
X42639000Y197620D01*
X42734238Y197620D01*
X42877095Y245239D01*
X42924714Y292858D01*
X42924714Y626191D01*
X42734238Y626191D01*
X43353285Y197620D02*
X43353285Y1197620D01*
X43924714Y197620D01*
X43924714Y1197620D01*
X45107571Y1197620D02*
X45440904Y197620D01*
X45774238Y1197620D01*
X46107571Y197620D02*
X46107571Y864286D01*
X46107571Y1197620D02*
X46059952Y1150000D01*
X46107571Y1102381D01*
X46155190Y1150000D01*
X46107571Y1197620D01*
X46107571Y1102381D01*
X50711380Y1197620D02*
X50806619Y1197620D01*
X50901857Y1150000D01*
X50949476Y1102381D01*
X50997095Y1007143D01*
X51044714Y816667D01*
X51044714Y578572D01*
X50997095Y388096D01*
X50949476Y292858D01*
X50901857Y245239D01*
X50806619Y197620D01*
X50711380Y197620D01*
X50616142Y245239D01*
X50568523Y292858D01*
X50520904Y388096D01*
X50473285Y578572D01*
X50473285Y816667D01*
X50520904Y1007143D01*
X50568523Y1102381D01*
X50616142Y1150000D01*
X50711380Y1197620D01*
X53584714Y197620D02*
X53013285Y197620D01*
X53299000Y197620D02*
X53299000Y1197620D01*
X53203761Y1054762D01*
X53108523Y959524D01*
X53013285Y911905D01*
X55553285Y1102381D02*
X55600904Y1150000D01*
X55696142Y1197620D01*
X55934238Y1197620D01*
X56029476Y1150000D01*
X56077095Y1102381D01*
X56124714Y1007143D01*
X56124714Y911905D01*
X56077095Y769048D01*
X55505666Y197620D01*
X56124714Y197620D01*
X58045666Y1197620D02*
X58664714Y1197620D01*
X58331380Y816667D01*
X58474238Y816667D01*
X58569476Y769048D01*
X58617095Y721429D01*
X58664714Y626191D01*
X58664714Y388096D01*
X58617095Y292858D01*
X58569476Y245239D01*
X58474238Y197620D01*
X58188523Y197620D01*
X58093285Y245239D01*
X58045666Y292858D01*
X61109476Y864286D02*
X61109476Y197620D01*
X60871380Y1245239D02*
X60633285Y530953D01*
X61252333Y530953D01*
X63697095Y1197620D02*
X63220904Y1197620D01*
X63173285Y721429D01*
X63220904Y769048D01*
X63316142Y816667D01*
X63554238Y816667D01*
X63649476Y769048D01*
X63697095Y721429D01*
X63744714Y626191D01*
X63744714Y388096D01*
X63697095Y292858D01*
X63649476Y245239D01*
X63554238Y197620D01*
X63316142Y197620D01*
X63220904Y245239D01*
X63173285Y292858D01*
X17969285Y52145239D02*
X18112142Y52097620D01*
X18350238Y52097620D01*
X18445476Y52145239D01*
X18493095Y52192858D01*
X18540714Y52288096D01*
X18540714Y52383334D01*
X18493095Y52478572D01*
X18445476Y52526191D01*
X18350238Y52573810D01*
X18159761Y52621429D01*
X18064523Y52669048D01*
X18016904Y52716667D01*
X17969285Y52811905D01*
X17969285Y52907143D01*
X18016904Y53002381D01*
X18064523Y53050000D01*
X18159761Y53097620D01*
X18397857Y53097620D01*
X18540714Y53050000D01*
X19540714Y52192858D02*
X19493095Y52145239D01*
X19350238Y52097620D01*
X19255000Y52097620D01*
X19112142Y52145239D01*
X19016904Y52240477D01*
X18969285Y52335715D01*
X18921666Y52526191D01*
X18921666Y52669048D01*
X18969285Y52859524D01*
X19016904Y52954762D01*
X19112142Y53050000D01*
X19255000Y53097620D01*
X19350238Y53097620D01*
X19493095Y53050000D01*
X19540714Y53002381D01*
X20509285Y52145239D02*
X20652142Y52097620D01*
X20890238Y52097620D01*
X20985476Y52145239D01*
X21033095Y52192858D01*
X21080714Y52288096D01*
X21080714Y52383334D01*
X21033095Y52478572D01*
X20985476Y52526191D01*
X20890238Y52573810D01*
X20699761Y52621429D01*
X20604523Y52669048D01*
X20556904Y52716667D01*
X20509285Y52811905D01*
X20509285Y52907143D01*
X20556904Y53002381D01*
X20604523Y53050000D01*
X20699761Y53097620D01*
X20937857Y53097620D01*
X21080714Y53050000D01*
X21509285Y52097620D02*
X21509285Y53097620D01*
X21747380Y53097620D01*
X21890238Y53050000D01*
X21985476Y52954762D01*
X22033095Y52859524D01*
X22080714Y52669048D01*
X22080714Y52526191D01*
X22033095Y52335715D01*
X21985476Y52240477D01*
X21890238Y52145239D01*
X21747380Y52097620D01*
X21509285Y52097620D01*
X23096904Y52383334D02*
X23573095Y52383334D01*
X23001666Y52097620D02*
X23335000Y53097620D01*
X23668333Y52097620D01*
X24573095Y52097620D02*
X24239761Y52573810D01*
X24001666Y52097620D02*
X24001666Y53097620D01*
X24382619Y53097620D01*
X24477857Y53050000D01*
X24525476Y53002381D01*
X24573095Y52907143D01*
X24573095Y52764286D01*
X24525476Y52669048D01*
X24477857Y52621429D01*
X24382619Y52573810D01*
X24001666Y52573810D01*
X26113095Y53050000D02*
X26017857Y53097620D01*
X25875000Y53097620D01*
X25732142Y53050000D01*
X25636904Y52954762D01*
X25589285Y52859524D01*
X25541666Y52669048D01*
X25541666Y52526191D01*
X25589285Y52335715D01*
X25636904Y52240477D01*
X25732142Y52145239D01*
X25875000Y52097620D01*
X25970238Y52097620D01*
X26113095Y52145239D01*
X26160714Y52192858D01*
X26160714Y52526191D01*
X25970238Y52526191D01*
X26589285Y52097620D02*
X26589285Y53097620D01*
X27160714Y52097620D01*
X27160714Y53097620D01*
X28724523Y52097620D02*
X28153095Y52097620D01*
X28438809Y52097620D02*
X28438809Y53097620D01*
X28343571Y52954762D01*
X28248333Y52859524D01*
X28153095Y52811905D01*
X29057857Y53097620D02*
X29676904Y53097620D01*
X29343571Y52716667D01*
X29486428Y52716667D01*
X29581666Y52669048D01*
X29629285Y52621429D01*
X29676904Y52526191D01*
X29676904Y52288096D01*
X29629285Y52192858D01*
X29581666Y52145239D01*
X29486428Y52097620D01*
X29200714Y52097620D01*
X29105476Y52145239D01*
X29057857Y52192858D01*
X31264523Y52097620D02*
X30693095Y52097620D01*
X30978809Y52097620D02*
X30978809Y53097620D01*
X30883571Y52954762D01*
X30788333Y52859524D01*
X30693095Y52811905D01*
X31645476Y53002381D02*
X31693095Y53050000D01*
X31788333Y53097620D01*
X32026428Y53097620D01*
X32121666Y53050000D01*
X32169285Y53002381D01*
X32216904Y52907143D01*
X32216904Y52811905D01*
X32169285Y52669048D01*
X31597857Y52097620D01*
X32216904Y52097620D01*
X33804523Y52097620D02*
X33233095Y52097620D01*
X33518809Y52097620D02*
X33518809Y53097620D01*
X33423571Y52954762D01*
X33328333Y52859524D01*
X33233095Y52811905D01*
X34756904Y52097620D02*
X34185476Y52097620D01*
X34471190Y52097620D02*
X34471190Y53097620D01*
X34375952Y52954762D01*
X34280714Y52859524D01*
X34185476Y52811905D01*
X36363571Y52142858D02*
X35849285Y52142858D01*
X36106428Y52142858D02*
X36106428Y53042858D01*
X36020714Y52914286D01*
X35935000Y52828572D01*
X35849285Y52785715D01*
X36920714Y53042858D02*
X37006428Y53042858D01*
X37092142Y53000000D01*
X37135000Y52957143D01*
X37177857Y52871429D01*
X37220714Y52700000D01*
X37220714Y52485715D01*
X37177857Y52314286D01*
X37135000Y52228572D01*
X37092142Y52185715D01*
X37006428Y52142858D01*
X36920714Y52142858D01*
X36835000Y52185715D01*
X36792142Y52228572D01*
X36749285Y52314286D01*
X36706428Y52485715D01*
X36706428Y52700000D01*
X36749285Y52871429D01*
X36792142Y52957143D01*
X36835000Y53000000D01*
X36920714Y53042858D01*
X38884523Y52097620D02*
X39075000Y52097620D01*
X39170238Y52145239D01*
X39217857Y52192858D01*
X39313095Y52335715D01*
X39360714Y52526191D01*
X39360714Y52907143D01*
X39313095Y53002381D01*
X39265476Y53050000D01*
X39170238Y53097620D01*
X38979761Y53097620D01*
X38884523Y53050000D01*
X38836904Y53002381D01*
X38789285Y52907143D01*
X38789285Y52669048D01*
X38836904Y52573810D01*
X38884523Y52526191D01*
X38979761Y52478572D01*
X39170238Y52478572D01*
X39265476Y52526191D01*
X39313095Y52573810D01*
X39360714Y52669048D01*
X41519761Y52669048D02*
X41424523Y52716667D01*
X41376904Y52764286D01*
X41329285Y52859524D01*
X41329285Y52907143D01*
X41376904Y53002381D01*
X41424523Y53050000D01*
X41519761Y53097620D01*
X41710238Y53097620D01*
X41805476Y53050000D01*
X41853095Y53002381D01*
X41900714Y52907143D01*
X41900714Y52859524D01*
X41853095Y52764286D01*
X41805476Y52716667D01*
X41710238Y52669048D01*
X41519761Y52669048D01*
X41424523Y52621429D01*
X41376904Y52573810D01*
X41329285Y52478572D01*
X41329285Y52288096D01*
X41376904Y52192858D01*
X41424523Y52145239D01*
X41519761Y52097620D01*
X41710238Y52097620D01*
X41805476Y52145239D01*
X41853095Y52192858D01*
X41900714Y52288096D01*
X41900714Y52478572D01*
X41853095Y52573810D01*
X41805476Y52621429D01*
X41710238Y52669048D01*
X45345666Y53097620D02*
X46012333Y53097620D01*
X45583761Y52097620D01*
X48409476Y53097620D02*
X48219000Y53097620D01*
X48123761Y53050000D01*
X48076142Y53002381D01*
X47980904Y52859524D01*
X47933285Y52669048D01*
X47933285Y52288096D01*
X47980904Y52192858D01*
X48028523Y52145239D01*
X48123761Y52097620D01*
X48314238Y52097620D01*
X48409476Y52145239D01*
X48457095Y52192858D01*
X48504714Y52288096D01*
X48504714Y52526191D01*
X48457095Y52621429D01*
X48409476Y52669048D01*
X48314238Y52716667D01*
X48123761Y52716667D01*
X48028523Y52669048D01*
X47980904Y52621429D01*
X47933285Y52526191D01*
X50997095Y53097620D02*
X50520904Y53097620D01*
X50473285Y52621429D01*
X50520904Y52669048D01*
X50616142Y52716667D01*
X50854238Y52716667D01*
X50949476Y52669048D01*
X50997095Y52621429D01*
X51044714Y52526191D01*
X51044714Y52288096D01*
X50997095Y52192858D01*
X50949476Y52145239D01*
X50854238Y52097620D01*
X50616142Y52097620D01*
X50520904Y52145239D01*
X50473285Y52192858D01*
X53489476Y52764286D02*
X53489476Y52097620D01*
X53251380Y53145239D02*
X53013285Y52430953D01*
X53632333Y52430953D01*
X55505666Y53097620D02*
X56124714Y53097620D01*
X55791380Y52716667D01*
X55934238Y52716667D01*
X56029476Y52669048D01*
X56077095Y52621429D01*
X56124714Y52526191D01*
X56124714Y52288096D01*
X56077095Y52192858D01*
X56029476Y52145239D01*
X55934238Y52097620D01*
X55648523Y52097620D01*
X55553285Y52145239D01*
X55505666Y52192858D01*
X58093285Y53002381D02*
X58140904Y53050000D01*
X58236142Y53097620D01*
X58474238Y53097620D01*
X58569476Y53050000D01*
X58617095Y53002381D01*
X58664714Y52907143D01*
X58664714Y52811905D01*
X58617095Y52669048D01*
X58045666Y52097620D01*
X58664714Y52097620D01*
X61204714Y52097620D02*
X60633285Y52097620D01*
X60919000Y52097620D02*
X60919000Y53097620D01*
X60823761Y52954762D01*
X60728523Y52859524D01*
X60633285Y52811905D01*
X63411380Y53097620D02*
X63506619Y53097620D01*
X63601857Y53050000D01*
X63649476Y53002381D01*
X63697095Y52907143D01*
X63744714Y52716667D01*
X63744714Y52478572D01*
X63697095Y52288096D01*
X63649476Y52192858D01*
X63601857Y52145239D01*
X63506619Y52097620D01*
X63411380Y52097620D01*
X63316142Y52145239D01*
X63268523Y52192858D01*
X63220904Y52288096D01*
X63173285Y52478572D01*
X63173285Y52716667D01*
X63220904Y52907143D01*
X63268523Y53002381D01*
X63316142Y53050000D01*
X63411380Y53097620D01*
X58544047Y25006429D02*
X59365476Y25006429D01*
X58872619Y25499286D02*
X58544047Y24020715D01*
X59255952Y24513572D02*
X58434523Y24513572D01*
X58927380Y24020715D02*
X59255952Y25499286D01*
X49234047Y22466429D02*
X50055476Y22466429D01*
X49562619Y22959286D02*
X49234047Y21480715D01*
X49945952Y21973572D02*
X49124523Y21973572D01*
X49617380Y21480715D02*
X49945952Y22959286D01*
X42390952Y42017620D02*
X42581428Y42017620D01*
X42676666Y41970000D01*
X42771904Y41874762D01*
X42819523Y41684286D01*
X42819523Y41350953D01*
X42771904Y41160477D01*
X42676666Y41065239D01*
X42581428Y41017620D01*
X42390952Y41017620D01*
X42295714Y41065239D01*
X42200476Y41160477D01*
X42152857Y41350953D01*
X42152857Y41684286D01*
X42200476Y41874762D01*
X42295714Y41970000D01*
X42390952Y42017620D01*
X43248095Y41017620D02*
X43248095Y42017620D01*
X43819523Y41017620D01*
X43819523Y42017620D01*
X15713333Y29507620D02*
X15380000Y29983810D01*
X15141904Y29507620D02*
X15141904Y30507620D01*
X15522857Y30507620D01*
X15618095Y30460000D01*
X15665714Y30412381D01*
X15713333Y30317143D01*
X15713333Y30174286D01*
X15665714Y30079048D01*
X15618095Y30031429D01*
X15522857Y29983810D01*
X15141904Y29983810D01*
X16046666Y30507620D02*
X16713333Y29507620D01*
X16713333Y30507620D02*
X16046666Y29507620D01*
X15118095Y32907620D02*
X15689523Y32907620D01*
X15403809Y31907620D02*
X15403809Y32907620D01*
X15927619Y32907620D02*
X16594285Y31907620D01*
X16594285Y32907620D02*
X15927619Y31907620D01*
X16329523Y41547620D02*
X15853333Y41547620D01*
X15853333Y42547620D01*
X49234047Y25006429D02*
X50055476Y25006429D01*
X49562619Y25499286D02*
X49234047Y24020715D01*
X49945952Y24513572D02*
X49124523Y24513572D01*
X49617380Y24020715D02*
X49945952Y25499286D01*
X51020952Y40629762D02*
X50473333Y40629762D01*
X50418571Y40082143D01*
X50473333Y40136905D01*
X50582857Y40191667D01*
X50856666Y40191667D01*
X50966190Y40136905D01*
X51020952Y40082143D01*
X51075714Y39972620D01*
X51075714Y39698810D01*
X51020952Y39589286D01*
X50966190Y39534524D01*
X50856666Y39479762D01*
X50582857Y39479762D01*
X50473333Y39534524D01*
X50418571Y39589286D01*
X51404285Y40629762D02*
X51787619Y39479762D01*
X52170952Y40629762D01*
X18259448Y44880953D02*
X18259448Y44223810D01*
X18259448Y44552381D02*
X17109448Y44552381D01*
X17273733Y44442858D01*
X17383257Y44333334D01*
X17438019Y44223810D01*
X17492781Y45866667D02*
X18259448Y45866667D01*
X17054686Y45592858D02*
X17876114Y45319048D01*
X17876114Y46030953D01*
X20799448Y44880953D02*
X20799448Y44223810D01*
X20799448Y44552381D02*
X19649448Y44552381D01*
X19813733Y44442858D01*
X19923257Y44333334D01*
X19978019Y44223810D01*
X19649448Y45921429D02*
X19649448Y45373810D01*
X20197067Y45319048D01*
X20142305Y45373810D01*
X20087543Y45483334D01*
X20087543Y45757143D01*
X20142305Y45866667D01*
X20197067Y45921429D01*
X20306590Y45976191D01*
X20580400Y45976191D01*
X20689924Y45921429D01*
X20744686Y45866667D01*
X20799448Y45757143D01*
X20799448Y45483334D01*
X20744686Y45373810D01*
X20689924Y45319048D01*
X23339448Y44880953D02*
X23339448Y44223810D01*
X23339448Y44552381D02*
X22189448Y44552381D01*
X22353733Y44442858D01*
X22463257Y44333334D01*
X22518019Y44223810D01*
X22189448Y45866667D02*
X22189448Y45647620D01*
X22244210Y45538096D01*
X22298971Y45483334D01*
X22463257Y45373810D01*
X22682305Y45319048D01*
X23120400Y45319048D01*
X23229924Y45373810D01*
X23284686Y45428572D01*
X23339448Y45538096D01*
X23339448Y45757143D01*
X23284686Y45866667D01*
X23229924Y45921429D01*
X23120400Y45976191D01*
X22846590Y45976191D01*
X22737067Y45921429D01*
X22682305Y45866667D01*
X22627543Y45757143D01*
X22627543Y45538096D01*
X22682305Y45428572D01*
X22737067Y45373810D01*
X22846590Y45319048D01*
X25879448Y44880953D02*
X25879448Y44223810D01*
X25879448Y44552381D02*
X24729448Y44552381D01*
X24893733Y44442858D01*
X25003257Y44333334D01*
X25058019Y44223810D01*
X24729448Y45264286D02*
X24729448Y46030953D01*
X25879448Y45538096D01*
X28419448Y44880953D02*
X28419448Y44223810D01*
X28419448Y44552381D02*
X27269448Y44552381D01*
X27433733Y44442858D01*
X27543257Y44333334D01*
X27598019Y44223810D01*
X27762305Y45538096D02*
X27707543Y45428572D01*
X27652781Y45373810D01*
X27543257Y45319048D01*
X27488495Y45319048D01*
X27378971Y45373810D01*
X27324210Y45428572D01*
X27269448Y45538096D01*
X27269448Y45757143D01*
X27324210Y45866667D01*
X27378971Y45921429D01*
X27488495Y45976191D01*
X27543257Y45976191D01*
X27652781Y45921429D01*
X27707543Y45866667D01*
X27762305Y45757143D01*
X27762305Y45538096D01*
X27817067Y45428572D01*
X27871829Y45373810D01*
X27981352Y45319048D01*
X28200400Y45319048D01*
X28309924Y45373810D01*
X28364686Y45428572D01*
X28419448Y45538096D01*
X28419448Y45757143D01*
X28364686Y45866667D01*
X28309924Y45921429D01*
X28200400Y45976191D01*
X27981352Y45976191D01*
X27871829Y45921429D01*
X27817067Y45866667D01*
X27762305Y45757143D01*
X30959448Y44880953D02*
X30959448Y44223810D01*
X30959448Y44552381D02*
X29809448Y44552381D01*
X29973733Y44442858D01*
X30083257Y44333334D01*
X30138019Y44223810D01*
X30959448Y45428572D02*
X30959448Y45647620D01*
X30904686Y45757143D01*
X30849924Y45811905D01*
X30685638Y45921429D01*
X30466590Y45976191D01*
X30028495Y45976191D01*
X29918971Y45921429D01*
X29864210Y45866667D01*
X29809448Y45757143D01*
X29809448Y45538096D01*
X29864210Y45428572D01*
X29918971Y45373810D01*
X30028495Y45319048D01*
X30302305Y45319048D01*
X30411829Y45373810D01*
X30466590Y45428572D01*
X30521352Y45538096D01*
X30521352Y45757143D01*
X30466590Y45866667D01*
X30411829Y45921429D01*
X30302305Y45976191D01*
X32458971Y44223810D02*
X32404210Y44278572D01*
X32349448Y44388096D01*
X32349448Y44661905D01*
X32404210Y44771429D01*
X32458971Y44826191D01*
X32568495Y44880953D01*
X32678019Y44880953D01*
X32842305Y44826191D01*
X33499448Y44169048D01*
X33499448Y44880953D01*
X32349448Y45592858D02*
X32349448Y45702381D01*
X32404210Y45811905D01*
X32458971Y45866667D01*
X32568495Y45921429D01*
X32787543Y45976191D01*
X33061352Y45976191D01*
X33280400Y45921429D01*
X33389924Y45866667D01*
X33444686Y45811905D01*
X33499448Y45702381D01*
X33499448Y45592858D01*
X33444686Y45483334D01*
X33389924Y45428572D01*
X33280400Y45373810D01*
X33061352Y45319048D01*
X32787543Y45319048D01*
X32568495Y45373810D01*
X32458971Y45428572D01*
X32404210Y45483334D01*
X32349448Y45592858D01*
X34998971Y44223810D02*
X34944210Y44278572D01*
X34889448Y44388096D01*
X34889448Y44661905D01*
X34944210Y44771429D01*
X34998971Y44826191D01*
X35108495Y44880953D01*
X35218019Y44880953D01*
X35382305Y44826191D01*
X36039448Y44169048D01*
X36039448Y44880953D01*
X36039448Y45976191D02*
X36039448Y45319048D01*
X36039448Y45647620D02*
X34889448Y45647620D01*
X35053733Y45538096D01*
X35163257Y45428572D01*
X35218019Y45319048D01*
X37538971Y44223810D02*
X37484210Y44278572D01*
X37429448Y44388096D01*
X37429448Y44661905D01*
X37484210Y44771429D01*
X37538971Y44826191D01*
X37648495Y44880953D01*
X37758019Y44880953D01*
X37922305Y44826191D01*
X38579448Y44169048D01*
X38579448Y44880953D01*
X37538971Y45319048D02*
X37484210Y45373810D01*
X37429448Y45483334D01*
X37429448Y45757143D01*
X37484210Y45866667D01*
X37538971Y45921429D01*
X37648495Y45976191D01*
X37758019Y45976191D01*
X37922305Y45921429D01*
X38579448Y45264286D01*
X38579448Y45976191D01*
X40078971Y44223810D02*
X40024210Y44278572D01*
X39969448Y44388096D01*
X39969448Y44661905D01*
X40024210Y44771429D01*
X40078971Y44826191D01*
X40188495Y44880953D01*
X40298019Y44880953D01*
X40462305Y44826191D01*
X41119448Y44169048D01*
X41119448Y44880953D01*
X39969448Y45264286D02*
X39969448Y45976191D01*
X40407543Y45592858D01*
X40407543Y45757143D01*
X40462305Y45866667D01*
X40517067Y45921429D01*
X40626590Y45976191D01*
X40900400Y45976191D01*
X41009924Y45921429D01*
X41064686Y45866667D01*
X41119448Y45757143D01*
X41119448Y45428572D01*
X41064686Y45319048D01*
X41009924Y45264286D01*
X42618971Y44223810D02*
X42564210Y44278572D01*
X42509448Y44388096D01*
X42509448Y44661905D01*
X42564210Y44771429D01*
X42618971Y44826191D01*
X42728495Y44880953D01*
X42838019Y44880953D01*
X43002305Y44826191D01*
X43659448Y44169048D01*
X43659448Y44880953D01*
X42892781Y45866667D02*
X43659448Y45866667D01*
X42454686Y45592858D02*
X43276114Y45319048D01*
X43276114Y46030953D01*
X45158971Y44223810D02*
X45104210Y44278572D01*
X45049448Y44388096D01*
X45049448Y44661905D01*
X45104210Y44771429D01*
X45158971Y44826191D01*
X45268495Y44880953D01*
X45378019Y44880953D01*
X45542305Y44826191D01*
X46199448Y44169048D01*
X46199448Y44880953D01*
X45049448Y45921429D02*
X45049448Y45373810D01*
X45597067Y45319048D01*
X45542305Y45373810D01*
X45487543Y45483334D01*
X45487543Y45757143D01*
X45542305Y45866667D01*
X45597067Y45921429D01*
X45706590Y45976191D01*
X45980400Y45976191D01*
X46089924Y45921429D01*
X46144686Y45866667D01*
X46199448Y45757143D01*
X46199448Y45483334D01*
X46144686Y45373810D01*
X46089924Y45319048D01*
X47698971Y44223810D02*
X47644210Y44278572D01*
X47589448Y44388096D01*
X47589448Y44661905D01*
X47644210Y44771429D01*
X47698971Y44826191D01*
X47808495Y44880953D01*
X47918019Y44880953D01*
X48082305Y44826191D01*
X48739448Y44169048D01*
X48739448Y44880953D01*
X47589448Y45866667D02*
X47589448Y45647620D01*
X47644210Y45538096D01*
X47698971Y45483334D01*
X47863257Y45373810D01*
X48082305Y45319048D01*
X48520400Y45319048D01*
X48629924Y45373810D01*
X48684686Y45428572D01*
X48739448Y45538096D01*
X48739448Y45757143D01*
X48684686Y45866667D01*
X48629924Y45921429D01*
X48520400Y45976191D01*
X48246590Y45976191D01*
X48137067Y45921429D01*
X48082305Y45866667D01*
X48027543Y45757143D01*
X48027543Y45538096D01*
X48082305Y45428572D01*
X48137067Y45373810D01*
X48246590Y45319048D01*
X50238971Y44223810D02*
X50184210Y44278572D01*
X50129448Y44388096D01*
X50129448Y44661905D01*
X50184210Y44771429D01*
X50238971Y44826191D01*
X50348495Y44880953D01*
X50458019Y44880953D01*
X50622305Y44826191D01*
X51279448Y44169048D01*
X51279448Y44880953D01*
X50129448Y45264286D02*
X50129448Y46030953D01*
X51279448Y45538096D01*
X52778971Y44223810D02*
X52724210Y44278572D01*
X52669448Y44388096D01*
X52669448Y44661905D01*
X52724210Y44771429D01*
X52778971Y44826191D01*
X52888495Y44880953D01*
X52998019Y44880953D01*
X53162305Y44826191D01*
X53819448Y44169048D01*
X53819448Y44880953D01*
X53162305Y45538096D02*
X53107543Y45428572D01*
X53052781Y45373810D01*
X52943257Y45319048D01*
X52888495Y45319048D01*
X52778971Y45373810D01*
X52724210Y45428572D01*
X52669448Y45538096D01*
X52669448Y45757143D01*
X52724210Y45866667D01*
X52778971Y45921429D01*
X52888495Y45976191D01*
X52943257Y45976191D01*
X53052781Y45921429D01*
X53107543Y45866667D01*
X53162305Y45757143D01*
X53162305Y45538096D01*
X53217067Y45428572D01*
X53271829Y45373810D01*
X53381352Y45319048D01*
X53600400Y45319048D01*
X53709924Y45373810D01*
X53764686Y45428572D01*
X53819448Y45538096D01*
X53819448Y45757143D01*
X53764686Y45866667D01*
X53709924Y45921429D01*
X53600400Y45976191D01*
X53381352Y45976191D01*
X53271829Y45921429D01*
X53217067Y45866667D01*
X53162305Y45757143D01*
X55318971Y44223810D02*
X55264210Y44278572D01*
X55209448Y44388096D01*
X55209448Y44661905D01*
X55264210Y44771429D01*
X55318971Y44826191D01*
X55428495Y44880953D01*
X55538019Y44880953D01*
X55702305Y44826191D01*
X56359448Y44169048D01*
X56359448Y44880953D01*
X56359448Y45428572D02*
X56359448Y45647620D01*
X56304686Y45757143D01*
X56249924Y45811905D01*
X56085638Y45921429D01*
X55866590Y45976191D01*
X55428495Y45976191D01*
X55318971Y45921429D01*
X55264210Y45866667D01*
X55209448Y45757143D01*
X55209448Y45538096D01*
X55264210Y45428572D01*
X55318971Y45373810D01*
X55428495Y45319048D01*
X55702305Y45319048D01*
X55811829Y45373810D01*
X55866590Y45428572D01*
X55921352Y45538096D01*
X55921352Y45757143D01*
X55866590Y45866667D01*
X55811829Y45921429D01*
X55702305Y45976191D01*
X57749448Y44169048D02*
X57749448Y44880953D01*
X58187543Y44497620D01*
X58187543Y44661905D01*
X58242305Y44771429D01*
X58297067Y44826191D01*
X58406590Y44880953D01*
X58680400Y44880953D01*
X58789924Y44826191D01*
X58844686Y44771429D01*
X58899448Y44661905D01*
X58899448Y44333334D01*
X58844686Y44223810D01*
X58789924Y44169048D01*
X57749448Y45592858D02*
X57749448Y45702381D01*
X57804210Y45811905D01*
X57858971Y45866667D01*
X57968495Y45921429D01*
X58187543Y45976191D01*
X58461352Y45976191D01*
X58680400Y45921429D01*
X58789924Y45866667D01*
X58844686Y45811905D01*
X58899448Y45702381D01*
X58899448Y45592858D01*
X58844686Y45483334D01*
X58789924Y45428572D01*
X58680400Y45373810D01*
X58461352Y45319048D01*
X58187543Y45319048D01*
X57968495Y45373810D01*
X57858971Y45428572D01*
X57804210Y45483334D01*
X57749448Y45592858D01*
X60289448Y44169048D02*
X60289448Y44880953D01*
X60727543Y44497620D01*
X60727543Y44661905D01*
X60782305Y44771429D01*
X60837067Y44826191D01*
X60946590Y44880953D01*
X61220400Y44880953D01*
X61329924Y44826191D01*
X61384686Y44771429D01*
X61439448Y44661905D01*
X61439448Y44333334D01*
X61384686Y44223810D01*
X61329924Y44169048D01*
X61439448Y45976191D02*
X61439448Y45319048D01*
X61439448Y45647620D02*
X60289448Y45647620D01*
X60453733Y45538096D01*
X60563257Y45428572D01*
X60618019Y45319048D01*
X62829448Y44169048D02*
X62829448Y44880953D01*
X63267543Y44497620D01*
X63267543Y44661905D01*
X63322305Y44771429D01*
X63377067Y44826191D01*
X63486590Y44880953D01*
X63760400Y44880953D01*
X63869924Y44826191D01*
X63924686Y44771429D01*
X63979448Y44661905D01*
X63979448Y44333334D01*
X63924686Y44223810D01*
X63869924Y44169048D01*
X62938971Y45319048D02*
X62884210Y45373810D01*
X62829448Y45483334D01*
X62829448Y45757143D01*
X62884210Y45866667D01*
X62938971Y45921429D01*
X63048495Y45976191D01*
X63158019Y45976191D01*
X63322305Y45921429D01*
X63979448Y45264286D01*
X63979448Y45976191D01*
X63828571Y32479762D02*
X63171428Y32479762D01*
X63500000Y32479762D02*
X63500000Y33629762D01*
X63390476Y33465477D01*
X63280952Y33355953D01*
X63171428Y33301191D01*
X58469047Y40629762D02*
X59180952Y40629762D01*
X58797619Y40191667D01*
X58961904Y40191667D01*
X59071428Y40136905D01*
X59126190Y40082143D01*
X59180952Y39972620D01*
X59180952Y39698810D01*
X59126190Y39589286D01*
X59071428Y39534524D01*
X58961904Y39479762D01*
X58633333Y39479762D01*
X58523809Y39534524D01*
X58469047Y39589286D01*
X59564285Y40629762D02*
X60276190Y40629762D01*
X59892857Y40191667D01*
X60057142Y40191667D01*
X60166666Y40136905D01*
X60221428Y40082143D01*
X60276190Y39972620D01*
X60276190Y39698810D01*
X60221428Y39589286D01*
X60166666Y39534524D01*
X60057142Y39479762D01*
X59728571Y39479762D01*
X59619047Y39534524D01*
X59564285Y39589286D01*
X58469047Y38089762D02*
X59180952Y38089762D01*
X58797619Y37651667D01*
X58961904Y37651667D01*
X59071428Y37596905D01*
X59126190Y37542143D01*
X59180952Y37432620D01*
X59180952Y37158810D01*
X59126190Y37049286D01*
X59071428Y36994524D01*
X58961904Y36939762D01*
X58633333Y36939762D01*
X58523809Y36994524D01*
X58469047Y37049286D01*
X60221428Y38089762D02*
X59673809Y38089762D01*
X59619047Y37542143D01*
X59673809Y37596905D01*
X59783333Y37651667D01*
X60057142Y37651667D01*
X60166666Y37596905D01*
X60221428Y37542143D01*
X60276190Y37432620D01*
X60276190Y37158810D01*
X60221428Y37049286D01*
X60166666Y36994524D01*
X60057142Y36939762D01*
X59783333Y36939762D01*
X59673809Y36994524D01*
X59619047Y37049286D01*
X58469047Y35549762D02*
X59180952Y35549762D01*
X58797619Y35111667D01*
X58961904Y35111667D01*
X59071428Y35056905D01*
X59126190Y35002143D01*
X59180952Y34892620D01*
X59180952Y34618810D01*
X59126190Y34509286D01*
X59071428Y34454524D01*
X58961904Y34399762D01*
X58633333Y34399762D01*
X58523809Y34454524D01*
X58469047Y34509286D01*
X59564285Y35549762D02*
X60330952Y35549762D01*
X59838095Y34399762D01*
X58469047Y33009762D02*
X59180952Y33009762D01*
X58797619Y32571667D01*
X58961904Y32571667D01*
X59071428Y32516905D01*
X59126190Y32462143D01*
X59180952Y32352620D01*
X59180952Y32078810D01*
X59126190Y31969286D01*
X59071428Y31914524D01*
X58961904Y31859762D01*
X58633333Y31859762D01*
X58523809Y31914524D01*
X58469047Y31969286D01*
X59728571Y31859762D02*
X59947619Y31859762D01*
X60057142Y31914524D01*
X60111904Y31969286D01*
X60221428Y32133572D01*
X60276190Y32352620D01*
X60276190Y32790715D01*
X60221428Y32900239D01*
X60166666Y32955000D01*
X60057142Y33009762D01*
X59838095Y33009762D01*
X59728571Y32955000D01*
X59673809Y32900239D01*
X59619047Y32790715D01*
X59619047Y32516905D01*
X59673809Y32407381D01*
X59728571Y32352620D01*
X59838095Y32297858D01*
X60057142Y32297858D01*
X60166666Y32352620D01*
X60221428Y32407381D01*
X60276190Y32516905D01*
X59071428Y30086429D02*
X59071428Y29319762D01*
X58797619Y30524524D02*
X58523809Y29703096D01*
X59235714Y29703096D01*
X60276190Y29319762D02*
X59619047Y29319762D01*
X59947619Y29319762D02*
X59947619Y30469762D01*
X59838095Y30305477D01*
X59728571Y30195953D01*
X59619047Y30141191D01*
X59071428Y27546429D02*
X59071428Y26779762D01*
X58797619Y27984524D02*
X58523809Y27163096D01*
X59235714Y27163096D01*
X59564285Y27929762D02*
X60276190Y27929762D01*
X59892857Y27491667D01*
X60057142Y27491667D01*
X60166666Y27436905D01*
X60221428Y27382143D01*
X60276190Y27272620D01*
X60276190Y26998810D01*
X60221428Y26889286D01*
X60166666Y26834524D01*
X60057142Y26779762D01*
X59728571Y26779762D01*
X59619047Y26834524D01*
X59564285Y26889286D01*
X60211428Y25006429D02*
X60211428Y24239762D01*
X59937619Y25444524D02*
X59663809Y24623096D01*
X60375714Y24623096D01*
X61361428Y25389762D02*
X60813809Y25389762D01*
X60759047Y24842143D01*
X60813809Y24896905D01*
X60923333Y24951667D01*
X61197142Y24951667D01*
X61306666Y24896905D01*
X61361428Y24842143D01*
X61416190Y24732620D01*
X61416190Y24458810D01*
X61361428Y24349286D01*
X61306666Y24294524D01*
X61197142Y24239762D01*
X60923333Y24239762D01*
X60813809Y24294524D01*
X60759047Y24349286D01*
X59071428Y22466429D02*
X59071428Y21699762D01*
X58797619Y22904524D02*
X58523809Y22083096D01*
X59235714Y22083096D01*
X59564285Y22849762D02*
X60330952Y22849762D01*
X59838095Y21699762D01*
X50309047Y38089762D02*
X51020952Y38089762D01*
X50637619Y37651667D01*
X50801904Y37651667D01*
X50911428Y37596905D01*
X50966190Y37542143D01*
X51020952Y37432620D01*
X51020952Y37158810D01*
X50966190Y37049286D01*
X50911428Y36994524D01*
X50801904Y36939762D01*
X50473333Y36939762D01*
X50363809Y36994524D01*
X50309047Y37049286D01*
X52006666Y37706429D02*
X52006666Y36939762D01*
X51732857Y38144524D02*
X51459047Y37323096D01*
X52170952Y37323096D01*
X50309047Y35549762D02*
X51020952Y35549762D01*
X50637619Y35111667D01*
X50801904Y35111667D01*
X50911428Y35056905D01*
X50966190Y35002143D01*
X51020952Y34892620D01*
X51020952Y34618810D01*
X50966190Y34509286D01*
X50911428Y34454524D01*
X50801904Y34399762D01*
X50473333Y34399762D01*
X50363809Y34454524D01*
X50309047Y34509286D01*
X52006666Y35549762D02*
X51787619Y35549762D01*
X51678095Y35495000D01*
X51623333Y35440239D01*
X51513809Y35275953D01*
X51459047Y35056905D01*
X51459047Y34618810D01*
X51513809Y34509286D01*
X51568571Y34454524D01*
X51678095Y34399762D01*
X51897142Y34399762D01*
X52006666Y34454524D01*
X52061428Y34509286D01*
X52116190Y34618810D01*
X52116190Y34892620D01*
X52061428Y35002143D01*
X52006666Y35056905D01*
X51897142Y35111667D01*
X51678095Y35111667D01*
X51568571Y35056905D01*
X51513809Y35002143D01*
X51459047Y34892620D01*
X50309047Y33009762D02*
X51020952Y33009762D01*
X50637619Y32571667D01*
X50801904Y32571667D01*
X50911428Y32516905D01*
X50966190Y32462143D01*
X51020952Y32352620D01*
X51020952Y32078810D01*
X50966190Y31969286D01*
X50911428Y31914524D01*
X50801904Y31859762D01*
X50473333Y31859762D01*
X50363809Y31914524D01*
X50309047Y31969286D01*
X51678095Y32516905D02*
X51568571Y32571667D01*
X51513809Y32626429D01*
X51459047Y32735953D01*
X51459047Y32790715D01*
X51513809Y32900239D01*
X51568571Y32955000D01*
X51678095Y33009762D01*
X51897142Y33009762D01*
X52006666Y32955000D01*
X52061428Y32900239D01*
X52116190Y32790715D01*
X52116190Y32735953D01*
X52061428Y32626429D01*
X52006666Y32571667D01*
X51897142Y32516905D01*
X51678095Y32516905D01*
X51568571Y32462143D01*
X51513809Y32407381D01*
X51459047Y32297858D01*
X51459047Y32078810D01*
X51513809Y31969286D01*
X51568571Y31914524D01*
X51678095Y31859762D01*
X51897142Y31859762D01*
X52006666Y31914524D01*
X52061428Y31969286D01*
X52116190Y32078810D01*
X52116190Y32297858D01*
X52061428Y32407381D01*
X52006666Y32462143D01*
X51897142Y32516905D01*
X50911428Y30086429D02*
X50911428Y29319762D01*
X50637619Y30524524D02*
X50363809Y29703096D01*
X51075714Y29703096D01*
X51732857Y30469762D02*
X51842380Y30469762D01*
X51951904Y30415000D01*
X52006666Y30360239D01*
X52061428Y30250715D01*
X52116190Y30031667D01*
X52116190Y29757858D01*
X52061428Y29538810D01*
X52006666Y29429286D01*
X51951904Y29374524D01*
X51842380Y29319762D01*
X51732857Y29319762D01*
X51623333Y29374524D01*
X51568571Y29429286D01*
X51513809Y29538810D01*
X51459047Y29757858D01*
X51459047Y30031667D01*
X51513809Y30250715D01*
X51568571Y30360239D01*
X51623333Y30415000D01*
X51732857Y30469762D01*
X50911428Y27546429D02*
X50911428Y26779762D01*
X50637619Y27984524D02*
X50363809Y27163096D01*
X51075714Y27163096D01*
X51459047Y27820239D02*
X51513809Y27875000D01*
X51623333Y27929762D01*
X51897142Y27929762D01*
X52006666Y27875000D01*
X52061428Y27820239D01*
X52116190Y27710715D01*
X52116190Y27601191D01*
X52061428Y27436905D01*
X51404285Y26779762D01*
X52116190Y26779762D01*
X50911428Y25006429D02*
X50911428Y24239762D01*
X50637619Y25444524D02*
X50363809Y24623096D01*
X51075714Y24623096D01*
X52006666Y25006429D02*
X52006666Y24239762D01*
X51732857Y25444524D02*
X51459047Y24623096D01*
X52170952Y24623096D01*
X50911428Y22466429D02*
X50911428Y21699762D01*
X50637619Y22904524D02*
X50363809Y22083096D01*
X51075714Y22083096D01*
X52006666Y22849762D02*
X51787619Y22849762D01*
X51678095Y22795000D01*
X51623333Y22740239D01*
X51513809Y22575953D01*
X51459047Y22356905D01*
X51459047Y21918810D01*
X51513809Y21809286D01*
X51568571Y21754524D01*
X51678095Y21699762D01*
X51897142Y21699762D01*
X52006666Y21754524D01*
X52061428Y21809286D01*
X52116190Y21918810D01*
X52116190Y22192620D01*
X52061428Y22302143D01*
X52006666Y22356905D01*
X51897142Y22411667D01*
X51678095Y22411667D01*
X51568571Y22356905D01*
X51513809Y22302143D01*
X51459047Y22192620D01*
X50911428Y19926429D02*
X50911428Y19159762D01*
X50637619Y20364524D02*
X50363809Y19543096D01*
X51075714Y19543096D01*
X51678095Y19816905D02*
X51568571Y19871667D01*
X51513809Y19926429D01*
X51459047Y20035953D01*
X51459047Y20090715D01*
X51513809Y20200239D01*
X51568571Y20255000D01*
X51678095Y20309762D01*
X51897142Y20309762D01*
X52006666Y20255000D01*
X52061428Y20200239D01*
X52116190Y20090715D01*
X52116190Y20035953D01*
X52061428Y19926429D01*
X52006666Y19871667D01*
X51897142Y19816905D01*
X51678095Y19816905D01*
X51568571Y19762143D01*
X51513809Y19707381D01*
X51459047Y19597858D01*
X51459047Y19378810D01*
X51513809Y19269286D01*
X51568571Y19214524D01*
X51678095Y19159762D01*
X51897142Y19159762D01*
X52006666Y19214524D01*
X52061428Y19269286D01*
X52116190Y19378810D01*
X52116190Y19597858D01*
X52061428Y19707381D01*
X52006666Y19762143D01*
X51897142Y19816905D01*
X59071428Y19926429D02*
X59071428Y19159762D01*
X58797619Y20364524D02*
X58523809Y19543096D01*
X59235714Y19543096D01*
X59728571Y19159762D02*
X59947619Y19159762D01*
X60057142Y19214524D01*
X60111904Y19269286D01*
X60221428Y19433572D01*
X60276190Y19652620D01*
X60276190Y20090715D01*
X60221428Y20200239D01*
X60166666Y20255000D01*
X60057142Y20309762D01*
X59838095Y20309762D01*
X59728571Y20255000D01*
X59673809Y20200239D01*
X59619047Y20090715D01*
X59619047Y19816905D01*
X59673809Y19707381D01*
X59728571Y19652620D01*
X59838095Y19597858D01*
X60057142Y19597858D01*
X60166666Y19652620D01*
X60221428Y19707381D01*
X60276190Y19816905D01*
X59126190Y17769762D02*
X58578571Y17769762D01*
X58523809Y17222143D01*
X58578571Y17276905D01*
X58688095Y17331667D01*
X58961904Y17331667D01*
X59071428Y17276905D01*
X59126190Y17222143D01*
X59180952Y17112620D01*
X59180952Y16838810D01*
X59126190Y16729286D01*
X59071428Y16674524D01*
X58961904Y16619762D01*
X58688095Y16619762D01*
X58578571Y16674524D01*
X58523809Y16729286D01*
X60276190Y16619762D02*
X59619047Y16619762D01*
X59947619Y16619762D02*
X59947619Y17769762D01*
X59838095Y17605477D01*
X59728571Y17495953D01*
X59619047Y17441191D01*
X59126190Y15229762D02*
X58578571Y15229762D01*
X58523809Y14682143D01*
X58578571Y14736905D01*
X58688095Y14791667D01*
X58961904Y14791667D01*
X59071428Y14736905D01*
X59126190Y14682143D01*
X59180952Y14572620D01*
X59180952Y14298810D01*
X59126190Y14189286D01*
X59071428Y14134524D01*
X58961904Y14079762D01*
X58688095Y14079762D01*
X58578571Y14134524D01*
X58523809Y14189286D01*
X59564285Y15229762D02*
X60276190Y15229762D01*
X59892857Y14791667D01*
X60057142Y14791667D01*
X60166666Y14736905D01*
X60221428Y14682143D01*
X60276190Y14572620D01*
X60276190Y14298810D01*
X60221428Y14189286D01*
X60166666Y14134524D01*
X60057142Y14079762D01*
X59728571Y14079762D01*
X59619047Y14134524D01*
X59564285Y14189286D01*
X50966190Y17769762D02*
X50418571Y17769762D01*
X50363809Y17222143D01*
X50418571Y17276905D01*
X50528095Y17331667D01*
X50801904Y17331667D01*
X50911428Y17276905D01*
X50966190Y17222143D01*
X51020952Y17112620D01*
X51020952Y16838810D01*
X50966190Y16729286D01*
X50911428Y16674524D01*
X50801904Y16619762D01*
X50528095Y16619762D01*
X50418571Y16674524D01*
X50363809Y16729286D01*
X51732857Y17769762D02*
X51842380Y17769762D01*
X51951904Y17715000D01*
X52006666Y17660239D01*
X52061428Y17550715D01*
X52116190Y17331667D01*
X52116190Y17057858D01*
X52061428Y16838810D01*
X52006666Y16729286D01*
X51951904Y16674524D01*
X51842380Y16619762D01*
X51732857Y16619762D01*
X51623333Y16674524D01*
X51568571Y16729286D01*
X51513809Y16838810D01*
X51459047Y17057858D01*
X51459047Y17331667D01*
X51513809Y17550715D01*
X51568571Y17660239D01*
X51623333Y17715000D01*
X51732857Y17769762D01*
X50966190Y15229762D02*
X50418571Y15229762D01*
X50363809Y14682143D01*
X50418571Y14736905D01*
X50528095Y14791667D01*
X50801904Y14791667D01*
X50911428Y14736905D01*
X50966190Y14682143D01*
X51020952Y14572620D01*
X51020952Y14298810D01*
X50966190Y14189286D01*
X50911428Y14134524D01*
X50801904Y14079762D01*
X50528095Y14079762D01*
X50418571Y14134524D01*
X50363809Y14189286D01*
X51459047Y15120239D02*
X51513809Y15175000D01*
X51623333Y15229762D01*
X51897142Y15229762D01*
X52006666Y15175000D01*
X52061428Y15120239D01*
X52116190Y15010715D01*
X52116190Y14901191D01*
X52061428Y14736905D01*
X51404285Y14079762D01*
X52116190Y14079762D01*
X49713809Y12635000D02*
X49604285Y12689762D01*
X49440000Y12689762D01*
X49275714Y12635000D01*
X49166190Y12525477D01*
X49111428Y12415953D01*
X49056666Y12196905D01*
X49056666Y12032620D01*
X49111428Y11813572D01*
X49166190Y11704048D01*
X49275714Y11594524D01*
X49440000Y11539762D01*
X49549523Y11539762D01*
X49713809Y11594524D01*
X49768571Y11649286D01*
X49768571Y12032620D01*
X49549523Y12032620D01*
X50261428Y11539762D02*
X50261428Y12689762D01*
X50918571Y11539762D01*
X50918571Y12689762D01*
X51466190Y11539762D02*
X51466190Y12689762D01*
X51740000Y12689762D01*
X51904285Y12635000D01*
X52013809Y12525477D01*
X52068571Y12415953D01*
X52123333Y12196905D01*
X52123333Y12032620D01*
X52068571Y11813572D01*
X52013809Y11704048D01*
X51904285Y11594524D01*
X51740000Y11539762D01*
X51466190Y11539762D01*
X59123809Y12635000D02*
X59014285Y12689762D01*
X58850000Y12689762D01*
X58685714Y12635000D01*
X58576190Y12525477D01*
X58521428Y12415953D01*
X58466666Y12196905D01*
X58466666Y12032620D01*
X58521428Y11813572D01*
X58576190Y11704048D01*
X58685714Y11594524D01*
X58850000Y11539762D01*
X58959523Y11539762D01*
X59123809Y11594524D01*
X59178571Y11649286D01*
X59178571Y12032620D01*
X58959523Y12032620D01*
X59671428Y11539762D02*
X59671428Y12689762D01*
X60328571Y11539762D01*
X60328571Y12689762D01*
X60876190Y11539762D02*
X60876190Y12689762D01*
X61150000Y12689762D01*
X61314285Y12635000D01*
X61423809Y12525477D01*
X61478571Y12415953D01*
X61533333Y12196905D01*
X61533333Y12032620D01*
X61478571Y11813572D01*
X61423809Y11704048D01*
X61314285Y11594524D01*
X61150000Y11539762D01*
X60876190Y11539762D01*
X63651666Y7178572D02*
X63651666Y7726191D01*
X63980238Y7069048D02*
X62830238Y7452381D01*
X63980238Y7835715D01*
X62830238Y8711905D02*
X62830238Y8492858D01*
X62885000Y8383334D01*
X62939761Y8328572D01*
X63104047Y8219048D01*
X63323095Y8164286D01*
X63761190Y8164286D01*
X63870714Y8219048D01*
X63925476Y8273810D01*
X63980238Y8383334D01*
X63980238Y8602381D01*
X63925476Y8711905D01*
X63870714Y8766667D01*
X63761190Y8821429D01*
X63487380Y8821429D01*
X63377857Y8766667D01*
X63323095Y8711905D01*
X63268333Y8602381D01*
X63268333Y8383334D01*
X63323095Y8273810D01*
X63377857Y8219048D01*
X63487380Y8164286D01*
X61111666Y7178572D02*
X61111666Y7726191D01*
X61440238Y7069048D02*
X60290238Y7452381D01*
X61440238Y7835715D01*
X60290238Y8109524D02*
X60290238Y8876191D01*
X61440238Y8383334D01*
X58571666Y7178572D02*
X58571666Y7726191D01*
X58900238Y7069048D02*
X57750238Y7452381D01*
X58900238Y7835715D01*
X58243095Y8383334D02*
X58188333Y8273810D01*
X58133571Y8219048D01*
X58024047Y8164286D01*
X57969285Y8164286D01*
X57859761Y8219048D01*
X57805000Y8273810D01*
X57750238Y8383334D01*
X57750238Y8602381D01*
X57805000Y8711905D01*
X57859761Y8766667D01*
X57969285Y8821429D01*
X58024047Y8821429D01*
X58133571Y8766667D01*
X58188333Y8711905D01*
X58243095Y8602381D01*
X58243095Y8383334D01*
X58297857Y8273810D01*
X58352619Y8219048D01*
X58462142Y8164286D01*
X58681190Y8164286D01*
X58790714Y8219048D01*
X58845476Y8273810D01*
X58900238Y8383334D01*
X58900238Y8602381D01*
X58845476Y8711905D01*
X58790714Y8766667D01*
X58681190Y8821429D01*
X58462142Y8821429D01*
X58352619Y8766667D01*
X58297857Y8711905D01*
X58243095Y8602381D01*
X56031666Y7178572D02*
X56031666Y7726191D01*
X56360238Y7069048D02*
X55210238Y7452381D01*
X56360238Y7835715D01*
X56360238Y8273810D02*
X56360238Y8492858D01*
X56305476Y8602381D01*
X56250714Y8657143D01*
X56086428Y8766667D01*
X55867380Y8821429D01*
X55429285Y8821429D01*
X55319761Y8766667D01*
X55265000Y8711905D01*
X55210238Y8602381D01*
X55210238Y8383334D01*
X55265000Y8273810D01*
X55319761Y8219048D01*
X55429285Y8164286D01*
X55703095Y8164286D01*
X55812619Y8219048D01*
X55867380Y8273810D01*
X55922142Y8383334D01*
X55922142Y8602381D01*
X55867380Y8711905D01*
X55812619Y8766667D01*
X55703095Y8821429D01*
X53491666Y7130953D02*
X53491666Y7678572D01*
X53820238Y7021429D02*
X52670238Y7404762D01*
X53820238Y7788096D01*
X53820238Y8773810D02*
X53820238Y8116667D01*
X53820238Y8445239D02*
X52670238Y8445239D01*
X52834523Y8335715D01*
X52944047Y8226191D01*
X52998809Y8116667D01*
X52670238Y9485715D02*
X52670238Y9595239D01*
X52725000Y9704762D01*
X52779761Y9759524D01*
X52889285Y9814286D01*
X53108333Y9869048D01*
X53382142Y9869048D01*
X53601190Y9814286D01*
X53710714Y9759524D01*
X53765476Y9704762D01*
X53820238Y9595239D01*
X53820238Y9485715D01*
X53765476Y9376191D01*
X53710714Y9321429D01*
X53601190Y9266667D01*
X53382142Y9211905D01*
X53108333Y9211905D01*
X52889285Y9266667D01*
X52779761Y9321429D01*
X52725000Y9376191D01*
X52670238Y9485715D01*
X50951666Y7130953D02*
X50951666Y7678572D01*
X51280238Y7021429D02*
X50130238Y7404762D01*
X51280238Y7788096D01*
X51280238Y8773810D02*
X51280238Y8116667D01*
X51280238Y8445239D02*
X50130238Y8445239D01*
X50294523Y8335715D01*
X50404047Y8226191D01*
X50458809Y8116667D01*
X51280238Y9869048D02*
X51280238Y9211905D01*
X51280238Y9540477D02*
X50130238Y9540477D01*
X50294523Y9430953D01*
X50404047Y9321429D01*
X50458809Y9211905D01*
X48411666Y7130953D02*
X48411666Y7678572D01*
X48740238Y7021429D02*
X47590238Y7404762D01*
X48740238Y7788096D01*
X48740238Y8773810D02*
X48740238Y8116667D01*
X48740238Y8445239D02*
X47590238Y8445239D01*
X47754523Y8335715D01*
X47864047Y8226191D01*
X47918809Y8116667D01*
X47699761Y9211905D02*
X47645000Y9266667D01*
X47590238Y9376191D01*
X47590238Y9650000D01*
X47645000Y9759524D01*
X47699761Y9814286D01*
X47809285Y9869048D01*
X47918809Y9869048D01*
X48083095Y9814286D01*
X48740238Y9157143D01*
X48740238Y9869048D01*
X45050238Y7322620D02*
X46200238Y7705953D01*
X45050238Y8089286D01*
X46200238Y8472620D02*
X45433571Y8472620D01*
X45050238Y8472620D02*
X45105000Y8417858D01*
X45159761Y8472620D01*
X45105000Y8527381D01*
X45050238Y8472620D01*
X45159761Y8472620D01*
X45433571Y9020239D02*
X46200238Y9020239D01*
X45543095Y9020239D02*
X45488333Y9075000D01*
X45433571Y9184524D01*
X45433571Y9348810D01*
X45488333Y9458334D01*
X45597857Y9513096D01*
X46200238Y9513096D01*
X42565000Y7623810D02*
X42510238Y7514286D01*
X42510238Y7350000D01*
X42565000Y7185715D01*
X42674523Y7076191D01*
X42784047Y7021429D01*
X43003095Y6966667D01*
X43167380Y6966667D01*
X43386428Y7021429D01*
X43495952Y7076191D01*
X43605476Y7185715D01*
X43660238Y7350000D01*
X43660238Y7459524D01*
X43605476Y7623810D01*
X43550714Y7678572D01*
X43167380Y7678572D01*
X43167380Y7459524D01*
X43660238Y8171429D02*
X42510238Y8171429D01*
X43660238Y8828572D01*
X42510238Y8828572D01*
X43660238Y9376191D02*
X42510238Y9376191D01*
X42510238Y9650000D01*
X42565000Y9814286D01*
X42674523Y9923810D01*
X42784047Y9978572D01*
X43003095Y10033334D01*
X43167380Y10033334D01*
X43386428Y9978572D01*
X43495952Y9923810D01*
X43605476Y9814286D01*
X43660238Y9650000D01*
X43660238Y9376191D01*
X40791666Y7130953D02*
X40791666Y7678572D01*
X41120238Y7021429D02*
X39970238Y7404762D01*
X41120238Y7788096D01*
X41120238Y8773810D02*
X41120238Y8116667D01*
X41120238Y8445239D02*
X39970238Y8445239D01*
X40134523Y8335715D01*
X40244047Y8226191D01*
X40298809Y8116667D01*
X39970238Y9157143D02*
X39970238Y9869048D01*
X40408333Y9485715D01*
X40408333Y9650000D01*
X40463095Y9759524D01*
X40517857Y9814286D01*
X40627380Y9869048D01*
X40901190Y9869048D01*
X41010714Y9814286D01*
X41065476Y9759524D01*
X41120238Y9650000D01*
X41120238Y9321429D01*
X41065476Y9211905D01*
X41010714Y9157143D01*
X37430238Y7780953D02*
X37430238Y7233334D01*
X37977857Y7178572D01*
X37923095Y7233334D01*
X37868333Y7342858D01*
X37868333Y7616667D01*
X37923095Y7726191D01*
X37977857Y7780953D01*
X38087380Y7835715D01*
X38361190Y7835715D01*
X38470714Y7780953D01*
X38525476Y7726191D01*
X38580238Y7616667D01*
X38580238Y7342858D01*
X38525476Y7233334D01*
X38470714Y7178572D01*
X37430238Y8164286D02*
X38580238Y8547620D01*
X37430238Y8930953D01*
X35711666Y7130953D02*
X35711666Y7678572D01*
X36040238Y7021429D02*
X34890238Y7404762D01*
X36040238Y7788096D01*
X36040238Y8773810D02*
X36040238Y8116667D01*
X36040238Y8445239D02*
X34890238Y8445239D01*
X35054523Y8335715D01*
X35164047Y8226191D01*
X35218809Y8116667D01*
X35273571Y9759524D02*
X36040238Y9759524D01*
X34835476Y9485715D02*
X35656904Y9211905D01*
X35656904Y9923810D01*
X33171666Y7130953D02*
X33171666Y7678572D01*
X33500238Y7021429D02*
X32350238Y7404762D01*
X33500238Y7788096D01*
X33500238Y8773810D02*
X33500238Y8116667D01*
X33500238Y8445239D02*
X32350238Y8445239D01*
X32514523Y8335715D01*
X32624047Y8226191D01*
X32678809Y8116667D01*
X32350238Y9814286D02*
X32350238Y9266667D01*
X32897857Y9211905D01*
X32843095Y9266667D01*
X32788333Y9376191D01*
X32788333Y9650000D01*
X32843095Y9759524D01*
X32897857Y9814286D01*
X33007380Y9869048D01*
X33281190Y9869048D01*
X33390714Y9814286D01*
X33445476Y9759524D01*
X33500238Y9650000D01*
X33500238Y9376191D01*
X33445476Y9266667D01*
X33390714Y9211905D01*
X30960238Y7322620D02*
X29810238Y7322620D01*
X29810238Y8089286D02*
X29810238Y8308334D01*
X29865000Y8417858D01*
X29974523Y8527381D01*
X30193571Y8582143D01*
X30576904Y8582143D01*
X30795952Y8527381D01*
X30905476Y8417858D01*
X30960238Y8308334D01*
X30960238Y8089286D01*
X30905476Y7979762D01*
X30795952Y7870239D01*
X30576904Y7815477D01*
X30193571Y7815477D01*
X29974523Y7870239D01*
X29865000Y7979762D01*
X29810238Y8089286D01*
X30960238Y9732143D02*
X30412619Y9348810D01*
X30960238Y9075000D02*
X29810238Y9075000D01*
X29810238Y9513096D01*
X29865000Y9622620D01*
X29919761Y9677381D01*
X30029285Y9732143D01*
X30193571Y9732143D01*
X30303095Y9677381D01*
X30357857Y9622620D01*
X30412619Y9513096D01*
X30412619Y9075000D01*
X9420238Y48229762D02*
X8872619Y47846429D01*
X9420238Y47572620D02*
X8270238Y47572620D01*
X8270238Y48010715D01*
X8325000Y48120239D01*
X8379761Y48175000D01*
X8489285Y48229762D01*
X8653571Y48229762D01*
X8763095Y48175000D01*
X8817857Y48120239D01*
X8872619Y48010715D01*
X8872619Y47572620D01*
X8817857Y48722620D02*
X8817857Y49105953D01*
X9420238Y49270239D02*
X9420238Y48722620D01*
X8270238Y48722620D01*
X8270238Y49270239D01*
X9365476Y49708334D02*
X9420238Y49872620D01*
X9420238Y50146429D01*
X9365476Y50255953D01*
X9310714Y50310715D01*
X9201190Y50365477D01*
X9091666Y50365477D01*
X8982142Y50310715D01*
X8927380Y50255953D01*
X8872619Y50146429D01*
X8817857Y49927381D01*
X8763095Y49817858D01*
X8708333Y49763096D01*
X8598809Y49708334D01*
X8489285Y49708334D01*
X8379761Y49763096D01*
X8325000Y49817858D01*
X8270238Y49927381D01*
X8270238Y50201191D01*
X8325000Y50365477D01*
X8817857Y50858334D02*
X8817857Y51241667D01*
X9420238Y51405953D02*
X9420238Y50858334D01*
X8270238Y50858334D01*
X8270238Y51405953D01*
X8270238Y51734524D02*
X8270238Y52391667D01*
X9420238Y52063096D02*
X8270238Y52063096D01*
D11*
X9590000Y40100000D02*
G75*
G03*
X9590000Y40100000I-250000J0D01*
G01*
D10*
X63302380Y22479762D02*
X63302380Y23629762D01*
X64507142Y22589286D02*
X64452380Y22534524D01*
X64288095Y22479762D01*
X64178571Y22479762D01*
X64014285Y22534524D01*
X63904761Y22644048D01*
X63850000Y22753572D01*
X63795238Y22972620D01*
X63795238Y23136905D01*
X63850000Y23355953D01*
X63904761Y23465477D01*
X64014285Y23575000D01*
X64178571Y23629762D01*
X64288095Y23629762D01*
X64452380Y23575000D01*
X64507142Y23520239D01*
X64945238Y22534524D02*
X65109523Y22479762D01*
X65383333Y22479762D01*
X65492857Y22534524D01*
X65547619Y22589286D01*
X65602380Y22698810D01*
X65602380Y22808334D01*
X65547619Y22917858D01*
X65492857Y22972620D01*
X65383333Y23027381D01*
X65164285Y23082143D01*
X65054761Y23136905D01*
X65000000Y23191667D01*
X64945238Y23301191D01*
X64945238Y23410715D01*
X65000000Y23520239D01*
X65054761Y23575000D01*
X65164285Y23629762D01*
X65438095Y23629762D01*
X65602380Y23575000D01*
X66095238Y22479762D02*
X66095238Y23629762D01*
X66533333Y23629762D01*
X66642857Y23575000D01*
X66697619Y23520239D01*
X66752380Y23410715D01*
X66752380Y23246429D01*
X66697619Y23136905D01*
X66642857Y23082143D01*
X66533333Y23027381D01*
X66095238Y23027381D01*
D11*
X26577500Y34012500D02*
G75*
G03*
X26577500Y34012500I-250000J0D01*
G01*
D12*
X42945000Y50754700D02*
X42945000Y49424700D01*
X64789000Y50754700D02*
X64789000Y49424700D01*
X64789000Y48210000D02*
X64789000Y46880000D01*
X56600000Y41330000D02*
X57930000Y41330000D01*
X62255000Y31804700D02*
X63585000Y31804700D01*
X64789000Y5080000D02*
X64789000Y3750000D01*
X64789000Y2535000D02*
X64789000Y1205000D01*
X47009000Y2535000D02*
X47009000Y1205000D01*
X14715000Y39610000D02*
X15190000Y39610000D01*
X15190000Y39610000D02*
X15190000Y39135000D01*
X10445000Y34390000D02*
X9970000Y34390000D01*
X9970000Y34390000D02*
X9970000Y34865000D01*
X14715000Y34390000D02*
X15190000Y34390000D01*
X15190000Y34390000D02*
X15190000Y34865000D01*
X10445000Y39610000D02*
X9970000Y39610000D01*
X17195000Y29000000D02*
X19880000Y29000000D01*
X17195000Y30920000D02*
X17195000Y29000000D01*
X19880000Y30920000D02*
X17195000Y30920000D01*
X13362779Y31090000D02*
X13037221Y31090000D01*
X13362779Y32110000D02*
X13037221Y32110000D01*
X5660000Y2100000D02*
X260000Y2100000D01*
X260000Y2100000D02*
X260000Y11300000D01*
X260000Y11300000D02*
X11260000Y11300000D01*
X11260000Y11300000D02*
X11260000Y8500000D01*
X11260000Y4900000D02*
X11260000Y2100000D01*
X11260000Y2100000D02*
X9260000Y2100000D01*
X9760000Y11540000D02*
X11500000Y11540000D01*
X11500000Y11540000D02*
X11500000Y9800000D01*
X4490000Y43080000D02*
X4490000Y44080000D01*
X1130000Y43080000D02*
X1130000Y44080000D01*
X38070000Y13500000D02*
X38070000Y14500000D01*
X36130000Y13500000D02*
X36130000Y14500000D01*
X27062779Y37910000D02*
X26737221Y37910000D01*
X27062779Y36890000D02*
X26737221Y36890000D01*
X35500000Y12700000D02*
X34700000Y12700000D01*
X35500000Y15100000D02*
X35500000Y13100000D01*
X34700000Y15100000D02*
X35500000Y15100000D01*
X31900000Y15100000D02*
X32900000Y15100000D01*
X31900000Y13100000D02*
X31900000Y15100000D01*
X32900000Y12700000D02*
X31900000Y12700000D01*
X31700000Y15100000D02*
X31700000Y13100000D01*
X35500000Y13100000D02*
X35500000Y12700000D01*
X31900000Y13100000D02*
X31900000Y12700000D01*
X31700000Y13100000D02*
X31700000Y12700000D01*
X5300000Y49850000D02*
G75*
G03*
X5300000Y49850000I-1000000J0D01*
G01*
X6900000Y48700000D02*
X6900000Y51000000D01*
X1700000Y48700000D02*
X1700000Y51000000D01*
X5600000Y52450000D02*
X3000000Y52450000D01*
X5600000Y47250000D02*
X3000000Y47250000D01*
X3000000Y47250000D02*
X1700000Y48700000D01*
X3000000Y52450000D02*
X1700000Y51000000D01*
X6900000Y48700000D02*
X5600000Y47250000D01*
X6900000Y51000000D02*
X5600000Y52450000D01*
X27580000Y33460000D02*
X26880000Y33460000D01*
X26880000Y33460000D02*
X26880000Y32760000D01*
X40400000Y33460000D02*
X41100000Y33460000D01*
X41100000Y33460000D02*
X41100000Y32760000D01*
X27580000Y19240000D02*
X26880000Y19240000D01*
X26880000Y19240000D02*
X26880000Y19940000D01*
X40400000Y19240000D02*
X41100000Y19240000D01*
X41100000Y19240000D02*
X41100000Y19940000D01*
X26880000Y32760000D02*
X25590000Y32760000D01*
D13*
X4350000Y41640000D02*
X3100000Y41640000D01*
X4350000Y32060000D02*
X3100000Y32060000D01*
D12*
X10800000Y12880000D02*
X4790000Y12880000D01*
X8550000Y19700000D02*
X4790000Y19700000D01*
X4790000Y12880000D02*
X4790000Y14140000D01*
X4790000Y19700000D02*
X4790000Y18440000D01*
X19880000Y42960000D02*
X17195000Y42960000D01*
X17195000Y42960000D02*
X17195000Y41040000D01*
X17195000Y41040000D02*
X19880000Y41040000D01*
X19880000Y33320000D02*
X17195000Y33320000D01*
X17195000Y33320000D02*
X17195000Y31400000D01*
X17195000Y31400000D02*
X19880000Y31400000D01*
X44325000Y40510000D02*
X47010000Y40510000D01*
X44325000Y42430000D02*
X44325000Y40510000D01*
X47010000Y42430000D02*
X44325000Y42430000D01*
X1700000Y25413748D02*
X1700000Y28186252D01*
X5120000Y25413748D02*
X5120000Y28186252D01*
X14190000Y14847221D02*
X14190000Y15172779D01*
X13170000Y14847221D02*
X13170000Y15172779D01*
X19380000Y38380000D02*
X18380000Y38380000D01*
X19380000Y35020000D02*
X18380000Y35020000D01*
X9400000Y43040000D02*
X8400000Y43040000D01*
X9400000Y41100000D02*
X8400000Y41100000D01*
X28437221Y36310000D02*
X28762779Y36310000D01*
X28437221Y35290000D02*
X28762779Y35290000D01*
X29837221Y14510000D02*
X30162779Y14510000D01*
X29837221Y13490000D02*
X30162779Y13490000D01*
X43990000Y25337221D02*
X43990000Y25662779D01*
X45010000Y25337221D02*
X45010000Y25662779D01*
X22490000Y27362779D02*
X22490000Y27037221D01*
X23510000Y27362779D02*
X23510000Y27037221D01*
X30362779Y36890000D02*
X30037221Y36890000D01*
X30362779Y37910000D02*
X30037221Y37910000D01*
X12162779Y42910000D02*
X11837221Y42910000D01*
X12162779Y41890000D02*
X11837221Y41890000D01*
X13170000Y18272779D02*
X13170000Y17947221D01*
X14190000Y18272779D02*
X14190000Y17947221D01*
X18710000Y3962779D02*
X18710000Y3637221D01*
X17690000Y3962779D02*
X17690000Y3637221D01*
X24410000Y3637221D02*
X24410000Y3962779D01*
X23390000Y3637221D02*
X23390000Y3962779D01*
X27362779Y6890000D02*
X27037221Y6890000D01*
X27362779Y7910000D02*
X27037221Y7910000D01*
X16662779Y7665000D02*
X16337221Y7665000D01*
X16662779Y8685000D02*
X16337221Y8685000D01*
X12100000Y52350000D02*
X10100000Y52350000D01*
X10100000Y52350000D02*
X10100000Y48450000D01*
X12100000Y52350000D02*
X12100000Y48450000D01*
X23800000Y11800000D02*
X23800000Y7950000D01*
X21800000Y11800000D02*
X21800000Y7950000D01*
X23800000Y11800000D02*
X21800000Y11800000D01*
X22700000Y16850000D02*
X22700000Y18850000D01*
X22700000Y18850000D02*
X18850000Y18850000D01*
X22700000Y16850000D02*
X18850000Y16850000D01*
X20585000Y7545000D02*
X20585000Y8475000D01*
X20585000Y10705000D02*
X20585000Y9775000D01*
X20585000Y10705000D02*
X18425000Y10705000D01*
X20585000Y7545000D02*
X19125000Y7545000D01*
X16674779Y9565000D02*
X16349221Y9565000D01*
X16674779Y10585000D02*
X16349221Y10585000D01*
X19490000Y4800000D02*
X19490000Y3000000D01*
X22710000Y3000000D02*
X22710000Y5450000D01*
X6562779Y45690000D02*
X6237221Y45690000D01*
X6562779Y46710000D02*
X6237221Y46710000D01*
D10*
X13768095Y41207620D02*
X13768095Y40398096D01*
X13815714Y40302858D01*
X13863333Y40255239D01*
X13958571Y40207620D01*
X14149047Y40207620D01*
X14244285Y40255239D01*
X14291904Y40302858D01*
X14339523Y40398096D01*
X14339523Y41207620D01*
X14768095Y41112381D02*
X14815714Y41160000D01*
X14910952Y41207620D01*
X15149047Y41207620D01*
X15244285Y41160000D01*
X15291904Y41112381D01*
X15339523Y41017143D01*
X15339523Y40921905D01*
X15291904Y40779048D01*
X14720476Y40207620D01*
X15339523Y40207620D01*
X13033333Y29812858D02*
X12985714Y29765239D01*
X12842857Y29717620D01*
X12747619Y29717620D01*
X12604761Y29765239D01*
X12509523Y29860477D01*
X12461904Y29955715D01*
X12414285Y30146191D01*
X12414285Y30289048D01*
X12461904Y30479524D01*
X12509523Y30574762D01*
X12604761Y30670000D01*
X12747619Y30717620D01*
X12842857Y30717620D01*
X12985714Y30670000D01*
X13033333Y30622381D01*
X13604761Y30289048D02*
X13509523Y30336667D01*
X13461904Y30384286D01*
X13414285Y30479524D01*
X13414285Y30527143D01*
X13461904Y30622381D01*
X13509523Y30670000D01*
X13604761Y30717620D01*
X13795238Y30717620D01*
X13890476Y30670000D01*
X13938095Y30622381D01*
X13985714Y30527143D01*
X13985714Y30479524D01*
X13938095Y30384286D01*
X13890476Y30336667D01*
X13795238Y30289048D01*
X13604761Y30289048D01*
X13509523Y30241429D01*
X13461904Y30193810D01*
X13414285Y30098572D01*
X13414285Y29908096D01*
X13461904Y29812858D01*
X13509523Y29765239D01*
X13604761Y29717620D01*
X13795238Y29717620D01*
X13890476Y29765239D01*
X13938095Y29812858D01*
X13985714Y29908096D01*
X13985714Y30098572D01*
X13938095Y30193810D01*
X13890476Y30241429D01*
X13795238Y30289048D01*
X6062380Y42889524D02*
X5586190Y42556191D01*
X6062380Y42318096D02*
X5062380Y42318096D01*
X5062380Y42699048D01*
X5110000Y42794286D01*
X5157619Y42841905D01*
X5252857Y42889524D01*
X5395714Y42889524D01*
X5490952Y42841905D01*
X5538571Y42794286D01*
X5586190Y42699048D01*
X5586190Y42318096D01*
X6062380Y43318096D02*
X5062380Y43318096D01*
X6062380Y43889524D01*
X5062380Y43889524D01*
X5062380Y44270477D02*
X5062380Y44889524D01*
X5443333Y44556191D01*
X5443333Y44699048D01*
X5490952Y44794286D01*
X5538571Y44841905D01*
X5633809Y44889524D01*
X5871904Y44889524D01*
X5967142Y44841905D01*
X6014761Y44794286D01*
X6062380Y44699048D01*
X6062380Y44413334D01*
X6014761Y44318096D01*
X5967142Y44270477D01*
X36409523Y11447620D02*
X36076190Y11923810D01*
X35838095Y11447620D02*
X35838095Y12447620D01*
X36219047Y12447620D01*
X36314285Y12400000D01*
X36361904Y12352381D01*
X36409523Y12257143D01*
X36409523Y12114286D01*
X36361904Y12019048D01*
X36314285Y11971429D01*
X36219047Y11923810D01*
X35838095Y11923810D01*
X36838095Y11447620D02*
X36838095Y12447620D01*
X37409523Y11447620D01*
X37409523Y12447620D01*
X38409523Y11447620D02*
X37838095Y11447620D01*
X38123809Y11447620D02*
X38123809Y12447620D01*
X38028571Y12304762D01*
X37933333Y12209524D01*
X37838095Y12161905D01*
X26733333Y38347620D02*
X26257142Y38347620D01*
X26257142Y39347620D01*
X27590476Y38347620D02*
X27019047Y38347620D01*
X27304761Y38347620D02*
X27304761Y39347620D01*
X27209523Y39204762D01*
X27114285Y39109524D01*
X27019047Y39061905D01*
X33223809Y11923810D02*
X33223809Y11447620D01*
X32890476Y12447620D02*
X33223809Y11923810D01*
X33557142Y12447620D01*
X34414285Y11447620D02*
X33842857Y11447620D01*
X34128571Y11447620D02*
X34128571Y12447620D01*
X34033333Y12304762D01*
X33938095Y12209524D01*
X33842857Y12161905D01*
X41148095Y34887620D02*
X41148095Y34078096D01*
X41195714Y33982858D01*
X41243333Y33935239D01*
X41338571Y33887620D01*
X41529047Y33887620D01*
X41624285Y33935239D01*
X41671904Y33982858D01*
X41719523Y34078096D01*
X41719523Y34887620D01*
X42719523Y33887620D02*
X42148095Y33887620D01*
X42433809Y33887620D02*
X42433809Y34887620D01*
X42338571Y34744762D01*
X42243333Y34649524D01*
X42148095Y34601905D01*
X2646666Y31547620D02*
X2646666Y30833334D01*
X2599047Y30690477D01*
X2503809Y30595239D01*
X2360952Y30547620D01*
X2265714Y30547620D01*
X3646666Y30547620D02*
X3075238Y30547620D01*
X3360952Y30547620D02*
X3360952Y31547620D01*
X3265714Y31404762D01*
X3170476Y31309524D01*
X3075238Y31261905D01*
X3002380Y12428096D02*
X3811904Y12428096D01*
X3907142Y12475715D01*
X3954761Y12523334D01*
X4002380Y12618572D01*
X4002380Y12809048D01*
X3954761Y12904286D01*
X3907142Y12951905D01*
X3811904Y12999524D01*
X3002380Y12999524D01*
X3002380Y13380477D02*
X3002380Y13999524D01*
X3383333Y13666191D01*
X3383333Y13809048D01*
X3430952Y13904286D01*
X3478571Y13951905D01*
X3573809Y13999524D01*
X3811904Y13999524D01*
X3907142Y13951905D01*
X3954761Y13904286D01*
X4002380Y13809048D01*
X4002380Y13523334D01*
X3954761Y13428096D01*
X3907142Y13380477D01*
X3076666Y23221429D02*
X2743333Y23221429D01*
X2743333Y22697620D02*
X2743333Y23697620D01*
X3219523Y23697620D01*
X4124285Y22697620D02*
X3552857Y22697620D01*
X3838571Y22697620D02*
X3838571Y23697620D01*
X3743333Y23554762D01*
X3648095Y23459524D01*
X3552857Y23411905D01*
X12607142Y14367143D02*
X12654761Y14319524D01*
X12702380Y14176667D01*
X12702380Y14081429D01*
X12654761Y13938572D01*
X12559523Y13843334D01*
X12464285Y13795715D01*
X12273809Y13748096D01*
X12130952Y13748096D01*
X11940476Y13795715D01*
X11845238Y13843334D01*
X11750000Y13938572D01*
X11702380Y14081429D01*
X11702380Y14176667D01*
X11750000Y14319524D01*
X11797619Y14367143D01*
X12702380Y15319524D02*
X12702380Y14748096D01*
X12702380Y15033810D02*
X11702380Y15033810D01*
X11845238Y14938572D01*
X11940476Y14843334D01*
X11988095Y14748096D01*
X11702380Y15938572D02*
X11702380Y16033810D01*
X11750000Y16129048D01*
X11797619Y16176667D01*
X11892857Y16224286D01*
X12083333Y16271905D01*
X12321428Y16271905D01*
X12511904Y16224286D01*
X12607142Y16176667D01*
X12654761Y16129048D01*
X12702380Y16033810D01*
X12702380Y15938572D01*
X12654761Y15843334D01*
X12607142Y15795715D01*
X12511904Y15748096D01*
X12321428Y15700477D01*
X12083333Y15700477D01*
X11892857Y15748096D01*
X11797619Y15795715D01*
X11750000Y15843334D01*
X11702380Y15938572D01*
X18189523Y38757620D02*
X17856190Y39233810D01*
X17618095Y38757620D02*
X17618095Y39757620D01*
X17999047Y39757620D01*
X18094285Y39710000D01*
X18141904Y39662381D01*
X18189523Y39567143D01*
X18189523Y39424286D01*
X18141904Y39329048D01*
X18094285Y39281429D01*
X17999047Y39233810D01*
X17618095Y39233810D01*
X18618095Y38757620D02*
X18618095Y39757620D01*
X19189523Y38757620D01*
X19189523Y39757620D01*
X19618095Y39662381D02*
X19665714Y39710000D01*
X19760952Y39757620D01*
X19999047Y39757620D01*
X20094285Y39710000D01*
X20141904Y39662381D01*
X20189523Y39567143D01*
X20189523Y39471905D01*
X20141904Y39329048D01*
X19570476Y38757620D01*
X20189523Y38757620D01*
X8209523Y43367620D02*
X7876190Y43843810D01*
X7638095Y43367620D02*
X7638095Y44367620D01*
X8019047Y44367620D01*
X8114285Y44320000D01*
X8161904Y44272381D01*
X8209523Y44177143D01*
X8209523Y44034286D01*
X8161904Y43939048D01*
X8114285Y43891429D01*
X8019047Y43843810D01*
X7638095Y43843810D01*
X8638095Y43367620D02*
X8638095Y44367620D01*
X9209523Y43367620D01*
X9209523Y44367620D01*
X10114285Y44034286D02*
X10114285Y43367620D01*
X9876190Y44415239D02*
X9638095Y43700953D01*
X10257142Y43700953D01*
X25833333Y35442858D02*
X25785714Y35395239D01*
X25642857Y35347620D01*
X25547619Y35347620D01*
X25404761Y35395239D01*
X25309523Y35490477D01*
X25261904Y35585715D01*
X25214285Y35776191D01*
X25214285Y35919048D01*
X25261904Y36109524D01*
X25309523Y36204762D01*
X25404761Y36300000D01*
X25547619Y36347620D01*
X25642857Y36347620D01*
X25785714Y36300000D01*
X25833333Y36252381D01*
X26690476Y36014286D02*
X26690476Y35347620D01*
X26452380Y36395239D02*
X26214285Y35680953D01*
X26833333Y35680953D01*
X29833333Y12142858D02*
X29785714Y12095239D01*
X29642857Y12047620D01*
X29547619Y12047620D01*
X29404761Y12095239D01*
X29309523Y12190477D01*
X29261904Y12285715D01*
X29214285Y12476191D01*
X29214285Y12619048D01*
X29261904Y12809524D01*
X29309523Y12904762D01*
X29404761Y13000000D01*
X29547619Y13047620D01*
X29642857Y13047620D01*
X29785714Y13000000D01*
X29833333Y12952381D01*
X30166666Y13047620D02*
X30785714Y13047620D01*
X30452380Y12666667D01*
X30595238Y12666667D01*
X30690476Y12619048D01*
X30738095Y12571429D01*
X30785714Y12476191D01*
X30785714Y12238096D01*
X30738095Y12142858D01*
X30690476Y12095239D01*
X30595238Y12047620D01*
X30309523Y12047620D01*
X30214285Y12095239D01*
X30166666Y12142858D01*
X46357142Y25233334D02*
X46404761Y25185715D01*
X46452380Y25042858D01*
X46452380Y24947620D01*
X46404761Y24804762D01*
X46309523Y24709524D01*
X46214285Y24661905D01*
X46023809Y24614286D01*
X45880952Y24614286D01*
X45690476Y24661905D01*
X45595238Y24709524D01*
X45500000Y24804762D01*
X45452380Y24947620D01*
X45452380Y25042858D01*
X45500000Y25185715D01*
X45547619Y25233334D01*
X45547619Y25614286D02*
X45500000Y25661905D01*
X45452380Y25757143D01*
X45452380Y25995239D01*
X45500000Y26090477D01*
X45547619Y26138096D01*
X45642857Y26185715D01*
X45738095Y26185715D01*
X45880952Y26138096D01*
X46452380Y25566667D01*
X46452380Y26185715D01*
X21957142Y27033334D02*
X22004761Y26985715D01*
X22052380Y26842858D01*
X22052380Y26747620D01*
X22004761Y26604762D01*
X21909523Y26509524D01*
X21814285Y26461905D01*
X21623809Y26414286D01*
X21480952Y26414286D01*
X21290476Y26461905D01*
X21195238Y26509524D01*
X21100000Y26604762D01*
X21052380Y26747620D01*
X21052380Y26842858D01*
X21100000Y26985715D01*
X21147619Y27033334D01*
X22052380Y27985715D02*
X22052380Y27414286D01*
X22052380Y27700000D02*
X21052380Y27700000D01*
X21195238Y27604762D01*
X21290476Y27509524D01*
X21338095Y27414286D01*
X30033333Y38442858D02*
X29985714Y38395239D01*
X29842857Y38347620D01*
X29747619Y38347620D01*
X29604761Y38395239D01*
X29509523Y38490477D01*
X29461904Y38585715D01*
X29414285Y38776191D01*
X29414285Y38919048D01*
X29461904Y39109524D01*
X29509523Y39204762D01*
X29604761Y39300000D01*
X29747619Y39347620D01*
X29842857Y39347620D01*
X29985714Y39300000D01*
X30033333Y39252381D01*
X30938095Y39347620D02*
X30461904Y39347620D01*
X30414285Y38871429D01*
X30461904Y38919048D01*
X30557142Y38966667D01*
X30795238Y38966667D01*
X30890476Y38919048D01*
X30938095Y38871429D01*
X30985714Y38776191D01*
X30985714Y38538096D01*
X30938095Y38442858D01*
X30890476Y38395239D01*
X30795238Y38347620D01*
X30557142Y38347620D01*
X30461904Y38395239D01*
X30414285Y38442858D01*
X11833333Y43442858D02*
X11785714Y43395239D01*
X11642857Y43347620D01*
X11547619Y43347620D01*
X11404761Y43395239D01*
X11309523Y43490477D01*
X11261904Y43585715D01*
X11214285Y43776191D01*
X11214285Y43919048D01*
X11261904Y44109524D01*
X11309523Y44204762D01*
X11404761Y44300000D01*
X11547619Y44347620D01*
X11642857Y44347620D01*
X11785714Y44300000D01*
X11833333Y44252381D01*
X12309523Y43347620D02*
X12500000Y43347620D01*
X12595238Y43395239D01*
X12642857Y43442858D01*
X12738095Y43585715D01*
X12785714Y43776191D01*
X12785714Y44157143D01*
X12738095Y44252381D01*
X12690476Y44300000D01*
X12595238Y44347620D01*
X12404761Y44347620D01*
X12309523Y44300000D01*
X12261904Y44252381D01*
X12214285Y44157143D01*
X12214285Y43919048D01*
X12261904Y43823810D01*
X12309523Y43776191D01*
X12404761Y43728572D01*
X12595238Y43728572D01*
X12690476Y43776191D01*
X12738095Y43823810D01*
X12785714Y43919048D01*
X12607142Y17467143D02*
X12654761Y17419524D01*
X12702380Y17276667D01*
X12702380Y17181429D01*
X12654761Y17038572D01*
X12559523Y16943334D01*
X12464285Y16895715D01*
X12273809Y16848096D01*
X12130952Y16848096D01*
X11940476Y16895715D01*
X11845238Y16943334D01*
X11750000Y17038572D01*
X11702380Y17181429D01*
X11702380Y17276667D01*
X11750000Y17419524D01*
X11797619Y17467143D01*
X12702380Y18419524D02*
X12702380Y17848096D01*
X12702380Y18133810D02*
X11702380Y18133810D01*
X11845238Y18038572D01*
X11940476Y17943334D01*
X11988095Y17848096D01*
X12702380Y19371905D02*
X12702380Y18800477D01*
X12702380Y19086191D02*
X11702380Y19086191D01*
X11845238Y18990953D01*
X11940476Y18895715D01*
X11988095Y18800477D01*
X17057142Y3157143D02*
X17104761Y3109524D01*
X17152380Y2966667D01*
X17152380Y2871429D01*
X17104761Y2728572D01*
X17009523Y2633334D01*
X16914285Y2585715D01*
X16723809Y2538096D01*
X16580952Y2538096D01*
X16390476Y2585715D01*
X16295238Y2633334D01*
X16200000Y2728572D01*
X16152380Y2871429D01*
X16152380Y2966667D01*
X16200000Y3109524D01*
X16247619Y3157143D01*
X17152380Y4109524D02*
X17152380Y3538096D01*
X17152380Y3823810D02*
X16152380Y3823810D01*
X16295238Y3728572D01*
X16390476Y3633334D01*
X16438095Y3538096D01*
X16247619Y4490477D02*
X16200000Y4538096D01*
X16152380Y4633334D01*
X16152380Y4871429D01*
X16200000Y4966667D01*
X16247619Y5014286D01*
X16342857Y5061905D01*
X16438095Y5061905D01*
X16580952Y5014286D01*
X17152380Y4442858D01*
X17152380Y5061905D01*
X25857142Y3157143D02*
X25904761Y3109524D01*
X25952380Y2966667D01*
X25952380Y2871429D01*
X25904761Y2728572D01*
X25809523Y2633334D01*
X25714285Y2585715D01*
X25523809Y2538096D01*
X25380952Y2538096D01*
X25190476Y2585715D01*
X25095238Y2633334D01*
X25000000Y2728572D01*
X24952380Y2871429D01*
X24952380Y2966667D01*
X25000000Y3109524D01*
X25047619Y3157143D01*
X25952380Y4109524D02*
X25952380Y3538096D01*
X25952380Y3823810D02*
X24952380Y3823810D01*
X25095238Y3728572D01*
X25190476Y3633334D01*
X25238095Y3538096D01*
X24952380Y4442858D02*
X24952380Y5061905D01*
X25333333Y4728572D01*
X25333333Y4871429D01*
X25380952Y4966667D01*
X25428571Y5014286D01*
X25523809Y5061905D01*
X25761904Y5061905D01*
X25857142Y5014286D01*
X25904761Y4966667D01*
X25952380Y4871429D01*
X25952380Y4585715D01*
X25904761Y4490477D01*
X25857142Y4442858D01*
X26557142Y8442858D02*
X26509523Y8395239D01*
X26366666Y8347620D01*
X26271428Y8347620D01*
X26128571Y8395239D01*
X26033333Y8490477D01*
X25985714Y8585715D01*
X25938095Y8776191D01*
X25938095Y8919048D01*
X25985714Y9109524D01*
X26033333Y9204762D01*
X26128571Y9300000D01*
X26271428Y9347620D01*
X26366666Y9347620D01*
X26509523Y9300000D01*
X26557142Y9252381D01*
X27509523Y8347620D02*
X26938095Y8347620D01*
X27223809Y8347620D02*
X27223809Y9347620D01*
X27128571Y9204762D01*
X27033333Y9109524D01*
X26938095Y9061905D01*
X28366666Y9014286D02*
X28366666Y8347620D01*
X28128571Y9395239D02*
X27890476Y8680953D01*
X28509523Y8680953D01*
X15857142Y6417858D02*
X15809523Y6370239D01*
X15666666Y6322620D01*
X15571428Y6322620D01*
X15428571Y6370239D01*
X15333333Y6465477D01*
X15285714Y6560715D01*
X15238095Y6751191D01*
X15238095Y6894048D01*
X15285714Y7084524D01*
X15333333Y7179762D01*
X15428571Y7275000D01*
X15571428Y7322620D01*
X15666666Y7322620D01*
X15809523Y7275000D01*
X15857142Y7227381D01*
X16809523Y6322620D02*
X16238095Y6322620D01*
X16523809Y6322620D02*
X16523809Y7322620D01*
X16428571Y7179762D01*
X16333333Y7084524D01*
X16238095Y7036905D01*
X17714285Y7322620D02*
X17238095Y7322620D01*
X17190476Y6846429D01*
X17238095Y6894048D01*
X17333333Y6941667D01*
X17571428Y6941667D01*
X17666666Y6894048D01*
X17714285Y6846429D01*
X17761904Y6751191D01*
X17761904Y6513096D01*
X17714285Y6417858D01*
X17666666Y6370239D01*
X17571428Y6322620D01*
X17333333Y6322620D01*
X17238095Y6370239D01*
X17190476Y6417858D01*
X10361904Y46547620D02*
X10361904Y47547620D01*
X10600000Y47547620D01*
X10742857Y47500000D01*
X10838095Y47404762D01*
X10885714Y47309524D01*
X10933333Y47119048D01*
X10933333Y46976191D01*
X10885714Y46785715D01*
X10838095Y46690477D01*
X10742857Y46595239D01*
X10600000Y46547620D01*
X10361904Y46547620D01*
X11838095Y47547620D02*
X11361904Y47547620D01*
X11314285Y47071429D01*
X11361904Y47119048D01*
X11457142Y47166667D01*
X11695238Y47166667D01*
X11790476Y47119048D01*
X11838095Y47071429D01*
X11885714Y46976191D01*
X11885714Y46738096D01*
X11838095Y46642858D01*
X11790476Y46595239D01*
X11695238Y46547620D01*
X11457142Y46547620D01*
X11361904Y46595239D01*
X11314285Y46642858D01*
X25157380Y8988905D02*
X24157380Y8988905D01*
X24157380Y9227000D01*
X24205000Y9369858D01*
X24300238Y9465096D01*
X24395476Y9512715D01*
X24585952Y9560334D01*
X24728809Y9560334D01*
X24919285Y9512715D01*
X25014523Y9465096D01*
X25109761Y9369858D01*
X25157380Y9227000D01*
X25157380Y8988905D01*
X24157380Y10417477D02*
X24157380Y10227000D01*
X24205000Y10131762D01*
X24252619Y10084143D01*
X24395476Y9988905D01*
X24585952Y9941286D01*
X24966904Y9941286D01*
X25062142Y9988905D01*
X25109761Y10036524D01*
X25157380Y10131762D01*
X25157380Y10322239D01*
X25109761Y10417477D01*
X25062142Y10465096D01*
X24966904Y10512715D01*
X24728809Y10512715D01*
X24633571Y10465096D01*
X24585952Y10417477D01*
X24538333Y10322239D01*
X24538333Y10131762D01*
X24585952Y10036524D01*
X24633571Y9988905D01*
X24728809Y9941286D01*
X19888904Y15492620D02*
X19888904Y16492620D01*
X20127000Y16492620D01*
X20269857Y16445000D01*
X20365095Y16349762D01*
X20412714Y16254524D01*
X20460333Y16064048D01*
X20460333Y15921191D01*
X20412714Y15730715D01*
X20365095Y15635477D01*
X20269857Y15540239D01*
X20127000Y15492620D01*
X19888904Y15492620D01*
X20793666Y16492620D02*
X21460333Y16492620D01*
X21031761Y15492620D01*
X19729761Y11077381D02*
X19634523Y11125000D01*
X19539285Y11220239D01*
X19396428Y11363096D01*
X19301190Y11410715D01*
X19205952Y11410715D01*
X19253571Y11172620D02*
X19158333Y11220239D01*
X19063095Y11315477D01*
X19015476Y11505953D01*
X19015476Y11839286D01*
X19063095Y12029762D01*
X19158333Y12125000D01*
X19253571Y12172620D01*
X19444047Y12172620D01*
X19539285Y12125000D01*
X19634523Y12029762D01*
X19682142Y11839286D01*
X19682142Y11505953D01*
X19634523Y11315477D01*
X19539285Y11220239D01*
X19444047Y11172620D01*
X19253571Y11172620D01*
X20634523Y11172620D02*
X20063095Y11172620D01*
X20348809Y11172620D02*
X20348809Y12172620D01*
X20253571Y12029762D01*
X20158333Y11934524D01*
X20063095Y11886905D01*
X16345333Y11122620D02*
X16012000Y11598810D01*
X15773904Y11122620D02*
X15773904Y12122620D01*
X16154857Y12122620D01*
X16250095Y12075000D01*
X16297714Y12027381D01*
X16345333Y11932143D01*
X16345333Y11789286D01*
X16297714Y11694048D01*
X16250095Y11646429D01*
X16154857Y11598810D01*
X15773904Y11598810D01*
X17250095Y12122620D02*
X16773904Y12122620D01*
X16726285Y11646429D01*
X16773904Y11694048D01*
X16869142Y11741667D01*
X17107238Y11741667D01*
X17202476Y11694048D01*
X17250095Y11646429D01*
X17297714Y11551191D01*
X17297714Y11313096D01*
X17250095Y11217858D01*
X17202476Y11170239D01*
X17107238Y11122620D01*
X16869142Y11122620D01*
X16773904Y11170239D01*
X16726285Y11217858D01*
X20338095Y7047620D02*
X20338095Y6238096D01*
X20385714Y6142858D01*
X20433333Y6095239D01*
X20528571Y6047620D01*
X20719047Y6047620D01*
X20814285Y6095239D01*
X20861904Y6142858D01*
X20909523Y6238096D01*
X20909523Y7047620D01*
X21814285Y6714286D02*
X21814285Y6047620D01*
X21576190Y7095239D02*
X21338095Y6380953D01*
X21957142Y6380953D01*
X4752380Y46033334D02*
X4276190Y45700000D01*
X4752380Y45461905D02*
X3752380Y45461905D01*
X3752380Y45842858D01*
X3800000Y45938096D01*
X3847619Y45985715D01*
X3942857Y46033334D01*
X4085714Y46033334D01*
X4180952Y45985715D01*
X4228571Y45938096D01*
X4276190Y45842858D01*
X4276190Y45461905D01*
X3752380Y46890477D02*
X3752380Y46700000D01*
X3800000Y46604762D01*
X3847619Y46557143D01*
X3990476Y46461905D01*
X4180952Y46414286D01*
X4561904Y46414286D01*
X4657142Y46461905D01*
X4704761Y46509524D01*
X4752380Y46604762D01*
X4752380Y46795239D01*
X4704761Y46890477D01*
X4657142Y46938096D01*
X4561904Y46985715D01*
X4323809Y46985715D01*
X4228571Y46938096D01*
X4180952Y46890477D01*
X4133333Y46795239D01*
X4133333Y46604762D01*
X4180952Y46509524D01*
X4228571Y46461905D01*
X4323809Y46414286D01*
M02*
