G04 #@! TF.GenerationSoftware,KiCad,Pcbnew,(5.1.6)-1*
G04 #@! TF.CreationDate,2020-08-01T00:49:32+09:00*
G04 #@! TF.ProjectId,Meno_R2,4d656e6f-5f52-4322-9e6b-696361645f70,rev?*
G04 #@! TF.SameCoordinates,PX6cf7820PY7a67730*
G04 #@! TF.FileFunction,Legend,Bot*
G04 #@! TF.FilePolarity,Positive*
%FSLAX46Y46*%
G04 Gerber Fmt 4.6, Leading zero omitted, Abs format (unit mm)*
G04 Created by KiCad (PCBNEW (5.1.6)-1) date 2020-08-01 00:49:32*
%MOMM*%
%LPD*%
G01*
G04 APERTURE LIST*
%ADD10C,0.150000*%
%ADD11C,0.250000*%
%ADD12C,0.010000*%
G04 APERTURE END LIST*
D10*
X42767142Y41897620D02*
X42433809Y40897620D01*
X42100476Y41897620D01*
X41386190Y40945239D02*
X41481428Y40897620D01*
X41671904Y40897620D01*
X41767142Y40945239D01*
X41814761Y41040477D01*
X41814761Y41421429D01*
X41767142Y41516667D01*
X41671904Y41564286D01*
X41481428Y41564286D01*
X41386190Y41516667D01*
X41338571Y41421429D01*
X41338571Y41326191D01*
X41814761Y41230953D01*
X40910000Y40897620D02*
X40910000Y41564286D01*
X40910000Y41373810D02*
X40862380Y41469048D01*
X40814761Y41516667D01*
X40719523Y41564286D01*
X40624285Y41564286D01*
X40290952Y40992858D02*
X40243333Y40945239D01*
X40290952Y40897620D01*
X40338571Y40945239D01*
X40290952Y40992858D01*
X40290952Y40897620D01*
X38529047Y40897620D02*
X39100476Y40897620D01*
X38814761Y40897620D02*
X38814761Y41897620D01*
X38910000Y41754762D01*
X39005238Y41659524D01*
X39100476Y41611905D01*
X38100476Y40992858D02*
X38052857Y40945239D01*
X38100476Y40897620D01*
X38148095Y40945239D01*
X38100476Y40992858D01*
X38100476Y40897620D01*
X37433809Y41897620D02*
X37338571Y41897620D01*
X37243333Y41850000D01*
X37195714Y41802381D01*
X37148095Y41707143D01*
X37100476Y41516667D01*
X37100476Y41278572D01*
X37148095Y41088096D01*
X37195714Y40992858D01*
X37243333Y40945239D01*
X37338571Y40897620D01*
X37433809Y40897620D01*
X37529047Y40945239D01*
X37576666Y40992858D01*
X37624285Y41088096D01*
X37671904Y41278572D01*
X37671904Y41516667D01*
X37624285Y41707143D01*
X37576666Y41802381D01*
X37529047Y41850000D01*
X37433809Y41897620D01*
X36148095Y40897620D02*
X36719523Y40897620D01*
X36433809Y40897620D02*
X36433809Y41897620D01*
X36529047Y41754762D01*
X36624285Y41659524D01*
X36719523Y41611905D01*
X51075238Y28921429D02*
X50741904Y28921429D01*
X50599047Y28397620D02*
X51075238Y28397620D01*
X51075238Y29397620D01*
X50599047Y29397620D01*
X50027619Y28397620D02*
X50122857Y28445239D01*
X50170476Y28540477D01*
X50170476Y29397620D01*
X49265714Y28445239D02*
X49360952Y28397620D01*
X49551428Y28397620D01*
X49646666Y28445239D01*
X49694285Y28540477D01*
X49694285Y28921429D01*
X49646666Y29016667D01*
X49551428Y29064286D01*
X49360952Y29064286D01*
X49265714Y29016667D01*
X49218095Y28921429D01*
X49218095Y28826191D01*
X49694285Y28730953D01*
X48360952Y28445239D02*
X48456190Y28397620D01*
X48646666Y28397620D01*
X48741904Y28445239D01*
X48789523Y28492858D01*
X48837142Y28588096D01*
X48837142Y28873810D01*
X48789523Y28969048D01*
X48741904Y29016667D01*
X48646666Y29064286D01*
X48456190Y29064286D01*
X48360952Y29016667D01*
X48075238Y29064286D02*
X47694285Y29064286D01*
X47932380Y29397620D02*
X47932380Y28540477D01*
X47884761Y28445239D01*
X47789523Y28397620D01*
X47694285Y28397620D01*
X47360952Y28397620D02*
X47360952Y29064286D01*
X47360952Y28873810D02*
X47313333Y28969048D01*
X47265714Y29016667D01*
X47170476Y29064286D01*
X47075238Y29064286D01*
X46741904Y28397620D02*
X46741904Y29064286D01*
X46741904Y29397620D02*
X46789523Y29350000D01*
X46741904Y29302381D01*
X46694285Y29350000D01*
X46741904Y29397620D01*
X46741904Y29302381D01*
X45837142Y28445239D02*
X45932380Y28397620D01*
X46122857Y28397620D01*
X46218095Y28445239D01*
X46265714Y28492858D01*
X46313333Y28588096D01*
X46313333Y28873810D01*
X46265714Y28969048D01*
X46218095Y29016667D01*
X46122857Y29064286D01*
X45932380Y29064286D01*
X45837142Y29016667D01*
X44789523Y29397620D02*
X44218095Y29397620D01*
X44503809Y28397620D02*
X44503809Y29397620D01*
X43503809Y28445239D02*
X43599047Y28397620D01*
X43789523Y28397620D01*
X43884761Y28445239D01*
X43932380Y28540477D01*
X43932380Y28921429D01*
X43884761Y29016667D01*
X43789523Y29064286D01*
X43599047Y29064286D01*
X43503809Y29016667D01*
X43456190Y28921429D01*
X43456190Y28826191D01*
X43932380Y28730953D01*
X42599047Y28445239D02*
X42694285Y28397620D01*
X42884761Y28397620D01*
X42980000Y28445239D01*
X43027619Y28492858D01*
X43075238Y28588096D01*
X43075238Y28873810D01*
X43027619Y28969048D01*
X42980000Y29016667D01*
X42884761Y29064286D01*
X42694285Y29064286D01*
X42599047Y29016667D01*
X42170476Y28397620D02*
X42170476Y29397620D01*
X41741904Y28397620D02*
X41741904Y28921429D01*
X41789523Y29016667D01*
X41884761Y29064286D01*
X42027619Y29064286D01*
X42122857Y29016667D01*
X42170476Y28969048D01*
X39932380Y28397620D02*
X40265714Y28873810D01*
X40503809Y28397620D02*
X40503809Y29397620D01*
X40122857Y29397620D01*
X40027619Y29350000D01*
X39980000Y29302381D01*
X39932380Y29207143D01*
X39932380Y29064286D01*
X39980000Y28969048D01*
X40027619Y28921429D01*
X40122857Y28873810D01*
X40503809Y28873810D01*
X38694285Y28397620D02*
X38741904Y28397620D01*
X38837142Y28445239D01*
X38980000Y28588096D01*
X39218095Y28873810D01*
X39313333Y29016667D01*
X39360952Y29159524D01*
X39360952Y29254762D01*
X39313333Y29350000D01*
X39218095Y29397620D01*
X39170476Y29397620D01*
X39075238Y29350000D01*
X39027619Y29254762D01*
X39027619Y29207143D01*
X39075238Y29111905D01*
X39122857Y29064286D01*
X39408571Y28873810D01*
X39456190Y28826191D01*
X39503809Y28730953D01*
X39503809Y28588096D01*
X39456190Y28492858D01*
X39408571Y28445239D01*
X39313333Y28397620D01*
X39170476Y28397620D01*
X39075238Y28445239D01*
X39027619Y28492858D01*
X38884761Y28683334D01*
X38837142Y28826191D01*
X38837142Y28921429D01*
X38265714Y28397620D02*
X38265714Y29397620D01*
X38027619Y29397620D01*
X37884761Y29350000D01*
X37789523Y29254762D01*
X37741904Y29159524D01*
X37694285Y28969048D01*
X37694285Y28826191D01*
X37741904Y28635715D01*
X37789523Y28540477D01*
X37884761Y28445239D01*
X38027619Y28397620D01*
X38265714Y28397620D01*
X36503809Y28492858D02*
X36456190Y28445239D01*
X36503809Y28397620D01*
X36551428Y28445239D01*
X36503809Y28492858D01*
X36503809Y28397620D01*
X35551428Y28397620D02*
X36027619Y28397620D01*
X36027619Y29397620D01*
X34789523Y28397620D02*
X34789523Y28921429D01*
X34837142Y29016667D01*
X34932380Y29064286D01*
X35122857Y29064286D01*
X35218095Y29016667D01*
X34789523Y28445239D02*
X34884761Y28397620D01*
X35122857Y28397620D01*
X35218095Y28445239D01*
X35265714Y28540477D01*
X35265714Y28635715D01*
X35218095Y28730953D01*
X35122857Y28778572D01*
X34884761Y28778572D01*
X34789523Y28826191D01*
X34313333Y28397620D02*
X34313333Y29397620D01*
X34313333Y29016667D02*
X34218095Y29064286D01*
X34027619Y29064286D01*
X33932380Y29016667D01*
X33884761Y28969048D01*
X33837142Y28873810D01*
X33837142Y28588096D01*
X33884761Y28492858D01*
X33932380Y28445239D01*
X34027619Y28397620D01*
X34218095Y28397620D01*
X34313333Y28445239D01*
X17908095Y13302620D02*
X18384285Y13302620D01*
X18384285Y14302620D01*
X17431904Y13302620D02*
X17527142Y13350239D01*
X17574761Y13397858D01*
X17622380Y13493096D01*
X17622380Y13778810D01*
X17574761Y13874048D01*
X17527142Y13921667D01*
X17431904Y13969286D01*
X17289047Y13969286D01*
X17193809Y13921667D01*
X17146190Y13874048D01*
X17098571Y13778810D01*
X17098571Y13493096D01*
X17146190Y13397858D01*
X17193809Y13350239D01*
X17289047Y13302620D01*
X17431904Y13302620D01*
X16241428Y13969286D02*
X16241428Y13159762D01*
X16289047Y13064524D01*
X16336666Y13016905D01*
X16431904Y12969286D01*
X16574761Y12969286D01*
X16670000Y13016905D01*
X16241428Y13350239D02*
X16336666Y13302620D01*
X16527142Y13302620D01*
X16622380Y13350239D01*
X16670000Y13397858D01*
X16717619Y13493096D01*
X16717619Y13778810D01*
X16670000Y13874048D01*
X16622380Y13921667D01*
X16527142Y13969286D01*
X16336666Y13969286D01*
X16241428Y13921667D01*
X15622380Y13302620D02*
X15717619Y13350239D01*
X15765238Y13397858D01*
X15812857Y13493096D01*
X15812857Y13778810D01*
X15765238Y13874048D01*
X15717619Y13921667D01*
X15622380Y13969286D01*
X15479523Y13969286D01*
X15384285Y13921667D01*
X15336666Y13874048D01*
X15289047Y13778810D01*
X15289047Y13493096D01*
X15336666Y13397858D01*
X15384285Y13350239D01*
X15479523Y13302620D01*
X15622380Y13302620D01*
X13670000Y13302620D02*
X13670000Y14302620D01*
X13670000Y13350239D02*
X13765238Y13302620D01*
X13955714Y13302620D01*
X14050952Y13350239D01*
X14098571Y13397858D01*
X14146190Y13493096D01*
X14146190Y13778810D01*
X14098571Y13874048D01*
X14050952Y13921667D01*
X13955714Y13969286D01*
X13765238Y13969286D01*
X13670000Y13921667D01*
X12812857Y13350239D02*
X12908095Y13302620D01*
X13098571Y13302620D01*
X13193809Y13350239D01*
X13241428Y13445477D01*
X13241428Y13826429D01*
X13193809Y13921667D01*
X13098571Y13969286D01*
X12908095Y13969286D01*
X12812857Y13921667D01*
X12765238Y13826429D01*
X12765238Y13731191D01*
X13241428Y13635953D01*
X12384285Y13350239D02*
X12289047Y13302620D01*
X12098571Y13302620D01*
X12003333Y13350239D01*
X11955714Y13445477D01*
X11955714Y13493096D01*
X12003333Y13588334D01*
X12098571Y13635953D01*
X12241428Y13635953D01*
X12336666Y13683572D01*
X12384285Y13778810D01*
X12384285Y13826429D01*
X12336666Y13921667D01*
X12241428Y13969286D01*
X12098571Y13969286D01*
X12003333Y13921667D01*
X11527142Y13302620D02*
X11527142Y13969286D01*
X11527142Y14302620D02*
X11574761Y14255000D01*
X11527142Y14207381D01*
X11479523Y14255000D01*
X11527142Y14302620D01*
X11527142Y14207381D01*
X10622380Y13969286D02*
X10622380Y13159762D01*
X10670000Y13064524D01*
X10717619Y13016905D01*
X10812857Y12969286D01*
X10955714Y12969286D01*
X11050952Y13016905D01*
X10622380Y13350239D02*
X10717619Y13302620D01*
X10908095Y13302620D01*
X11003333Y13350239D01*
X11050952Y13397858D01*
X11098571Y13493096D01*
X11098571Y13778810D01*
X11050952Y13874048D01*
X11003333Y13921667D01*
X10908095Y13969286D01*
X10717619Y13969286D01*
X10622380Y13921667D01*
X10146190Y13969286D02*
X10146190Y13302620D01*
X10146190Y13874048D02*
X10098571Y13921667D01*
X10003333Y13969286D01*
X9860476Y13969286D01*
X9765238Y13921667D01*
X9717619Y13826429D01*
X9717619Y13302620D01*
X8860476Y13350239D02*
X8955714Y13302620D01*
X9146190Y13302620D01*
X9241428Y13350239D01*
X9289047Y13445477D01*
X9289047Y13826429D01*
X9241428Y13921667D01*
X9146190Y13969286D01*
X8955714Y13969286D01*
X8860476Y13921667D01*
X8812857Y13826429D01*
X8812857Y13731191D01*
X9289047Y13635953D01*
X7955714Y13302620D02*
X7955714Y14302620D01*
X7955714Y13350239D02*
X8050952Y13302620D01*
X8241428Y13302620D01*
X8336666Y13350239D01*
X8384285Y13397858D01*
X8431904Y13493096D01*
X8431904Y13778810D01*
X8384285Y13874048D01*
X8336666Y13921667D01*
X8241428Y13969286D01*
X8050952Y13969286D01*
X7955714Y13921667D01*
X18693809Y11652620D02*
X18693809Y12652620D01*
X18693809Y12271667D02*
X18598571Y12319286D01*
X18408095Y12319286D01*
X18312857Y12271667D01*
X18265238Y12224048D01*
X18217619Y12128810D01*
X18217619Y11843096D01*
X18265238Y11747858D01*
X18312857Y11700239D01*
X18408095Y11652620D01*
X18598571Y11652620D01*
X18693809Y11700239D01*
X17884285Y12319286D02*
X17646190Y11652620D01*
X17408095Y12319286D02*
X17646190Y11652620D01*
X17741428Y11414524D01*
X17789047Y11366905D01*
X17884285Y11319286D01*
X15646190Y12128810D02*
X15693809Y12176429D01*
X15789047Y12224048D01*
X15884285Y12224048D01*
X15979523Y12176429D01*
X16027142Y12128810D01*
X16074761Y12033572D01*
X16074761Y11938334D01*
X16027142Y11843096D01*
X15979523Y11795477D01*
X15884285Y11747858D01*
X15789047Y11747858D01*
X15693809Y11795477D01*
X15646190Y11843096D01*
X15646190Y12224048D02*
X15646190Y11843096D01*
X15598571Y11795477D01*
X15550952Y11795477D01*
X15455714Y11843096D01*
X15408095Y11938334D01*
X15408095Y12176429D01*
X15503333Y12319286D01*
X15646190Y12414524D01*
X15836666Y12462143D01*
X16027142Y12414524D01*
X16170000Y12319286D01*
X16265238Y12176429D01*
X16312857Y11985953D01*
X16265238Y11795477D01*
X16170000Y11652620D01*
X16027142Y11557381D01*
X15836666Y11509762D01*
X15646190Y11557381D01*
X15503333Y11652620D01*
X14979523Y11652620D02*
X14979523Y12652620D01*
X14646190Y11938334D01*
X14312857Y12652620D01*
X14312857Y11652620D01*
X13408095Y11652620D02*
X13408095Y12176429D01*
X13455714Y12271667D01*
X13550952Y12319286D01*
X13741428Y12319286D01*
X13836666Y12271667D01*
X13408095Y11700239D02*
X13503333Y11652620D01*
X13741428Y11652620D01*
X13836666Y11700239D01*
X13884285Y11795477D01*
X13884285Y11890715D01*
X13836666Y11985953D01*
X13741428Y12033572D01*
X13503333Y12033572D01*
X13408095Y12081191D01*
X12931904Y11652620D02*
X12931904Y12652620D01*
X12836666Y12033572D02*
X12550952Y11652620D01*
X12550952Y12319286D02*
X12931904Y11938334D01*
X11979523Y11652620D02*
X12074761Y11700239D01*
X12122380Y11747858D01*
X12170000Y11843096D01*
X12170000Y12128810D01*
X12122380Y12224048D01*
X12074761Y12271667D01*
X11979523Y12319286D01*
X11836666Y12319286D01*
X11741428Y12271667D01*
X11693809Y12224048D01*
X11646190Y12128810D01*
X11646190Y11843096D01*
X11693809Y11747858D01*
X11741428Y11700239D01*
X11836666Y11652620D01*
X11979523Y11652620D01*
X11360476Y12652620D02*
X10789047Y12652620D01*
X11074761Y11652620D02*
X11074761Y12652620D01*
X10455714Y11652620D02*
X10455714Y12319286D01*
X10455714Y12128810D02*
X10408095Y12224048D01*
X10360476Y12271667D01*
X10265238Y12319286D01*
X10170000Y12319286D01*
X10074761Y11557381D02*
X9312857Y11557381D01*
X8884285Y12652620D02*
X8789047Y12652620D01*
X8693809Y12605000D01*
X8646190Y12557381D01*
X8598571Y12462143D01*
X8550952Y12271667D01*
X8550952Y12033572D01*
X8598571Y11843096D01*
X8646190Y11747858D01*
X8693809Y11700239D01*
X8789047Y11652620D01*
X8884285Y11652620D01*
X8979523Y11700239D01*
X9027142Y11747858D01*
X9074761Y11843096D01*
X9122380Y12033572D01*
X9122380Y12271667D01*
X9074761Y12462143D01*
X9027142Y12557381D01*
X8979523Y12605000D01*
X8884285Y12652620D01*
X7598571Y11652620D02*
X8170000Y11652620D01*
X7884285Y11652620D02*
X7884285Y12652620D01*
X7979523Y12509762D01*
X8074761Y12414524D01*
X8170000Y12366905D01*
X51067219Y33761420D02*
X51067219Y34761420D01*
X50829123Y34761420D01*
X50686266Y34713800D01*
X50591028Y34618562D01*
X50543409Y34523324D01*
X50495790Y34332848D01*
X50495790Y34189991D01*
X50543409Y33999515D01*
X50591028Y33904277D01*
X50686266Y33809039D01*
X50829123Y33761420D01*
X51067219Y33761420D01*
X49686266Y33809039D02*
X49781504Y33761420D01*
X49971980Y33761420D01*
X50067219Y33809039D01*
X50114838Y33904277D01*
X50114838Y34285229D01*
X50067219Y34380467D01*
X49971980Y34428086D01*
X49781504Y34428086D01*
X49686266Y34380467D01*
X49638647Y34285229D01*
X49638647Y34189991D01*
X50114838Y34094753D01*
X49257695Y33809039D02*
X49162457Y33761420D01*
X48971980Y33761420D01*
X48876742Y33809039D01*
X48829123Y33904277D01*
X48829123Y33951896D01*
X48876742Y34047134D01*
X48971980Y34094753D01*
X49114838Y34094753D01*
X49210076Y34142372D01*
X49257695Y34237610D01*
X49257695Y34285229D01*
X49210076Y34380467D01*
X49114838Y34428086D01*
X48971980Y34428086D01*
X48876742Y34380467D01*
X48400552Y33761420D02*
X48400552Y34428086D01*
X48400552Y34761420D02*
X48448171Y34713800D01*
X48400552Y34666181D01*
X48352933Y34713800D01*
X48400552Y34761420D01*
X48400552Y34666181D01*
X47495790Y34428086D02*
X47495790Y33618562D01*
X47543409Y33523324D01*
X47591028Y33475705D01*
X47686266Y33428086D01*
X47829123Y33428086D01*
X47924361Y33475705D01*
X47495790Y33809039D02*
X47591028Y33761420D01*
X47781504Y33761420D01*
X47876742Y33809039D01*
X47924361Y33856658D01*
X47971980Y33951896D01*
X47971980Y34237610D01*
X47924361Y34332848D01*
X47876742Y34380467D01*
X47781504Y34428086D01*
X47591028Y34428086D01*
X47495790Y34380467D01*
X47019600Y34428086D02*
X47019600Y33761420D01*
X47019600Y34332848D02*
X46971980Y34380467D01*
X46876742Y34428086D01*
X46733885Y34428086D01*
X46638647Y34380467D01*
X46591028Y34285229D01*
X46591028Y33761420D01*
X45733885Y33809039D02*
X45829123Y33761420D01*
X46019600Y33761420D01*
X46114838Y33809039D01*
X46162457Y33904277D01*
X46162457Y34285229D01*
X46114838Y34380467D01*
X46019600Y34428086D01*
X45829123Y34428086D01*
X45733885Y34380467D01*
X45686266Y34285229D01*
X45686266Y34189991D01*
X46162457Y34094753D01*
X44829123Y33761420D02*
X44829123Y34761420D01*
X44829123Y33809039D02*
X44924361Y33761420D01*
X45114838Y33761420D01*
X45210076Y33809039D01*
X45257695Y33856658D01*
X45305314Y33951896D01*
X45305314Y34237610D01*
X45257695Y34332848D01*
X45210076Y34380467D01*
X45114838Y34428086D01*
X44924361Y34428086D01*
X44829123Y34380467D01*
X43591028Y33761420D02*
X43591028Y34761420D01*
X43591028Y34380467D02*
X43495790Y34428086D01*
X43305314Y34428086D01*
X43210076Y34380467D01*
X43162457Y34332848D01*
X43114838Y34237610D01*
X43114838Y33951896D01*
X43162457Y33856658D01*
X43210076Y33809039D01*
X43305314Y33761420D01*
X43495790Y33761420D01*
X43591028Y33809039D01*
X42781504Y34428086D02*
X42543409Y33761420D01*
X42305314Y34428086D02*
X42543409Y33761420D01*
X42638647Y33523324D01*
X42686266Y33475705D01*
X42781504Y33428086D01*
X40543409Y34237610D02*
X40591028Y34285229D01*
X40686266Y34332848D01*
X40781504Y34332848D01*
X40876742Y34285229D01*
X40924361Y34237610D01*
X40971980Y34142372D01*
X40971980Y34047134D01*
X40924361Y33951896D01*
X40876742Y33904277D01*
X40781504Y33856658D01*
X40686266Y33856658D01*
X40591028Y33904277D01*
X40543409Y33951896D01*
X40543409Y34332848D02*
X40543409Y33951896D01*
X40495790Y33904277D01*
X40448171Y33904277D01*
X40352933Y33951896D01*
X40305314Y34047134D01*
X40305314Y34285229D01*
X40400552Y34428086D01*
X40543409Y34523324D01*
X40733885Y34570943D01*
X40924361Y34523324D01*
X41067219Y34428086D01*
X41162457Y34285229D01*
X41210076Y34094753D01*
X41162457Y33904277D01*
X41067219Y33761420D01*
X40924361Y33666181D01*
X40733885Y33618562D01*
X40543409Y33666181D01*
X40400552Y33761420D01*
X39971980Y34428086D02*
X39448171Y34428086D01*
X39971980Y33761420D01*
X39448171Y33761420D01*
X38686266Y33809039D02*
X38781504Y33761420D01*
X38971980Y33761420D01*
X39067219Y33809039D01*
X39114838Y33904277D01*
X39114838Y34285229D01*
X39067219Y34380467D01*
X38971980Y34428086D01*
X38781504Y34428086D01*
X38686266Y34380467D01*
X38638647Y34285229D01*
X38638647Y34189991D01*
X39114838Y34094753D01*
X38210076Y33761420D02*
X38210076Y34428086D01*
X38210076Y34237610D02*
X38162457Y34332848D01*
X38114838Y34380467D01*
X38019600Y34428086D01*
X37924361Y34428086D01*
X37400552Y34761420D02*
X37305314Y34761420D01*
X37210076Y34713800D01*
X37162457Y34666181D01*
X37114838Y34570943D01*
X37067219Y34380467D01*
X37067219Y34142372D01*
X37114838Y33951896D01*
X37162457Y33856658D01*
X37210076Y33809039D01*
X37305314Y33761420D01*
X37400552Y33761420D01*
X37495790Y33809039D01*
X37543409Y33856658D01*
X37591028Y33951896D01*
X37638647Y34142372D01*
X37638647Y34380467D01*
X37591028Y34570943D01*
X37543409Y34666181D01*
X37495790Y34713800D01*
X37400552Y34761420D01*
X36495790Y33761420D02*
X36591028Y33809039D01*
X36638647Y33856658D01*
X36686266Y33951896D01*
X36686266Y34237610D01*
X36638647Y34332848D01*
X36591028Y34380467D01*
X36495790Y34428086D01*
X36352933Y34428086D01*
X36257695Y34380467D01*
X36210076Y34332848D01*
X36162457Y34237610D01*
X36162457Y33951896D01*
X36210076Y33856658D01*
X36257695Y33809039D01*
X36352933Y33761420D01*
X36495790Y33761420D01*
X35733885Y33761420D02*
X35733885Y34761420D01*
X35305314Y33761420D02*
X35305314Y34285229D01*
X35352933Y34380467D01*
X35448171Y34428086D01*
X35591028Y34428086D01*
X35686266Y34380467D01*
X35733885Y34332848D01*
X34829123Y33761420D02*
X34829123Y34428086D01*
X34829123Y34332848D02*
X34781504Y34380467D01*
X34686266Y34428086D01*
X34543409Y34428086D01*
X34448171Y34380467D01*
X34400552Y34285229D01*
X34400552Y33761420D01*
X34400552Y34285229D02*
X34352933Y34380467D01*
X34257695Y34428086D01*
X34114838Y34428086D01*
X34019600Y34380467D01*
X33971980Y34285229D01*
X33971980Y33761420D01*
X50892857Y37352220D02*
X50797619Y37352220D01*
X50702380Y37304600D01*
X50654761Y37256981D01*
X50607142Y37161743D01*
X50559523Y36971267D01*
X50559523Y36733172D01*
X50607142Y36542696D01*
X50654761Y36447458D01*
X50702380Y36399839D01*
X50797619Y36352220D01*
X50892857Y36352220D01*
X50988095Y36399839D01*
X51035714Y36447458D01*
X51083333Y36542696D01*
X51130952Y36733172D01*
X51130952Y36971267D01*
X51083333Y37161743D01*
X51035714Y37256981D01*
X50988095Y37304600D01*
X50892857Y37352220D01*
X50130952Y36352220D02*
X50130952Y37352220D01*
X49702380Y36352220D02*
X49702380Y36876029D01*
X49750000Y36971267D01*
X49845238Y37018886D01*
X49988095Y37018886D01*
X50083333Y36971267D01*
X50130952Y36923648D01*
X49226190Y36352220D02*
X49226190Y37018886D01*
X49226190Y36923648D02*
X49178571Y36971267D01*
X49083333Y37018886D01*
X48940476Y37018886D01*
X48845238Y36971267D01*
X48797619Y36876029D01*
X48797619Y36352220D01*
X48797619Y36876029D02*
X48750000Y36971267D01*
X48654761Y37018886D01*
X48511904Y37018886D01*
X48416666Y36971267D01*
X48369047Y36876029D01*
X48369047Y36352220D01*
X47892857Y36447458D02*
X47845238Y36399839D01*
X47892857Y36352220D01*
X47940476Y36399839D01*
X47892857Y36447458D01*
X47892857Y36352220D01*
X47273809Y36352220D02*
X47369047Y36399839D01*
X47416666Y36447458D01*
X47464285Y36542696D01*
X47464285Y36828410D01*
X47416666Y36923648D01*
X47369047Y36971267D01*
X47273809Y37018886D01*
X47130952Y37018886D01*
X47035714Y36971267D01*
X46988095Y36923648D01*
X46940476Y36828410D01*
X46940476Y36542696D01*
X46988095Y36447458D01*
X47035714Y36399839D01*
X47130952Y36352220D01*
X47273809Y36352220D01*
X46511904Y36352220D02*
X46511904Y37018886D01*
X46511904Y36828410D02*
X46464285Y36923648D01*
X46416666Y36971267D01*
X46321428Y37018886D01*
X46226190Y37018886D01*
X45464285Y37018886D02*
X45464285Y36209362D01*
X45511904Y36114124D01*
X45559523Y36066505D01*
X45654761Y36018886D01*
X45797619Y36018886D01*
X45892857Y36066505D01*
X45464285Y36399839D02*
X45559523Y36352220D01*
X45750000Y36352220D01*
X45845238Y36399839D01*
X45892857Y36447458D01*
X45940476Y36542696D01*
X45940476Y36828410D01*
X45892857Y36923648D01*
X45845238Y36971267D01*
X45750000Y37018886D01*
X45559523Y37018886D01*
X45464285Y36971267D01*
X44273809Y37399839D02*
X45130952Y36114124D01*
X43940476Y36352220D02*
X43940476Y37018886D01*
X43940476Y36923648D02*
X43892857Y36971267D01*
X43797619Y37018886D01*
X43654761Y37018886D01*
X43559523Y36971267D01*
X43511904Y36876029D01*
X43511904Y36352220D01*
X43511904Y36876029D02*
X43464285Y36971267D01*
X43369047Y37018886D01*
X43226190Y37018886D01*
X43130952Y36971267D01*
X43083333Y36876029D01*
X43083333Y36352220D01*
X42226190Y36399839D02*
X42321428Y36352220D01*
X42511904Y36352220D01*
X42607142Y36399839D01*
X42654761Y36495077D01*
X42654761Y36876029D01*
X42607142Y36971267D01*
X42511904Y37018886D01*
X42321428Y37018886D01*
X42226190Y36971267D01*
X42178571Y36876029D01*
X42178571Y36780791D01*
X42654761Y36685553D01*
X41750000Y37018886D02*
X41750000Y36352220D01*
X41750000Y36923648D02*
X41702380Y36971267D01*
X41607142Y37018886D01*
X41464285Y37018886D01*
X41369047Y36971267D01*
X41321428Y36876029D01*
X41321428Y36352220D01*
X40702380Y36352220D02*
X40797619Y36399839D01*
X40845238Y36447458D01*
X40892857Y36542696D01*
X40892857Y36828410D01*
X40845238Y36923648D01*
X40797619Y36971267D01*
X40702380Y37018886D01*
X40559523Y37018886D01*
X40464285Y36971267D01*
X40416666Y36923648D01*
X40369047Y36828410D01*
X40369047Y36542696D01*
X40416666Y36447458D01*
X40464285Y36399839D01*
X40559523Y36352220D01*
X40702380Y36352220D01*
X50995238Y38933334D02*
X50519047Y38933334D01*
X51090476Y38647620D02*
X50757142Y39647620D01*
X50423809Y38647620D01*
X50090476Y38647620D02*
X50090476Y39314286D01*
X50090476Y39123810D02*
X50042857Y39219048D01*
X49995238Y39266667D01*
X49900000Y39314286D01*
X49804761Y39314286D01*
X49042857Y38647620D02*
X49042857Y39647620D01*
X49042857Y38695239D02*
X49138095Y38647620D01*
X49328571Y38647620D01*
X49423809Y38695239D01*
X49471428Y38742858D01*
X49519047Y38838096D01*
X49519047Y39123810D01*
X49471428Y39219048D01*
X49423809Y39266667D01*
X49328571Y39314286D01*
X49138095Y39314286D01*
X49042857Y39266667D01*
X48138095Y39314286D02*
X48138095Y38647620D01*
X48566666Y39314286D02*
X48566666Y38790477D01*
X48519047Y38695239D01*
X48423809Y38647620D01*
X48280952Y38647620D01*
X48185714Y38695239D01*
X48138095Y38742858D01*
X47661904Y38647620D02*
X47661904Y39314286D01*
X47661904Y39647620D02*
X47709523Y39600000D01*
X47661904Y39552381D01*
X47614285Y39600000D01*
X47661904Y39647620D01*
X47661904Y39552381D01*
X47185714Y39314286D02*
X47185714Y38647620D01*
X47185714Y39219048D02*
X47138095Y39266667D01*
X47042857Y39314286D01*
X46900000Y39314286D01*
X46804761Y39266667D01*
X46757142Y39171429D01*
X46757142Y38647620D01*
X46138095Y38647620D02*
X46233333Y38695239D01*
X46280952Y38742858D01*
X46328571Y38838096D01*
X46328571Y39123810D01*
X46280952Y39219048D01*
X46233333Y39266667D01*
X46138095Y39314286D01*
X45995238Y39314286D01*
X45900000Y39266667D01*
X45852380Y39219048D01*
X45804761Y39123810D01*
X45804761Y38838096D01*
X45852380Y38742858D01*
X45900000Y38695239D01*
X45995238Y38647620D01*
X46138095Y38647620D01*
X44185714Y38695239D02*
X44280952Y38647620D01*
X44471428Y38647620D01*
X44566666Y38695239D01*
X44614285Y38742858D01*
X44661904Y38838096D01*
X44661904Y39123810D01*
X44614285Y39219048D01*
X44566666Y39266667D01*
X44471428Y39314286D01*
X44280952Y39314286D01*
X44185714Y39266667D01*
X43614285Y38647620D02*
X43709523Y38695239D01*
X43757142Y38742858D01*
X43804761Y38838096D01*
X43804761Y39123810D01*
X43757142Y39219048D01*
X43709523Y39266667D01*
X43614285Y39314286D01*
X43471428Y39314286D01*
X43376190Y39266667D01*
X43328571Y39219048D01*
X43280952Y39123810D01*
X43280952Y38838096D01*
X43328571Y38742858D01*
X43376190Y38695239D01*
X43471428Y38647620D01*
X43614285Y38647620D01*
X42852380Y38647620D02*
X42852380Y39314286D01*
X42852380Y39219048D02*
X42804761Y39266667D01*
X42709523Y39314286D01*
X42566666Y39314286D01*
X42471428Y39266667D01*
X42423809Y39171429D01*
X42423809Y38647620D01*
X42423809Y39171429D02*
X42376190Y39266667D01*
X42280952Y39314286D01*
X42138095Y39314286D01*
X42042857Y39266667D01*
X41995238Y39171429D01*
X41995238Y38647620D01*
X41519047Y39314286D02*
X41519047Y38314286D01*
X41519047Y39266667D02*
X41423809Y39314286D01*
X41233333Y39314286D01*
X41138095Y39266667D01*
X41090476Y39219048D01*
X41042857Y39123810D01*
X41042857Y38838096D01*
X41090476Y38742858D01*
X41138095Y38695239D01*
X41233333Y38647620D01*
X41423809Y38647620D01*
X41519047Y38695239D01*
X40185714Y38647620D02*
X40185714Y39171429D01*
X40233333Y39266667D01*
X40328571Y39314286D01*
X40519047Y39314286D01*
X40614285Y39266667D01*
X40185714Y38695239D02*
X40280952Y38647620D01*
X40519047Y38647620D01*
X40614285Y38695239D01*
X40661904Y38790477D01*
X40661904Y38885715D01*
X40614285Y38980953D01*
X40519047Y39028572D01*
X40280952Y39028572D01*
X40185714Y39076191D01*
X39852380Y39314286D02*
X39471428Y39314286D01*
X39709523Y39647620D02*
X39709523Y38790477D01*
X39661904Y38695239D01*
X39566666Y38647620D01*
X39471428Y38647620D01*
X39138095Y38647620D02*
X39138095Y39314286D01*
X39138095Y39647620D02*
X39185714Y39600000D01*
X39138095Y39552381D01*
X39090476Y39600000D01*
X39138095Y39647620D01*
X39138095Y39552381D01*
X38661904Y38647620D02*
X38661904Y39647620D01*
X38661904Y39266667D02*
X38566666Y39314286D01*
X38376190Y39314286D01*
X38280952Y39266667D01*
X38233333Y39219048D01*
X38185714Y39123810D01*
X38185714Y38838096D01*
X38233333Y38742858D01*
X38280952Y38695239D01*
X38376190Y38647620D01*
X38566666Y38647620D01*
X38661904Y38695239D01*
X37614285Y38647620D02*
X37709523Y38695239D01*
X37757142Y38790477D01*
X37757142Y39647620D01*
X36852380Y38695239D02*
X36947619Y38647620D01*
X37138095Y38647620D01*
X37233333Y38695239D01*
X37280952Y38790477D01*
X37280952Y39171429D01*
X37233333Y39266667D01*
X37138095Y39314286D01*
X36947619Y39314286D01*
X36852380Y39266667D01*
X36804761Y39171429D01*
X36804761Y39076191D01*
X37280952Y38980953D01*
D11*
X51033333Y40895239D02*
X51033333Y42895239D01*
X50366666Y41466667D01*
X49700000Y42895239D01*
X49700000Y40895239D01*
X47985714Y40990477D02*
X48176190Y40895239D01*
X48557142Y40895239D01*
X48747619Y40990477D01*
X48842857Y41180953D01*
X48842857Y41942858D01*
X48747619Y42133334D01*
X48557142Y42228572D01*
X48176190Y42228572D01*
X47985714Y42133334D01*
X47890476Y41942858D01*
X47890476Y41752381D01*
X48842857Y41561905D01*
X47033333Y42228572D02*
X47033333Y40895239D01*
X47033333Y42038096D02*
X46938095Y42133334D01*
X46747619Y42228572D01*
X46461904Y42228572D01*
X46271428Y42133334D01*
X46176190Y41942858D01*
X46176190Y40895239D01*
X44938095Y40895239D02*
X45128571Y40990477D01*
X45223809Y41085715D01*
X45319047Y41276191D01*
X45319047Y41847620D01*
X45223809Y42038096D01*
X45128571Y42133334D01*
X44938095Y42228572D01*
X44652380Y42228572D01*
X44461904Y42133334D01*
X44366666Y42038096D01*
X44271428Y41847620D01*
X44271428Y41276191D01*
X44366666Y41085715D01*
X44461904Y40990477D01*
X44652380Y40895239D01*
X44938095Y40895239D01*
D12*
G36*
X18696158Y27940827D02*
G01*
X18607880Y27895563D01*
X18503037Y27832429D01*
X18391359Y27761766D01*
X18324823Y27714544D01*
X18295630Y27682026D01*
X18295982Y27655477D01*
X18318081Y27626160D01*
X18318492Y27625704D01*
X18364966Y27582035D01*
X18389984Y27568875D01*
X18421892Y27586561D01*
X18491170Y27632204D01*
X18585093Y27697313D01*
X18625244Y27725853D01*
X18723059Y27797778D01*
X18797940Y27856496D01*
X18838242Y27892722D01*
X18842073Y27898786D01*
X18819388Y27927872D01*
X18791358Y27948531D01*
X18753822Y27957076D01*
X18696158Y27940827D01*
G37*
X18696158Y27940827D02*
X18607880Y27895563D01*
X18503037Y27832429D01*
X18391359Y27761766D01*
X18324823Y27714544D01*
X18295630Y27682026D01*
X18295982Y27655477D01*
X18318081Y27626160D01*
X18318492Y27625704D01*
X18364966Y27582035D01*
X18389984Y27568875D01*
X18421892Y27586561D01*
X18491170Y27632204D01*
X18585093Y27697313D01*
X18625244Y27725853D01*
X18723059Y27797778D01*
X18797940Y27856496D01*
X18838242Y27892722D01*
X18842073Y27898786D01*
X18819388Y27927872D01*
X18791358Y27948531D01*
X18753822Y27957076D01*
X18696158Y27940827D01*
G36*
X17061314Y29265708D02*
G01*
X17039075Y29240400D01*
X17030980Y29179449D01*
X17030000Y29106055D01*
X17009734Y28846128D01*
X16953092Y28588650D01*
X16889854Y28414223D01*
X16806146Y28269018D01*
X16684534Y28113433D01*
X16541802Y27966196D01*
X16394735Y27846032D01*
X16359591Y27822626D01*
X16276067Y27768355D01*
X16237187Y27732698D01*
X16235343Y27700981D01*
X16262930Y27658533D01*
X16269808Y27649447D01*
X16311561Y27614117D01*
X16364225Y27612561D01*
X16434898Y27648348D01*
X16530681Y27725049D01*
X16656022Y27843614D01*
X16793599Y27991451D01*
X16898192Y28136603D01*
X16990321Y28307610D01*
X16991597Y28310274D01*
X17114383Y28567082D01*
X17135407Y28455014D01*
X17178882Y28316236D01*
X17255700Y28157027D01*
X17353751Y27999044D01*
X17460921Y27863946D01*
X17473322Y27850815D01*
X17546972Y27780417D01*
X17636392Y27703212D01*
X17727687Y27630135D01*
X17806966Y27572124D01*
X17860333Y27540112D01*
X17871923Y27537071D01*
X17895099Y27559866D01*
X17933918Y27609784D01*
X17964402Y27658031D01*
X17957971Y27688282D01*
X17906217Y27719439D01*
X17879403Y27732358D01*
X17767454Y27802220D01*
X17641540Y27905838D01*
X17521420Y28025005D01*
X17426856Y28141510D01*
X17413542Y28161631D01*
X17346193Y28299678D01*
X17286114Y28482696D01*
X17237657Y28693773D01*
X17205173Y28915995D01*
X17197933Y28999695D01*
X17188112Y29129476D01*
X17177688Y29209437D01*
X17162523Y29251612D01*
X17138474Y29268031D01*
X17104658Y29270732D01*
X17061314Y29265708D01*
G37*
X17061314Y29265708D02*
X17039075Y29240400D01*
X17030980Y29179449D01*
X17030000Y29106055D01*
X17009734Y28846128D01*
X16953092Y28588650D01*
X16889854Y28414223D01*
X16806146Y28269018D01*
X16684534Y28113433D01*
X16541802Y27966196D01*
X16394735Y27846032D01*
X16359591Y27822626D01*
X16276067Y27768355D01*
X16237187Y27732698D01*
X16235343Y27700981D01*
X16262930Y27658533D01*
X16269808Y27649447D01*
X16311561Y27614117D01*
X16364225Y27612561D01*
X16434898Y27648348D01*
X16530681Y27725049D01*
X16656022Y27843614D01*
X16793599Y27991451D01*
X16898192Y28136603D01*
X16990321Y28307610D01*
X16991597Y28310274D01*
X17114383Y28567082D01*
X17135407Y28455014D01*
X17178882Y28316236D01*
X17255700Y28157027D01*
X17353751Y27999044D01*
X17460921Y27863946D01*
X17473322Y27850815D01*
X17546972Y27780417D01*
X17636392Y27703212D01*
X17727687Y27630135D01*
X17806966Y27572124D01*
X17860333Y27540112D01*
X17871923Y27537071D01*
X17895099Y27559866D01*
X17933918Y27609784D01*
X17964402Y27658031D01*
X17957971Y27688282D01*
X17906217Y27719439D01*
X17879403Y27732358D01*
X17767454Y27802220D01*
X17641540Y27905838D01*
X17521420Y28025005D01*
X17426856Y28141510D01*
X17413542Y28161631D01*
X17346193Y28299678D01*
X17286114Y28482696D01*
X17237657Y28693773D01*
X17205173Y28915995D01*
X17197933Y28999695D01*
X17188112Y29129476D01*
X17177688Y29209437D01*
X17162523Y29251612D01*
X17138474Y29268031D01*
X17104658Y29270732D01*
X17061314Y29265708D01*
G36*
X19508987Y27923590D02*
G01*
X19458509Y27898209D01*
X19446098Y27880537D01*
X19470133Y27839092D01*
X19532501Y27776663D01*
X19618592Y27704441D01*
X19713797Y27633615D01*
X19803506Y27575377D01*
X19873111Y27540915D01*
X19895774Y27536098D01*
X19945979Y27557776D01*
X19973304Y27583310D01*
X19998229Y27616852D01*
X19995322Y27640699D01*
X19954909Y27668423D01*
X19887918Y27703103D01*
X19799382Y27757285D01*
X19703234Y27828958D01*
X19679771Y27848818D01*
X19591928Y27912181D01*
X19524312Y27926991D01*
X19508987Y27923590D01*
G37*
X19508987Y27923590D02*
X19458509Y27898209D01*
X19446098Y27880537D01*
X19470133Y27839092D01*
X19532501Y27776663D01*
X19618592Y27704441D01*
X19713797Y27633615D01*
X19803506Y27575377D01*
X19873111Y27540915D01*
X19895774Y27536098D01*
X19945979Y27557776D01*
X19973304Y27583310D01*
X19998229Y27616852D01*
X19995322Y27640699D01*
X19954909Y27668423D01*
X19887918Y27703103D01*
X19799382Y27757285D01*
X19703234Y27828958D01*
X19679771Y27848818D01*
X19591928Y27912181D01*
X19524312Y27926991D01*
X19508987Y27923590D01*
G36*
X19121971Y29318080D02*
G01*
X19106005Y29263744D01*
X19105366Y29239756D01*
X19105366Y29146829D01*
X18733659Y29146829D01*
X18576683Y29146197D01*
X18471402Y29143177D01*
X18407563Y29136089D01*
X18374912Y29123251D01*
X18363197Y29102982D01*
X18361951Y29085861D01*
X18366205Y29059765D01*
X18385854Y29041946D01*
X18431234Y29030424D01*
X18512679Y29023221D01*
X18640524Y29018358D01*
X18725915Y29016166D01*
X18884911Y29011056D01*
X18991359Y29003811D01*
X19054658Y28993005D01*
X19084208Y28977213D01*
X19089878Y28960976D01*
X19078862Y28939119D01*
X19039232Y28924087D01*
X18961121Y28914162D01*
X18834658Y28907624D01*
X18772378Y28905685D01*
X18623565Y28899755D01*
X18527356Y28890835D01*
X18474421Y28877364D01*
X18455428Y28857781D01*
X18454878Y28852561D01*
X18467725Y28831442D01*
X18512485Y28816775D01*
X18598490Y28806998D01*
X18735070Y28800551D01*
X18772378Y28799437D01*
X18915565Y28794569D01*
X19007855Y28787906D01*
X19060297Y28776982D01*
X19083941Y28759337D01*
X19089838Y28732505D01*
X19089878Y28728659D01*
X19086356Y28703874D01*
X19069397Y28686433D01*
X19029410Y28674746D01*
X18956802Y28667225D01*
X18841983Y28662280D01*
X18675361Y28658321D01*
X18663963Y28658089D01*
X18489760Y28653498D01*
X18368797Y28647231D01*
X18292367Y28638180D01*
X18251761Y28625236D01*
X18238272Y28607291D01*
X18238049Y28603882D01*
X18246919Y28586231D01*
X18279130Y28573673D01*
X18343078Y28565411D01*
X18447163Y28560643D01*
X18599783Y28558573D01*
X18717199Y28558293D01*
X18905336Y28557246D01*
X19038717Y28553698D01*
X19124506Y28547035D01*
X19169870Y28536644D01*
X19181975Y28521912D01*
X19181117Y28518600D01*
X19192693Y28475698D01*
X19239221Y28410965D01*
X19274644Y28373494D01*
X19338079Y28308627D01*
X19361684Y28268132D01*
X19351601Y28234852D01*
X19332510Y28211845D01*
X19280375Y28168224D01*
X19247699Y28155749D01*
X19210106Y28175232D01*
X19140420Y28226847D01*
X19051927Y28300549D01*
X19026585Y28322887D01*
X18930659Y28405769D01*
X18866676Y28451765D01*
X18822328Y28467349D01*
X18785310Y28458994D01*
X18776586Y28454394D01*
X18745515Y28432314D01*
X18743522Y28407500D01*
X18776791Y28368261D01*
X18851504Y28302903D01*
X18860876Y28295000D01*
X18938118Y28227923D01*
X18992245Y28177090D01*
X19010273Y28155610D01*
X18983106Y28149423D01*
X18909298Y28147438D01*
X18804039Y28149996D01*
X18789292Y28150658D01*
X18566005Y28161194D01*
X18642088Y28220125D01*
X18690753Y28264343D01*
X18691889Y28292988D01*
X18671707Y28309786D01*
X18615516Y28336141D01*
X18594268Y28339759D01*
X18553610Y28318842D01*
X18487356Y28266715D01*
X18410653Y28197641D01*
X18338647Y28125887D01*
X18286485Y28065718D01*
X18269024Y28033448D01*
X18292899Y27991357D01*
X18347969Y27979771D01*
X18409402Y28002758D01*
X18417312Y28009157D01*
X18455369Y28031241D01*
X18515675Y28043129D01*
X18610887Y28045908D01*
X18753658Y28040665D01*
X18772378Y28039669D01*
X19074390Y28023266D01*
X19074390Y27764194D01*
X19075130Y27637935D01*
X19079814Y27561263D01*
X19092137Y27521813D01*
X19115796Y27507221D01*
X19151829Y27505122D01*
X19190236Y27507763D01*
X19213233Y27524111D01*
X19224771Y27566808D01*
X19228798Y27648492D01*
X19229268Y27752927D01*
X19229268Y28000732D01*
X19631951Y28000732D01*
X19796418Y28001284D01*
X19908797Y28003932D01*
X19978945Y28010166D01*
X20016723Y28021475D01*
X20031991Y28039349D01*
X20034634Y28061561D01*
X20029604Y28089735D01*
X20006988Y28108222D01*
X19955499Y28119625D01*
X19863850Y28126550D01*
X19732622Y28131256D01*
X19430610Y28140122D01*
X19591687Y28261739D01*
X19676767Y28328474D01*
X19718067Y28370588D01*
X19722781Y28398669D01*
X19700348Y28421684D01*
X19650820Y28442761D01*
X19591854Y28425806D01*
X19562208Y28409372D01*
X19507159Y28380848D01*
X19466703Y28381563D01*
X19418693Y28417384D01*
X19376703Y28458513D01*
X19276923Y28558293D01*
X19671266Y28558293D01*
X19837494Y28559408D01*
X19950920Y28563458D01*
X20020667Y28571496D01*
X20055856Y28584576D01*
X20065610Y28603751D01*
X20065610Y28603857D01*
X20055446Y28623016D01*
X20019067Y28636831D01*
X19947642Y28646467D01*
X19832337Y28653091D01*
X19664323Y28657870D01*
X19655183Y28658064D01*
X19489048Y28661994D01*
X19374797Y28666803D01*
X19302372Y28674364D01*
X19261712Y28686554D01*
X19242760Y28705247D01*
X19235456Y28732317D01*
X19234858Y28736402D01*
X19232844Y28767328D01*
X19244453Y28787412D01*
X19280340Y28798994D01*
X19351160Y28804411D01*
X19467570Y28806004D01*
X19552358Y28806098D01*
X19701442Y28807508D01*
X19798595Y28812682D01*
X19853792Y28823036D01*
X19877006Y28839985D01*
X19879756Y28852561D01*
X19869785Y28873779D01*
X19833204Y28887582D01*
X19760013Y28895398D01*
X19640211Y28898657D01*
X19554512Y28899024D01*
X19409417Y28899801D01*
X19315313Y28903522D01*
X19261250Y28912274D01*
X19236273Y28928143D01*
X19229429Y28953215D01*
X19229268Y28960976D01*
X19232915Y28987127D01*
X19250700Y29004665D01*
X19292889Y29015300D01*
X19369749Y29020744D01*
X19491545Y29022707D01*
X19600976Y29022927D01*
X19757884Y29023535D01*
X19863110Y29026499D01*
X19926921Y29033530D01*
X19959583Y29046340D01*
X19971362Y29066640D01*
X19972683Y29084878D01*
X19969036Y29111029D01*
X19951251Y29128567D01*
X19909062Y29139202D01*
X19832203Y29144646D01*
X19710407Y29146609D01*
X19600976Y29146829D01*
X19229268Y29146829D01*
X19229268Y29239756D01*
X19219533Y29307776D01*
X19183309Y29331724D01*
X19167317Y29332683D01*
X19121971Y29318080D01*
G37*
X19121971Y29318080D02*
X19106005Y29263744D01*
X19105366Y29239756D01*
X19105366Y29146829D01*
X18733659Y29146829D01*
X18576683Y29146197D01*
X18471402Y29143177D01*
X18407563Y29136089D01*
X18374912Y29123251D01*
X18363197Y29102982D01*
X18361951Y29085861D01*
X18366205Y29059765D01*
X18385854Y29041946D01*
X18431234Y29030424D01*
X18512679Y29023221D01*
X18640524Y29018358D01*
X18725915Y29016166D01*
X18884911Y29011056D01*
X18991359Y29003811D01*
X19054658Y28993005D01*
X19084208Y28977213D01*
X19089878Y28960976D01*
X19078862Y28939119D01*
X19039232Y28924087D01*
X18961121Y28914162D01*
X18834658Y28907624D01*
X18772378Y28905685D01*
X18623565Y28899755D01*
X18527356Y28890835D01*
X18474421Y28877364D01*
X18455428Y28857781D01*
X18454878Y28852561D01*
X18467725Y28831442D01*
X18512485Y28816775D01*
X18598490Y28806998D01*
X18735070Y28800551D01*
X18772378Y28799437D01*
X18915565Y28794569D01*
X19007855Y28787906D01*
X19060297Y28776982D01*
X19083941Y28759337D01*
X19089838Y28732505D01*
X19089878Y28728659D01*
X19086356Y28703874D01*
X19069397Y28686433D01*
X19029410Y28674746D01*
X18956802Y28667225D01*
X18841983Y28662280D01*
X18675361Y28658321D01*
X18663963Y28658089D01*
X18489760Y28653498D01*
X18368797Y28647231D01*
X18292367Y28638180D01*
X18251761Y28625236D01*
X18238272Y28607291D01*
X18238049Y28603882D01*
X18246919Y28586231D01*
X18279130Y28573673D01*
X18343078Y28565411D01*
X18447163Y28560643D01*
X18599783Y28558573D01*
X18717199Y28558293D01*
X18905336Y28557246D01*
X19038717Y28553698D01*
X19124506Y28547035D01*
X19169870Y28536644D01*
X19181975Y28521912D01*
X19181117Y28518600D01*
X19192693Y28475698D01*
X19239221Y28410965D01*
X19274644Y28373494D01*
X19338079Y28308627D01*
X19361684Y28268132D01*
X19351601Y28234852D01*
X19332510Y28211845D01*
X19280375Y28168224D01*
X19247699Y28155749D01*
X19210106Y28175232D01*
X19140420Y28226847D01*
X19051927Y28300549D01*
X19026585Y28322887D01*
X18930659Y28405769D01*
X18866676Y28451765D01*
X18822328Y28467349D01*
X18785310Y28458994D01*
X18776586Y28454394D01*
X18745515Y28432314D01*
X18743522Y28407500D01*
X18776791Y28368261D01*
X18851504Y28302903D01*
X18860876Y28295000D01*
X18938118Y28227923D01*
X18992245Y28177090D01*
X19010273Y28155610D01*
X18983106Y28149423D01*
X18909298Y28147438D01*
X18804039Y28149996D01*
X18789292Y28150658D01*
X18566005Y28161194D01*
X18642088Y28220125D01*
X18690753Y28264343D01*
X18691889Y28292988D01*
X18671707Y28309786D01*
X18615516Y28336141D01*
X18594268Y28339759D01*
X18553610Y28318842D01*
X18487356Y28266715D01*
X18410653Y28197641D01*
X18338647Y28125887D01*
X18286485Y28065718D01*
X18269024Y28033448D01*
X18292899Y27991357D01*
X18347969Y27979771D01*
X18409402Y28002758D01*
X18417312Y28009157D01*
X18455369Y28031241D01*
X18515675Y28043129D01*
X18610887Y28045908D01*
X18753658Y28040665D01*
X18772378Y28039669D01*
X19074390Y28023266D01*
X19074390Y27764194D01*
X19075130Y27637935D01*
X19079814Y27561263D01*
X19092137Y27521813D01*
X19115796Y27507221D01*
X19151829Y27505122D01*
X19190236Y27507763D01*
X19213233Y27524111D01*
X19224771Y27566808D01*
X19228798Y27648492D01*
X19229268Y27752927D01*
X19229268Y28000732D01*
X19631951Y28000732D01*
X19796418Y28001284D01*
X19908797Y28003932D01*
X19978945Y28010166D01*
X20016723Y28021475D01*
X20031991Y28039349D01*
X20034634Y28061561D01*
X20029604Y28089735D01*
X20006988Y28108222D01*
X19955499Y28119625D01*
X19863850Y28126550D01*
X19732622Y28131256D01*
X19430610Y28140122D01*
X19591687Y28261739D01*
X19676767Y28328474D01*
X19718067Y28370588D01*
X19722781Y28398669D01*
X19700348Y28421684D01*
X19650820Y28442761D01*
X19591854Y28425806D01*
X19562208Y28409372D01*
X19507159Y28380848D01*
X19466703Y28381563D01*
X19418693Y28417384D01*
X19376703Y28458513D01*
X19276923Y28558293D01*
X19671266Y28558293D01*
X19837494Y28559408D01*
X19950920Y28563458D01*
X20020667Y28571496D01*
X20055856Y28584576D01*
X20065610Y28603751D01*
X20065610Y28603857D01*
X20055446Y28623016D01*
X20019067Y28636831D01*
X19947642Y28646467D01*
X19832337Y28653091D01*
X19664323Y28657870D01*
X19655183Y28658064D01*
X19489048Y28661994D01*
X19374797Y28666803D01*
X19302372Y28674364D01*
X19261712Y28686554D01*
X19242760Y28705247D01*
X19235456Y28732317D01*
X19234858Y28736402D01*
X19232844Y28767328D01*
X19244453Y28787412D01*
X19280340Y28798994D01*
X19351160Y28804411D01*
X19467570Y28806004D01*
X19552358Y28806098D01*
X19701442Y28807508D01*
X19798595Y28812682D01*
X19853792Y28823036D01*
X19877006Y28839985D01*
X19879756Y28852561D01*
X19869785Y28873779D01*
X19833204Y28887582D01*
X19760013Y28895398D01*
X19640211Y28898657D01*
X19554512Y28899024D01*
X19409417Y28899801D01*
X19315313Y28903522D01*
X19261250Y28912274D01*
X19236273Y28928143D01*
X19229429Y28953215D01*
X19229268Y28960976D01*
X19232915Y28987127D01*
X19250700Y29004665D01*
X19292889Y29015300D01*
X19369749Y29020744D01*
X19491545Y29022707D01*
X19600976Y29022927D01*
X19757884Y29023535D01*
X19863110Y29026499D01*
X19926921Y29033530D01*
X19959583Y29046340D01*
X19971362Y29066640D01*
X19972683Y29084878D01*
X19969036Y29111029D01*
X19951251Y29128567D01*
X19909062Y29139202D01*
X19832203Y29144646D01*
X19710407Y29146609D01*
X19600976Y29146829D01*
X19229268Y29146829D01*
X19229268Y29239756D01*
X19219533Y29307776D01*
X19183309Y29331724D01*
X19167317Y29332683D01*
X19121971Y29318080D01*
G36*
X19159573Y27188215D02*
G01*
X18470366Y27179878D01*
X18461748Y26753963D01*
X18453130Y26328049D01*
X19848781Y26328049D01*
X19848781Y26699756D01*
X19693902Y26699756D01*
X19693902Y26451951D01*
X19229268Y26451951D01*
X19229268Y26699756D01*
X19105366Y26699756D01*
X19105366Y26451951D01*
X18609756Y26451951D01*
X18609756Y26699756D01*
X19105366Y26699756D01*
X19229268Y26699756D01*
X19693902Y26699756D01*
X19848781Y26699756D01*
X19848781Y27071463D01*
X19693902Y27071463D01*
X19693902Y26823659D01*
X19229268Y26823659D01*
X19109106Y26823659D01*
X18609756Y26823659D01*
X18609756Y27074069D01*
X18849817Y27065023D01*
X19089878Y27055976D01*
X19099492Y26939817D01*
X19109106Y26823659D01*
X19229268Y26823659D01*
X19229268Y27071463D01*
X19693902Y27071463D01*
X19848781Y27071463D01*
X19848781Y27196551D01*
X19159573Y27188215D01*
G37*
X19159573Y27188215D02*
X18470366Y27179878D01*
X18461748Y26753963D01*
X18453130Y26328049D01*
X19848781Y26328049D01*
X19848781Y26699756D01*
X19693902Y26699756D01*
X19693902Y26451951D01*
X19229268Y26451951D01*
X19229268Y26699756D01*
X19105366Y26699756D01*
X19105366Y26451951D01*
X18609756Y26451951D01*
X18609756Y26699756D01*
X19105366Y26699756D01*
X19229268Y26699756D01*
X19693902Y26699756D01*
X19848781Y26699756D01*
X19848781Y27071463D01*
X19693902Y27071463D01*
X19693902Y26823659D01*
X19229268Y26823659D01*
X19109106Y26823659D01*
X18609756Y26823659D01*
X18609756Y27074069D01*
X18849817Y27065023D01*
X19089878Y27055976D01*
X19099492Y26939817D01*
X19109106Y26823659D01*
X19229268Y26823659D01*
X19229268Y27071463D01*
X19693902Y27071463D01*
X19848781Y27071463D01*
X19848781Y27196551D01*
X19159573Y27188215D01*
G36*
X19151349Y26259074D02*
G01*
X19099471Y26207158D01*
X19044036Y26139288D01*
X18969226Y26041319D01*
X18931474Y25978430D01*
X18927464Y25938712D01*
X18953882Y25910257D01*
X18976596Y25896995D01*
X19012027Y25888096D01*
X19049466Y25907800D01*
X19099454Y25964796D01*
X19157762Y26046260D01*
X19221337Y26140873D01*
X19252644Y26198468D01*
X19255797Y26232169D01*
X19234908Y26255102D01*
X19225202Y26261448D01*
X19189205Y26274438D01*
X19151349Y26259074D01*
G37*
X19151349Y26259074D02*
X19099471Y26207158D01*
X19044036Y26139288D01*
X18969226Y26041319D01*
X18931474Y25978430D01*
X18927464Y25938712D01*
X18953882Y25910257D01*
X18976596Y25896995D01*
X19012027Y25888096D01*
X19049466Y25907800D01*
X19099454Y25964796D01*
X19157762Y26046260D01*
X19221337Y26140873D01*
X19252644Y26198468D01*
X19255797Y26232169D01*
X19234908Y26255102D01*
X19225202Y26261448D01*
X19189205Y26274438D01*
X19151349Y26259074D01*
G36*
X18590561Y26149185D02*
G01*
X18511887Y26089636D01*
X18414942Y25974494D01*
X18341895Y25869976D01*
X18283579Y25779569D01*
X18256725Y25725335D01*
X18257600Y25692463D01*
X18282470Y25666144D01*
X18289207Y25660959D01*
X18340005Y25626961D01*
X18361951Y25617620D01*
X18384457Y25641857D01*
X18431888Y25706800D01*
X18495964Y25800853D01*
X18532317Y25856190D01*
X18611951Y25978817D01*
X18662445Y26059039D01*
X18687805Y26106792D01*
X18692039Y26132009D01*
X18679152Y26144625D01*
X18653150Y26154575D01*
X18652713Y26154742D01*
X18590561Y26149185D01*
G37*
X18590561Y26149185D02*
X18511887Y26089636D01*
X18414942Y25974494D01*
X18341895Y25869976D01*
X18283579Y25779569D01*
X18256725Y25725335D01*
X18257600Y25692463D01*
X18282470Y25666144D01*
X18289207Y25660959D01*
X18340005Y25626961D01*
X18361951Y25617620D01*
X18384457Y25641857D01*
X18431888Y25706800D01*
X18495964Y25800853D01*
X18532317Y25856190D01*
X18611951Y25978817D01*
X18662445Y26059039D01*
X18687805Y26106792D01*
X18692039Y26132009D01*
X18679152Y26144625D01*
X18653150Y26154575D01*
X18652713Y26154742D01*
X18590561Y26149185D01*
G36*
X19706291Y26092960D02*
G01*
X19686969Y26043925D01*
X19687956Y26033781D01*
X19703667Y25982537D01*
X19737010Y25898155D01*
X19780926Y25796190D01*
X19828355Y25692201D01*
X19872235Y25601746D01*
X19905508Y25540382D01*
X19919892Y25522683D01*
X19947498Y25542787D01*
X19982012Y25577829D01*
X20007212Y25612843D01*
X20010888Y25651818D01*
X19990286Y25711827D01*
X19945481Y25804337D01*
X19895886Y25908047D01*
X19856932Y25999214D01*
X19840684Y26045910D01*
X19806224Y26095785D01*
X19753735Y26110857D01*
X19706291Y26092960D01*
G37*
X19706291Y26092960D02*
X19686969Y26043925D01*
X19687956Y26033781D01*
X19703667Y25982537D01*
X19737010Y25898155D01*
X19780926Y25796190D01*
X19828355Y25692201D01*
X19872235Y25601746D01*
X19905508Y25540382D01*
X19919892Y25522683D01*
X19947498Y25542787D01*
X19982012Y25577829D01*
X20007212Y25612843D01*
X20010888Y25651818D01*
X19990286Y25711827D01*
X19945481Y25804337D01*
X19895886Y25908047D01*
X19856932Y25999214D01*
X19840684Y26045910D01*
X19806224Y26095785D01*
X19753735Y26110857D01*
X19706291Y26092960D01*
G36*
X19425393Y26170178D02*
G01*
X19402204Y26152914D01*
X19389125Y26108948D01*
X19382015Y26025851D01*
X19377655Y25917622D01*
X19368659Y25662073D01*
X19125661Y25652974D01*
X18976710Y25652264D01*
X18879090Y25666453D01*
X18823061Y25700034D01*
X18798881Y25757502D01*
X18795610Y25805256D01*
X18780125Y25875496D01*
X18733954Y25891950D01*
X18674454Y25865768D01*
X18646539Y25815566D01*
X18648521Y25735589D01*
X18674741Y25646792D01*
X18719541Y25570131D01*
X18764634Y25531785D01*
X18844567Y25508958D01*
X18963062Y25495413D01*
X19101519Y25490934D01*
X19241339Y25495307D01*
X19363923Y25508318D01*
X19450671Y25529752D01*
X19470181Y25539927D01*
X19502540Y25567856D01*
X19522834Y25605698D01*
X19533830Y25667151D01*
X19538295Y25765910D01*
X19539024Y25880659D01*
X19538451Y26016499D01*
X19534710Y26102026D01*
X19524770Y26148878D01*
X19505600Y26168693D01*
X19474169Y26173109D01*
X19462838Y26173171D01*
X19425393Y26170178D01*
G37*
X19425393Y26170178D02*
X19402204Y26152914D01*
X19389125Y26108948D01*
X19382015Y26025851D01*
X19377655Y25917622D01*
X19368659Y25662073D01*
X19125661Y25652974D01*
X18976710Y25652264D01*
X18879090Y25666453D01*
X18823061Y25700034D01*
X18798881Y25757502D01*
X18795610Y25805256D01*
X18780125Y25875496D01*
X18733954Y25891950D01*
X18674454Y25865768D01*
X18646539Y25815566D01*
X18648521Y25735589D01*
X18674741Y25646792D01*
X18719541Y25570131D01*
X18764634Y25531785D01*
X18844567Y25508958D01*
X18963062Y25495413D01*
X19101519Y25490934D01*
X19241339Y25495307D01*
X19363923Y25508318D01*
X19450671Y25529752D01*
X19470181Y25539927D01*
X19502540Y25567856D01*
X19522834Y25605698D01*
X19533830Y25667151D01*
X19538295Y25765910D01*
X19539024Y25880659D01*
X19538451Y26016499D01*
X19534710Y26102026D01*
X19524770Y26148878D01*
X19505600Y26168693D01*
X19474169Y26173109D01*
X19462838Y26173171D01*
X19425393Y26170178D01*
G36*
X17144347Y27277902D02*
G01*
X17126434Y27235906D01*
X17122927Y27164390D01*
X17122927Y27040488D01*
X16937073Y27040488D01*
X16833270Y27038227D01*
X16777180Y27028298D01*
X16754636Y27005976D01*
X16751220Y26978537D01*
X16758001Y26943936D01*
X16787790Y26925239D01*
X16854755Y26917724D01*
X16937073Y26916585D01*
X17122927Y26916585D01*
X17122927Y26792683D01*
X17118782Y26712927D01*
X17098887Y26677474D01*
X17052053Y26668844D01*
X17043611Y26668781D01*
X16989784Y26683882D01*
X16916027Y26732675D01*
X16815422Y26820396D01*
X16717049Y26916025D01*
X16608035Y27023355D01*
X16532411Y27091970D01*
X16480976Y27128140D01*
X16444528Y27138137D01*
X16413864Y27128233D01*
X16409502Y27125610D01*
X16383664Y27104635D01*
X16380316Y27078924D01*
X16405196Y27038405D01*
X16464042Y26973008D01*
X16541570Y26893853D01*
X16733942Y26699756D01*
X16463800Y26699756D01*
X16333806Y26698658D01*
X16253781Y26693533D01*
X16211758Y26681638D01*
X16195769Y26660226D01*
X16193659Y26637805D01*
X16197482Y26611029D01*
X16215987Y26593320D01*
X16259728Y26582815D01*
X16339258Y26577652D01*
X16465132Y26575971D01*
X16544836Y26575854D01*
X16896012Y26575854D01*
X17077176Y26446126D01*
X17160106Y26382087D01*
X17212649Y26332169D01*
X17225030Y26305876D01*
X17222800Y26304551D01*
X17179378Y26305560D01*
X17089529Y26317502D01*
X16967387Y26338256D01*
X16858293Y26359296D01*
X16713130Y26388111D01*
X16616573Y26404539D01*
X16556593Y26408903D01*
X16521163Y26401526D01*
X16498253Y26382730D01*
X16487789Y26369224D01*
X16462826Y26323193D01*
X16484339Y26298898D01*
X16498067Y26293319D01*
X16558739Y26277961D01*
X16666283Y26257524D01*
X16806073Y26234406D01*
X16963480Y26211008D01*
X17123879Y26189728D01*
X17146159Y26187004D01*
X17255439Y26166075D01*
X17305125Y26136561D01*
X17308781Y26123801D01*
X17298164Y26106317D01*
X17260764Y26094031D01*
X17188257Y26086136D01*
X17072317Y26081825D01*
X16904621Y26080289D01*
X16859634Y26080244D01*
X16673572Y26078862D01*
X16542609Y26074324D01*
X16459947Y26066043D01*
X16418785Y26053434D01*
X16411026Y26041524D01*
X16420546Y25955977D01*
X16443703Y25843128D01*
X16475113Y25722686D01*
X16509392Y25614355D01*
X16541157Y25537843D01*
X16554018Y25518108D01*
X16591770Y25488690D01*
X16649135Y25471118D01*
X16740664Y25462701D01*
X16864435Y25460732D01*
X16990512Y25461423D01*
X17067019Y25466042D01*
X17106336Y25478404D01*
X17120845Y25502324D01*
X17122927Y25540400D01*
X17119850Y25585751D01*
X17100490Y25607023D01*
X17049652Y25609566D01*
X16955911Y25599200D01*
X16817221Y25588815D01*
X16725160Y25602536D01*
X16667407Y25645419D01*
X16631642Y25722519D01*
X16628454Y25733550D01*
X16603886Y25824691D01*
X16595521Y25886837D01*
X16611809Y25925532D01*
X16661198Y25946322D01*
X16752138Y25954751D01*
X16893078Y25956363D01*
X16967960Y25956342D01*
X17339578Y25956342D01*
X17378387Y25861929D01*
X17409101Y25800411D01*
X17438734Y25788578D01*
X17472022Y25807759D01*
X17502038Y25835319D01*
X17511467Y25870689D01*
X17500805Y25932029D01*
X17477658Y26013641D01*
X17452775Y26106266D01*
X17440126Y26171648D01*
X17440802Y26191615D01*
X17471863Y26183930D01*
X17544330Y26152874D01*
X17644985Y26104305D01*
X17692381Y26080145D01*
X17805432Y26023994D01*
X17900365Y25981136D01*
X17961834Y25958338D01*
X17973109Y25956342D01*
X18009360Y25976791D01*
X18041023Y26019804D01*
X18049714Y26057875D01*
X18045180Y26064158D01*
X18015791Y26079311D01*
X17941519Y26116421D01*
X17833101Y26170153D01*
X17701269Y26235173D01*
X17680488Y26245398D01*
X17537639Y26317465D01*
X17408827Y26385739D01*
X17307805Y26442715D01*
X17248328Y26480886D01*
X17246829Y26482057D01*
X17169390Y26543501D01*
X17595305Y26544189D01*
X17765138Y26544942D01*
X17882625Y26547496D01*
X17957371Y26553265D01*
X17998979Y26563661D01*
X18017055Y26580097D01*
X18021201Y26603985D01*
X18021220Y26606829D01*
X18017573Y26632981D01*
X17999788Y26650518D01*
X17957599Y26661154D01*
X17880739Y26666597D01*
X17758943Y26668560D01*
X17649512Y26668781D01*
X17277805Y26668781D01*
X17277805Y26916585D01*
X17525610Y26916585D01*
X17649077Y26917879D01*
X17723074Y26923836D01*
X17760062Y26937572D01*
X17772503Y26962203D01*
X17773415Y26978537D01*
X17768515Y27008659D01*
X17745740Y27027059D01*
X17692977Y27036585D01*
X17598111Y27040090D01*
X17510122Y27040488D01*
X17246829Y27040488D01*
X17246829Y27164390D01*
X17241634Y27245452D01*
X17220636Y27281278D01*
X17184878Y27288293D01*
X17144347Y27277902D01*
G37*
X17144347Y27277902D02*
X17126434Y27235906D01*
X17122927Y27164390D01*
X17122927Y27040488D01*
X16937073Y27040488D01*
X16833270Y27038227D01*
X16777180Y27028298D01*
X16754636Y27005976D01*
X16751220Y26978537D01*
X16758001Y26943936D01*
X16787790Y26925239D01*
X16854755Y26917724D01*
X16937073Y26916585D01*
X17122927Y26916585D01*
X17122927Y26792683D01*
X17118782Y26712927D01*
X17098887Y26677474D01*
X17052053Y26668844D01*
X17043611Y26668781D01*
X16989784Y26683882D01*
X16916027Y26732675D01*
X16815422Y26820396D01*
X16717049Y26916025D01*
X16608035Y27023355D01*
X16532411Y27091970D01*
X16480976Y27128140D01*
X16444528Y27138137D01*
X16413864Y27128233D01*
X16409502Y27125610D01*
X16383664Y27104635D01*
X16380316Y27078924D01*
X16405196Y27038405D01*
X16464042Y26973008D01*
X16541570Y26893853D01*
X16733942Y26699756D01*
X16463800Y26699756D01*
X16333806Y26698658D01*
X16253781Y26693533D01*
X16211758Y26681638D01*
X16195769Y26660226D01*
X16193659Y26637805D01*
X16197482Y26611029D01*
X16215987Y26593320D01*
X16259728Y26582815D01*
X16339258Y26577652D01*
X16465132Y26575971D01*
X16544836Y26575854D01*
X16896012Y26575854D01*
X17077176Y26446126D01*
X17160106Y26382087D01*
X17212649Y26332169D01*
X17225030Y26305876D01*
X17222800Y26304551D01*
X17179378Y26305560D01*
X17089529Y26317502D01*
X16967387Y26338256D01*
X16858293Y26359296D01*
X16713130Y26388111D01*
X16616573Y26404539D01*
X16556593Y26408903D01*
X16521163Y26401526D01*
X16498253Y26382730D01*
X16487789Y26369224D01*
X16462826Y26323193D01*
X16484339Y26298898D01*
X16498067Y26293319D01*
X16558739Y26277961D01*
X16666283Y26257524D01*
X16806073Y26234406D01*
X16963480Y26211008D01*
X17123879Y26189728D01*
X17146159Y26187004D01*
X17255439Y26166075D01*
X17305125Y26136561D01*
X17308781Y26123801D01*
X17298164Y26106317D01*
X17260764Y26094031D01*
X17188257Y26086136D01*
X17072317Y26081825D01*
X16904621Y26080289D01*
X16859634Y26080244D01*
X16673572Y26078862D01*
X16542609Y26074324D01*
X16459947Y26066043D01*
X16418785Y26053434D01*
X16411026Y26041524D01*
X16420546Y25955977D01*
X16443703Y25843128D01*
X16475113Y25722686D01*
X16509392Y25614355D01*
X16541157Y25537843D01*
X16554018Y25518108D01*
X16591770Y25488690D01*
X16649135Y25471118D01*
X16740664Y25462701D01*
X16864435Y25460732D01*
X16990512Y25461423D01*
X17067019Y25466042D01*
X17106336Y25478404D01*
X17120845Y25502324D01*
X17122927Y25540400D01*
X17119850Y25585751D01*
X17100490Y25607023D01*
X17049652Y25609566D01*
X16955911Y25599200D01*
X16817221Y25588815D01*
X16725160Y25602536D01*
X16667407Y25645419D01*
X16631642Y25722519D01*
X16628454Y25733550D01*
X16603886Y25824691D01*
X16595521Y25886837D01*
X16611809Y25925532D01*
X16661198Y25946322D01*
X16752138Y25954751D01*
X16893078Y25956363D01*
X16967960Y25956342D01*
X17339578Y25956342D01*
X17378387Y25861929D01*
X17409101Y25800411D01*
X17438734Y25788578D01*
X17472022Y25807759D01*
X17502038Y25835319D01*
X17511467Y25870689D01*
X17500805Y25932029D01*
X17477658Y26013641D01*
X17452775Y26106266D01*
X17440126Y26171648D01*
X17440802Y26191615D01*
X17471863Y26183930D01*
X17544330Y26152874D01*
X17644985Y26104305D01*
X17692381Y26080145D01*
X17805432Y26023994D01*
X17900365Y25981136D01*
X17961834Y25958338D01*
X17973109Y25956342D01*
X18009360Y25976791D01*
X18041023Y26019804D01*
X18049714Y26057875D01*
X18045180Y26064158D01*
X18015791Y26079311D01*
X17941519Y26116421D01*
X17833101Y26170153D01*
X17701269Y26235173D01*
X17680488Y26245398D01*
X17537639Y26317465D01*
X17408827Y26385739D01*
X17307805Y26442715D01*
X17248328Y26480886D01*
X17246829Y26482057D01*
X17169390Y26543501D01*
X17595305Y26544189D01*
X17765138Y26544942D01*
X17882625Y26547496D01*
X17957371Y26553265D01*
X17998979Y26563661D01*
X18017055Y26580097D01*
X18021201Y26603985D01*
X18021220Y26606829D01*
X18017573Y26632981D01*
X17999788Y26650518D01*
X17957599Y26661154D01*
X17880739Y26666597D01*
X17758943Y26668560D01*
X17649512Y26668781D01*
X17277805Y26668781D01*
X17277805Y26916585D01*
X17525610Y26916585D01*
X17649077Y26917879D01*
X17723074Y26923836D01*
X17760062Y26937572D01*
X17772503Y26962203D01*
X17773415Y26978537D01*
X17768515Y27008659D01*
X17745740Y27027059D01*
X17692977Y27036585D01*
X17598111Y27040090D01*
X17510122Y27040488D01*
X17246829Y27040488D01*
X17246829Y27164390D01*
X17241634Y27245452D01*
X17220636Y27281278D01*
X17184878Y27288293D01*
X17144347Y27277902D01*
G36*
X11773828Y24920992D02*
G01*
X11544296Y24903360D01*
X11307329Y24875975D01*
X11071837Y24839095D01*
X10913893Y24808037D01*
X10788609Y24778895D01*
X10686408Y24751093D01*
X10622535Y24728961D01*
X10610068Y24721727D01*
X10608363Y24681619D01*
X10631764Y24604638D01*
X10665261Y24528102D01*
X10747074Y24361098D01*
X11000061Y24371596D01*
X11223561Y24371284D01*
X11484096Y24355442D01*
X11759351Y24326304D01*
X12027013Y24286104D01*
X12205221Y24250959D01*
X12355459Y24217777D01*
X12454951Y24199394D01*
X12513632Y24198136D01*
X12541439Y24216330D01*
X12548308Y24256302D01*
X12544174Y24320377D01*
X12543385Y24330122D01*
X12526398Y24429118D01*
X12495701Y24468635D01*
X12488954Y24469512D01*
X12449776Y24487276D01*
X12445610Y24500488D01*
X12470699Y24527969D01*
X12492073Y24531463D01*
X12521706Y24558235D01*
X12537159Y24624844D01*
X12538054Y24710736D01*
X12524013Y24795356D01*
X12497996Y24853845D01*
X12439336Y24888841D01*
X12328677Y24912796D01*
X12174930Y24925968D01*
X11987010Y24928614D01*
X11773828Y24920992D01*
G37*
X11773828Y24920992D02*
X11544296Y24903360D01*
X11307329Y24875975D01*
X11071837Y24839095D01*
X10913893Y24808037D01*
X10788609Y24778895D01*
X10686408Y24751093D01*
X10622535Y24728961D01*
X10610068Y24721727D01*
X10608363Y24681619D01*
X10631764Y24604638D01*
X10665261Y24528102D01*
X10747074Y24361098D01*
X11000061Y24371596D01*
X11223561Y24371284D01*
X11484096Y24355442D01*
X11759351Y24326304D01*
X12027013Y24286104D01*
X12205221Y24250959D01*
X12355459Y24217777D01*
X12454951Y24199394D01*
X12513632Y24198136D01*
X12541439Y24216330D01*
X12548308Y24256302D01*
X12544174Y24320377D01*
X12543385Y24330122D01*
X12526398Y24429118D01*
X12495701Y24468635D01*
X12488954Y24469512D01*
X12449776Y24487276D01*
X12445610Y24500488D01*
X12470699Y24527969D01*
X12492073Y24531463D01*
X12521706Y24558235D01*
X12537159Y24624844D01*
X12538054Y24710736D01*
X12524013Y24795356D01*
X12497996Y24853845D01*
X12439336Y24888841D01*
X12328677Y24912796D01*
X12174930Y24925968D01*
X11987010Y24928614D01*
X11773828Y24920992D01*
G36*
X12616467Y21527291D02*
G01*
X12545840Y21460941D01*
X12611884Y21339262D01*
X12663974Y21255500D01*
X12708927Y21224376D01*
X12761831Y21240704D01*
X12805590Y21272660D01*
X12871302Y21325488D01*
X12814113Y21408739D01*
X12767545Y21408739D01*
X12737686Y21370354D01*
X12698772Y21355405D01*
X12689905Y21358633D01*
X12664687Y21401217D01*
X12662439Y21420243D01*
X12685537Y21457770D01*
X12734363Y21462502D01*
X12765422Y21444496D01*
X12767545Y21408739D01*
X12814113Y21408739D01*
X12687094Y21593642D01*
X12616467Y21527291D01*
G37*
X12616467Y21527291D02*
X12545840Y21460941D01*
X12611884Y21339262D01*
X12663974Y21255500D01*
X12708927Y21224376D01*
X12761831Y21240704D01*
X12805590Y21272660D01*
X12871302Y21325488D01*
X12814113Y21408739D01*
X12767545Y21408739D01*
X12737686Y21370354D01*
X12698772Y21355405D01*
X12689905Y21358633D01*
X12664687Y21401217D01*
X12662439Y21420243D01*
X12685537Y21457770D01*
X12734363Y21462502D01*
X12765422Y21444496D01*
X12767545Y21408739D01*
X12814113Y21408739D01*
X12687094Y21593642D01*
X12616467Y21527291D01*
G36*
X12259756Y20953781D02*
G01*
X12275244Y20938293D01*
X12290732Y20953781D01*
X12275244Y20969268D01*
X12259756Y20953781D01*
G37*
X12259756Y20953781D02*
X12275244Y20938293D01*
X12290732Y20953781D01*
X12275244Y20969268D01*
X12259756Y20953781D01*
G36*
X12112622Y20845817D02*
G01*
X12048513Y20800308D01*
X12013915Y20769746D01*
X12011951Y20765818D01*
X12017604Y20754534D01*
X12042456Y20768080D01*
X12098351Y20813752D01*
X12120366Y20832592D01*
X12213293Y20912437D01*
X12112622Y20845817D01*
G37*
X12112622Y20845817D02*
X12048513Y20800308D01*
X12013915Y20769746D01*
X12011951Y20765818D01*
X12017604Y20754534D01*
X12042456Y20768080D01*
X12098351Y20813752D01*
X12120366Y20832592D01*
X12213293Y20912437D01*
X12112622Y20845817D01*
G36*
X8016098Y20675000D02*
G01*
X8031585Y20659512D01*
X8047073Y20675000D01*
X8031585Y20690488D01*
X8016098Y20675000D01*
G37*
X8016098Y20675000D02*
X8031585Y20659512D01*
X8047073Y20675000D01*
X8031585Y20690488D01*
X8016098Y20675000D01*
G36*
X8583984Y20711138D02*
G01*
X8580277Y20674377D01*
X8583984Y20669837D01*
X8602399Y20674089D01*
X8604634Y20690488D01*
X8593301Y20715984D01*
X8583984Y20711138D01*
G37*
X8583984Y20711138D02*
X8580277Y20674377D01*
X8583984Y20669837D01*
X8602399Y20674089D01*
X8604634Y20690488D01*
X8593301Y20715984D01*
X8583984Y20711138D01*
G36*
X9399619Y20508426D02*
G01*
X9380231Y20446890D01*
X9366464Y20378543D01*
X9380795Y20351977D01*
X9396675Y20349756D01*
X9429432Y20375426D01*
X9440924Y20455302D01*
X9440976Y20463333D01*
X9436357Y20539594D01*
X9422549Y20554619D01*
X9399619Y20508426D01*
G37*
X9399619Y20508426D02*
X9380231Y20446890D01*
X9366464Y20378543D01*
X9380795Y20351977D01*
X9396675Y20349756D01*
X9429432Y20375426D01*
X9440924Y20455302D01*
X9440976Y20463333D01*
X9436357Y20539594D01*
X9422549Y20554619D01*
X9399619Y20508426D01*
G36*
X9076681Y20465915D02*
G01*
X9072054Y20365569D01*
X9076681Y20295549D01*
X9088209Y20210366D01*
X9113072Y20295549D01*
X9123175Y20392031D01*
X9113072Y20465915D01*
X9088209Y20551098D01*
X9076681Y20465915D01*
G37*
X9076681Y20465915D02*
X9072054Y20365569D01*
X9076681Y20295549D01*
X9088209Y20210366D01*
X9113072Y20295549D01*
X9123175Y20392031D01*
X9113072Y20465915D01*
X9088209Y20551098D01*
X9076681Y20465915D01*
G36*
X8575995Y20611500D02*
G01*
X8562966Y20561537D01*
X8569741Y20470368D01*
X8574646Y20442683D01*
X8591601Y20323424D01*
X8601967Y20188357D01*
X8603285Y20140671D01*
X8610128Y20035431D01*
X8629529Y19984855D01*
X8645935Y19978049D01*
X8695243Y19988637D01*
X8703453Y19994266D01*
X8704337Y20029884D01*
X8692225Y20109959D01*
X8669611Y20218964D01*
X8662394Y20249814D01*
X8634845Y20374200D01*
X8614476Y20483812D01*
X8605101Y20557751D01*
X8604876Y20565037D01*
X8596065Y20614169D01*
X8575995Y20611500D01*
G37*
X8575995Y20611500D02*
X8562966Y20561537D01*
X8569741Y20470368D01*
X8574646Y20442683D01*
X8591601Y20323424D01*
X8601967Y20188357D01*
X8603285Y20140671D01*
X8610128Y20035431D01*
X8629529Y19984855D01*
X8645935Y19978049D01*
X8695243Y19988637D01*
X8703453Y19994266D01*
X8704337Y20029884D01*
X8692225Y20109959D01*
X8669611Y20218964D01*
X8662394Y20249814D01*
X8634845Y20374200D01*
X8614476Y20483812D01*
X8605101Y20557751D01*
X8604876Y20565037D01*
X8596065Y20614169D01*
X8575995Y20611500D01*
G36*
X8826436Y20295634D02*
G01*
X8821944Y20231103D01*
X8821463Y20172678D01*
X8825824Y20075695D01*
X8842625Y20024086D01*
X8877444Y20001655D01*
X8880671Y20000767D01*
X8913725Y19995462D01*
X8925258Y20011460D01*
X8916404Y20061962D01*
X8892983Y20144288D01*
X8859202Y20253319D01*
X8837937Y20303403D01*
X8826436Y20295634D01*
G37*
X8826436Y20295634D02*
X8821944Y20231103D01*
X8821463Y20172678D01*
X8825824Y20075695D01*
X8842625Y20024086D01*
X8877444Y20001655D01*
X8880671Y20000767D01*
X8913725Y19995462D01*
X8925258Y20011460D01*
X8916404Y20061962D01*
X8892983Y20144288D01*
X8859202Y20253319D01*
X8837937Y20303403D01*
X8826436Y20295634D01*
G36*
X8522750Y20067968D02*
G01*
X8521217Y20062642D01*
X8516682Y19995168D01*
X8522365Y19969715D01*
X8532534Y19968686D01*
X8536687Y20017177D01*
X8536644Y20024512D01*
X8532178Y20072554D01*
X8522750Y20067968D01*
G37*
X8522750Y20067968D02*
X8521217Y20062642D01*
X8516682Y19995168D01*
X8522365Y19969715D01*
X8532534Y19968686D01*
X8536687Y20017177D01*
X8536644Y20024512D01*
X8532178Y20072554D01*
X8522750Y20067968D01*
G36*
X9087256Y20140183D02*
G01*
X9054278Y20066484D01*
X9050232Y20047465D01*
X9038453Y19974508D01*
X9048507Y19936975D01*
X9094238Y19917762D01*
X9166364Y19903986D01*
X9278947Y19883656D01*
X9229431Y20021355D01*
X9181903Y20116589D01*
X9132155Y20156541D01*
X9087256Y20140183D01*
G37*
X9087256Y20140183D02*
X9054278Y20066484D01*
X9050232Y20047465D01*
X9038453Y19974508D01*
X9048507Y19936975D01*
X9094238Y19917762D01*
X9166364Y19903986D01*
X9278947Y19883656D01*
X9229431Y20021355D01*
X9181903Y20116589D01*
X9132155Y20156541D01*
X9087256Y20140183D01*
G36*
X9808163Y20337573D02*
G01*
X9780558Y20265207D01*
X9759729Y20168342D01*
X9768841Y20098769D01*
X9780518Y20073199D01*
X9802598Y20025505D01*
X9786871Y20021775D01*
X9756544Y20036889D01*
X9712106Y20050009D01*
X9672242Y20026926D01*
X9622553Y19962007D01*
X9572738Y19895409D01*
X9535806Y19857597D01*
X9528620Y19854358D01*
X9509242Y19880485D01*
X9489092Y19941489D01*
X9475254Y20010794D01*
X9474136Y20058781D01*
X9469718Y20132431D01*
X9417467Y20170759D01*
X9410000Y20172878D01*
X9374028Y20176295D01*
X9355506Y20153181D01*
X9348778Y20090033D01*
X9348049Y20024970D01*
X9348291Y19951759D01*
X9355503Y19900723D01*
X9379417Y19866269D01*
X9429762Y19842806D01*
X9516270Y19824742D01*
X9648671Y19806484D01*
X9750732Y19793550D01*
X9880583Y19776256D01*
X9993723Y19759839D01*
X10070665Y19747168D01*
X10083720Y19744538D01*
X10137576Y19737105D01*
X10153415Y19741389D01*
X10138653Y19772120D01*
X10099961Y19840804D01*
X10045991Y19932108D01*
X9983441Y20044070D01*
X9930232Y20153418D01*
X9902859Y20222386D01*
X9866334Y20320160D01*
X9836026Y20358115D01*
X9808163Y20337573D01*
G37*
X9808163Y20337573D02*
X9780558Y20265207D01*
X9759729Y20168342D01*
X9768841Y20098769D01*
X9780518Y20073199D01*
X9802598Y20025505D01*
X9786871Y20021775D01*
X9756544Y20036889D01*
X9712106Y20050009D01*
X9672242Y20026926D01*
X9622553Y19962007D01*
X9572738Y19895409D01*
X9535806Y19857597D01*
X9528620Y19854358D01*
X9509242Y19880485D01*
X9489092Y19941489D01*
X9475254Y20010794D01*
X9474136Y20058781D01*
X9469718Y20132431D01*
X9417467Y20170759D01*
X9410000Y20172878D01*
X9374028Y20176295D01*
X9355506Y20153181D01*
X9348778Y20090033D01*
X9348049Y20024970D01*
X9348291Y19951759D01*
X9355503Y19900723D01*
X9379417Y19866269D01*
X9429762Y19842806D01*
X9516270Y19824742D01*
X9648671Y19806484D01*
X9750732Y19793550D01*
X9880583Y19776256D01*
X9993723Y19759839D01*
X10070665Y19747168D01*
X10083720Y19744538D01*
X10137576Y19737105D01*
X10153415Y19741389D01*
X10138653Y19772120D01*
X10099961Y19840804D01*
X10045991Y19932108D01*
X9983441Y20044070D01*
X9930232Y20153418D01*
X9902859Y20222386D01*
X9866334Y20320160D01*
X9836026Y20358115D01*
X9808163Y20337573D01*
G36*
X10318601Y19926315D02*
G01*
X10283903Y19861890D01*
X10243291Y19782931D01*
X10231162Y19744251D01*
X10246835Y19731475D01*
X10277660Y19730244D01*
X10337011Y19749080D01*
X10358038Y19774091D01*
X10367036Y19836296D01*
X10364281Y19905737D01*
X10356560Y19955751D01*
X10344249Y19964201D01*
X10318601Y19926315D01*
G37*
X10318601Y19926315D02*
X10283903Y19861890D01*
X10243291Y19782931D01*
X10231162Y19744251D01*
X10246835Y19731475D01*
X10277660Y19730244D01*
X10337011Y19749080D01*
X10358038Y19774091D01*
X10367036Y19836296D01*
X10364281Y19905737D01*
X10356560Y19955751D01*
X10344249Y19964201D01*
X10318601Y19926315D01*
G36*
X11354667Y21440890D02*
G01*
X11335579Y21291378D01*
X11309029Y21131631D01*
X11287072Y21024642D01*
X11251282Y20891034D01*
X11204263Y20743571D01*
X11151377Y20596207D01*
X11097983Y20462893D01*
X11049442Y20357581D01*
X11011113Y20294222D01*
X11003395Y20286270D01*
X10981515Y20276057D01*
X10967960Y20296141D01*
X10960755Y20356124D01*
X10957922Y20465608D01*
X10957633Y20508585D01*
X10956486Y20767927D01*
X10852057Y20501219D01*
X10772086Y20303949D01*
X10702403Y20150275D01*
X10634924Y20024630D01*
X10561566Y19911446D01*
X10508097Y19838750D01*
X10449030Y19755333D01*
X10432858Y19715909D01*
X10452139Y19716377D01*
X10522466Y19733113D01*
X10613797Y19737588D01*
X10618049Y19737404D01*
X10737366Y19732783D01*
X10894265Y19728392D01*
X11079409Y19724329D01*
X11283462Y19720694D01*
X11497088Y19717586D01*
X11710952Y19715105D01*
X11915716Y19713349D01*
X12102045Y19712418D01*
X12260603Y19712412D01*
X12382054Y19713429D01*
X12457061Y19715569D01*
X12476585Y19717643D01*
X12590257Y19762189D01*
X12683591Y19805036D01*
X12742377Y19839228D01*
X12755366Y19854074D01*
X12733770Y19882392D01*
X12675314Y19942382D01*
X12589490Y20024620D01*
X12543784Y20066701D01*
X12182317Y20066701D01*
X12044679Y20088061D01*
X11898207Y20103226D01*
X11724914Y20109266D01*
X11536802Y20107088D01*
X11345875Y20097600D01*
X11164136Y20081709D01*
X11003586Y20060321D01*
X10876230Y20034344D01*
X10794069Y20004685D01*
X10776803Y19992251D01*
X10734864Y19976707D01*
X10695451Y19989755D01*
X10687404Y20016768D01*
X10719464Y20048782D01*
X10792582Y20097723D01*
X10891917Y20153811D01*
X10908021Y20162164D01*
X11024322Y20217518D01*
X11124594Y20251612D01*
X11234331Y20270792D01*
X11379029Y20281405D01*
X11388946Y20281887D01*
X11662360Y20275101D01*
X11893369Y20226961D01*
X12079745Y20137946D01*
X12089390Y20131364D01*
X12182317Y20066701D01*
X12543784Y20066701D01*
X12507801Y20099830D01*
X12275854Y20324697D01*
X12054705Y20567100D01*
X11852809Y20816094D01*
X11678622Y21060732D01*
X11540602Y21290070D01*
X11463263Y21451850D01*
X11376951Y21662374D01*
X11354667Y21440890D01*
G37*
X11354667Y21440890D02*
X11335579Y21291378D01*
X11309029Y21131631D01*
X11287072Y21024642D01*
X11251282Y20891034D01*
X11204263Y20743571D01*
X11151377Y20596207D01*
X11097983Y20462893D01*
X11049442Y20357581D01*
X11011113Y20294222D01*
X11003395Y20286270D01*
X10981515Y20276057D01*
X10967960Y20296141D01*
X10960755Y20356124D01*
X10957922Y20465608D01*
X10957633Y20508585D01*
X10956486Y20767927D01*
X10852057Y20501219D01*
X10772086Y20303949D01*
X10702403Y20150275D01*
X10634924Y20024630D01*
X10561566Y19911446D01*
X10508097Y19838750D01*
X10449030Y19755333D01*
X10432858Y19715909D01*
X10452139Y19716377D01*
X10522466Y19733113D01*
X10613797Y19737588D01*
X10618049Y19737404D01*
X10737366Y19732783D01*
X10894265Y19728392D01*
X11079409Y19724329D01*
X11283462Y19720694D01*
X11497088Y19717586D01*
X11710952Y19715105D01*
X11915716Y19713349D01*
X12102045Y19712418D01*
X12260603Y19712412D01*
X12382054Y19713429D01*
X12457061Y19715569D01*
X12476585Y19717643D01*
X12590257Y19762189D01*
X12683591Y19805036D01*
X12742377Y19839228D01*
X12755366Y19854074D01*
X12733770Y19882392D01*
X12675314Y19942382D01*
X12589490Y20024620D01*
X12543784Y20066701D01*
X12182317Y20066701D01*
X12044679Y20088061D01*
X11898207Y20103226D01*
X11724914Y20109266D01*
X11536802Y20107088D01*
X11345875Y20097600D01*
X11164136Y20081709D01*
X11003586Y20060321D01*
X10876230Y20034344D01*
X10794069Y20004685D01*
X10776803Y19992251D01*
X10734864Y19976707D01*
X10695451Y19989755D01*
X10687404Y20016768D01*
X10719464Y20048782D01*
X10792582Y20097723D01*
X10891917Y20153811D01*
X10908021Y20162164D01*
X11024322Y20217518D01*
X11124594Y20251612D01*
X11234331Y20270792D01*
X11379029Y20281405D01*
X11388946Y20281887D01*
X11662360Y20275101D01*
X11893369Y20226961D01*
X12079745Y20137946D01*
X12089390Y20131364D01*
X12182317Y20066701D01*
X12543784Y20066701D01*
X12507801Y20099830D01*
X12275854Y20324697D01*
X12054705Y20567100D01*
X11852809Y20816094D01*
X11678622Y21060732D01*
X11540602Y21290070D01*
X11463263Y21451850D01*
X11376951Y21662374D01*
X11354667Y21440890D01*
G36*
X13880304Y19271418D02*
G01*
X13876611Y19223007D01*
X13882749Y19212048D01*
X13896828Y19221286D01*
X13899018Y19252703D01*
X13891453Y19285755D01*
X13880304Y19271418D01*
G37*
X13880304Y19271418D02*
X13876611Y19223007D01*
X13882749Y19212048D01*
X13896828Y19221286D01*
X13899018Y19252703D01*
X13891453Y19285755D01*
X13880304Y19271418D01*
G36*
X13567749Y21805688D02*
G01*
X13590319Y21738535D01*
X13610938Y21685771D01*
X13683843Y21477869D01*
X13756760Y21220763D01*
X13826487Y20927118D01*
X13889821Y20609599D01*
X13905633Y20520122D01*
X13930865Y20343741D01*
X13952299Y20136594D01*
X13969557Y19910147D01*
X13982258Y19675863D01*
X13990024Y19445209D01*
X13992474Y19229649D01*
X13989229Y19040649D01*
X13979910Y18889674D01*
X13964136Y18788189D01*
X13963099Y18784362D01*
X13941349Y18691586D01*
X13937165Y18638524D01*
X13949415Y18631862D01*
X13976967Y18678282D01*
X13979958Y18684844D01*
X14030047Y18739689D01*
X14105560Y18775838D01*
X14201460Y18825112D01*
X14310372Y18922249D01*
X14423447Y19057149D01*
X14531834Y19219709D01*
X14555635Y19262894D01*
X14451340Y19262894D01*
X14407760Y19198354D01*
X14360977Y19151717D01*
X14340304Y19155321D01*
X14335202Y19214430D01*
X14335122Y19234634D01*
X14344858Y19302654D01*
X14381081Y19326602D01*
X14397073Y19327561D01*
X14449323Y19310213D01*
X14451340Y19262894D01*
X14555635Y19262894D01*
X14595235Y19334743D01*
X14661501Y19475447D01*
X14701200Y19591865D01*
X14722196Y19711213D01*
X14729268Y19798570D01*
X14729188Y19804553D01*
X14643203Y19804553D01*
X14629446Y19677760D01*
X14606463Y19528902D01*
X14577014Y19620204D01*
X14409607Y19620204D01*
X14406178Y19537916D01*
X14355683Y19473183D01*
X14273007Y19443991D01*
X14263576Y19443720D01*
X14208731Y19436054D01*
X14196518Y19419215D01*
X14199331Y19367295D01*
X14173308Y19301122D01*
X14132619Y19248507D01*
X14102482Y19234634D01*
X14071095Y19244710D01*
X14081525Y19285314D01*
X14088289Y19298402D01*
X14107113Y19375614D01*
X14102753Y19451698D01*
X14099048Y19526984D01*
X14135865Y19573981D01*
X14142815Y19578525D01*
X14180985Y19616360D01*
X14192578Y19677419D01*
X14187819Y19746436D01*
X14185330Y19831213D01*
X14196718Y19887356D01*
X14203810Y19896030D01*
X14236586Y19883889D01*
X14285889Y19832822D01*
X14339730Y19758899D01*
X14386117Y19678191D01*
X14409607Y19620204D01*
X14577014Y19620204D01*
X14520682Y19794852D01*
X14475822Y19927429D01*
X14431152Y20048600D01*
X14394333Y20137903D01*
X14385011Y20157277D01*
X14351619Y20226255D01*
X14335413Y20268380D01*
X14335122Y20270779D01*
X14358299Y20290093D01*
X14414702Y20282465D01*
X14484637Y20253167D01*
X14538714Y20216287D01*
X14603424Y20122276D01*
X14638763Y19982004D01*
X14643203Y19804553D01*
X14729188Y19804553D01*
X14726408Y20011262D01*
X14688140Y20175107D01*
X14612051Y20293691D01*
X14495727Y20370603D01*
X14336756Y20409427D01*
X14316852Y20411500D01*
X14218463Y20427419D01*
X14159640Y20450102D01*
X14146875Y20474232D01*
X14186660Y20494490D01*
X14209993Y20499045D01*
X14260950Y20510310D01*
X14273171Y20516935D01*
X14259491Y20563726D01*
X14222238Y20653453D01*
X14167095Y20774442D01*
X14099742Y20915019D01*
X14025862Y21063510D01*
X13951137Y21208242D01*
X13881248Y21337542D01*
X13832698Y21421924D01*
X13724695Y21600135D01*
X13645590Y21725961D01*
X13593992Y21801057D01*
X13568509Y21827081D01*
X13567749Y21805688D01*
G37*
X13567749Y21805688D02*
X13590319Y21738535D01*
X13610938Y21685771D01*
X13683843Y21477869D01*
X13756760Y21220763D01*
X13826487Y20927118D01*
X13889821Y20609599D01*
X13905633Y20520122D01*
X13930865Y20343741D01*
X13952299Y20136594D01*
X13969557Y19910147D01*
X13982258Y19675863D01*
X13990024Y19445209D01*
X13992474Y19229649D01*
X13989229Y19040649D01*
X13979910Y18889674D01*
X13964136Y18788189D01*
X13963099Y18784362D01*
X13941349Y18691586D01*
X13937165Y18638524D01*
X13949415Y18631862D01*
X13976967Y18678282D01*
X13979958Y18684844D01*
X14030047Y18739689D01*
X14105560Y18775838D01*
X14201460Y18825112D01*
X14310372Y18922249D01*
X14423447Y19057149D01*
X14531834Y19219709D01*
X14555635Y19262894D01*
X14451340Y19262894D01*
X14407760Y19198354D01*
X14360977Y19151717D01*
X14340304Y19155321D01*
X14335202Y19214430D01*
X14335122Y19234634D01*
X14344858Y19302654D01*
X14381081Y19326602D01*
X14397073Y19327561D01*
X14449323Y19310213D01*
X14451340Y19262894D01*
X14555635Y19262894D01*
X14595235Y19334743D01*
X14661501Y19475447D01*
X14701200Y19591865D01*
X14722196Y19711213D01*
X14729268Y19798570D01*
X14729188Y19804553D01*
X14643203Y19804553D01*
X14629446Y19677760D01*
X14606463Y19528902D01*
X14577014Y19620204D01*
X14409607Y19620204D01*
X14406178Y19537916D01*
X14355683Y19473183D01*
X14273007Y19443991D01*
X14263576Y19443720D01*
X14208731Y19436054D01*
X14196518Y19419215D01*
X14199331Y19367295D01*
X14173308Y19301122D01*
X14132619Y19248507D01*
X14102482Y19234634D01*
X14071095Y19244710D01*
X14081525Y19285314D01*
X14088289Y19298402D01*
X14107113Y19375614D01*
X14102753Y19451698D01*
X14099048Y19526984D01*
X14135865Y19573981D01*
X14142815Y19578525D01*
X14180985Y19616360D01*
X14192578Y19677419D01*
X14187819Y19746436D01*
X14185330Y19831213D01*
X14196718Y19887356D01*
X14203810Y19896030D01*
X14236586Y19883889D01*
X14285889Y19832822D01*
X14339730Y19758899D01*
X14386117Y19678191D01*
X14409607Y19620204D01*
X14577014Y19620204D01*
X14520682Y19794852D01*
X14475822Y19927429D01*
X14431152Y20048600D01*
X14394333Y20137903D01*
X14385011Y20157277D01*
X14351619Y20226255D01*
X14335413Y20268380D01*
X14335122Y20270779D01*
X14358299Y20290093D01*
X14414702Y20282465D01*
X14484637Y20253167D01*
X14538714Y20216287D01*
X14603424Y20122276D01*
X14638763Y19982004D01*
X14643203Y19804553D01*
X14729188Y19804553D01*
X14726408Y20011262D01*
X14688140Y20175107D01*
X14612051Y20293691D01*
X14495727Y20370603D01*
X14336756Y20409427D01*
X14316852Y20411500D01*
X14218463Y20427419D01*
X14159640Y20450102D01*
X14146875Y20474232D01*
X14186660Y20494490D01*
X14209993Y20499045D01*
X14260950Y20510310D01*
X14273171Y20516935D01*
X14259491Y20563726D01*
X14222238Y20653453D01*
X14167095Y20774442D01*
X14099742Y20915019D01*
X14025862Y21063510D01*
X13951137Y21208242D01*
X13881248Y21337542D01*
X13832698Y21421924D01*
X13724695Y21600135D01*
X13645590Y21725961D01*
X13593992Y21801057D01*
X13568509Y21827081D01*
X13567749Y21805688D01*
G36*
X14507685Y18955450D02*
G01*
X14500777Y18949321D01*
X14467490Y18905801D01*
X14447676Y18838363D01*
X14437677Y18731377D01*
X14435515Y18670541D01*
X14430612Y18532406D01*
X14422671Y18362844D01*
X14413155Y18192216D01*
X14410043Y18142744D01*
X14402977Y18014651D01*
X14399815Y17913512D01*
X14400830Y17852553D01*
X14403758Y17840732D01*
X14412507Y17869563D01*
X14426907Y17948401D01*
X14445076Y18065761D01*
X14465131Y18210157D01*
X14468476Y18235671D01*
X14490319Y18406140D01*
X14511237Y18573747D01*
X14528778Y18718598D01*
X14540023Y18816463D01*
X14550153Y18917970D01*
X14550153Y18968155D01*
X14537004Y18977242D01*
X14507685Y18955450D01*
G37*
X14507685Y18955450D02*
X14500777Y18949321D01*
X14467490Y18905801D01*
X14447676Y18838363D01*
X14437677Y18731377D01*
X14435515Y18670541D01*
X14430612Y18532406D01*
X14422671Y18362844D01*
X14413155Y18192216D01*
X14410043Y18142744D01*
X14402977Y18014651D01*
X14399815Y17913512D01*
X14400830Y17852553D01*
X14403758Y17840732D01*
X14412507Y17869563D01*
X14426907Y17948401D01*
X14445076Y18065761D01*
X14465131Y18210157D01*
X14468476Y18235671D01*
X14490319Y18406140D01*
X14511237Y18573747D01*
X14528778Y18718598D01*
X14540023Y18816463D01*
X14550153Y18917970D01*
X14550153Y18968155D01*
X14537004Y18977242D01*
X14507685Y18955450D01*
G36*
X13720396Y17766251D02*
G01*
X13687403Y17737456D01*
X13684634Y17730489D01*
X13699334Y17717758D01*
X13729940Y17746285D01*
X13734056Y17752591D01*
X13737706Y17773787D01*
X13720396Y17766251D01*
G37*
X13720396Y17766251D02*
X13687403Y17737456D01*
X13684634Y17730489D01*
X13699334Y17717758D01*
X13729940Y17746285D01*
X13734056Y17752591D01*
X13737706Y17773787D01*
X13720396Y17766251D01*
G36*
X14265427Y18718064D02*
G01*
X14198609Y18666584D01*
X14146762Y18638208D01*
X14111935Y18601969D01*
X14068359Y18523768D01*
X14027000Y18424507D01*
X13974175Y18289778D01*
X13907909Y18136868D01*
X13852252Y18018842D01*
X13804198Y17919337D01*
X13771254Y17845522D01*
X13759345Y17810821D01*
X13759996Y17809756D01*
X13785479Y17833313D01*
X13834826Y17894539D01*
X13897974Y17979271D01*
X13964860Y18073344D01*
X14025419Y18162595D01*
X14069587Y18232858D01*
X14087300Y18269970D01*
X14087317Y18270435D01*
X14107720Y18303637D01*
X14116889Y18305366D01*
X14144026Y18274813D01*
X14165538Y18184394D01*
X14181097Y18035966D01*
X14188114Y17902683D01*
X14193168Y17797152D01*
X14200282Y17745157D01*
X14212717Y17738297D01*
X14233736Y17768168D01*
X14237674Y17775023D01*
X14259155Y17840450D01*
X14280616Y17953752D01*
X14300443Y18100874D01*
X14317019Y18267760D01*
X14328728Y18440357D01*
X14333952Y18604607D01*
X14334017Y18612778D01*
X14335122Y18780799D01*
X14265427Y18718064D01*
G37*
X14265427Y18718064D02*
X14198609Y18666584D01*
X14146762Y18638208D01*
X14111935Y18601969D01*
X14068359Y18523768D01*
X14027000Y18424507D01*
X13974175Y18289778D01*
X13907909Y18136868D01*
X13852252Y18018842D01*
X13804198Y17919337D01*
X13771254Y17845522D01*
X13759345Y17810821D01*
X13759996Y17809756D01*
X13785479Y17833313D01*
X13834826Y17894539D01*
X13897974Y17979271D01*
X13964860Y18073344D01*
X14025419Y18162595D01*
X14069587Y18232858D01*
X14087300Y18269970D01*
X14087317Y18270435D01*
X14107720Y18303637D01*
X14116889Y18305366D01*
X14144026Y18274813D01*
X14165538Y18184394D01*
X14181097Y18035966D01*
X14188114Y17902683D01*
X14193168Y17797152D01*
X14200282Y17745157D01*
X14212717Y17738297D01*
X14233736Y17768168D01*
X14237674Y17775023D01*
X14259155Y17840450D01*
X14280616Y17953752D01*
X14300443Y18100874D01*
X14317019Y18267760D01*
X14328728Y18440357D01*
X14333952Y18604607D01*
X14334017Y18612778D01*
X14335122Y18780799D01*
X14265427Y18718064D01*
G36*
X14376559Y17786524D02*
G01*
X14372467Y17723107D01*
X14376559Y17709085D01*
X14387865Y17705194D01*
X14392182Y17747805D01*
X14387314Y17791779D01*
X14376559Y17786524D01*
G37*
X14376559Y17786524D02*
X14372467Y17723107D01*
X14376559Y17709085D01*
X14387865Y17705194D01*
X14392182Y17747805D01*
X14387314Y17791779D01*
X14376559Y17786524D01*
G36*
X9696360Y17205955D02*
G01*
X9718735Y17174756D01*
X9756785Y17122537D01*
X9772942Y17099898D01*
X9781287Y17110079D01*
X9781707Y17119337D01*
X9759762Y17162498D01*
X9727500Y17194195D01*
X9691272Y17220590D01*
X9696360Y17205955D01*
G37*
X9696360Y17205955D02*
X9718735Y17174756D01*
X9756785Y17122537D01*
X9772942Y17099898D01*
X9781287Y17110079D01*
X9781707Y17119337D01*
X9759762Y17162498D01*
X9727500Y17194195D01*
X9691272Y17220590D01*
X9696360Y17205955D01*
G36*
X12772056Y19593496D02*
G01*
X12666795Y19486430D01*
X12602144Y19376346D01*
X12598586Y19366136D01*
X12487976Y19098853D01*
X12344881Y18883195D01*
X12166664Y18716498D01*
X11950686Y18596100D01*
X11779091Y18538843D01*
X11534200Y18497793D01*
X11283165Y18496583D01*
X11037848Y18532256D01*
X10810110Y18601856D01*
X10611813Y18702426D01*
X10454819Y18831009D01*
X10414083Y18879103D01*
X10360219Y18960419D01*
X10296068Y19072400D01*
X10242469Y19176771D01*
X10159150Y19336801D01*
X10091405Y19437570D01*
X10038246Y19479516D01*
X9998684Y19463075D01*
X9971731Y19388683D01*
X9959768Y19301608D01*
X9924344Y19110291D01*
X9855705Y18967477D01*
X9751171Y18867763D01*
X9741484Y18861673D01*
X9636344Y18815845D01*
X9520311Y18806260D01*
X9377828Y18832919D01*
X9286429Y18861688D01*
X9193078Y18891231D01*
X9126201Y18907379D01*
X9103767Y18907751D01*
X9104192Y18874088D01*
X9115157Y18792813D01*
X9134688Y18676990D01*
X9154759Y18570254D01*
X9227751Y18275404D01*
X9329538Y18000925D01*
X9464880Y17739962D01*
X9638539Y17485662D01*
X9855276Y17231170D01*
X10119852Y16969633D01*
X10437028Y16694196D01*
X10485632Y16654355D01*
X10619834Y16555701D01*
X10742284Y16485535D01*
X10843240Y16448171D01*
X10912962Y16447922D01*
X10928877Y16458084D01*
X10963346Y16468732D01*
X11048664Y16487892D01*
X11174641Y16513483D01*
X11331088Y16543422D01*
X11478104Y16570320D01*
X11824481Y16638076D01*
X12118275Y16709257D01*
X12368849Y16787924D01*
X12585570Y16878140D01*
X12777800Y16983970D01*
X12954905Y17109475D01*
X12969660Y17122327D01*
X10860247Y17122327D01*
X10848643Y17094530D01*
X10805956Y17077423D01*
X10718095Y17074038D01*
X10599898Y17082719D01*
X10466203Y17101811D01*
X10331849Y17129658D01*
X10211674Y17164606D01*
X10207622Y17166038D01*
X10112731Y17206289D01*
X10048403Y17246010D01*
X10029512Y17271833D01*
X10044402Y17304787D01*
X10093947Y17310200D01*
X10185458Y17287512D01*
X10284729Y17252211D01*
X10454355Y17207303D01*
X10637258Y17190263D01*
X10639452Y17190260D01*
X10769519Y17183154D01*
X10842132Y17160960D01*
X10860247Y17122327D01*
X12969660Y17122327D01*
X13126249Y17258718D01*
X13176256Y17307076D01*
X13329027Y17473064D01*
X13470707Y17655726D01*
X13591836Y17838623D01*
X11826098Y17838623D01*
X11811768Y17787714D01*
X11768347Y17790097D01*
X11738552Y17812854D01*
X11547317Y17812854D01*
X11525582Y17781891D01*
X11473158Y17783828D01*
X11433711Y17802934D01*
X10086801Y17802934D01*
X10056776Y17806385D01*
X10014024Y17840732D01*
X9960724Y17906426D01*
X9936696Y17966904D01*
X9936585Y17970034D01*
X9949588Y18019427D01*
X9982705Y18016911D01*
X10027098Y17965346D01*
X10044205Y17935197D01*
X10082951Y17846936D01*
X10086801Y17802934D01*
X11433711Y17802934D01*
X11409218Y17814797D01*
X11401517Y17821537D01*
X11218760Y17821537D01*
X11198108Y17812313D01*
X11150829Y17846927D01*
X11118217Y17892465D01*
X11113659Y17908878D01*
X11129082Y17933647D01*
X11165428Y17914315D01*
X11199397Y17871707D01*
X11218760Y17821537D01*
X11401517Y17821537D01*
X11370734Y17848476D01*
X11310651Y17924814D01*
X11271318Y17987866D01*
X11251068Y18039523D01*
X11269399Y18056659D01*
X11286032Y18057561D01*
X11336292Y18036362D01*
X11405585Y17984046D01*
X11475847Y17917530D01*
X11529014Y17853733D01*
X11547317Y17812854D01*
X11738552Y17812854D01*
X11695187Y17845975D01*
X11646402Y17894939D01*
X11585058Y17964848D01*
X11565660Y18003338D01*
X11583769Y18020056D01*
X11588358Y18021078D01*
X11654842Y18009294D01*
X11731417Y17964396D01*
X11795834Y17903459D01*
X11825844Y17843558D01*
X11826098Y17838623D01*
X13591836Y17838623D01*
X13597067Y17846521D01*
X13603327Y17857681D01*
X11993905Y17857681D01*
X11982259Y17838847D01*
X11940127Y17849252D01*
X11879681Y17889099D01*
X11862914Y17903890D01*
X11811304Y17962540D01*
X11795803Y18002330D01*
X11817925Y18012318D01*
X11849676Y17999569D01*
X11912151Y17954253D01*
X11962891Y17905552D01*
X11993905Y17857681D01*
X13603327Y17857681D01*
X13703876Y18036911D01*
X13768111Y18177286D01*
X9595854Y18177286D01*
X9580666Y18127195D01*
X9541804Y18129433D01*
X9496939Y18173720D01*
X9446178Y18217739D01*
X9413677Y18227927D01*
X9372315Y18252919D01*
X9324909Y18314588D01*
X9316091Y18330107D01*
X9275486Y18390605D01*
X9248778Y18398237D01*
X9245164Y18392058D01*
X9230072Y18372854D01*
X9227066Y18382805D01*
X9240452Y18434008D01*
X9253705Y18459012D01*
X9281765Y18486607D01*
X9318997Y18470087D01*
X9340853Y18451268D01*
X9398021Y18410629D01*
X9433423Y18398293D01*
X9479580Y18373368D01*
X9532959Y18313455D01*
X9577177Y18240842D01*
X9595851Y18177820D01*
X9595854Y18177286D01*
X13768111Y18177286D01*
X13786906Y18218357D01*
X13841926Y18382318D01*
X13864707Y18520256D01*
X13851018Y18623631D01*
X13839512Y18646098D01*
X13814597Y18673538D01*
X13809011Y18667662D01*
X13795889Y18681386D01*
X13761267Y18739381D01*
X13711565Y18830621D01*
X13689005Y18873753D01*
X13514456Y19154802D01*
X13303556Y19398595D01*
X13089790Y19577281D01*
X12907939Y19704842D01*
X12772056Y19593496D01*
G37*
X12772056Y19593496D02*
X12666795Y19486430D01*
X12602144Y19376346D01*
X12598586Y19366136D01*
X12487976Y19098853D01*
X12344881Y18883195D01*
X12166664Y18716498D01*
X11950686Y18596100D01*
X11779091Y18538843D01*
X11534200Y18497793D01*
X11283165Y18496583D01*
X11037848Y18532256D01*
X10810110Y18601856D01*
X10611813Y18702426D01*
X10454819Y18831009D01*
X10414083Y18879103D01*
X10360219Y18960419D01*
X10296068Y19072400D01*
X10242469Y19176771D01*
X10159150Y19336801D01*
X10091405Y19437570D01*
X10038246Y19479516D01*
X9998684Y19463075D01*
X9971731Y19388683D01*
X9959768Y19301608D01*
X9924344Y19110291D01*
X9855705Y18967477D01*
X9751171Y18867763D01*
X9741484Y18861673D01*
X9636344Y18815845D01*
X9520311Y18806260D01*
X9377828Y18832919D01*
X9286429Y18861688D01*
X9193078Y18891231D01*
X9126201Y18907379D01*
X9103767Y18907751D01*
X9104192Y18874088D01*
X9115157Y18792813D01*
X9134688Y18676990D01*
X9154759Y18570254D01*
X9227751Y18275404D01*
X9329538Y18000925D01*
X9464880Y17739962D01*
X9638539Y17485662D01*
X9855276Y17231170D01*
X10119852Y16969633D01*
X10437028Y16694196D01*
X10485632Y16654355D01*
X10619834Y16555701D01*
X10742284Y16485535D01*
X10843240Y16448171D01*
X10912962Y16447922D01*
X10928877Y16458084D01*
X10963346Y16468732D01*
X11048664Y16487892D01*
X11174641Y16513483D01*
X11331088Y16543422D01*
X11478104Y16570320D01*
X11824481Y16638076D01*
X12118275Y16709257D01*
X12368849Y16787924D01*
X12585570Y16878140D01*
X12777800Y16983970D01*
X12954905Y17109475D01*
X12969660Y17122327D01*
X10860247Y17122327D01*
X10848643Y17094530D01*
X10805956Y17077423D01*
X10718095Y17074038D01*
X10599898Y17082719D01*
X10466203Y17101811D01*
X10331849Y17129658D01*
X10211674Y17164606D01*
X10207622Y17166038D01*
X10112731Y17206289D01*
X10048403Y17246010D01*
X10029512Y17271833D01*
X10044402Y17304787D01*
X10093947Y17310200D01*
X10185458Y17287512D01*
X10284729Y17252211D01*
X10454355Y17207303D01*
X10637258Y17190263D01*
X10639452Y17190260D01*
X10769519Y17183154D01*
X10842132Y17160960D01*
X10860247Y17122327D01*
X12969660Y17122327D01*
X13126249Y17258718D01*
X13176256Y17307076D01*
X13329027Y17473064D01*
X13470707Y17655726D01*
X13591836Y17838623D01*
X11826098Y17838623D01*
X11811768Y17787714D01*
X11768347Y17790097D01*
X11738552Y17812854D01*
X11547317Y17812854D01*
X11525582Y17781891D01*
X11473158Y17783828D01*
X11433711Y17802934D01*
X10086801Y17802934D01*
X10056776Y17806385D01*
X10014024Y17840732D01*
X9960724Y17906426D01*
X9936696Y17966904D01*
X9936585Y17970034D01*
X9949588Y18019427D01*
X9982705Y18016911D01*
X10027098Y17965346D01*
X10044205Y17935197D01*
X10082951Y17846936D01*
X10086801Y17802934D01*
X11433711Y17802934D01*
X11409218Y17814797D01*
X11401517Y17821537D01*
X11218760Y17821537D01*
X11198108Y17812313D01*
X11150829Y17846927D01*
X11118217Y17892465D01*
X11113659Y17908878D01*
X11129082Y17933647D01*
X11165428Y17914315D01*
X11199397Y17871707D01*
X11218760Y17821537D01*
X11401517Y17821537D01*
X11370734Y17848476D01*
X11310651Y17924814D01*
X11271318Y17987866D01*
X11251068Y18039523D01*
X11269399Y18056659D01*
X11286032Y18057561D01*
X11336292Y18036362D01*
X11405585Y17984046D01*
X11475847Y17917530D01*
X11529014Y17853733D01*
X11547317Y17812854D01*
X11738552Y17812854D01*
X11695187Y17845975D01*
X11646402Y17894939D01*
X11585058Y17964848D01*
X11565660Y18003338D01*
X11583769Y18020056D01*
X11588358Y18021078D01*
X11654842Y18009294D01*
X11731417Y17964396D01*
X11795834Y17903459D01*
X11825844Y17843558D01*
X11826098Y17838623D01*
X13591836Y17838623D01*
X13597067Y17846521D01*
X13603327Y17857681D01*
X11993905Y17857681D01*
X11982259Y17838847D01*
X11940127Y17849252D01*
X11879681Y17889099D01*
X11862914Y17903890D01*
X11811304Y17962540D01*
X11795803Y18002330D01*
X11817925Y18012318D01*
X11849676Y17999569D01*
X11912151Y17954253D01*
X11962891Y17905552D01*
X11993905Y17857681D01*
X13603327Y17857681D01*
X13703876Y18036911D01*
X13768111Y18177286D01*
X9595854Y18177286D01*
X9580666Y18127195D01*
X9541804Y18129433D01*
X9496939Y18173720D01*
X9446178Y18217739D01*
X9413677Y18227927D01*
X9372315Y18252919D01*
X9324909Y18314588D01*
X9316091Y18330107D01*
X9275486Y18390605D01*
X9248778Y18398237D01*
X9245164Y18392058D01*
X9230072Y18372854D01*
X9227066Y18382805D01*
X9240452Y18434008D01*
X9253705Y18459012D01*
X9281765Y18486607D01*
X9318997Y18470087D01*
X9340853Y18451268D01*
X9398021Y18410629D01*
X9433423Y18398293D01*
X9479580Y18373368D01*
X9532959Y18313455D01*
X9577177Y18240842D01*
X9595851Y18177820D01*
X9595854Y18177286D01*
X13768111Y18177286D01*
X13786906Y18218357D01*
X13841926Y18382318D01*
X13864707Y18520256D01*
X13851018Y18623631D01*
X13839512Y18646098D01*
X13814597Y18673538D01*
X13809011Y18667662D01*
X13795889Y18681386D01*
X13761267Y18739381D01*
X13711565Y18830621D01*
X13689005Y18873753D01*
X13514456Y19154802D01*
X13303556Y19398595D01*
X13089790Y19577281D01*
X12907939Y19704842D01*
X12772056Y19593496D01*
G36*
X8589991Y19444719D02*
G01*
X8592783Y19362657D01*
X8599587Y19245531D01*
X8607038Y19141707D01*
X8616587Y18985235D01*
X8624744Y18790130D01*
X8630720Y18579707D01*
X8633725Y18377281D01*
X8633869Y18349465D01*
X8643067Y17924262D01*
X8667619Y17555519D01*
X8708048Y17239549D01*
X8764878Y16972661D01*
X8838631Y16751169D01*
X8870717Y16679146D01*
X8916478Y16592163D01*
X8967909Y16505982D01*
X9016199Y16433737D01*
X9052533Y16388562D01*
X9068099Y16383590D01*
X9068180Y16384878D01*
X9059713Y16420089D01*
X9037227Y16497598D01*
X9005572Y16600694D01*
X9005253Y16601707D01*
X8984842Y16672723D01*
X8967799Y16748546D01*
X8953678Y16835896D01*
X8942031Y16941492D01*
X8932413Y17072051D01*
X8924375Y17234292D01*
X8917471Y17434933D01*
X8911254Y17680693D01*
X8905277Y17978290D01*
X8902206Y18150488D01*
X8898487Y18386436D01*
X8896705Y18566267D01*
X8897109Y18695790D01*
X8899946Y18780818D01*
X8905464Y18827160D01*
X8913911Y18840628D01*
X8925535Y18827031D01*
X8930620Y18816463D01*
X8958435Y18731138D01*
X8983089Y18617068D01*
X8992588Y18553171D01*
X9031811Y18231185D01*
X9066462Y17962802D01*
X9098355Y17740005D01*
X9129300Y17554776D01*
X9161111Y17399098D01*
X9195598Y17264952D01*
X9234575Y17144320D01*
X9279853Y17029185D01*
X9333245Y16911529D01*
X9389351Y16797610D01*
X9448820Y16686567D01*
X9500607Y16602160D01*
X9539530Y16550940D01*
X9560408Y16539457D01*
X9558057Y16574262D01*
X9553507Y16590084D01*
X9520480Y16715807D01*
X9485243Y16881158D01*
X9451873Y17064135D01*
X9424451Y17242734D01*
X9409743Y17365572D01*
X9386722Y17526742D01*
X9347195Y17676571D01*
X9283436Y17842203D01*
X9257019Y17902166D01*
X9180088Y18096866D01*
X9105873Y18328349D01*
X9042309Y18571665D01*
X9037875Y18591101D01*
X8994802Y18772647D01*
X8956008Y18909445D01*
X8915506Y19017844D01*
X8867311Y19114191D01*
X8814674Y19200604D01*
X8718418Y19345061D01*
X8649741Y19436930D01*
X8607008Y19478250D01*
X8591816Y19478383D01*
X8589991Y19444719D01*
G37*
X8589991Y19444719D02*
X8592783Y19362657D01*
X8599587Y19245531D01*
X8607038Y19141707D01*
X8616587Y18985235D01*
X8624744Y18790130D01*
X8630720Y18579707D01*
X8633725Y18377281D01*
X8633869Y18349465D01*
X8643067Y17924262D01*
X8667619Y17555519D01*
X8708048Y17239549D01*
X8764878Y16972661D01*
X8838631Y16751169D01*
X8870717Y16679146D01*
X8916478Y16592163D01*
X8967909Y16505982D01*
X9016199Y16433737D01*
X9052533Y16388562D01*
X9068099Y16383590D01*
X9068180Y16384878D01*
X9059713Y16420089D01*
X9037227Y16497598D01*
X9005572Y16600694D01*
X9005253Y16601707D01*
X8984842Y16672723D01*
X8967799Y16748546D01*
X8953678Y16835896D01*
X8942031Y16941492D01*
X8932413Y17072051D01*
X8924375Y17234292D01*
X8917471Y17434933D01*
X8911254Y17680693D01*
X8905277Y17978290D01*
X8902206Y18150488D01*
X8898487Y18386436D01*
X8896705Y18566267D01*
X8897109Y18695790D01*
X8899946Y18780818D01*
X8905464Y18827160D01*
X8913911Y18840628D01*
X8925535Y18827031D01*
X8930620Y18816463D01*
X8958435Y18731138D01*
X8983089Y18617068D01*
X8992588Y18553171D01*
X9031811Y18231185D01*
X9066462Y17962802D01*
X9098355Y17740005D01*
X9129300Y17554776D01*
X9161111Y17399098D01*
X9195598Y17264952D01*
X9234575Y17144320D01*
X9279853Y17029185D01*
X9333245Y16911529D01*
X9389351Y16797610D01*
X9448820Y16686567D01*
X9500607Y16602160D01*
X9539530Y16550940D01*
X9560408Y16539457D01*
X9558057Y16574262D01*
X9553507Y16590084D01*
X9520480Y16715807D01*
X9485243Y16881158D01*
X9451873Y17064135D01*
X9424451Y17242734D01*
X9409743Y17365572D01*
X9386722Y17526742D01*
X9347195Y17676571D01*
X9283436Y17842203D01*
X9257019Y17902166D01*
X9180088Y18096866D01*
X9105873Y18328349D01*
X9042309Y18571665D01*
X9037875Y18591101D01*
X8994802Y18772647D01*
X8956008Y18909445D01*
X8915506Y19017844D01*
X8867311Y19114191D01*
X8814674Y19200604D01*
X8718418Y19345061D01*
X8649741Y19436930D01*
X8607008Y19478250D01*
X8591816Y19478383D01*
X8589991Y19444719D01*
G36*
X13250736Y24413039D02*
G01*
X13221580Y24278011D01*
X13187169Y24136083D01*
X13171572Y24077550D01*
X13146703Y23985843D01*
X13130552Y23921517D01*
X13127073Y23903450D01*
X13151372Y23881619D01*
X13216795Y23834512D01*
X13312132Y23770005D01*
X13382622Y23723904D01*
X13523337Y23625416D01*
X13670691Y23510080D01*
X13798238Y23398887D01*
X13826735Y23371418D01*
X13922308Y23268255D01*
X14041405Y23127370D01*
X14173172Y22962577D01*
X14306756Y22787692D01*
X14431305Y22616531D01*
X14512810Y22498084D01*
X14514374Y22501446D01*
X14491373Y22551571D01*
X14447775Y22640235D01*
X14387548Y22759211D01*
X14376207Y22781342D01*
X14292832Y22938053D01*
X14203070Y23097463D01*
X14118955Y23238641D01*
X14064483Y23323415D01*
X13927661Y23524756D01*
X14081685Y23363500D01*
X14177314Y23247440D01*
X14289235Y23085928D01*
X14410862Y22891083D01*
X14535612Y22675026D01*
X14656902Y22449878D01*
X14768146Y22227758D01*
X14862761Y22020787D01*
X14934163Y21841085D01*
X14968783Y21730474D01*
X14992505Y21624749D01*
X15001472Y21555398D01*
X14996411Y21528877D01*
X14978047Y21551643D01*
X14954976Y21607716D01*
X14907225Y21731390D01*
X14862867Y21831619D01*
X14827475Y21896883D01*
X14806628Y21915660D01*
X14806139Y21915244D01*
X14782458Y21930968D01*
X14734079Y21986334D01*
X14671080Y22069713D01*
X14665494Y22077551D01*
X14481800Y22325263D01*
X14286977Y22568059D01*
X14089706Y22796265D01*
X13898670Y23000208D01*
X13722551Y23170214D01*
X13573807Y23293822D01*
X13400859Y23407138D01*
X13183632Y23526620D01*
X12938316Y23644945D01*
X12681097Y23754792D01*
X12428164Y23848837D01*
X12195704Y23919760D01*
X12182317Y23923234D01*
X11987884Y23965360D01*
X11757780Y24002778D01*
X11505862Y24034368D01*
X11245985Y24059008D01*
X10992007Y24075577D01*
X10757782Y24082956D01*
X10557168Y24080023D01*
X10409907Y24066598D01*
X10050094Y23981960D01*
X9686518Y23841282D01*
X9329505Y23648850D01*
X9198738Y23563751D01*
X9105501Y23507364D01*
X9055856Y23492358D01*
X9050958Y23514981D01*
X9091963Y23571479D01*
X9171937Y23650799D01*
X9376608Y23817151D01*
X9608357Y23973343D01*
X9843744Y24104546D01*
X9998537Y24173739D01*
X10108160Y24217151D01*
X10193276Y24251731D01*
X10239274Y24271517D01*
X10243131Y24273576D01*
X10234906Y24301917D01*
X10200228Y24364191D01*
X10173502Y24406167D01*
X10091596Y24529934D01*
X9930267Y24434811D01*
X9654665Y24245268D01*
X9381227Y24007116D01*
X9120848Y23733080D01*
X8884424Y23435885D01*
X8682849Y23128253D01*
X8527021Y22822911D01*
X8505207Y22770514D01*
X8447082Y22607670D01*
X8383069Y22397672D01*
X8316723Y22154592D01*
X8251599Y21892504D01*
X8191252Y21625481D01*
X8139236Y21367595D01*
X8111915Y21213565D01*
X8079067Y21010782D01*
X8058243Y20867228D01*
X8050037Y20781243D01*
X8055044Y20751168D01*
X8073862Y20775343D01*
X8107083Y20852110D01*
X8155305Y20979809D01*
X8175690Y21035823D01*
X8231288Y21217960D01*
X8275807Y21416751D01*
X8296776Y21557176D01*
X8322493Y21758374D01*
X8357079Y21964501D01*
X8398121Y22166445D01*
X8443211Y22355095D01*
X8489937Y22521342D01*
X8535891Y22656075D01*
X8578660Y22750184D01*
X8615836Y22794557D01*
X8624729Y22796829D01*
X8644150Y22796840D01*
X8656676Y22791246D01*
X8660993Y22771607D01*
X8655789Y22729483D01*
X8639751Y22656434D01*
X8611569Y22544020D01*
X8569928Y22383801D01*
X8546618Y22294506D01*
X8490407Y22063775D01*
X8448602Y21851585D01*
X8419467Y21641957D01*
X8401261Y21418915D01*
X8392247Y21166480D01*
X8390687Y20868676D01*
X8390723Y20861666D01*
X8393640Y20303293D01*
X8482334Y20736951D01*
X8514406Y20897064D01*
X8541506Y21038625D01*
X8561310Y21149004D01*
X8571490Y21215572D01*
X8572343Y21225812D01*
X8583372Y21286728D01*
X8608665Y21362551D01*
X8639884Y21433802D01*
X8668693Y21481000D01*
X8684610Y21488154D01*
X8689232Y21450530D01*
X8682791Y21372087D01*
X8672701Y21305288D01*
X8659609Y21133974D01*
X8674991Y20922066D01*
X8681135Y20876342D01*
X8698802Y20761009D01*
X8713598Y20694602D01*
X8727688Y20679526D01*
X8743237Y20718188D01*
X8762408Y20812993D01*
X8787369Y20966348D01*
X8792626Y21000244D01*
X8818823Y21152460D01*
X8840725Y21242900D01*
X8858186Y21271598D01*
X8871058Y21238591D01*
X8879192Y21143915D01*
X8882442Y20987605D01*
X8882473Y20978537D01*
X8886341Y20817843D01*
X8896021Y20661339D01*
X8909894Y20530580D01*
X8920879Y20467439D01*
X8958342Y20303293D01*
X8980646Y20582073D01*
X8999719Y20797301D01*
X9018250Y20955815D01*
X9037081Y21062838D01*
X9057060Y21123591D01*
X9071058Y21140740D01*
X9090277Y21180845D01*
X9100149Y21256499D01*
X9100486Y21273109D01*
X9108251Y21366851D01*
X9128464Y21487851D01*
X9156970Y21619061D01*
X9189616Y21743432D01*
X9222247Y21843917D01*
X9250711Y21903469D01*
X9255381Y21908821D01*
X9277351Y21919282D01*
X9282649Y21886876D01*
X9273250Y21805610D01*
X9228285Y21466994D01*
X9201987Y21179128D01*
X9194069Y20933780D01*
X9204241Y20722720D01*
X9229333Y20551731D01*
X9265495Y20371665D01*
X9355378Y20645461D01*
X9412347Y20854618D01*
X9460053Y21100270D01*
X9487892Y21303956D01*
X9505429Y21451758D01*
X9522369Y21576124D01*
X9536871Y21664673D01*
X9547090Y21705022D01*
X9547701Y21705831D01*
X9553026Y21681713D01*
X9558036Y21604491D01*
X9562432Y21483016D01*
X9565914Y21326134D01*
X9568182Y21142695D01*
X9568543Y21090589D01*
X9570739Y20892757D01*
X9574720Y20710811D01*
X9580089Y20555813D01*
X9586450Y20438829D01*
X9593404Y20370922D01*
X9594571Y20365244D01*
X9616935Y20272317D01*
X9650528Y20353388D01*
X9686661Y20469864D01*
X9718093Y20623648D01*
X9740762Y20790097D01*
X9750605Y20944570D01*
X9750732Y20961298D01*
X9757125Y21062886D01*
X9773342Y21105091D01*
X9794940Y21088817D01*
X9817477Y21014967D01*
X9829337Y20945315D01*
X9890605Y20632454D01*
X9992177Y20298173D01*
X10050638Y20140671D01*
X10111470Y19994131D01*
X10159937Y19897334D01*
X10194279Y19852925D01*
X10212737Y19863548D01*
X10215480Y19892866D01*
X10227304Y19953174D01*
X10257829Y20043746D01*
X10299981Y20148556D01*
X10346689Y20251581D01*
X10390878Y20336798D01*
X10425478Y20388181D01*
X10437645Y20396220D01*
X10461189Y20376916D01*
X10474306Y20313413D01*
X10478642Y20197328D01*
X10478659Y20187079D01*
X10479973Y20082335D01*
X10483422Y20007326D01*
X10488265Y19978004D01*
X10488367Y19977994D01*
X10504750Y20004143D01*
X10541289Y20074692D01*
X10592024Y20177864D01*
X10633446Y20264573D01*
X10752567Y20536389D01*
X10850347Y20799685D01*
X10921898Y21040042D01*
X10960469Y21229292D01*
X10983962Y21358627D01*
X11007991Y21432573D01*
X11029399Y21449941D01*
X11045030Y21409543D01*
X11051729Y21310191D01*
X11051426Y21263537D01*
X11049402Y21081292D01*
X11051520Y20946445D01*
X11057559Y20863059D01*
X11067297Y20835196D01*
X11074285Y20845366D01*
X11103019Y20895839D01*
X11114786Y20907317D01*
X11129511Y20941536D01*
X11154465Y21025050D01*
X11186595Y21146646D01*
X11222845Y21295110D01*
X11237118Y21356463D01*
X11276613Y21532547D01*
X11302568Y21662734D01*
X11316469Y21761227D01*
X11319802Y21842232D01*
X11314053Y21919952D01*
X11303561Y21991463D01*
X11287320Y22112615D01*
X11274446Y22251262D01*
X11265272Y22395532D01*
X11260128Y22533552D01*
X11259345Y22653453D01*
X11263256Y22743360D01*
X11272190Y22791403D01*
X11281162Y22794248D01*
X11289788Y22759930D01*
X11302935Y22677746D01*
X11318555Y22561431D01*
X11329342Y22471585D01*
X11360010Y22262847D01*
X11404346Y22037825D01*
X11457741Y21815539D01*
X11515583Y21615008D01*
X11573260Y21455253D01*
X11578937Y21442035D01*
X11626760Y21345564D01*
X11688556Y21238014D01*
X11755289Y21133053D01*
X11817922Y21044347D01*
X11867420Y20985565D01*
X11891495Y20969268D01*
X11933431Y20984806D01*
X12003504Y21023596D01*
X12028054Y21038963D01*
X12097411Y21091134D01*
X12122695Y21138584D01*
X12118255Y21193069D01*
X12117315Y21261779D01*
X12153123Y21329885D01*
X12195370Y21378923D01*
X12252722Y21443942D01*
X12286651Y21489797D01*
X12290588Y21499313D01*
X12278690Y21534721D01*
X12247104Y21611012D01*
X12202215Y21712870D01*
X12193719Y21731630D01*
X12145658Y21842211D01*
X12095035Y21966492D01*
X12047635Y22089224D01*
X12009243Y22195158D01*
X11985644Y22269046D01*
X11980976Y22292409D01*
X11994475Y22300235D01*
X12034615Y22253171D01*
X12100855Y22152001D01*
X12192655Y21997504D01*
X12231871Y21928956D01*
X12320834Y21776262D01*
X12389114Y21673236D01*
X12444183Y21614365D01*
X12493515Y21594134D01*
X12544582Y21607029D01*
X12604858Y21647536D01*
X12608940Y21650732D01*
X12672471Y21693907D01*
X12717190Y21712659D01*
X12718072Y21712683D01*
X12747913Y21688210D01*
X12799247Y21623457D01*
X12861956Y21531422D01*
X12874191Y21512132D01*
X12999936Y21311581D01*
X12869907Y21187231D01*
X12816890Y21138183D01*
X12781536Y21101025D01*
X12765897Y21065252D01*
X12772025Y21020360D01*
X12801973Y20955845D01*
X12857792Y20861203D01*
X12941535Y20725929D01*
X12968604Y20682045D01*
X13040307Y20561976D01*
X13122645Y20418471D01*
X13210705Y20260754D01*
X13299574Y20098048D01*
X13384339Y19939578D01*
X13460086Y19794567D01*
X13521902Y19672239D01*
X13564875Y19581818D01*
X13584091Y19532528D01*
X13584123Y19526480D01*
X13566262Y19531958D01*
X13530402Y19569914D01*
X13474201Y19643708D01*
X13395318Y19756703D01*
X13291412Y19912260D01*
X13160141Y20113739D01*
X12999166Y20364502D01*
X12985259Y20386284D01*
X12615976Y20964886D01*
X12547995Y20901337D01*
X12466305Y20854481D01*
X12405390Y20856519D01*
X12342487Y20856348D01*
X12270216Y20818859D01*
X12210078Y20770847D01*
X12089390Y20666446D01*
X12414634Y20334732D01*
X12569804Y20182557D01*
X12750659Y20014653D01*
X12934532Y19851598D01*
X13096098Y19716107D01*
X13254248Y19587806D01*
X13372431Y19488821D01*
X13459570Y19410417D01*
X13524588Y19343860D01*
X13576405Y19280414D01*
X13623944Y19211347D01*
X13644128Y19179604D01*
X13716433Y19064268D01*
X13698427Y19265610D01*
X13655575Y19635126D01*
X13591966Y20001118D01*
X13503557Y20384245D01*
X13419446Y20692146D01*
X13366564Y20874809D01*
X13318379Y21039933D01*
X13277954Y21177131D01*
X13248347Y21276017D01*
X13232623Y21326204D01*
X13232292Y21327146D01*
X13224356Y21365893D01*
X13242548Y21356463D01*
X13264611Y21317634D01*
X13303602Y21232110D01*
X13354654Y21111190D01*
X13412904Y20966172D01*
X13434831Y20909903D01*
X13574691Y20513040D01*
X13694704Y20102401D01*
X13787223Y19705030D01*
X13810331Y19581911D01*
X13836382Y19464172D01*
X13861310Y19404556D01*
X13882274Y19403749D01*
X13896430Y19462436D01*
X13900989Y19560068D01*
X13896217Y19672428D01*
X13882524Y19830681D01*
X13861817Y20019722D01*
X13836000Y20224446D01*
X13806978Y20429748D01*
X13776657Y20620524D01*
X13746941Y20781667D01*
X13746872Y20782008D01*
X13680080Y21082728D01*
X13607668Y21347075D01*
X13522191Y21596775D01*
X13416202Y21853553D01*
X13282256Y22139135D01*
X13280534Y22142650D01*
X13202051Y22304359D01*
X13134811Y22445836D01*
X13082933Y22558172D01*
X13050534Y22632458D01*
X13041571Y22659701D01*
X13062528Y22640900D01*
X13109909Y22582418D01*
X13174801Y22495459D01*
X13198804Y22462051D01*
X13291109Y22335558D01*
X13401343Y22189073D01*
X13508338Y22050661D01*
X13526769Y22027318D01*
X13621133Y21900691D01*
X13729314Y21743709D01*
X13835177Y21580249D01*
X13893090Y21485245D01*
X13968350Y21352543D01*
X14048596Y21202091D01*
X14128361Y21045236D01*
X14202180Y20893322D01*
X14264587Y20757697D01*
X14310115Y20649705D01*
X14333298Y20580693D01*
X14335122Y20567737D01*
X14361963Y20541521D01*
X14428680Y20513275D01*
X14451281Y20506596D01*
X14597521Y20448774D01*
X14703837Y20360361D01*
X14777407Y20232200D01*
X14825409Y20055139D01*
X14831112Y20022174D01*
X14840853Y19793769D01*
X14802415Y19555651D01*
X14725772Y19344633D01*
X14669680Y19187280D01*
X14635726Y18989450D01*
X14629734Y18924878D01*
X14596196Y18574978D01*
X14551518Y18222975D01*
X14497806Y17880562D01*
X14437164Y17559434D01*
X14371700Y17271285D01*
X14303520Y17027807D01*
X14270619Y16930715D01*
X14214601Y16783807D01*
X14161586Y16664714D01*
X14098937Y16547789D01*
X14014018Y16407388D01*
X14007959Y16397691D01*
X13951506Y16307439D01*
X14056060Y16400366D01*
X14169704Y16508438D01*
X14298086Y16641288D01*
X14418070Y16774667D01*
X14455076Y16818537D01*
X14518915Y16895976D01*
X14519945Y16799919D01*
X14513003Y16729630D01*
X14493467Y16617228D01*
X14464668Y16480474D01*
X14442237Y16385630D01*
X14411080Y16253934D01*
X14388294Y16146228D01*
X14376463Y16075514D01*
X14376431Y16054463D01*
X14402036Y16067691D01*
X14451304Y16116203D01*
X14474978Y16143276D01*
X14549371Y16249882D01*
X14619317Y16389653D01*
X14686221Y16567342D01*
X14751486Y16787706D01*
X14816518Y17055498D01*
X14882719Y17375474D01*
X14951495Y17752389D01*
X14953383Y17763293D01*
X14965099Y17847844D01*
X14980127Y17980819D01*
X14997282Y18148949D01*
X15015383Y18338964D01*
X15033244Y18537597D01*
X15049684Y18731578D01*
X15063518Y18907639D01*
X15073564Y19052510D01*
X15078638Y19152922D01*
X15079011Y19171976D01*
X15083753Y19222107D01*
X15100662Y19216341D01*
X15109512Y19203659D01*
X15118126Y19159667D01*
X15125279Y19062362D01*
X15130978Y18920365D01*
X15135227Y18742297D01*
X15138033Y18536779D01*
X15139402Y18312432D01*
X15139339Y18077876D01*
X15137851Y17841733D01*
X15134942Y17612624D01*
X15130619Y17399169D01*
X15124888Y17209990D01*
X15117753Y17053706D01*
X15109222Y16938941D01*
X15107986Y16927301D01*
X15086174Y16767457D01*
X15057074Y16601493D01*
X15026069Y16459241D01*
X15017918Y16428220D01*
X14960351Y16220617D01*
X15079444Y16356955D01*
X15204030Y16518243D01*
X15303171Y16692873D01*
X15386382Y16899454D01*
X15433537Y17049645D01*
X15470018Y17171864D01*
X15501260Y17269833D01*
X15522677Y17329482D01*
X15528376Y17340652D01*
X15541909Y17331326D01*
X15545659Y17274511D01*
X15541048Y17183651D01*
X15529497Y17072186D01*
X15512426Y16953559D01*
X15491257Y16841212D01*
X15467410Y16748586D01*
X15464990Y16741098D01*
X15461743Y16711020D01*
X15484650Y16726256D01*
X15527763Y16779134D01*
X15585133Y16861983D01*
X15650809Y16967134D01*
X15682713Y17021828D01*
X15724712Y17099331D01*
X15756277Y17171315D01*
X15780613Y17250970D01*
X15800928Y17351487D01*
X15820428Y17486057D01*
X15842320Y17667870D01*
X15844609Y17687804D01*
X15867178Y17931307D01*
X15883928Y18207759D01*
X15894586Y18500903D01*
X15898882Y18794485D01*
X15896545Y19072250D01*
X15887303Y19317943D01*
X15874553Y19482439D01*
X15864732Y19603124D01*
X15866008Y19665296D01*
X15877463Y19671219D01*
X15898182Y19623156D01*
X15927246Y19523370D01*
X15963741Y19374124D01*
X16006749Y19177681D01*
X16015974Y19133304D01*
X16052192Y18952252D01*
X16078126Y18803743D01*
X16095429Y18670065D01*
X16105753Y18533505D01*
X16110749Y18376351D01*
X16112070Y18180890D01*
X16111979Y18104024D01*
X16109548Y17907452D01*
X16103627Y17716779D01*
X16094940Y17547033D01*
X16084211Y17413241D01*
X16075509Y17346937D01*
X16059023Y17243711D01*
X16050174Y17167992D01*
X16050718Y17137006D01*
X16067989Y17154849D01*
X16096736Y17221950D01*
X16133616Y17327415D01*
X16175282Y17460352D01*
X16218391Y17609865D01*
X16259597Y17765061D01*
X16295556Y17915046D01*
X16309586Y17980122D01*
X16339409Y18131628D01*
X16359618Y18258134D01*
X16371433Y18377324D01*
X16376074Y18506881D01*
X16374760Y18664489D01*
X16369410Y18847439D01*
X16359069Y19097872D01*
X16344921Y19335630D01*
X16325533Y19578130D01*
X16299471Y19842786D01*
X16265299Y20147013D01*
X16255755Y20227659D01*
X16225438Y20429228D01*
X16178312Y20675572D01*
X16117648Y20952858D01*
X16046714Y21247254D01*
X15968779Y21544927D01*
X15887112Y21832043D01*
X15840714Y21983865D01*
X15679959Y22437603D01*
X15498444Y22838432D01*
X15292076Y23193112D01*
X15056760Y23508400D01*
X14788403Y23791055D01*
X14694685Y23875889D01*
X14464778Y24061202D01*
X14224385Y24226951D01*
X13984072Y24367405D01*
X13754407Y24476833D01*
X13545958Y24549505D01*
X13401222Y24577360D01*
X13285403Y24588883D01*
X13250736Y24413039D01*
G37*
X13250736Y24413039D02*
X13221580Y24278011D01*
X13187169Y24136083D01*
X13171572Y24077550D01*
X13146703Y23985843D01*
X13130552Y23921517D01*
X13127073Y23903450D01*
X13151372Y23881619D01*
X13216795Y23834512D01*
X13312132Y23770005D01*
X13382622Y23723904D01*
X13523337Y23625416D01*
X13670691Y23510080D01*
X13798238Y23398887D01*
X13826735Y23371418D01*
X13922308Y23268255D01*
X14041405Y23127370D01*
X14173172Y22962577D01*
X14306756Y22787692D01*
X14431305Y22616531D01*
X14512810Y22498084D01*
X14514374Y22501446D01*
X14491373Y22551571D01*
X14447775Y22640235D01*
X14387548Y22759211D01*
X14376207Y22781342D01*
X14292832Y22938053D01*
X14203070Y23097463D01*
X14118955Y23238641D01*
X14064483Y23323415D01*
X13927661Y23524756D01*
X14081685Y23363500D01*
X14177314Y23247440D01*
X14289235Y23085928D01*
X14410862Y22891083D01*
X14535612Y22675026D01*
X14656902Y22449878D01*
X14768146Y22227758D01*
X14862761Y22020787D01*
X14934163Y21841085D01*
X14968783Y21730474D01*
X14992505Y21624749D01*
X15001472Y21555398D01*
X14996411Y21528877D01*
X14978047Y21551643D01*
X14954976Y21607716D01*
X14907225Y21731390D01*
X14862867Y21831619D01*
X14827475Y21896883D01*
X14806628Y21915660D01*
X14806139Y21915244D01*
X14782458Y21930968D01*
X14734079Y21986334D01*
X14671080Y22069713D01*
X14665494Y22077551D01*
X14481800Y22325263D01*
X14286977Y22568059D01*
X14089706Y22796265D01*
X13898670Y23000208D01*
X13722551Y23170214D01*
X13573807Y23293822D01*
X13400859Y23407138D01*
X13183632Y23526620D01*
X12938316Y23644945D01*
X12681097Y23754792D01*
X12428164Y23848837D01*
X12195704Y23919760D01*
X12182317Y23923234D01*
X11987884Y23965360D01*
X11757780Y24002778D01*
X11505862Y24034368D01*
X11245985Y24059008D01*
X10992007Y24075577D01*
X10757782Y24082956D01*
X10557168Y24080023D01*
X10409907Y24066598D01*
X10050094Y23981960D01*
X9686518Y23841282D01*
X9329505Y23648850D01*
X9198738Y23563751D01*
X9105501Y23507364D01*
X9055856Y23492358D01*
X9050958Y23514981D01*
X9091963Y23571479D01*
X9171937Y23650799D01*
X9376608Y23817151D01*
X9608357Y23973343D01*
X9843744Y24104546D01*
X9998537Y24173739D01*
X10108160Y24217151D01*
X10193276Y24251731D01*
X10239274Y24271517D01*
X10243131Y24273576D01*
X10234906Y24301917D01*
X10200228Y24364191D01*
X10173502Y24406167D01*
X10091596Y24529934D01*
X9930267Y24434811D01*
X9654665Y24245268D01*
X9381227Y24007116D01*
X9120848Y23733080D01*
X8884424Y23435885D01*
X8682849Y23128253D01*
X8527021Y22822911D01*
X8505207Y22770514D01*
X8447082Y22607670D01*
X8383069Y22397672D01*
X8316723Y22154592D01*
X8251599Y21892504D01*
X8191252Y21625481D01*
X8139236Y21367595D01*
X8111915Y21213565D01*
X8079067Y21010782D01*
X8058243Y20867228D01*
X8050037Y20781243D01*
X8055044Y20751168D01*
X8073862Y20775343D01*
X8107083Y20852110D01*
X8155305Y20979809D01*
X8175690Y21035823D01*
X8231288Y21217960D01*
X8275807Y21416751D01*
X8296776Y21557176D01*
X8322493Y21758374D01*
X8357079Y21964501D01*
X8398121Y22166445D01*
X8443211Y22355095D01*
X8489937Y22521342D01*
X8535891Y22656075D01*
X8578660Y22750184D01*
X8615836Y22794557D01*
X8624729Y22796829D01*
X8644150Y22796840D01*
X8656676Y22791246D01*
X8660993Y22771607D01*
X8655789Y22729483D01*
X8639751Y22656434D01*
X8611569Y22544020D01*
X8569928Y22383801D01*
X8546618Y22294506D01*
X8490407Y22063775D01*
X8448602Y21851585D01*
X8419467Y21641957D01*
X8401261Y21418915D01*
X8392247Y21166480D01*
X8390687Y20868676D01*
X8390723Y20861666D01*
X8393640Y20303293D01*
X8482334Y20736951D01*
X8514406Y20897064D01*
X8541506Y21038625D01*
X8561310Y21149004D01*
X8571490Y21215572D01*
X8572343Y21225812D01*
X8583372Y21286728D01*
X8608665Y21362551D01*
X8639884Y21433802D01*
X8668693Y21481000D01*
X8684610Y21488154D01*
X8689232Y21450530D01*
X8682791Y21372087D01*
X8672701Y21305288D01*
X8659609Y21133974D01*
X8674991Y20922066D01*
X8681135Y20876342D01*
X8698802Y20761009D01*
X8713598Y20694602D01*
X8727688Y20679526D01*
X8743237Y20718188D01*
X8762408Y20812993D01*
X8787369Y20966348D01*
X8792626Y21000244D01*
X8818823Y21152460D01*
X8840725Y21242900D01*
X8858186Y21271598D01*
X8871058Y21238591D01*
X8879192Y21143915D01*
X8882442Y20987605D01*
X8882473Y20978537D01*
X8886341Y20817843D01*
X8896021Y20661339D01*
X8909894Y20530580D01*
X8920879Y20467439D01*
X8958342Y20303293D01*
X8980646Y20582073D01*
X8999719Y20797301D01*
X9018250Y20955815D01*
X9037081Y21062838D01*
X9057060Y21123591D01*
X9071058Y21140740D01*
X9090277Y21180845D01*
X9100149Y21256499D01*
X9100486Y21273109D01*
X9108251Y21366851D01*
X9128464Y21487851D01*
X9156970Y21619061D01*
X9189616Y21743432D01*
X9222247Y21843917D01*
X9250711Y21903469D01*
X9255381Y21908821D01*
X9277351Y21919282D01*
X9282649Y21886876D01*
X9273250Y21805610D01*
X9228285Y21466994D01*
X9201987Y21179128D01*
X9194069Y20933780D01*
X9204241Y20722720D01*
X9229333Y20551731D01*
X9265495Y20371665D01*
X9355378Y20645461D01*
X9412347Y20854618D01*
X9460053Y21100270D01*
X9487892Y21303956D01*
X9505429Y21451758D01*
X9522369Y21576124D01*
X9536871Y21664673D01*
X9547090Y21705022D01*
X9547701Y21705831D01*
X9553026Y21681713D01*
X9558036Y21604491D01*
X9562432Y21483016D01*
X9565914Y21326134D01*
X9568182Y21142695D01*
X9568543Y21090589D01*
X9570739Y20892757D01*
X9574720Y20710811D01*
X9580089Y20555813D01*
X9586450Y20438829D01*
X9593404Y20370922D01*
X9594571Y20365244D01*
X9616935Y20272317D01*
X9650528Y20353388D01*
X9686661Y20469864D01*
X9718093Y20623648D01*
X9740762Y20790097D01*
X9750605Y20944570D01*
X9750732Y20961298D01*
X9757125Y21062886D01*
X9773342Y21105091D01*
X9794940Y21088817D01*
X9817477Y21014967D01*
X9829337Y20945315D01*
X9890605Y20632454D01*
X9992177Y20298173D01*
X10050638Y20140671D01*
X10111470Y19994131D01*
X10159937Y19897334D01*
X10194279Y19852925D01*
X10212737Y19863548D01*
X10215480Y19892866D01*
X10227304Y19953174D01*
X10257829Y20043746D01*
X10299981Y20148556D01*
X10346689Y20251581D01*
X10390878Y20336798D01*
X10425478Y20388181D01*
X10437645Y20396220D01*
X10461189Y20376916D01*
X10474306Y20313413D01*
X10478642Y20197328D01*
X10478659Y20187079D01*
X10479973Y20082335D01*
X10483422Y20007326D01*
X10488265Y19978004D01*
X10488367Y19977994D01*
X10504750Y20004143D01*
X10541289Y20074692D01*
X10592024Y20177864D01*
X10633446Y20264573D01*
X10752567Y20536389D01*
X10850347Y20799685D01*
X10921898Y21040042D01*
X10960469Y21229292D01*
X10983962Y21358627D01*
X11007991Y21432573D01*
X11029399Y21449941D01*
X11045030Y21409543D01*
X11051729Y21310191D01*
X11051426Y21263537D01*
X11049402Y21081292D01*
X11051520Y20946445D01*
X11057559Y20863059D01*
X11067297Y20835196D01*
X11074285Y20845366D01*
X11103019Y20895839D01*
X11114786Y20907317D01*
X11129511Y20941536D01*
X11154465Y21025050D01*
X11186595Y21146646D01*
X11222845Y21295110D01*
X11237118Y21356463D01*
X11276613Y21532547D01*
X11302568Y21662734D01*
X11316469Y21761227D01*
X11319802Y21842232D01*
X11314053Y21919952D01*
X11303561Y21991463D01*
X11287320Y22112615D01*
X11274446Y22251262D01*
X11265272Y22395532D01*
X11260128Y22533552D01*
X11259345Y22653453D01*
X11263256Y22743360D01*
X11272190Y22791403D01*
X11281162Y22794248D01*
X11289788Y22759930D01*
X11302935Y22677746D01*
X11318555Y22561431D01*
X11329342Y22471585D01*
X11360010Y22262847D01*
X11404346Y22037825D01*
X11457741Y21815539D01*
X11515583Y21615008D01*
X11573260Y21455253D01*
X11578937Y21442035D01*
X11626760Y21345564D01*
X11688556Y21238014D01*
X11755289Y21133053D01*
X11817922Y21044347D01*
X11867420Y20985565D01*
X11891495Y20969268D01*
X11933431Y20984806D01*
X12003504Y21023596D01*
X12028054Y21038963D01*
X12097411Y21091134D01*
X12122695Y21138584D01*
X12118255Y21193069D01*
X12117315Y21261779D01*
X12153123Y21329885D01*
X12195370Y21378923D01*
X12252722Y21443942D01*
X12286651Y21489797D01*
X12290588Y21499313D01*
X12278690Y21534721D01*
X12247104Y21611012D01*
X12202215Y21712870D01*
X12193719Y21731630D01*
X12145658Y21842211D01*
X12095035Y21966492D01*
X12047635Y22089224D01*
X12009243Y22195158D01*
X11985644Y22269046D01*
X11980976Y22292409D01*
X11994475Y22300235D01*
X12034615Y22253171D01*
X12100855Y22152001D01*
X12192655Y21997504D01*
X12231871Y21928956D01*
X12320834Y21776262D01*
X12389114Y21673236D01*
X12444183Y21614365D01*
X12493515Y21594134D01*
X12544582Y21607029D01*
X12604858Y21647536D01*
X12608940Y21650732D01*
X12672471Y21693907D01*
X12717190Y21712659D01*
X12718072Y21712683D01*
X12747913Y21688210D01*
X12799247Y21623457D01*
X12861956Y21531422D01*
X12874191Y21512132D01*
X12999936Y21311581D01*
X12869907Y21187231D01*
X12816890Y21138183D01*
X12781536Y21101025D01*
X12765897Y21065252D01*
X12772025Y21020360D01*
X12801973Y20955845D01*
X12857792Y20861203D01*
X12941535Y20725929D01*
X12968604Y20682045D01*
X13040307Y20561976D01*
X13122645Y20418471D01*
X13210705Y20260754D01*
X13299574Y20098048D01*
X13384339Y19939578D01*
X13460086Y19794567D01*
X13521902Y19672239D01*
X13564875Y19581818D01*
X13584091Y19532528D01*
X13584123Y19526480D01*
X13566262Y19531958D01*
X13530402Y19569914D01*
X13474201Y19643708D01*
X13395318Y19756703D01*
X13291412Y19912260D01*
X13160141Y20113739D01*
X12999166Y20364502D01*
X12985259Y20386284D01*
X12615976Y20964886D01*
X12547995Y20901337D01*
X12466305Y20854481D01*
X12405390Y20856519D01*
X12342487Y20856348D01*
X12270216Y20818859D01*
X12210078Y20770847D01*
X12089390Y20666446D01*
X12414634Y20334732D01*
X12569804Y20182557D01*
X12750659Y20014653D01*
X12934532Y19851598D01*
X13096098Y19716107D01*
X13254248Y19587806D01*
X13372431Y19488821D01*
X13459570Y19410417D01*
X13524588Y19343860D01*
X13576405Y19280414D01*
X13623944Y19211347D01*
X13644128Y19179604D01*
X13716433Y19064268D01*
X13698427Y19265610D01*
X13655575Y19635126D01*
X13591966Y20001118D01*
X13503557Y20384245D01*
X13419446Y20692146D01*
X13366564Y20874809D01*
X13318379Y21039933D01*
X13277954Y21177131D01*
X13248347Y21276017D01*
X13232623Y21326204D01*
X13232292Y21327146D01*
X13224356Y21365893D01*
X13242548Y21356463D01*
X13264611Y21317634D01*
X13303602Y21232110D01*
X13354654Y21111190D01*
X13412904Y20966172D01*
X13434831Y20909903D01*
X13574691Y20513040D01*
X13694704Y20102401D01*
X13787223Y19705030D01*
X13810331Y19581911D01*
X13836382Y19464172D01*
X13861310Y19404556D01*
X13882274Y19403749D01*
X13896430Y19462436D01*
X13900989Y19560068D01*
X13896217Y19672428D01*
X13882524Y19830681D01*
X13861817Y20019722D01*
X13836000Y20224446D01*
X13806978Y20429748D01*
X13776657Y20620524D01*
X13746941Y20781667D01*
X13746872Y20782008D01*
X13680080Y21082728D01*
X13607668Y21347075D01*
X13522191Y21596775D01*
X13416202Y21853553D01*
X13282256Y22139135D01*
X13280534Y22142650D01*
X13202051Y22304359D01*
X13134811Y22445836D01*
X13082933Y22558172D01*
X13050534Y22632458D01*
X13041571Y22659701D01*
X13062528Y22640900D01*
X13109909Y22582418D01*
X13174801Y22495459D01*
X13198804Y22462051D01*
X13291109Y22335558D01*
X13401343Y22189073D01*
X13508338Y22050661D01*
X13526769Y22027318D01*
X13621133Y21900691D01*
X13729314Y21743709D01*
X13835177Y21580249D01*
X13893090Y21485245D01*
X13968350Y21352543D01*
X14048596Y21202091D01*
X14128361Y21045236D01*
X14202180Y20893322D01*
X14264587Y20757697D01*
X14310115Y20649705D01*
X14333298Y20580693D01*
X14335122Y20567737D01*
X14361963Y20541521D01*
X14428680Y20513275D01*
X14451281Y20506596D01*
X14597521Y20448774D01*
X14703837Y20360361D01*
X14777407Y20232200D01*
X14825409Y20055139D01*
X14831112Y20022174D01*
X14840853Y19793769D01*
X14802415Y19555651D01*
X14725772Y19344633D01*
X14669680Y19187280D01*
X14635726Y18989450D01*
X14629734Y18924878D01*
X14596196Y18574978D01*
X14551518Y18222975D01*
X14497806Y17880562D01*
X14437164Y17559434D01*
X14371700Y17271285D01*
X14303520Y17027807D01*
X14270619Y16930715D01*
X14214601Y16783807D01*
X14161586Y16664714D01*
X14098937Y16547789D01*
X14014018Y16407388D01*
X14007959Y16397691D01*
X13951506Y16307439D01*
X14056060Y16400366D01*
X14169704Y16508438D01*
X14298086Y16641288D01*
X14418070Y16774667D01*
X14455076Y16818537D01*
X14518915Y16895976D01*
X14519945Y16799919D01*
X14513003Y16729630D01*
X14493467Y16617228D01*
X14464668Y16480474D01*
X14442237Y16385630D01*
X14411080Y16253934D01*
X14388294Y16146228D01*
X14376463Y16075514D01*
X14376431Y16054463D01*
X14402036Y16067691D01*
X14451304Y16116203D01*
X14474978Y16143276D01*
X14549371Y16249882D01*
X14619317Y16389653D01*
X14686221Y16567342D01*
X14751486Y16787706D01*
X14816518Y17055498D01*
X14882719Y17375474D01*
X14951495Y17752389D01*
X14953383Y17763293D01*
X14965099Y17847844D01*
X14980127Y17980819D01*
X14997282Y18148949D01*
X15015383Y18338964D01*
X15033244Y18537597D01*
X15049684Y18731578D01*
X15063518Y18907639D01*
X15073564Y19052510D01*
X15078638Y19152922D01*
X15079011Y19171976D01*
X15083753Y19222107D01*
X15100662Y19216341D01*
X15109512Y19203659D01*
X15118126Y19159667D01*
X15125279Y19062362D01*
X15130978Y18920365D01*
X15135227Y18742297D01*
X15138033Y18536779D01*
X15139402Y18312432D01*
X15139339Y18077876D01*
X15137851Y17841733D01*
X15134942Y17612624D01*
X15130619Y17399169D01*
X15124888Y17209990D01*
X15117753Y17053706D01*
X15109222Y16938941D01*
X15107986Y16927301D01*
X15086174Y16767457D01*
X15057074Y16601493D01*
X15026069Y16459241D01*
X15017918Y16428220D01*
X14960351Y16220617D01*
X15079444Y16356955D01*
X15204030Y16518243D01*
X15303171Y16692873D01*
X15386382Y16899454D01*
X15433537Y17049645D01*
X15470018Y17171864D01*
X15501260Y17269833D01*
X15522677Y17329482D01*
X15528376Y17340652D01*
X15541909Y17331326D01*
X15545659Y17274511D01*
X15541048Y17183651D01*
X15529497Y17072186D01*
X15512426Y16953559D01*
X15491257Y16841212D01*
X15467410Y16748586D01*
X15464990Y16741098D01*
X15461743Y16711020D01*
X15484650Y16726256D01*
X15527763Y16779134D01*
X15585133Y16861983D01*
X15650809Y16967134D01*
X15682713Y17021828D01*
X15724712Y17099331D01*
X15756277Y17171315D01*
X15780613Y17250970D01*
X15800928Y17351487D01*
X15820428Y17486057D01*
X15842320Y17667870D01*
X15844609Y17687804D01*
X15867178Y17931307D01*
X15883928Y18207759D01*
X15894586Y18500903D01*
X15898882Y18794485D01*
X15896545Y19072250D01*
X15887303Y19317943D01*
X15874553Y19482439D01*
X15864732Y19603124D01*
X15866008Y19665296D01*
X15877463Y19671219D01*
X15898182Y19623156D01*
X15927246Y19523370D01*
X15963741Y19374124D01*
X16006749Y19177681D01*
X16015974Y19133304D01*
X16052192Y18952252D01*
X16078126Y18803743D01*
X16095429Y18670065D01*
X16105753Y18533505D01*
X16110749Y18376351D01*
X16112070Y18180890D01*
X16111979Y18104024D01*
X16109548Y17907452D01*
X16103627Y17716779D01*
X16094940Y17547033D01*
X16084211Y17413241D01*
X16075509Y17346937D01*
X16059023Y17243711D01*
X16050174Y17167992D01*
X16050718Y17137006D01*
X16067989Y17154849D01*
X16096736Y17221950D01*
X16133616Y17327415D01*
X16175282Y17460352D01*
X16218391Y17609865D01*
X16259597Y17765061D01*
X16295556Y17915046D01*
X16309586Y17980122D01*
X16339409Y18131628D01*
X16359618Y18258134D01*
X16371433Y18377324D01*
X16376074Y18506881D01*
X16374760Y18664489D01*
X16369410Y18847439D01*
X16359069Y19097872D01*
X16344921Y19335630D01*
X16325533Y19578130D01*
X16299471Y19842786D01*
X16265299Y20147013D01*
X16255755Y20227659D01*
X16225438Y20429228D01*
X16178312Y20675572D01*
X16117648Y20952858D01*
X16046714Y21247254D01*
X15968779Y21544927D01*
X15887112Y21832043D01*
X15840714Y21983865D01*
X15679959Y22437603D01*
X15498444Y22838432D01*
X15292076Y23193112D01*
X15056760Y23508400D01*
X14788403Y23791055D01*
X14694685Y23875889D01*
X14464778Y24061202D01*
X14224385Y24226951D01*
X13984072Y24367405D01*
X13754407Y24476833D01*
X13545958Y24549505D01*
X13401222Y24577360D01*
X13285403Y24588883D01*
X13250736Y24413039D01*
G36*
X5476098Y14836098D02*
G01*
X20963902Y14836098D01*
X20963902Y18835393D01*
X16495022Y18835393D01*
X16484192Y18439843D01*
X16473093Y18305366D01*
X16431935Y17974019D01*
X16377938Y17692547D01*
X16307409Y17449554D01*
X16216654Y17233644D01*
X16101979Y17033419D01*
X16024927Y16922525D01*
X15961539Y16835857D01*
X15907997Y16761559D01*
X15890438Y16736671D01*
X15871897Y16715970D01*
X15862254Y16724663D01*
X15861718Y16769871D01*
X15870497Y16858717D01*
X15888797Y16998321D01*
X15900511Y17081829D01*
X15918091Y17205732D01*
X15870960Y17103737D01*
X15818442Y17006709D01*
X15742095Y16885746D01*
X15652911Y16756219D01*
X15561885Y16633501D01*
X15480010Y16532962D01*
X15418281Y16469974D01*
X15416900Y16468861D01*
X15350829Y16417472D01*
X15253827Y16343552D01*
X15144745Y16261448D01*
X15123380Y16245488D01*
X15018514Y16165888D01*
X14926507Y16093614D01*
X14863936Y16041746D01*
X14855176Y16033821D01*
X14799893Y15994128D01*
X14776697Y16005117D01*
X14787675Y16063268D01*
X14808404Y16112734D01*
X14855237Y16229211D01*
X14894904Y16367810D01*
X14930293Y16540944D01*
X14964291Y16761026D01*
X14971378Y16813268D01*
X14994797Y16996501D01*
X15007768Y17119239D01*
X15009707Y17182149D01*
X15000030Y17185898D01*
X14978153Y17131152D01*
X14943491Y17018578D01*
X14906238Y16887592D01*
X14836545Y16653579D01*
X14770744Y16470449D01*
X14703600Y16327805D01*
X14629880Y16215255D01*
X14544353Y16122405D01*
X14502608Y16085919D01*
X14403881Y16000392D01*
X14308567Y15911482D01*
X14263818Y15866321D01*
X14204800Y15808588D01*
X14164967Y15778846D01*
X14157319Y15777966D01*
X14160373Y15810869D01*
X14178554Y15889130D01*
X14208482Y15998981D01*
X14227620Y16064205D01*
X14267551Y16196856D01*
X14303694Y16316316D01*
X14330237Y16403397D01*
X14336938Y16425105D01*
X14345924Y16463454D01*
X14335955Y16473174D01*
X14299646Y16450464D01*
X14229608Y16391524D01*
X14171414Y16339948D01*
X14064361Y16253001D01*
X13938756Y16164077D01*
X13808195Y16081342D01*
X13686272Y16012962D01*
X13586585Y15967102D01*
X13525226Y15951826D01*
X13522979Y15969432D01*
X13560939Y16014265D01*
X13610024Y16058726D01*
X13694242Y16142903D01*
X13796151Y16264833D01*
X13903526Y16408021D01*
X14004141Y16555971D01*
X14085772Y16692188D01*
X14101459Y16721846D01*
X14125695Y16791076D01*
X14153849Y16904143D01*
X14182623Y17043355D01*
X14208722Y17191020D01*
X14228847Y17329445D01*
X14239703Y17440938D01*
X14240691Y17469024D01*
X14227128Y17476090D01*
X14192565Y17438204D01*
X14176680Y17414817D01*
X14128952Y17347206D01*
X14095245Y17319737D01*
X14074029Y17336657D01*
X14063775Y17402210D01*
X14062956Y17520640D01*
X14070042Y17696195D01*
X14070709Y17709085D01*
X14091315Y18104024D01*
X14009810Y17964634D01*
X13934988Y17852308D01*
X13849021Y17746925D01*
X13763690Y17660737D01*
X13690777Y17605994D01*
X13652343Y17592927D01*
X13609864Y17569814D01*
X13544480Y17508799D01*
X13469328Y17422365D01*
X13458849Y17409043D01*
X13219268Y17149030D01*
X12933339Y16922634D01*
X12610412Y16736345D01*
X12313814Y16614376D01*
X12181196Y16575479D01*
X12002337Y16531896D01*
X11792475Y16486556D01*
X11566849Y16442390D01*
X11340698Y16402329D01*
X11129261Y16369303D01*
X10947778Y16346243D01*
X10891280Y16340824D01*
X10653413Y16320741D01*
X10380182Y16587111D01*
X10239429Y16722971D01*
X10138340Y16816120D01*
X10073262Y16868136D01*
X10040539Y16880595D01*
X10036518Y16855073D01*
X10057544Y16793148D01*
X10093376Y16710868D01*
X10147992Y16582824D01*
X10176159Y16499384D01*
X10177556Y16463431D01*
X10151865Y16477845D01*
X10114021Y16524268D01*
X10059882Y16591861D01*
X9978979Y16686017D01*
X9887180Y16788350D01*
X9870511Y16806449D01*
X9774707Y16914623D01*
X9684080Y17024782D01*
X9616507Y17115095D01*
X9610539Y17123949D01*
X9560194Y17197578D01*
X9525366Y17243960D01*
X9516795Y17252195D01*
X9517531Y17225957D01*
X9531043Y17161763D01*
X9533610Y17151524D01*
X9577319Y16974719D01*
X9618293Y16798928D01*
X9654342Y16634706D01*
X9683282Y16492605D01*
X9702925Y16383179D01*
X9711084Y16316981D01*
X9709558Y16302404D01*
X9677414Y16310582D01*
X9616157Y16357533D01*
X9535110Y16433444D01*
X9443598Y16528505D01*
X9350947Y16632904D01*
X9266481Y16736828D01*
X9199524Y16830467D01*
X9184145Y16855256D01*
X9128862Y16946938D01*
X9088245Y17010923D01*
X9069949Y17035223D01*
X9069604Y17034661D01*
X9078056Y16999011D01*
X9099311Y16923993D01*
X9116067Y16867821D01*
X9147888Y16750362D01*
X9158999Y16679313D01*
X9149798Y16658263D01*
X9120685Y16690799D01*
X9100244Y16725610D01*
X9063914Y16781970D01*
X9042443Y16796025D01*
X9040049Y16787561D01*
X9047452Y16715106D01*
X9068036Y16614937D01*
X9096522Y16506007D01*
X9127635Y16407270D01*
X9156096Y16337679D01*
X9171132Y16316748D01*
X9179492Y16298162D01*
X9138963Y16292426D01*
X9061551Y16318643D01*
X8972519Y16389827D01*
X8883170Y16493388D01*
X8804808Y16616737D01*
X8760178Y16714310D01*
X8668615Y17017201D01*
X8601483Y17372634D01*
X8559431Y17775947D01*
X8543108Y18222476D01*
X8542911Y18274390D01*
X8542009Y18417117D01*
X8539004Y18550538D01*
X8533148Y18685548D01*
X8523689Y18833040D01*
X8509880Y19003907D01*
X8490969Y19209043D01*
X8466207Y19459341D01*
X8451243Y19606342D01*
X8439579Y19702606D01*
X8429346Y19755657D01*
X8422272Y19757546D01*
X8420936Y19745732D01*
X8407856Y19655484D01*
X8390012Y19590854D01*
X8371782Y19555130D01*
X8358396Y19570365D01*
X8345969Y19621829D01*
X8321945Y19765694D01*
X8299916Y19953030D01*
X8281461Y20165357D01*
X8268157Y20384196D01*
X8261583Y20591069D01*
X8261331Y20613049D01*
X8258251Y20953781D01*
X8199115Y20767927D01*
X8168850Y20664234D01*
X8130151Y20519268D01*
X8087997Y20352237D01*
X8047366Y20182350D01*
X8047343Y20182252D01*
X8011573Y20032674D01*
X7979104Y19905689D01*
X7953113Y19813119D01*
X7936779Y19766786D01*
X7934922Y19764081D01*
X7927014Y19784061D01*
X7923086Y19856186D01*
X7922726Y19970807D01*
X7925519Y20118273D01*
X7931052Y20288934D01*
X7938912Y20473140D01*
X7948683Y20661242D01*
X7959952Y20843590D01*
X7972306Y21010532D01*
X7985331Y21152421D01*
X7998613Y21259605D01*
X7999222Y21263537D01*
X8029938Y21440460D01*
X8069461Y21642087D01*
X8110778Y21833225D01*
X8124138Y21890193D01*
X8154072Y22026810D01*
X8174439Y22144665D01*
X8182920Y22228582D01*
X8180457Y22259238D01*
X8175851Y22294719D01*
X8196333Y22289204D01*
X8219688Y22287966D01*
X8214321Y22313662D01*
X8215062Y22365959D01*
X8235151Y22454392D01*
X8263144Y22539844D01*
X8368416Y22782736D01*
X8509809Y23050050D01*
X8676787Y23325454D01*
X8858809Y23592619D01*
X9045338Y23835213D01*
X9225835Y24036904D01*
X9235417Y24046525D01*
X9340852Y24145102D01*
X9464233Y24250213D01*
X9594777Y24353847D01*
X9721699Y24447992D01*
X9834215Y24524636D01*
X9921542Y24575767D01*
X9971535Y24593415D01*
X9996499Y24607569D01*
X9986131Y24652608D01*
X9938307Y24732396D01*
X9850900Y24850799D01*
X9782678Y24936893D01*
X9669152Y25070752D01*
X9537764Y25214434D01*
X9398408Y25358237D01*
X9260983Y25492459D01*
X9135384Y25607399D01*
X9031508Y25693354D01*
X8966555Y25736983D01*
X8914924Y25759435D01*
X8871183Y25757238D01*
X8815579Y25724690D01*
X8751841Y25675031D01*
X8447356Y25441037D01*
X8120510Y25209348D01*
X7784867Y24988599D01*
X7453989Y24787427D01*
X7141440Y24614469D01*
X6900363Y24496110D01*
X6761639Y24436279D01*
X6637725Y24388951D01*
X6542441Y24359015D01*
X6490627Y24351189D01*
X6436833Y24386236D01*
X6411564Y24464995D01*
X6413051Y24577140D01*
X6439525Y24712343D01*
X6489217Y24860279D01*
X6560357Y25010620D01*
X6620573Y25109689D01*
X6902676Y25475751D01*
X7237520Y25815961D01*
X7619678Y26125780D01*
X8043720Y26400667D01*
X8372317Y26574600D01*
X8633717Y26689760D01*
X8854674Y26762214D01*
X9038925Y26792679D01*
X9190209Y26781876D01*
X9280314Y26749210D01*
X9404239Y26661636D01*
X9543511Y26522050D01*
X9693641Y26337131D01*
X9850142Y26113560D01*
X10008525Y25858014D01*
X10164303Y25577173D01*
X10312988Y25277716D01*
X10402362Y25079353D01*
X10455840Y24960680D01*
X10494958Y24889985D01*
X10527194Y24857270D01*
X10560025Y24852538D01*
X10570286Y24854850D01*
X10814283Y24916083D01*
X11045489Y24959355D01*
X11283005Y24986967D01*
X11545932Y25001218D01*
X11812943Y25004537D01*
X11997577Y25003077D01*
X12164543Y24999539D01*
X12302403Y24994339D01*
X12399716Y24987894D01*
X12442520Y24981590D01*
X12466377Y24974073D01*
X12484043Y24973047D01*
X12495090Y24985275D01*
X12499092Y25017519D01*
X12495621Y25076539D01*
X12484249Y25169100D01*
X12464549Y25301961D01*
X12436093Y25481887D01*
X12398454Y25715638D01*
X12394607Y25739512D01*
X12316891Y26265196D01*
X12262245Y26734624D01*
X12230573Y27148997D01*
X12221777Y27509516D01*
X12230851Y27755799D01*
X12276862Y28199001D01*
X12350361Y28622369D01*
X12448837Y29015552D01*
X12569776Y29368200D01*
X12683012Y29618061D01*
X12757637Y29755661D01*
X12819393Y29849896D01*
X12879070Y29914658D01*
X12947459Y29963837D01*
X12955215Y29968446D01*
X13085473Y30028701D01*
X13196847Y30039107D01*
X13306813Y29999971D01*
X13347066Y29975382D01*
X13436330Y29894532D01*
X13513143Y29775270D01*
X13580906Y29610462D01*
X13643022Y29392969D01*
X13660880Y29317195D01*
X13679835Y29230265D01*
X13695027Y29149119D01*
X13706858Y29065713D01*
X13715729Y28972001D01*
X13722039Y28859937D01*
X13726190Y28721478D01*
X13728582Y28548578D01*
X13729616Y28333192D01*
X13729693Y28067275D01*
X13729537Y27938781D01*
X13728613Y27635434D01*
X13726603Y27386392D01*
X13723192Y27184012D01*
X13718065Y27020651D01*
X13710904Y26888667D01*
X13701396Y26780418D01*
X13689225Y26688261D01*
X13674537Y26606829D01*
X13650075Y26482252D01*
X13618353Y26314794D01*
X13582752Y26122608D01*
X13546652Y25923845D01*
X13530318Y25832439D01*
X13492875Y25627926D01*
X13451600Y25412856D01*
X13410672Y25208374D01*
X13374267Y25035628D01*
X13362255Y24981681D01*
X13332018Y24846268D01*
X13308472Y24735954D01*
X13294145Y24662915D01*
X13291206Y24639122D01*
X13322443Y24633098D01*
X13399286Y24619835D01*
X13506184Y24602007D01*
X13525271Y24598871D01*
X13846269Y24516883D01*
X14169668Y24377656D01*
X14488369Y24185165D01*
X14795269Y23943390D01*
X14941941Y23805397D01*
X15084288Y23653963D01*
X15208577Y23497903D01*
X15330155Y23316862D01*
X15410386Y23184024D01*
X15530332Y22977409D01*
X15624281Y22809528D01*
X15698878Y22666461D01*
X15760768Y22534289D01*
X15816596Y22399093D01*
X15873006Y22246953D01*
X15914978Y22127040D01*
X16057127Y21676004D01*
X16182129Y21200661D01*
X16288416Y20711754D01*
X16374418Y20220029D01*
X16438566Y19736231D01*
X16479290Y19271104D01*
X16495022Y18835393D01*
X20963902Y18835393D01*
X20963902Y29673415D01*
X20406342Y29673415D01*
X20406342Y25089024D01*
X15852927Y25089024D01*
X15852927Y29673415D01*
X20406342Y29673415D01*
X20963902Y29673415D01*
X20963902Y30323902D01*
X5476098Y30323902D01*
X5476098Y14836098D01*
G37*
X5476098Y14836098D02*
X20963902Y14836098D01*
X20963902Y18835393D01*
X16495022Y18835393D01*
X16484192Y18439843D01*
X16473093Y18305366D01*
X16431935Y17974019D01*
X16377938Y17692547D01*
X16307409Y17449554D01*
X16216654Y17233644D01*
X16101979Y17033419D01*
X16024927Y16922525D01*
X15961539Y16835857D01*
X15907997Y16761559D01*
X15890438Y16736671D01*
X15871897Y16715970D01*
X15862254Y16724663D01*
X15861718Y16769871D01*
X15870497Y16858717D01*
X15888797Y16998321D01*
X15900511Y17081829D01*
X15918091Y17205732D01*
X15870960Y17103737D01*
X15818442Y17006709D01*
X15742095Y16885746D01*
X15652911Y16756219D01*
X15561885Y16633501D01*
X15480010Y16532962D01*
X15418281Y16469974D01*
X15416900Y16468861D01*
X15350829Y16417472D01*
X15253827Y16343552D01*
X15144745Y16261448D01*
X15123380Y16245488D01*
X15018514Y16165888D01*
X14926507Y16093614D01*
X14863936Y16041746D01*
X14855176Y16033821D01*
X14799893Y15994128D01*
X14776697Y16005117D01*
X14787675Y16063268D01*
X14808404Y16112734D01*
X14855237Y16229211D01*
X14894904Y16367810D01*
X14930293Y16540944D01*
X14964291Y16761026D01*
X14971378Y16813268D01*
X14994797Y16996501D01*
X15007768Y17119239D01*
X15009707Y17182149D01*
X15000030Y17185898D01*
X14978153Y17131152D01*
X14943491Y17018578D01*
X14906238Y16887592D01*
X14836545Y16653579D01*
X14770744Y16470449D01*
X14703600Y16327805D01*
X14629880Y16215255D01*
X14544353Y16122405D01*
X14502608Y16085919D01*
X14403881Y16000392D01*
X14308567Y15911482D01*
X14263818Y15866321D01*
X14204800Y15808588D01*
X14164967Y15778846D01*
X14157319Y15777966D01*
X14160373Y15810869D01*
X14178554Y15889130D01*
X14208482Y15998981D01*
X14227620Y16064205D01*
X14267551Y16196856D01*
X14303694Y16316316D01*
X14330237Y16403397D01*
X14336938Y16425105D01*
X14345924Y16463454D01*
X14335955Y16473174D01*
X14299646Y16450464D01*
X14229608Y16391524D01*
X14171414Y16339948D01*
X14064361Y16253001D01*
X13938756Y16164077D01*
X13808195Y16081342D01*
X13686272Y16012962D01*
X13586585Y15967102D01*
X13525226Y15951826D01*
X13522979Y15969432D01*
X13560939Y16014265D01*
X13610024Y16058726D01*
X13694242Y16142903D01*
X13796151Y16264833D01*
X13903526Y16408021D01*
X14004141Y16555971D01*
X14085772Y16692188D01*
X14101459Y16721846D01*
X14125695Y16791076D01*
X14153849Y16904143D01*
X14182623Y17043355D01*
X14208722Y17191020D01*
X14228847Y17329445D01*
X14239703Y17440938D01*
X14240691Y17469024D01*
X14227128Y17476090D01*
X14192565Y17438204D01*
X14176680Y17414817D01*
X14128952Y17347206D01*
X14095245Y17319737D01*
X14074029Y17336657D01*
X14063775Y17402210D01*
X14062956Y17520640D01*
X14070042Y17696195D01*
X14070709Y17709085D01*
X14091315Y18104024D01*
X14009810Y17964634D01*
X13934988Y17852308D01*
X13849021Y17746925D01*
X13763690Y17660737D01*
X13690777Y17605994D01*
X13652343Y17592927D01*
X13609864Y17569814D01*
X13544480Y17508799D01*
X13469328Y17422365D01*
X13458849Y17409043D01*
X13219268Y17149030D01*
X12933339Y16922634D01*
X12610412Y16736345D01*
X12313814Y16614376D01*
X12181196Y16575479D01*
X12002337Y16531896D01*
X11792475Y16486556D01*
X11566849Y16442390D01*
X11340698Y16402329D01*
X11129261Y16369303D01*
X10947778Y16346243D01*
X10891280Y16340824D01*
X10653413Y16320741D01*
X10380182Y16587111D01*
X10239429Y16722971D01*
X10138340Y16816120D01*
X10073262Y16868136D01*
X10040539Y16880595D01*
X10036518Y16855073D01*
X10057544Y16793148D01*
X10093376Y16710868D01*
X10147992Y16582824D01*
X10176159Y16499384D01*
X10177556Y16463431D01*
X10151865Y16477845D01*
X10114021Y16524268D01*
X10059882Y16591861D01*
X9978979Y16686017D01*
X9887180Y16788350D01*
X9870511Y16806449D01*
X9774707Y16914623D01*
X9684080Y17024782D01*
X9616507Y17115095D01*
X9610539Y17123949D01*
X9560194Y17197578D01*
X9525366Y17243960D01*
X9516795Y17252195D01*
X9517531Y17225957D01*
X9531043Y17161763D01*
X9533610Y17151524D01*
X9577319Y16974719D01*
X9618293Y16798928D01*
X9654342Y16634706D01*
X9683282Y16492605D01*
X9702925Y16383179D01*
X9711084Y16316981D01*
X9709558Y16302404D01*
X9677414Y16310582D01*
X9616157Y16357533D01*
X9535110Y16433444D01*
X9443598Y16528505D01*
X9350947Y16632904D01*
X9266481Y16736828D01*
X9199524Y16830467D01*
X9184145Y16855256D01*
X9128862Y16946938D01*
X9088245Y17010923D01*
X9069949Y17035223D01*
X9069604Y17034661D01*
X9078056Y16999011D01*
X9099311Y16923993D01*
X9116067Y16867821D01*
X9147888Y16750362D01*
X9158999Y16679313D01*
X9149798Y16658263D01*
X9120685Y16690799D01*
X9100244Y16725610D01*
X9063914Y16781970D01*
X9042443Y16796025D01*
X9040049Y16787561D01*
X9047452Y16715106D01*
X9068036Y16614937D01*
X9096522Y16506007D01*
X9127635Y16407270D01*
X9156096Y16337679D01*
X9171132Y16316748D01*
X9179492Y16298162D01*
X9138963Y16292426D01*
X9061551Y16318643D01*
X8972519Y16389827D01*
X8883170Y16493388D01*
X8804808Y16616737D01*
X8760178Y16714310D01*
X8668615Y17017201D01*
X8601483Y17372634D01*
X8559431Y17775947D01*
X8543108Y18222476D01*
X8542911Y18274390D01*
X8542009Y18417117D01*
X8539004Y18550538D01*
X8533148Y18685548D01*
X8523689Y18833040D01*
X8509880Y19003907D01*
X8490969Y19209043D01*
X8466207Y19459341D01*
X8451243Y19606342D01*
X8439579Y19702606D01*
X8429346Y19755657D01*
X8422272Y19757546D01*
X8420936Y19745732D01*
X8407856Y19655484D01*
X8390012Y19590854D01*
X8371782Y19555130D01*
X8358396Y19570365D01*
X8345969Y19621829D01*
X8321945Y19765694D01*
X8299916Y19953030D01*
X8281461Y20165357D01*
X8268157Y20384196D01*
X8261583Y20591069D01*
X8261331Y20613049D01*
X8258251Y20953781D01*
X8199115Y20767927D01*
X8168850Y20664234D01*
X8130151Y20519268D01*
X8087997Y20352237D01*
X8047366Y20182350D01*
X8047343Y20182252D01*
X8011573Y20032674D01*
X7979104Y19905689D01*
X7953113Y19813119D01*
X7936779Y19766786D01*
X7934922Y19764081D01*
X7927014Y19784061D01*
X7923086Y19856186D01*
X7922726Y19970807D01*
X7925519Y20118273D01*
X7931052Y20288934D01*
X7938912Y20473140D01*
X7948683Y20661242D01*
X7959952Y20843590D01*
X7972306Y21010532D01*
X7985331Y21152421D01*
X7998613Y21259605D01*
X7999222Y21263537D01*
X8029938Y21440460D01*
X8069461Y21642087D01*
X8110778Y21833225D01*
X8124138Y21890193D01*
X8154072Y22026810D01*
X8174439Y22144665D01*
X8182920Y22228582D01*
X8180457Y22259238D01*
X8175851Y22294719D01*
X8196333Y22289204D01*
X8219688Y22287966D01*
X8214321Y22313662D01*
X8215062Y22365959D01*
X8235151Y22454392D01*
X8263144Y22539844D01*
X8368416Y22782736D01*
X8509809Y23050050D01*
X8676787Y23325454D01*
X8858809Y23592619D01*
X9045338Y23835213D01*
X9225835Y24036904D01*
X9235417Y24046525D01*
X9340852Y24145102D01*
X9464233Y24250213D01*
X9594777Y24353847D01*
X9721699Y24447992D01*
X9834215Y24524636D01*
X9921542Y24575767D01*
X9971535Y24593415D01*
X9996499Y24607569D01*
X9986131Y24652608D01*
X9938307Y24732396D01*
X9850900Y24850799D01*
X9782678Y24936893D01*
X9669152Y25070752D01*
X9537764Y25214434D01*
X9398408Y25358237D01*
X9260983Y25492459D01*
X9135384Y25607399D01*
X9031508Y25693354D01*
X8966555Y25736983D01*
X8914924Y25759435D01*
X8871183Y25757238D01*
X8815579Y25724690D01*
X8751841Y25675031D01*
X8447356Y25441037D01*
X8120510Y25209348D01*
X7784867Y24988599D01*
X7453989Y24787427D01*
X7141440Y24614469D01*
X6900363Y24496110D01*
X6761639Y24436279D01*
X6637725Y24388951D01*
X6542441Y24359015D01*
X6490627Y24351189D01*
X6436833Y24386236D01*
X6411564Y24464995D01*
X6413051Y24577140D01*
X6439525Y24712343D01*
X6489217Y24860279D01*
X6560357Y25010620D01*
X6620573Y25109689D01*
X6902676Y25475751D01*
X7237520Y25815961D01*
X7619678Y26125780D01*
X8043720Y26400667D01*
X8372317Y26574600D01*
X8633717Y26689760D01*
X8854674Y26762214D01*
X9038925Y26792679D01*
X9190209Y26781876D01*
X9280314Y26749210D01*
X9404239Y26661636D01*
X9543511Y26522050D01*
X9693641Y26337131D01*
X9850142Y26113560D01*
X10008525Y25858014D01*
X10164303Y25577173D01*
X10312988Y25277716D01*
X10402362Y25079353D01*
X10455840Y24960680D01*
X10494958Y24889985D01*
X10527194Y24857270D01*
X10560025Y24852538D01*
X10570286Y24854850D01*
X10814283Y24916083D01*
X11045489Y24959355D01*
X11283005Y24986967D01*
X11545932Y25001218D01*
X11812943Y25004537D01*
X11997577Y25003077D01*
X12164543Y24999539D01*
X12302403Y24994339D01*
X12399716Y24987894D01*
X12442520Y24981590D01*
X12466377Y24974073D01*
X12484043Y24973047D01*
X12495090Y24985275D01*
X12499092Y25017519D01*
X12495621Y25076539D01*
X12484249Y25169100D01*
X12464549Y25301961D01*
X12436093Y25481887D01*
X12398454Y25715638D01*
X12394607Y25739512D01*
X12316891Y26265196D01*
X12262245Y26734624D01*
X12230573Y27148997D01*
X12221777Y27509516D01*
X12230851Y27755799D01*
X12276862Y28199001D01*
X12350361Y28622369D01*
X12448837Y29015552D01*
X12569776Y29368200D01*
X12683012Y29618061D01*
X12757637Y29755661D01*
X12819393Y29849896D01*
X12879070Y29914658D01*
X12947459Y29963837D01*
X12955215Y29968446D01*
X13085473Y30028701D01*
X13196847Y30039107D01*
X13306813Y29999971D01*
X13347066Y29975382D01*
X13436330Y29894532D01*
X13513143Y29775270D01*
X13580906Y29610462D01*
X13643022Y29392969D01*
X13660880Y29317195D01*
X13679835Y29230265D01*
X13695027Y29149119D01*
X13706858Y29065713D01*
X13715729Y28972001D01*
X13722039Y28859937D01*
X13726190Y28721478D01*
X13728582Y28548578D01*
X13729616Y28333192D01*
X13729693Y28067275D01*
X13729537Y27938781D01*
X13728613Y27635434D01*
X13726603Y27386392D01*
X13723192Y27184012D01*
X13718065Y27020651D01*
X13710904Y26888667D01*
X13701396Y26780418D01*
X13689225Y26688261D01*
X13674537Y26606829D01*
X13650075Y26482252D01*
X13618353Y26314794D01*
X13582752Y26122608D01*
X13546652Y25923845D01*
X13530318Y25832439D01*
X13492875Y25627926D01*
X13451600Y25412856D01*
X13410672Y25208374D01*
X13374267Y25035628D01*
X13362255Y24981681D01*
X13332018Y24846268D01*
X13308472Y24735954D01*
X13294145Y24662915D01*
X13291206Y24639122D01*
X13322443Y24633098D01*
X13399286Y24619835D01*
X13506184Y24602007D01*
X13525271Y24598871D01*
X13846269Y24516883D01*
X14169668Y24377656D01*
X14488369Y24185165D01*
X14795269Y23943390D01*
X14941941Y23805397D01*
X15084288Y23653963D01*
X15208577Y23497903D01*
X15330155Y23316862D01*
X15410386Y23184024D01*
X15530332Y22977409D01*
X15624281Y22809528D01*
X15698878Y22666461D01*
X15760768Y22534289D01*
X15816596Y22399093D01*
X15873006Y22246953D01*
X15914978Y22127040D01*
X16057127Y21676004D01*
X16182129Y21200661D01*
X16288416Y20711754D01*
X16374418Y20220029D01*
X16438566Y19736231D01*
X16479290Y19271104D01*
X16495022Y18835393D01*
X20963902Y18835393D01*
X20963902Y29673415D01*
X20406342Y29673415D01*
X20406342Y25089024D01*
X15852927Y25089024D01*
X15852927Y29673415D01*
X20406342Y29673415D01*
X20963902Y29673415D01*
X20963902Y30323902D01*
X5476098Y30323902D01*
X5476098Y14836098D01*
M02*
