G04 #@! TF.GenerationSoftware,KiCad,Pcbnew,(5.1.6)-1*
G04 #@! TF.CreationDate,2020-08-08T21:35:18+09:00*
G04 #@! TF.ProjectId,Meno_V101,4d656e6f-5f56-4313-9031-2e6b69636164,rev?*
G04 #@! TF.SameCoordinates,PX6cf7820PY7a67730*
G04 #@! TF.FileFunction,Copper,L2,Bot*
G04 #@! TF.FilePolarity,Positive*
%FSLAX46Y46*%
G04 Gerber Fmt 4.6, Leading zero omitted, Abs format (unit mm)*
G04 Created by KiCad (PCBNEW (5.1.6)-1) date 2020-08-08 21:35:18*
%MOMM*%
%LPD*%
G01*
G04 APERTURE LIST*
G04 #@! TA.AperFunction,ComponentPad*
%ADD10R,1.700000X1.700000*%
G04 #@! TD*
G04 #@! TA.AperFunction,ComponentPad*
%ADD11O,1.700000X1.700000*%
G04 #@! TD*
G04 #@! TA.AperFunction,ComponentPad*
%ADD12C,2.600000*%
G04 #@! TD*
G04 #@! TA.AperFunction,ComponentPad*
%ADD13R,2.600000X2.600000*%
G04 #@! TD*
G04 #@! TA.AperFunction,ComponentPad*
%ADD14O,2.000000X1.000000*%
G04 #@! TD*
G04 #@! TA.AperFunction,ComponentPad*
%ADD15O,2.100000X1.050000*%
G04 #@! TD*
G04 #@! TA.AperFunction,ViaPad*
%ADD16C,0.600000*%
G04 #@! TD*
G04 #@! TA.AperFunction,Conductor*
%ADD17C,0.600000*%
G04 #@! TD*
G04 #@! TA.AperFunction,Conductor*
%ADD18C,0.400000*%
G04 #@! TD*
G04 #@! TA.AperFunction,Conductor*
%ADD19C,0.200000*%
G04 #@! TD*
G04 #@! TA.AperFunction,Conductor*
%ADD20C,0.254000*%
G04 #@! TD*
G04 APERTURE END LIST*
D10*
X41615000Y50754700D03*
D11*
X39075000Y50754700D03*
X36535000Y50754700D03*
X33995000Y50754700D03*
X31455000Y50754700D03*
X28915000Y50754700D03*
X26375000Y50754700D03*
X23835000Y50754700D03*
X21295000Y50754700D03*
X18755000Y50754700D03*
D10*
X63459000Y50754700D03*
D11*
X60919000Y50754700D03*
X58379000Y50754700D03*
X55839000Y50754700D03*
X53299000Y50754700D03*
X50759000Y50754700D03*
X48219000Y50754700D03*
X45679000Y50754700D03*
D10*
X63459000Y48210000D03*
D11*
X60919000Y48210000D03*
X58379000Y48210000D03*
X55839000Y48210000D03*
X53299000Y48210000D03*
X50759000Y48210000D03*
X48219000Y48210000D03*
X45679000Y48210000D03*
X43139000Y48210000D03*
X40599000Y48210000D03*
X38059000Y48210000D03*
X35519000Y48210000D03*
X32979000Y48210000D03*
X30439000Y48210000D03*
X27899000Y48210000D03*
X25359000Y48210000D03*
X22819000Y48210000D03*
X20279000Y48210000D03*
X17739000Y48210000D03*
D10*
X56600000Y40000000D03*
D11*
X54060000Y40000000D03*
X56600000Y37460000D03*
X54060000Y37460000D03*
X56600000Y34920000D03*
X54060000Y34920000D03*
X56600000Y32380000D03*
X54060000Y32380000D03*
X56600000Y29840000D03*
X54060000Y29840000D03*
X56600000Y27300000D03*
X54060000Y27300000D03*
X56600000Y24760000D03*
X54060000Y24760000D03*
X56600000Y22220000D03*
X54060000Y22220000D03*
X56600000Y19680000D03*
X54060000Y19680000D03*
X56600000Y17140000D03*
X54060000Y17140000D03*
X56600000Y14600000D03*
X54060000Y14600000D03*
X56600000Y12060000D03*
X54060000Y12060000D03*
D10*
X63585000Y30474700D03*
D11*
X66125000Y30474700D03*
X63585000Y27934700D03*
X66125000Y27934700D03*
X63585000Y25394700D03*
X66125000Y25394700D03*
D10*
X63459000Y5080000D03*
D11*
X60919000Y5080000D03*
X58379000Y5080000D03*
X55839000Y5080000D03*
X53299000Y5080000D03*
X50759000Y5080000D03*
X48219000Y5080000D03*
X45679000Y5080000D03*
X43139000Y5080000D03*
X40599000Y5080000D03*
X38059000Y5080000D03*
X35519000Y5080000D03*
X32979000Y5080000D03*
X30439000Y5080000D03*
X27899000Y5080000D03*
D10*
X63459000Y2535000D03*
D11*
X60919000Y2535000D03*
X58379000Y2535000D03*
X55839000Y2535000D03*
X53299000Y2535000D03*
X50759000Y2535000D03*
X27899000Y2535000D03*
X30439000Y2535000D03*
X32979000Y2535000D03*
X35519000Y2535000D03*
X38059000Y2535000D03*
X40599000Y2535000D03*
X43139000Y2535000D03*
D10*
X45679000Y2535000D03*
D12*
X7460000Y2000000D03*
X4460000Y6700000D03*
D13*
X10460000Y6700000D03*
D14*
X1700000Y41170000D03*
X1700000Y32530000D03*
D15*
X5880000Y41170000D03*
X5880000Y32530000D03*
D16*
X40800000Y12200000D03*
X31380000Y6500000D03*
X26550000Y6460000D03*
X21100000Y3870000D03*
X6810000Y18590000D03*
X6810000Y16290000D03*
X6810000Y13990000D03*
X20150000Y3870000D03*
X22050000Y3870000D03*
X25560000Y11320000D03*
X22910000Y25010000D03*
X21880000Y23410000D03*
X10710000Y45990000D03*
X64480000Y14440000D03*
X45750000Y37910000D03*
X60750000Y41420000D03*
X22630000Y22790000D03*
X21280000Y24010000D03*
X44470000Y37950000D03*
X44340000Y7350000D03*
X20620000Y14040000D03*
X12740000Y6920000D03*
X29234200Y32498300D03*
X28239100Y46194400D03*
X30656000Y45828000D03*
X31970000Y37558000D03*
X27878800Y17261100D03*
X12941300Y41412700D03*
X29141500Y16157300D03*
X52625900Y15323100D03*
X31200000Y10180000D03*
X31820000Y9580000D03*
X28103800Y22850000D03*
X30100000Y11400000D03*
X27567200Y22003600D03*
X24426100Y33155700D03*
X10730500Y43880400D03*
X24394900Y32200500D03*
X7180000Y43350000D03*
X24439100Y40349000D03*
X34515400Y42549900D03*
X40400000Y27100000D03*
X38083900Y42839400D03*
X25020000Y25560000D03*
X35290700Y42076600D03*
X24590000Y26460000D03*
X38366800Y38382800D03*
X24428600Y35440000D03*
X24410000Y36960000D03*
X33314100Y45815300D03*
X39705100Y25403100D03*
X37210000Y39820000D03*
X33915000Y46445000D03*
X39340000Y30010000D03*
X39820000Y41061400D03*
X29360000Y40970000D03*
X27566400Y25616500D03*
X36456500Y20152500D03*
X38480000Y40500000D03*
X31631200Y41060000D03*
X28373800Y24725700D03*
X36900500Y17097600D03*
X38491700Y39700000D03*
X27234700Y44309300D03*
X25052900Y24350000D03*
X38067200Y43886500D03*
X30222100Y43168700D03*
X27573300Y23850000D03*
X30657900Y44928800D03*
X28132700Y26900000D03*
X26082900Y19696100D03*
X27583200Y20350000D03*
X26653800Y19126700D03*
X40411700Y24772200D03*
X54071100Y41708900D03*
X55826100Y43463900D03*
X48700000Y16600000D03*
X40328300Y15503000D03*
X34060700Y19945500D03*
X40950600Y14979700D03*
X34006500Y17389300D03*
X39300000Y14200000D03*
X33991600Y16502700D03*
X34930000Y10200000D03*
X31526900Y20140000D03*
X45335300Y19799800D03*
X44640000Y29840000D03*
X28916800Y12444400D03*
X27806800Y15406900D03*
X38581400Y17150000D03*
X35990000Y17445300D03*
X41852600Y16109200D03*
X35189600Y19937000D03*
X33574000Y35386700D03*
X33645600Y36793500D03*
X36475800Y31255700D03*
X31572700Y35294100D03*
X34513100Y32766900D03*
X33960000Y7990000D03*
X30754800Y35253000D03*
X34324200Y35768500D03*
X33453900Y31936900D03*
X52781100Y7679500D03*
X34959600Y35252200D03*
X34474500Y31259500D03*
X52103100Y8346600D03*
X35491200Y31969100D03*
X31452600Y31450000D03*
X35713800Y32766900D03*
X31960100Y36577800D03*
X31960000Y20950000D03*
X30917200Y36088800D03*
X20459800Y36969400D03*
X18118500Y33563600D03*
X5120000Y38100000D03*
X4116100Y40316100D03*
X5074850Y35604850D03*
X3230000Y40330000D03*
X18200000Y6740000D03*
X2490000Y22285100D03*
X43516800Y25270000D03*
X10142500Y39381900D03*
X15994200Y36250000D03*
X6471700Y46992100D03*
X4880000Y37150000D03*
X8711500Y33349700D03*
D17*
X43139000Y2535000D02*
X43139000Y5080000D01*
D18*
X2350200Y32703800D02*
X2176400Y32530000D01*
D17*
X2350200Y41170000D02*
X2350200Y32703800D01*
D19*
X1700000Y32530000D02*
X2176400Y32530000D01*
X1700000Y41170000D02*
X2350200Y41170000D01*
D18*
X40800000Y10400000D02*
X43139000Y8061000D01*
X40800000Y12200000D02*
X40800000Y10800000D01*
X40800000Y10800000D02*
X40800000Y10400000D01*
D19*
X40800000Y10800000D02*
X40800000Y10700000D01*
D18*
X43139000Y5080000D02*
X43139000Y8061000D01*
X31380000Y6500000D02*
X26590000Y6500000D01*
D19*
X26590000Y6500000D02*
X26550000Y6460000D01*
D17*
X5880000Y32530000D02*
X1700000Y32530000D01*
X5880000Y41170000D02*
X1700000Y41170000D01*
D18*
X45750000Y37910000D02*
X47670000Y37910000D01*
X47670000Y37910000D02*
X52330000Y42570000D01*
X52330000Y42570000D02*
X59600000Y42570000D01*
X59600000Y42570000D02*
X60750000Y41420000D01*
X60750000Y41420000D02*
X60750000Y41420000D01*
X22910000Y24440000D02*
X22715000Y24245000D01*
X22910000Y25010000D02*
X22910000Y24440000D01*
X21880000Y23410000D02*
X22715000Y24245000D01*
D19*
X31970000Y37558000D02*
X31486200Y37558000D01*
X31486200Y37558000D02*
X29234200Y35306000D01*
X29234200Y35306000D02*
X29234200Y32498300D01*
X31970000Y37558000D02*
X32240300Y37828300D01*
X32240300Y37828300D02*
X32240300Y44243700D01*
X32240300Y44243700D02*
X30656000Y45828000D01*
X26629000Y47804500D02*
X28239100Y46194400D01*
X26629000Y48604700D02*
X26629000Y47804500D01*
X23835000Y50754700D02*
X24479000Y50754700D01*
X24479000Y50754700D02*
X26629000Y48604700D01*
X27185000Y17261100D02*
X27878800Y17261100D01*
X12941300Y41412700D02*
X16994600Y37359400D01*
X16994600Y37359400D02*
X16994600Y27352400D01*
X16994600Y27352400D02*
X27085900Y17261100D01*
X27085900Y17261100D02*
X27185000Y17261100D01*
X32290000Y7685600D02*
X27185000Y12790600D01*
X32979000Y3446900D02*
X31709000Y4716900D01*
X32979000Y2535000D02*
X32979000Y3446900D01*
X32290000Y6360000D02*
X32290000Y7685600D01*
X27185000Y12790600D02*
X27185000Y17261100D01*
X31709000Y4716900D02*
X31709000Y5779000D01*
X31709000Y5779000D02*
X32290000Y6360000D01*
X63585000Y24244400D02*
X63585000Y25394700D01*
X67929700Y4905200D02*
X67929700Y19899700D01*
X65175300Y2150800D02*
X67929700Y4905200D01*
X33841700Y2535000D02*
X35824200Y552500D01*
X67929700Y19899700D02*
X63585000Y24244400D01*
X32979000Y2535000D02*
X33841700Y2535000D01*
X35824200Y552500D02*
X63645400Y552500D01*
X63645400Y552500D02*
X65175300Y2082400D01*
X65175300Y2082400D02*
X65175300Y2150800D01*
D17*
X45679000Y2535000D02*
X45679000Y5080000D01*
D19*
X31200000Y10700000D02*
X31200000Y10180000D01*
X31200000Y12423100D02*
X31200000Y10700000D01*
X29141500Y16157300D02*
X29141500Y14481600D01*
X29141500Y14481600D02*
X31200000Y12423100D01*
X53292500Y15989700D02*
X52625900Y15323100D01*
X54587100Y15989700D02*
X53292500Y15989700D01*
X56600000Y17140000D02*
X55737400Y17140000D01*
X55737400Y17140000D02*
X54587100Y15989700D01*
X32376300Y12599400D02*
X29741900Y15233800D01*
X29741900Y15233800D02*
X29741900Y21211900D01*
X29741900Y21211900D02*
X28103800Y22850000D01*
X32376300Y10933700D02*
X32373700Y10933700D01*
X32376300Y10933700D02*
X32376300Y12599400D01*
X31820000Y10380000D02*
X31820000Y9580000D01*
X32373700Y10933700D02*
X31820000Y10380000D01*
X54922600Y14600000D02*
X54060000Y14600000D01*
X56072900Y15750300D02*
X54922600Y14600000D01*
X63585000Y27022800D02*
X62195400Y25633200D01*
X63585000Y27934700D02*
X63585000Y27022800D01*
X62195400Y25633200D02*
X62195400Y21071400D01*
X62195400Y21071400D02*
X56874300Y15750300D01*
X56874300Y15750300D02*
X56072900Y15750300D01*
X28527700Y13904700D02*
X28527700Y21043200D01*
X28527700Y21043200D02*
X28527600Y21043200D01*
X28527600Y21043200D02*
X27567200Y22003600D01*
X29616200Y11883800D02*
X30100000Y11400000D01*
X29616200Y12816200D02*
X29616200Y11883800D01*
X29616200Y12816200D02*
X28527700Y13904700D01*
X54060000Y18002600D02*
X54060000Y17140000D01*
X55382850Y20127150D02*
X55382850Y19325450D01*
X56205700Y20950000D02*
X55382850Y20127150D01*
X63585000Y30474700D02*
X63585000Y29612000D01*
X63585000Y29612000D02*
X59814300Y25841300D01*
X59814300Y25841300D02*
X59814300Y23717800D01*
X55382850Y19325450D02*
X54060000Y18002600D01*
X59814300Y23717800D02*
X57046500Y20950000D01*
X57046500Y20950000D02*
X56205700Y20950000D01*
X15008500Y43880400D02*
X24426100Y34462800D01*
X24426100Y34462800D02*
X24426100Y33155700D01*
X10730500Y43880400D02*
X15008500Y43880400D01*
X17210500Y49471300D02*
X15008500Y47269300D01*
X63459000Y50754700D02*
X62596300Y50754700D01*
X60588400Y52762600D02*
X19132700Y52762600D01*
X17210500Y50840400D02*
X17210500Y49471300D01*
X15008500Y47269300D02*
X15008500Y43880400D01*
X62596300Y50754700D02*
X60588400Y52762600D01*
X19132700Y52762600D02*
X17210500Y50840400D01*
X7180000Y43350000D02*
X7180000Y43231400D01*
X7180000Y43231400D02*
X7341300Y43070100D01*
X7341300Y43070100D02*
X15252400Y43070100D01*
X15252400Y43070100D02*
X22793000Y35529500D01*
X22793000Y35529500D02*
X22793702Y35529500D01*
X23482700Y34840502D02*
X23482700Y33112700D01*
X22793702Y35529500D02*
X23482700Y34840502D01*
X23482700Y33112700D02*
X24394900Y32200500D01*
X34515400Y40522600D02*
X34515400Y42549900D01*
X20279000Y47059700D02*
X20279000Y44509100D01*
X20279000Y44509100D02*
X24439100Y40349000D01*
X20279000Y48210000D02*
X20279000Y47059700D01*
X40400000Y27100000D02*
X40840000Y27540000D01*
X40840000Y34198000D02*
X40244000Y34794000D01*
X40840000Y27540000D02*
X40840000Y34198000D01*
X40351700Y34686300D02*
X40244000Y34794000D01*
X40244000Y34794000D02*
X34515400Y40522600D01*
X57467000Y50754700D02*
X56311300Y51910400D01*
X58379000Y50754700D02*
X57467000Y50754700D01*
X45207700Y51910400D02*
X41749400Y48452100D01*
X56311300Y51910400D02*
X45207700Y51910400D01*
X41749400Y46504900D02*
X38083900Y42839400D01*
X41749400Y48452100D02*
X41749400Y46504900D01*
X25428900Y31786000D02*
X24444800Y30801900D01*
X22819000Y47059700D02*
X25439700Y44439000D01*
X22819000Y48210000D02*
X22819000Y47059700D01*
X25439700Y39934500D02*
X25428900Y39923700D01*
X25428900Y39923700D02*
X25428900Y31786000D01*
X25439700Y44439000D02*
X25439700Y39934500D01*
X23989999Y30344301D02*
X24152849Y30507151D01*
X23989999Y25900001D02*
X23989999Y30344301D01*
X24330000Y25560000D02*
X23989999Y25900001D01*
X25020000Y25560000D02*
X24330000Y25560000D01*
X24152849Y30507151D02*
X24444800Y30799102D01*
X55839000Y49842800D02*
X54628100Y48631900D01*
X38036600Y37781000D02*
X35290700Y40526900D01*
X55839000Y50754700D02*
X55839000Y49842800D01*
X54630000Y48310000D02*
X54630000Y47852300D01*
X35290700Y40526900D02*
X35290700Y42076600D01*
X54628100Y48631900D02*
X54628100Y48311900D01*
X54628100Y48311900D02*
X54630000Y48310000D01*
X38036600Y37781000D02*
X38039000Y37781000D01*
X38039000Y37781000D02*
X38490000Y37330000D01*
X40508000Y37330000D02*
X40959000Y37781000D01*
X38490000Y37330000D02*
X40508000Y37330000D01*
X46486150Y40926150D02*
X43341000Y37781000D01*
X47703850Y40926150D02*
X46486150Y40926150D01*
X54630000Y47852300D02*
X47703850Y40926150D01*
X43341000Y37781000D02*
X40959000Y37781000D01*
X25840000Y39768700D02*
X25840000Y46578700D01*
X25840000Y46578700D02*
X25359000Y47059700D01*
X25829200Y39757900D02*
X25840000Y39768700D01*
X25829200Y31620200D02*
X25829200Y39757900D01*
X25066300Y30857300D02*
X25829200Y31620200D01*
X25359000Y47059700D02*
X25359000Y48210000D01*
X24590000Y30378604D02*
X24850000Y30638604D01*
X24850000Y30641402D02*
X25065898Y30857300D01*
X24590000Y26460000D02*
X24590000Y30378604D01*
X25065898Y30857300D02*
X25066300Y30857300D01*
X24850000Y30638604D02*
X24850000Y30641402D01*
X24428600Y35440000D02*
X24428600Y36941400D01*
X24428600Y36941400D02*
X24410000Y36960000D01*
X52029000Y48572800D02*
X52029000Y47818900D01*
X52029000Y47818900D02*
X42592900Y38382800D01*
X53299000Y50754700D02*
X53299000Y49842800D01*
X42592900Y38382800D02*
X38366800Y38382800D01*
X53299000Y49842800D02*
X52029000Y48572800D01*
X33314100Y45815300D02*
X33514600Y45614800D01*
X33514600Y45614800D02*
X33514600Y39824900D01*
X33514600Y39824900D02*
X38614100Y34725400D01*
X38614100Y34725400D02*
X38614100Y26494100D01*
X38614100Y26494100D02*
X39705100Y25403100D01*
X50759000Y49842800D02*
X50759000Y50754700D01*
X40655200Y38991100D02*
X49492050Y47827950D01*
X49492050Y47827950D02*
X49492050Y48575850D01*
X49492050Y48575850D02*
X50759000Y49842800D01*
X38038900Y38991100D02*
X38201100Y38991100D01*
X37210000Y39820000D02*
X38038900Y38991100D01*
X38201100Y38991100D02*
X40655200Y38991100D01*
X33915000Y39990800D02*
X33915000Y46445000D01*
X39340000Y30010000D02*
X39340000Y34565800D01*
X39340000Y34565800D02*
X33915000Y39990800D01*
X27566400Y25616500D02*
X27099400Y26083500D01*
X27099400Y26083500D02*
X27099400Y30626000D01*
X27099400Y30626000D02*
X27430400Y30957000D01*
X27430400Y30957000D02*
X27430400Y36494300D01*
X27430400Y36494300D02*
X29621000Y38684900D01*
X29360000Y40282000D02*
X29621000Y40021000D01*
X29360000Y40970000D02*
X29360000Y40282000D01*
X29621000Y38684900D02*
X29621000Y40021000D01*
X40202600Y41061400D02*
X39911400Y41061400D01*
X46949000Y47807800D02*
X40202600Y41061400D01*
X46949000Y48572800D02*
X46949000Y47807800D01*
X48219000Y50754700D02*
X48219000Y49842800D01*
X48219000Y49842800D02*
X46949000Y48572800D01*
X32979000Y47059700D02*
X32313500Y46394200D01*
X32313500Y46394200D02*
X32313500Y44755400D01*
X32313500Y44755400D02*
X32649300Y44419600D01*
X32649300Y44419600D02*
X32649300Y37497000D01*
X32649300Y37497000D02*
X32573300Y37421000D01*
X32573300Y37421000D02*
X32573300Y32471300D01*
X32573300Y32471300D02*
X32453300Y32351300D01*
X32453300Y32351300D02*
X32453300Y24410600D01*
X32453300Y24410600D02*
X36456500Y20407400D01*
X36456500Y20407400D02*
X36456500Y20152500D01*
X32979000Y48210000D02*
X32979000Y47059700D01*
X31631200Y38430600D02*
X28631300Y35430700D01*
X28631300Y35430700D02*
X28631300Y30407600D01*
X28631300Y30407600D02*
X28755300Y30283600D01*
X28755300Y30283600D02*
X28755300Y25107200D01*
X28755300Y25107200D02*
X28373800Y24725700D01*
X31631200Y41060000D02*
X31631200Y40388800D01*
X31631200Y40644400D02*
X31631200Y40388800D01*
X31631200Y40388800D02*
X31631200Y38430600D01*
X44528700Y48741800D02*
X44528700Y46763000D01*
X44528700Y46763000D02*
X38484900Y40719200D01*
X45679000Y50754700D02*
X45679000Y49892100D01*
X38484900Y40719200D02*
X38484900Y40461000D01*
X45679000Y49892100D02*
X44528700Y48741800D01*
X32713800Y46104800D02*
X32713800Y45121100D01*
X32713800Y45121100D02*
X33049700Y44785200D01*
X33049700Y44785200D02*
X33049700Y37046700D01*
X33049700Y37046700D02*
X32973700Y36970700D01*
X32973700Y36970700D02*
X32973700Y32305600D01*
X32973700Y32305600D02*
X32853600Y32185500D01*
X32853600Y32185500D02*
X32853600Y24610600D01*
X32853600Y24610600D02*
X37074300Y20389900D01*
X37074300Y20389900D02*
X37074300Y17271400D01*
X37074300Y17271400D02*
X36900500Y17097600D01*
X35232100Y48210000D02*
X35232100Y51200600D01*
X35232100Y51200600D02*
X34070500Y52362200D01*
X34070500Y52362200D02*
X21274400Y52362200D01*
X35519000Y48210000D02*
X35232100Y48210000D01*
X21274400Y52362200D02*
X19976100Y51063900D01*
X19666900Y50754700D02*
X19976100Y51063900D01*
X18755000Y50754700D02*
X19666900Y50754700D01*
X19976100Y51063900D02*
X19905300Y50993100D01*
X34819000Y48210000D02*
X34119500Y47510500D01*
X35519000Y48210000D02*
X34819000Y48210000D01*
X34368700Y47759700D02*
X34119500Y47510500D01*
X34119500Y47510500D02*
X32713800Y46104800D01*
X38059000Y47059700D02*
X37466900Y46467600D01*
X37466900Y46467600D02*
X37466900Y40624300D01*
X37466900Y40624300D02*
X38491700Y39599500D01*
X38059000Y48210000D02*
X38059000Y47059700D01*
X25846600Y25446600D02*
X25052900Y24652900D01*
X26229500Y39592100D02*
X26229500Y31454400D01*
X25052900Y24652900D02*
X25052900Y24350000D01*
X27234700Y44309300D02*
X27234700Y40597300D01*
X26229500Y31454400D02*
X25846600Y31071500D01*
X27234700Y40597300D02*
X26229500Y39592100D01*
X25846600Y31071500D02*
X25846600Y25446600D01*
X27573300Y23850000D02*
X27573300Y24774400D01*
X27573300Y24774400D02*
X28204800Y25405900D01*
X28204800Y25405900D02*
X28204800Y25903200D01*
X28204800Y25903200D02*
X27499700Y26608300D01*
X27499700Y26608300D02*
X27499700Y30460200D01*
X27499700Y30460200D02*
X27830700Y30791200D01*
X27830700Y30791200D02*
X27830700Y36328500D01*
X27830700Y36328500D02*
X30222100Y38719900D01*
X30222100Y38719900D02*
X30222100Y43168700D01*
X39075000Y50754700D02*
X39075000Y49604400D01*
X38067200Y43886500D02*
X39265500Y45084800D01*
X39265500Y45084800D02*
X39265500Y49413900D01*
X39265500Y49413900D02*
X39075000Y49604400D01*
X28231000Y26998300D02*
X28132700Y26900000D01*
X28231000Y35679400D02*
X28231000Y26998300D01*
X30822800Y38271200D02*
X28231000Y35679400D01*
X30657900Y44928800D02*
X30822800Y44763900D01*
X30822800Y44763900D02*
X30822800Y38271200D01*
X26298800Y19912000D02*
X26082900Y19696100D01*
X26298800Y30957600D02*
X26298800Y19912000D01*
X26629800Y31288600D02*
X26298800Y30957600D01*
X30065400Y51002100D02*
X30065400Y49738000D01*
X31979500Y51907500D02*
X30970800Y51907500D01*
X30970800Y51907500D02*
X30065400Y51002100D01*
X33995000Y50754700D02*
X33132300Y50754700D01*
X30065400Y49738000D02*
X29049400Y48722000D01*
X33132300Y50754700D02*
X31979500Y51907500D01*
X27835000Y39193800D02*
X26629800Y37988600D01*
X26629800Y37988600D02*
X26629800Y31288600D01*
X29049400Y48722000D02*
X29049400Y46155600D01*
X29049400Y46155600D02*
X27835000Y44941200D01*
X27835000Y44941200D02*
X27835000Y39193800D01*
X27583200Y20350000D02*
X26699100Y21234100D01*
X26699100Y21234100D02*
X26699100Y30791800D01*
X26699100Y30791800D02*
X27030100Y31122800D01*
X27030100Y31122800D02*
X27030100Y36660100D01*
X27030100Y36660100D02*
X28451700Y38081700D01*
X28451700Y38081700D02*
X28451700Y44577900D01*
X28451700Y44577900D02*
X31645500Y47771700D01*
X31645500Y47771700D02*
X31645500Y49413900D01*
X31645500Y49413900D02*
X31455000Y49604400D01*
X31455000Y50754700D02*
X31455000Y49604400D01*
X26569300Y19042200D02*
X26653800Y19126700D01*
X24044400Y20883400D02*
X25885600Y19042200D01*
X24044400Y25164400D02*
X24044400Y20883400D01*
X23589989Y25618811D02*
X24044400Y25164400D01*
X23589989Y26010011D02*
X23589989Y25618811D01*
X23580000Y26020000D02*
X23589989Y26010011D01*
X24044400Y30967600D02*
X24044400Y30964400D01*
X25885600Y19042200D02*
X26569300Y19042200D01*
X25028600Y31951800D02*
X24044400Y30967600D01*
X23580000Y30500000D02*
X23580000Y26020000D01*
X28915000Y50754700D02*
X28052300Y50754700D01*
X23346400Y51924100D02*
X22684600Y51262300D01*
X28052300Y50754700D02*
X26882900Y51924100D01*
X21626000Y45228500D02*
X25039400Y41815100D01*
X22684600Y51262300D02*
X22684600Y50242700D01*
X22684600Y50242700D02*
X21626000Y49184100D01*
X24044400Y30964400D02*
X23580000Y30500000D01*
X21626000Y49184100D02*
X21626000Y45228500D01*
X26882900Y51924100D02*
X23346400Y51924100D01*
X25028600Y40089500D02*
X25028600Y31951800D01*
X25039400Y41815100D02*
X25039400Y40100300D01*
X25039400Y40100300D02*
X25028600Y40089500D01*
X60919000Y48210000D02*
X60572200Y48210000D01*
X41551100Y25911600D02*
X40889750Y25250250D01*
X41551100Y29188900D02*
X41551100Y25911600D01*
X40889750Y25250250D02*
X40411700Y24772200D01*
X60572200Y48210000D02*
X55826100Y43463900D01*
X54071100Y41708900D02*
X41551100Y29188900D01*
X48709000Y17053500D02*
X48708900Y17053500D01*
X48709000Y16609000D02*
X48700000Y16600000D01*
X48709000Y17409000D02*
X48709000Y16609000D01*
X48709000Y17409000D02*
X48709000Y17053500D01*
X53710900Y23546000D02*
X48709000Y18544100D01*
X48709000Y18544100D02*
X48709000Y17409000D01*
X54474000Y23546000D02*
X53710900Y23546000D01*
X55688000Y24760000D02*
X54474000Y23546000D01*
X56600000Y24760000D02*
X55688000Y24760000D01*
X40328300Y15503000D02*
X36406400Y15503000D01*
X36406400Y15503000D02*
X34774200Y17135200D01*
X34774200Y17135200D02*
X34774200Y19232000D01*
X34774200Y19232000D02*
X34060700Y19945500D01*
X40950600Y14979700D02*
X40866900Y14896000D01*
X40866900Y14896000D02*
X36447300Y14896000D01*
X36447300Y14896000D02*
X34006500Y17336800D01*
X34006500Y17336800D02*
X34006500Y17389300D01*
X33991600Y16502700D02*
X36449100Y14045200D01*
X38400000Y14200000D02*
X38245200Y14045200D01*
X39300000Y14200000D02*
X38400000Y14200000D01*
X36449100Y14045200D02*
X38245200Y14045200D01*
X34940800Y11733400D02*
X34940800Y10210800D01*
X31526900Y20123000D02*
X31526900Y15147300D01*
X34940800Y10210800D02*
X34930000Y10200000D01*
X31526900Y15147300D02*
X34940800Y11733400D01*
X54060000Y32380000D02*
X54060000Y31468100D01*
X45335300Y22743400D02*
X45335300Y19799800D01*
X54060000Y31468100D02*
X45335300Y22743400D01*
X55737300Y32380000D02*
X54586900Y33530400D01*
X56600000Y32380000D02*
X55737300Y32380000D01*
X44650000Y29850000D02*
X44640000Y29840000D01*
X44981800Y29850000D02*
X44650000Y29850000D01*
X54586900Y33530400D02*
X48662200Y33530400D01*
X48662200Y33530400D02*
X44981800Y29850000D01*
X27806800Y15406900D02*
X27806800Y13554400D01*
X27806800Y13554400D02*
X28916800Y12444400D01*
X38581400Y17150000D02*
X37925400Y16494000D01*
X37925400Y16494000D02*
X36594900Y16494000D01*
X36594900Y16494000D02*
X35990000Y17098900D01*
X35990000Y17098900D02*
X35990000Y17445300D01*
X39059200Y16047600D02*
X39120800Y16109200D01*
X39120800Y16109200D02*
X41852600Y16109200D01*
X36427900Y16047600D02*
X39059200Y16047600D01*
X35189600Y17285900D02*
X36427900Y16047600D01*
X35189600Y19937000D02*
X35189600Y17285900D01*
X33574000Y35386700D02*
X33574000Y35870900D01*
X33574000Y35870900D02*
X34091700Y36388600D01*
X34091700Y36388600D02*
X35252600Y36388600D01*
X35252600Y36388600D02*
X37676600Y33964600D01*
X37676600Y33964600D02*
X37676600Y26009500D01*
X37676600Y26009500D02*
X54201800Y9484300D01*
X54201800Y9484300D02*
X59054700Y9484300D01*
X59054700Y9484300D02*
X63459000Y5080000D01*
X38076900Y34132900D02*
X35416300Y36793500D01*
X35416300Y36793500D02*
X33645600Y36793500D01*
X38076900Y26182400D02*
X38076900Y34132900D01*
X54361100Y9898200D02*
X38076900Y26182400D01*
X63459000Y2894400D02*
X64609300Y4044700D01*
X63459000Y2535000D02*
X63459000Y2894400D01*
X64609300Y4044700D02*
X64609300Y6115700D01*
X64609300Y6115700D02*
X60826800Y9898200D01*
X60826800Y9898200D02*
X54361100Y9898200D01*
X36475800Y26078100D02*
X36475800Y31255700D01*
X57594200Y7492800D02*
X55061100Y7492800D01*
X60919000Y5080000D02*
X60007000Y5080000D01*
X55061100Y7492800D02*
X36475800Y26078100D01*
X60007000Y5080000D02*
X57594200Y7492800D01*
X60056300Y2535000D02*
X59545650Y2024350D01*
X60919000Y2535000D02*
X60056300Y2535000D01*
X59545650Y2024350D02*
X59768700Y2247400D01*
X31572700Y33112700D02*
X31572700Y35294100D01*
X36847200Y10959300D02*
X32573300Y15233200D01*
X36847200Y2082700D02*
X36847200Y10959300D01*
X32573300Y15233200D02*
X32573300Y21868800D01*
X37977000Y952900D02*
X36847200Y2082700D01*
X30852300Y23589800D02*
X30852300Y31697700D01*
X58474200Y952900D02*
X37977000Y952900D01*
X59545650Y2024350D02*
X58474200Y952900D01*
X32573300Y21868800D02*
X30852300Y23589800D01*
X30852300Y31697700D02*
X30852010Y31697990D01*
X30852010Y32392010D02*
X31572700Y33112700D01*
X30852010Y31697990D02*
X30852010Y32392010D01*
X34513100Y32098300D02*
X34513100Y32766900D01*
X35074900Y31536500D02*
X34513100Y32098300D01*
X43653800Y17201800D02*
X35074900Y25780700D01*
X58379000Y5080000D02*
X57467000Y5080000D01*
X35074900Y25780700D02*
X35074900Y31536500D01*
X55802700Y6744300D02*
X52856500Y6744300D01*
X57467000Y5080000D02*
X55802700Y6744300D01*
X52856500Y6744300D02*
X43653800Y15947000D01*
X43653800Y15947000D02*
X43653800Y17201800D01*
X30754800Y35253000D02*
X30452000Y34950200D01*
X30452000Y34950200D02*
X30452000Y23130900D01*
X30452000Y23130900D02*
X30868100Y22714800D01*
X30868100Y22714800D02*
X30868100Y15240000D01*
X30868100Y15240000D02*
X33967600Y12140500D01*
X33967600Y12140500D02*
X33967600Y8924800D01*
X33967600Y7922400D02*
X33967600Y8924800D01*
X34324200Y35768500D02*
X34412600Y35856900D01*
X34412600Y35856900D02*
X35210400Y35856900D01*
X35210400Y35856900D02*
X37076200Y33991100D01*
X37076200Y33991100D02*
X37076200Y26043800D01*
X37076200Y26043800D02*
X54236100Y8883900D01*
X54236100Y8883900D02*
X58769400Y8883900D01*
X58769400Y8883900D02*
X62087200Y5566100D01*
X62087200Y5566100D02*
X62087200Y4591800D01*
X62087200Y4591800D02*
X61398700Y3903300D01*
X61398700Y3903300D02*
X57015700Y3903300D01*
X57015700Y3903300D02*
X55839000Y5080000D01*
X33453900Y31936900D02*
X33453900Y25374600D01*
X33453900Y25374600D02*
X42452900Y16375600D01*
X42452900Y16375600D02*
X42452900Y10206300D01*
X42452900Y10206300D02*
X46949000Y5710200D01*
X46949000Y5710200D02*
X46949000Y4708600D01*
X46949000Y4708600D02*
X47728000Y3929600D01*
X47728000Y3929600D02*
X51019000Y3929600D01*
X51019000Y3929600D02*
X52029000Y2919600D01*
X52029000Y2919600D02*
X52029000Y2100600D01*
X52029000Y2100600D02*
X52776300Y1353300D01*
X52776300Y1353300D02*
X53745300Y1353300D01*
X54927000Y2535000D02*
X54631000Y2239000D01*
X55839000Y2535000D02*
X54927000Y2535000D01*
X53745300Y1353300D02*
X54631000Y2239000D01*
X54631000Y2239000D02*
X54688700Y2296700D01*
X34959600Y35252200D02*
X36360900Y33850900D01*
X36360900Y33850900D02*
X36360900Y31989700D01*
X36360900Y31989700D02*
X35875500Y31504300D01*
X35875500Y31504300D02*
X35875500Y26112300D01*
X35875500Y26112300D02*
X52781100Y9206700D01*
X52781100Y9206700D02*
X52781100Y7679500D01*
X34474500Y25815000D02*
X34474500Y31259500D01*
X53299000Y3446900D02*
X52029000Y4716900D01*
X52029000Y7005700D02*
X43253500Y15781200D01*
X53299000Y2535000D02*
X53299000Y3446900D01*
X52029000Y4716900D02*
X52029000Y7005700D01*
X43253500Y17036000D02*
X34474500Y25815000D01*
X43253500Y15781200D02*
X43253500Y17036000D01*
X35491200Y31969100D02*
X35475200Y31953100D01*
X35475200Y31953100D02*
X35475200Y25946500D01*
X35475200Y25946500D02*
X52103100Y9318600D01*
X52103100Y9318600D02*
X52103100Y8346600D01*
X49608700Y2535000D02*
X48458300Y1384600D01*
X48458300Y1384600D02*
X42641200Y1384600D01*
X42641200Y1384600D02*
X41869000Y2156800D01*
X41869000Y2156800D02*
X41869000Y2929200D01*
X41869000Y2929200D02*
X40868600Y3929600D01*
X40868600Y3929600D02*
X40069900Y3929600D01*
X40069900Y3929600D02*
X39329000Y4670500D01*
X39329000Y4670500D02*
X39329000Y9595700D01*
X39329000Y9595700D02*
X32973700Y15951000D01*
X32973700Y15951000D02*
X32973700Y22513700D01*
X32973700Y22513700D02*
X31452600Y24034800D01*
X31452600Y24034800D02*
X31452600Y31398700D01*
X50759000Y2535000D02*
X49608700Y2535000D01*
X35713800Y32769500D02*
X35116100Y33367200D01*
X35116100Y33367200D02*
X34204000Y33367200D01*
X34204000Y33367200D02*
X33894200Y33057400D01*
X33894200Y33057400D02*
X33894200Y32536900D01*
X33894200Y32536900D02*
X34072500Y32358600D01*
X34072500Y32358600D02*
X34072500Y31706400D01*
X34072500Y31706400D02*
X33874200Y31508100D01*
X33874200Y31508100D02*
X33874200Y25619800D01*
X33874200Y25619800D02*
X42853200Y16640800D01*
X42853200Y16640800D02*
X42853200Y11596100D01*
X42853200Y11596100D02*
X48219000Y6230300D01*
X48219000Y5080000D02*
X48219000Y6230300D01*
X40599000Y5080000D02*
X40599000Y8905700D01*
X40599000Y8905700D02*
X33386200Y16118500D01*
X33386200Y16118500D02*
X33386200Y22745800D01*
X33386200Y22745800D02*
X32053000Y24079000D01*
X32053000Y24079000D02*
X32053000Y32517100D01*
X32053000Y32517100D02*
X32173000Y32637100D01*
X32173000Y32637100D02*
X32173000Y36364900D01*
X32173000Y36364900D02*
X31960100Y36577800D01*
X31964300Y21026100D02*
X32127200Y20863200D01*
X32127200Y20863200D02*
X32127200Y15113100D01*
X32127200Y15113100D02*
X35541100Y11699200D01*
X35541100Y11699200D02*
X35541100Y6252400D01*
X35541100Y6252400D02*
X35519000Y6230300D01*
X35519000Y5080000D02*
X35519000Y6230300D01*
X30917200Y36088800D02*
X30704600Y36088800D01*
X30704600Y36088800D02*
X30051700Y35435900D01*
X30051700Y35435900D02*
X30051700Y22925700D01*
X30051700Y22925700D02*
X30467800Y22509600D01*
X30467800Y22509600D02*
X30467800Y15074200D01*
X30467800Y15074200D02*
X32979000Y12563000D01*
X32979000Y12563000D02*
X32979000Y6230300D01*
X32979000Y5080000D02*
X32979000Y6230300D01*
X20459800Y36969400D02*
X19909400Y36969400D01*
X18118500Y35178500D02*
X18118500Y33563600D01*
X19909400Y36969400D02*
X18118500Y35178500D01*
X4116100Y38920800D02*
X4936900Y38100000D01*
X4116100Y40316100D02*
X4116100Y38920800D01*
X3700900Y36978800D02*
X5074850Y35604850D01*
X3380000Y37299700D02*
X3700900Y36978800D01*
X3230000Y37449700D02*
X3380000Y37299700D01*
X3230000Y40330000D02*
X3230000Y37449700D01*
D17*
X14610000Y6740000D02*
X18200000Y6740000D01*
X9405000Y11945000D02*
X14610000Y6740000D01*
X6835000Y11945000D02*
X9405000Y11945000D01*
X2490000Y16290000D02*
X6835000Y11945000D01*
X2490000Y22285100D02*
X2490000Y16290000D01*
D18*
X30439000Y2535000D02*
X30439000Y5080000D01*
X38059000Y2535000D02*
X38059000Y5080000D01*
X44972150Y31552150D02*
X45827850Y31552150D01*
X43516800Y30096800D02*
X44972150Y31552150D01*
X43516800Y25328000D02*
X43516800Y30096800D01*
X54229999Y38710001D02*
X57249999Y38710001D01*
X52985701Y38710001D02*
X52782850Y38507150D01*
X54229999Y38710001D02*
X52985701Y38710001D01*
X45827850Y31552150D02*
X52782850Y38507150D01*
X52985701Y38710001D02*
X53570001Y38710001D01*
X54060000Y39200000D02*
X54060000Y40000000D01*
X53570001Y38710001D02*
X54060000Y39200000D01*
X6471700Y43052700D02*
X6471700Y46992100D01*
X12862300Y39381900D02*
X10142500Y39381900D01*
X10142500Y39381900D02*
X6471700Y43052700D01*
X15994200Y36250000D02*
X12862300Y39381900D01*
X66125000Y30474700D02*
X64109700Y32490000D01*
X64109700Y32490000D02*
X61690000Y32490000D01*
X61690000Y32490000D02*
X58245000Y35935000D01*
X57249999Y38710001D02*
X58245000Y37715000D01*
X58245000Y35935000D02*
X58245000Y37715000D01*
D19*
X8680300Y33349700D02*
X8711500Y33349700D01*
X4880000Y37150000D02*
X8680300Y33349700D01*
D20*
G36*
X13463172Y52179446D02*
G01*
X13218579Y51813386D01*
X13050100Y51406642D01*
X12964210Y50974845D01*
X12964210Y50534589D01*
X13050100Y50102792D01*
X13218579Y49696048D01*
X13463172Y49329988D01*
X13774481Y49018679D01*
X14140541Y48774086D01*
X14547285Y48605607D01*
X14979082Y48519717D01*
X15219471Y48519717D01*
X14514308Y47814554D01*
X14486262Y47791537D01*
X14394413Y47679619D01*
X14326163Y47551932D01*
X14307093Y47489067D01*
X14284135Y47413385D01*
X14269944Y47269300D01*
X14273500Y47233195D01*
X14273501Y44615400D01*
X11313451Y44615400D01*
X11173389Y44708986D01*
X11003229Y44779468D01*
X10822589Y44815400D01*
X10638411Y44815400D01*
X10457771Y44779468D01*
X10287611Y44708986D01*
X10134472Y44606662D01*
X10004238Y44476428D01*
X9901914Y44323289D01*
X9831432Y44153129D01*
X9795500Y43972489D01*
X9795500Y43805100D01*
X8000427Y43805100D01*
X7906262Y43946028D01*
X7776028Y44076262D01*
X7622889Y44178586D01*
X7452729Y44249068D01*
X7306700Y44278115D01*
X7306700Y46564696D01*
X7370768Y46719371D01*
X7406700Y46900011D01*
X7406700Y47084189D01*
X7370768Y47264829D01*
X7300286Y47434989D01*
X7197962Y47588128D01*
X7067728Y47718362D01*
X6914589Y47820686D01*
X6744429Y47891168D01*
X6563789Y47927100D01*
X6379611Y47927100D01*
X6198971Y47891168D01*
X6028811Y47820686D01*
X5875672Y47718362D01*
X5745438Y47588128D01*
X5643114Y47434989D01*
X5572632Y47264829D01*
X5536700Y47084189D01*
X5536700Y46900011D01*
X5572632Y46719371D01*
X5636701Y46564694D01*
X5636700Y43093719D01*
X5632660Y43052700D01*
X5645863Y42918647D01*
X5648782Y42889012D01*
X5696528Y42731614D01*
X5774064Y42586555D01*
X5878409Y42459409D01*
X5910279Y42433254D01*
X6013533Y42330000D01*
X6007000Y42330000D01*
X6007000Y41297000D01*
X6027000Y41297000D01*
X6027000Y41043000D01*
X6007000Y41043000D01*
X6007000Y41023000D01*
X5753000Y41023000D01*
X5753000Y41043000D01*
X5733000Y41043000D01*
X5733000Y41297000D01*
X5753000Y41297000D01*
X5753000Y42330000D01*
X5228000Y42330000D01*
X5004135Y42282934D01*
X4793754Y42193099D01*
X4604941Y42063947D01*
X4444953Y41900441D01*
X4319937Y41708864D01*
X4236036Y41475810D01*
X4361836Y41297002D01*
X4195000Y41297002D01*
X4195000Y41251100D01*
X4024011Y41251100D01*
X3843371Y41215168D01*
X3685854Y41149923D01*
X3672889Y41158586D01*
X3502729Y41229068D01*
X3335000Y41262432D01*
X3335000Y41297002D01*
X3167955Y41297002D01*
X3294119Y41471874D01*
X3214276Y41694976D01*
X3092369Y41882764D01*
X2936169Y42043161D01*
X2751678Y42170003D01*
X2545987Y42258415D01*
X2327000Y42305000D01*
X1827000Y42305000D01*
X1827000Y41297000D01*
X1847000Y41297000D01*
X1847000Y41043000D01*
X1827000Y41043000D01*
X1827000Y40035000D01*
X2327000Y40035000D01*
X2339091Y40037572D01*
X2401414Y39887111D01*
X2495000Y39747049D01*
X2495001Y37485815D01*
X2491444Y37449700D01*
X2505635Y37305615D01*
X2544761Y37176637D01*
X2547664Y37167067D01*
X2615914Y37039380D01*
X2707763Y36927462D01*
X2735808Y36904446D01*
X4142919Y35497335D01*
X4175782Y35332121D01*
X4246264Y35161961D01*
X4348588Y35008822D01*
X4478822Y34878588D01*
X4631961Y34776264D01*
X4762653Y34722130D01*
X4738036Y34705681D01*
X4604319Y34571964D01*
X4499259Y34414731D01*
X4426892Y34240022D01*
X4390000Y34054552D01*
X4390000Y33865448D01*
X4426892Y33679978D01*
X4499259Y33505269D01*
X4574431Y33392766D01*
X4444953Y33260441D01*
X4319937Y33068864D01*
X4236036Y32835810D01*
X4361837Y32657000D01*
X5753000Y32657000D01*
X5753000Y32677000D01*
X6007000Y32677000D01*
X6007000Y32657000D01*
X7398163Y32657000D01*
X7430526Y32703000D01*
X8035910Y32703000D01*
X8115472Y32623438D01*
X8268611Y32521114D01*
X8438771Y32450632D01*
X8619411Y32414700D01*
X8803589Y32414700D01*
X8984229Y32450632D01*
X9154389Y32521114D01*
X9307528Y32623438D01*
X9437762Y32753672D01*
X9540086Y32906811D01*
X9610568Y33076971D01*
X9646500Y33257611D01*
X9646500Y33441789D01*
X9610568Y33622429D01*
X9540086Y33792589D01*
X9437762Y33945728D01*
X9307528Y34075962D01*
X9154389Y34178286D01*
X8984229Y34248768D01*
X8803589Y34284700D01*
X8784747Y34284700D01*
X5811932Y37257514D01*
X5779068Y37422729D01*
X5774953Y37432663D01*
X5846262Y37503972D01*
X5948586Y37657111D01*
X6019068Y37827271D01*
X6055000Y38007911D01*
X6055000Y38192089D01*
X6019068Y38372729D01*
X5948586Y38542889D01*
X5846262Y38696028D01*
X5716028Y38826262D01*
X5691772Y38842470D01*
X5804731Y38889259D01*
X5961964Y38994319D01*
X6095681Y39128036D01*
X6200741Y39285269D01*
X6273108Y39459978D01*
X6310000Y39645448D01*
X6310000Y39834552D01*
X6275101Y40010000D01*
X6532000Y40010000D01*
X6755865Y40057066D01*
X6966246Y40146901D01*
X7155059Y40276053D01*
X7315047Y40439559D01*
X7440063Y40631136D01*
X7512152Y40831380D01*
X9249846Y39093686D01*
X9313914Y38939011D01*
X9416238Y38785872D01*
X9546472Y38655638D01*
X9699611Y38553314D01*
X9869771Y38482832D01*
X10050411Y38446900D01*
X10234589Y38446900D01*
X10415229Y38482832D01*
X10569904Y38546900D01*
X12516433Y38546900D01*
X15101546Y35961786D01*
X15165614Y35807111D01*
X15267938Y35653972D01*
X15398172Y35523738D01*
X15551311Y35421414D01*
X15721471Y35350932D01*
X15902111Y35315000D01*
X16086289Y35315000D01*
X16259600Y35349474D01*
X16259601Y27388515D01*
X16256044Y27352400D01*
X16270235Y27208315D01*
X16303093Y27100000D01*
X16312264Y27069767D01*
X16380514Y26942080D01*
X16472363Y26830162D01*
X16500408Y26807146D01*
X26450001Y16857552D01*
X26450000Y12826705D01*
X26446444Y12790600D01*
X26454803Y12705733D01*
X26460635Y12646516D01*
X26502663Y12507968D01*
X26570913Y12380281D01*
X26662762Y12268363D01*
X26690808Y12245346D01*
X31555001Y7381152D01*
X31555000Y6664447D01*
X31228812Y6338258D01*
X31142411Y6395990D01*
X30872158Y6507932D01*
X30585260Y6565000D01*
X30292740Y6565000D01*
X30005842Y6507932D01*
X29735589Y6395990D01*
X29492368Y6233475D01*
X29285525Y6026632D01*
X29169000Y5852240D01*
X29052475Y6026632D01*
X28845632Y6233475D01*
X28602411Y6395990D01*
X28332158Y6507932D01*
X28045260Y6565000D01*
X27752740Y6565000D01*
X27465842Y6507932D01*
X27195589Y6395990D01*
X26952368Y6233475D01*
X26745525Y6026632D01*
X26583010Y5783411D01*
X26471068Y5513158D01*
X26414000Y5226260D01*
X26414000Y4933740D01*
X26471068Y4646842D01*
X26583010Y4376589D01*
X26745525Y4133368D01*
X26952368Y3926525D01*
X27130502Y3807500D01*
X26952368Y3688475D01*
X26745525Y3481632D01*
X26583010Y3238411D01*
X26471068Y2968158D01*
X26414000Y2681260D01*
X26414000Y2388740D01*
X26471068Y2101842D01*
X26583010Y1831589D01*
X26745525Y1588368D01*
X26952368Y1381525D01*
X27195589Y1219010D01*
X27465842Y1107068D01*
X27752740Y1050000D01*
X28045260Y1050000D01*
X28332158Y1107068D01*
X28602411Y1219010D01*
X28845632Y1381525D01*
X29052475Y1588368D01*
X29169000Y1762760D01*
X29285525Y1588368D01*
X29492368Y1381525D01*
X29735589Y1219010D01*
X30005842Y1107068D01*
X30292740Y1050000D01*
X30585260Y1050000D01*
X30872158Y1107068D01*
X31142411Y1219010D01*
X31385632Y1381525D01*
X31592475Y1588368D01*
X31709000Y1762760D01*
X31825525Y1588368D01*
X32032368Y1381525D01*
X32275589Y1219010D01*
X32545842Y1107068D01*
X32832740Y1050000D01*
X33125260Y1050000D01*
X33412158Y1107068D01*
X33682411Y1219010D01*
X33925632Y1381525D01*
X33940680Y1396573D01*
X34607536Y729717D01*
X15250730Y729717D01*
X15353939Y798679D01*
X15665248Y1109988D01*
X15909841Y1476048D01*
X16078320Y1882792D01*
X16164210Y2314589D01*
X16164210Y2754845D01*
X16078320Y3186642D01*
X15909841Y3593386D01*
X15665248Y3959446D01*
X15353939Y4270755D01*
X14987879Y4515348D01*
X14581135Y4683827D01*
X14149338Y4769717D01*
X13709082Y4769717D01*
X13277285Y4683827D01*
X12870541Y4515348D01*
X12504481Y4270755D01*
X12193172Y3959446D01*
X11948579Y3593386D01*
X11780100Y3186642D01*
X11694210Y2754845D01*
X11694210Y2314589D01*
X11780100Y1882792D01*
X11948579Y1476048D01*
X12193172Y1109988D01*
X12504481Y798679D01*
X12607690Y729717D01*
X8909891Y729717D01*
X8809226Y830382D01*
X9104312Y962317D01*
X9275159Y1303045D01*
X9376250Y1670557D01*
X9403701Y2050729D01*
X9356457Y2428951D01*
X9236333Y2790690D01*
X9104312Y3037683D01*
X8809224Y3169619D01*
X7639605Y2000000D01*
X7653748Y1985857D01*
X7474143Y1806252D01*
X7460000Y1820395D01*
X7445858Y1806252D01*
X7266253Y1985857D01*
X7280395Y2000000D01*
X6110776Y3169619D01*
X5815688Y3037683D01*
X5644841Y2696955D01*
X5543750Y2329443D01*
X5516299Y1949271D01*
X5563543Y1571049D01*
X5683667Y1209310D01*
X5815688Y962317D01*
X6110774Y830382D01*
X6010109Y729717D01*
X1059005Y729717D01*
X931850Y750909D01*
X926895Y752711D01*
X761690Y917916D01*
X759888Y922871D01*
X738696Y1050027D01*
X738696Y3349224D01*
X6290381Y3349224D01*
X7460000Y2179605D01*
X8629619Y3349224D01*
X8497683Y3644312D01*
X8156955Y3815159D01*
X7789443Y3916250D01*
X7409271Y3943701D01*
X7031049Y3896457D01*
X6669310Y3776333D01*
X6422317Y3644312D01*
X6290381Y3349224D01*
X738696Y3349224D01*
X738696Y5350776D01*
X3290381Y5350776D01*
X3422317Y5055688D01*
X3763045Y4884841D01*
X4130557Y4783750D01*
X4510729Y4756299D01*
X4888951Y4803543D01*
X5250690Y4923667D01*
X5497683Y5055688D01*
X5629619Y5350776D01*
X4460000Y6520395D01*
X3290381Y5350776D01*
X738696Y5350776D01*
X738696Y6649271D01*
X2516299Y6649271D01*
X2563543Y6271049D01*
X2683667Y5909310D01*
X2815688Y5662317D01*
X3110776Y5530381D01*
X4280395Y6700000D01*
X4639605Y6700000D01*
X5809224Y5530381D01*
X6104312Y5662317D01*
X6275159Y6003045D01*
X6376250Y6370557D01*
X6403701Y6750729D01*
X6356457Y7128951D01*
X6236333Y7490690D01*
X6104312Y7737683D01*
X5809224Y7869619D01*
X4639605Y6700000D01*
X4280395Y6700000D01*
X3110776Y7869619D01*
X2815688Y7737683D01*
X2644841Y7396955D01*
X2543750Y7029443D01*
X2516299Y6649271D01*
X738696Y6649271D01*
X738696Y8049224D01*
X3290381Y8049224D01*
X4460000Y6879605D01*
X5629619Y8049224D01*
X5497683Y8344312D01*
X5156955Y8515159D01*
X4789443Y8616250D01*
X4409271Y8643701D01*
X4031049Y8596457D01*
X3669310Y8476333D01*
X3422317Y8344312D01*
X3290381Y8049224D01*
X738696Y8049224D01*
X738696Y16290000D01*
X1550476Y16290000D01*
X1568529Y16106709D01*
X1611709Y15964365D01*
X1621994Y15930460D01*
X1708815Y15768028D01*
X1825657Y15625656D01*
X1861336Y15596375D01*
X6141370Y11316341D01*
X6170656Y11280656D01*
X6313028Y11163814D01*
X6475460Y11076993D01*
X6635037Y11028586D01*
X6651708Y11023529D01*
X6835000Y11005476D01*
X6880932Y11010000D01*
X9017711Y11010000D01*
X11389639Y8638072D01*
X9160000Y8638072D01*
X9035518Y8625812D01*
X8915820Y8589502D01*
X8805506Y8530537D01*
X8708815Y8451185D01*
X8629463Y8354494D01*
X8570498Y8244180D01*
X8534188Y8124482D01*
X8521928Y8000000D01*
X8521928Y5400000D01*
X8534188Y5275518D01*
X8570498Y5155820D01*
X8629463Y5045506D01*
X8708815Y4948815D01*
X8805506Y4869463D01*
X8915820Y4810498D01*
X9035518Y4774188D01*
X9160000Y4761928D01*
X11760000Y4761928D01*
X11884482Y4774188D01*
X12004180Y4810498D01*
X12114494Y4869463D01*
X12211185Y4948815D01*
X12290537Y5045506D01*
X12349502Y5155820D01*
X12385812Y5275518D01*
X12398072Y5400000D01*
X12398072Y7629639D01*
X13916370Y6111341D01*
X13945656Y6075656D01*
X14088028Y5958814D01*
X14154873Y5923085D01*
X14250459Y5871993D01*
X14426708Y5818528D01*
X14610000Y5800476D01*
X14655935Y5805000D01*
X18292089Y5805000D01*
X18337359Y5814005D01*
X18383292Y5818529D01*
X18427462Y5831928D01*
X18472729Y5840932D01*
X18515369Y5858594D01*
X18559540Y5871993D01*
X18600248Y5893752D01*
X18642889Y5911414D01*
X18681264Y5937055D01*
X18721972Y5958814D01*
X18757653Y5988097D01*
X18796028Y6013738D01*
X18828665Y6046375D01*
X18864344Y6075656D01*
X18893625Y6111335D01*
X18926262Y6143972D01*
X18951903Y6182347D01*
X18981186Y6218028D01*
X19002945Y6258736D01*
X19028586Y6297111D01*
X19046248Y6339752D01*
X19068007Y6380460D01*
X19081406Y6424631D01*
X19099068Y6467271D01*
X19108072Y6512538D01*
X19121471Y6556708D01*
X19125995Y6602641D01*
X19135000Y6647911D01*
X19135000Y6694068D01*
X19139524Y6740000D01*
X19135000Y6785932D01*
X19135000Y6832089D01*
X19125995Y6877359D01*
X19121471Y6923292D01*
X19108072Y6967462D01*
X19099068Y7012729D01*
X19081406Y7055369D01*
X19068007Y7099540D01*
X19046248Y7140248D01*
X19028586Y7182889D01*
X19002945Y7221264D01*
X18981186Y7261972D01*
X18951903Y7297653D01*
X18926262Y7336028D01*
X18893624Y7368666D01*
X18864344Y7404344D01*
X18828665Y7433625D01*
X18796028Y7466262D01*
X18757653Y7491903D01*
X18721972Y7521186D01*
X18681264Y7542945D01*
X18642889Y7568586D01*
X18600248Y7586248D01*
X18559540Y7608007D01*
X18515369Y7621406D01*
X18472729Y7639068D01*
X18427462Y7648072D01*
X18383292Y7661471D01*
X18337359Y7665995D01*
X18292089Y7675000D01*
X14997289Y7675000D01*
X10098630Y12573659D01*
X10069344Y12609344D01*
X9926972Y12726186D01*
X9764540Y12813007D01*
X9588292Y12866471D01*
X9450932Y12880000D01*
X9405000Y12884524D01*
X9359068Y12880000D01*
X7222289Y12880000D01*
X3425000Y16677289D01*
X3425000Y22377189D01*
X3415995Y22422459D01*
X3411471Y22468392D01*
X3398072Y22512562D01*
X3389068Y22557829D01*
X3371406Y22600469D01*
X3358007Y22644640D01*
X3336248Y22685348D01*
X3318586Y22727989D01*
X3292945Y22766364D01*
X3271186Y22807072D01*
X3241903Y22842753D01*
X3216262Y22881128D01*
X3183625Y22913765D01*
X3154344Y22949444D01*
X3118666Y22978724D01*
X3086028Y23011362D01*
X3047649Y23037006D01*
X3011971Y23066286D01*
X2971268Y23088042D01*
X2932889Y23113686D01*
X2890243Y23131350D01*
X2849539Y23153107D01*
X2805372Y23166505D01*
X2762729Y23184168D01*
X2717459Y23193173D01*
X2673291Y23206571D01*
X2627360Y23211095D01*
X2582089Y23220100D01*
X2535932Y23220100D01*
X2490000Y23224624D01*
X2444068Y23220100D01*
X2397911Y23220100D01*
X2352641Y23211095D01*
X2306708Y23206571D01*
X2262538Y23193172D01*
X2217271Y23184168D01*
X2174631Y23166506D01*
X2130460Y23153107D01*
X2089752Y23131348D01*
X2047111Y23113686D01*
X2008736Y23088045D01*
X1968028Y23066286D01*
X1932347Y23037003D01*
X1893972Y23011362D01*
X1861335Y22978725D01*
X1825656Y22949444D01*
X1796376Y22913766D01*
X1763738Y22881128D01*
X1738094Y22842749D01*
X1708814Y22807071D01*
X1687058Y22766368D01*
X1661414Y22727989D01*
X1643750Y22685343D01*
X1621993Y22644639D01*
X1608595Y22600472D01*
X1590932Y22557829D01*
X1581927Y22512559D01*
X1568529Y22468391D01*
X1564005Y22422460D01*
X1555000Y22377189D01*
X1555000Y22331031D01*
X1555001Y16335942D01*
X1550476Y16290000D01*
X738696Y16290000D01*
X738696Y31491152D01*
X854013Y31441585D01*
X1073000Y31395000D01*
X1573000Y31395000D01*
X1573000Y32403000D01*
X1827000Y32403000D01*
X1827000Y31395000D01*
X2327000Y31395000D01*
X2545987Y31441585D01*
X2751678Y31529997D01*
X2936169Y31656839D01*
X3092369Y31817236D01*
X3214276Y32005024D01*
X3292710Y32224190D01*
X4236036Y32224190D01*
X4319937Y31991136D01*
X4444953Y31799559D01*
X4604941Y31636053D01*
X4793754Y31506901D01*
X5004135Y31417066D01*
X5228000Y31370000D01*
X5753000Y31370000D01*
X5753000Y32403000D01*
X6007000Y32403000D01*
X6007000Y31370000D01*
X6532000Y31370000D01*
X6755865Y31417066D01*
X6966246Y31506901D01*
X7155059Y31636053D01*
X7315047Y31799559D01*
X7440063Y31991136D01*
X7523964Y32224190D01*
X7398163Y32403000D01*
X6007000Y32403000D01*
X5753000Y32403000D01*
X4361837Y32403000D01*
X4236036Y32224190D01*
X3292710Y32224190D01*
X3294119Y32228126D01*
X3167954Y32403000D01*
X1827000Y32403000D01*
X1573000Y32403000D01*
X1553000Y32403000D01*
X1553000Y32657000D01*
X1573000Y32657000D01*
X1573000Y33665000D01*
X1827000Y33665000D01*
X1827000Y32657000D01*
X3167954Y32657000D01*
X3294119Y32831874D01*
X3214276Y33054976D01*
X3092369Y33242764D01*
X2936169Y33403161D01*
X2751678Y33530003D01*
X2545987Y33618415D01*
X2327000Y33665000D01*
X1827000Y33665000D01*
X1573000Y33665000D01*
X1073000Y33665000D01*
X854013Y33618415D01*
X738696Y33568848D01*
X738696Y40131152D01*
X854013Y40081585D01*
X1073000Y40035000D01*
X1573000Y40035000D01*
X1573000Y41043000D01*
X1553000Y41043000D01*
X1553000Y41297000D01*
X1573000Y41297000D01*
X1573000Y42305000D01*
X1073000Y42305000D01*
X854013Y42258415D01*
X738696Y42208848D01*
X738696Y52059090D01*
X1052606Y52373000D01*
X13656726Y52373000D01*
X13463172Y52179446D01*
G37*
X13463172Y52179446D02*
X13218579Y51813386D01*
X13050100Y51406642D01*
X12964210Y50974845D01*
X12964210Y50534589D01*
X13050100Y50102792D01*
X13218579Y49696048D01*
X13463172Y49329988D01*
X13774481Y49018679D01*
X14140541Y48774086D01*
X14547285Y48605607D01*
X14979082Y48519717D01*
X15219471Y48519717D01*
X14514308Y47814554D01*
X14486262Y47791537D01*
X14394413Y47679619D01*
X14326163Y47551932D01*
X14307093Y47489067D01*
X14284135Y47413385D01*
X14269944Y47269300D01*
X14273500Y47233195D01*
X14273501Y44615400D01*
X11313451Y44615400D01*
X11173389Y44708986D01*
X11003229Y44779468D01*
X10822589Y44815400D01*
X10638411Y44815400D01*
X10457771Y44779468D01*
X10287611Y44708986D01*
X10134472Y44606662D01*
X10004238Y44476428D01*
X9901914Y44323289D01*
X9831432Y44153129D01*
X9795500Y43972489D01*
X9795500Y43805100D01*
X8000427Y43805100D01*
X7906262Y43946028D01*
X7776028Y44076262D01*
X7622889Y44178586D01*
X7452729Y44249068D01*
X7306700Y44278115D01*
X7306700Y46564696D01*
X7370768Y46719371D01*
X7406700Y46900011D01*
X7406700Y47084189D01*
X7370768Y47264829D01*
X7300286Y47434989D01*
X7197962Y47588128D01*
X7067728Y47718362D01*
X6914589Y47820686D01*
X6744429Y47891168D01*
X6563789Y47927100D01*
X6379611Y47927100D01*
X6198971Y47891168D01*
X6028811Y47820686D01*
X5875672Y47718362D01*
X5745438Y47588128D01*
X5643114Y47434989D01*
X5572632Y47264829D01*
X5536700Y47084189D01*
X5536700Y46900011D01*
X5572632Y46719371D01*
X5636701Y46564694D01*
X5636700Y43093719D01*
X5632660Y43052700D01*
X5645863Y42918647D01*
X5648782Y42889012D01*
X5696528Y42731614D01*
X5774064Y42586555D01*
X5878409Y42459409D01*
X5910279Y42433254D01*
X6013533Y42330000D01*
X6007000Y42330000D01*
X6007000Y41297000D01*
X6027000Y41297000D01*
X6027000Y41043000D01*
X6007000Y41043000D01*
X6007000Y41023000D01*
X5753000Y41023000D01*
X5753000Y41043000D01*
X5733000Y41043000D01*
X5733000Y41297000D01*
X5753000Y41297000D01*
X5753000Y42330000D01*
X5228000Y42330000D01*
X5004135Y42282934D01*
X4793754Y42193099D01*
X4604941Y42063947D01*
X4444953Y41900441D01*
X4319937Y41708864D01*
X4236036Y41475810D01*
X4361836Y41297002D01*
X4195000Y41297002D01*
X4195000Y41251100D01*
X4024011Y41251100D01*
X3843371Y41215168D01*
X3685854Y41149923D01*
X3672889Y41158586D01*
X3502729Y41229068D01*
X3335000Y41262432D01*
X3335000Y41297002D01*
X3167955Y41297002D01*
X3294119Y41471874D01*
X3214276Y41694976D01*
X3092369Y41882764D01*
X2936169Y42043161D01*
X2751678Y42170003D01*
X2545987Y42258415D01*
X2327000Y42305000D01*
X1827000Y42305000D01*
X1827000Y41297000D01*
X1847000Y41297000D01*
X1847000Y41043000D01*
X1827000Y41043000D01*
X1827000Y40035000D01*
X2327000Y40035000D01*
X2339091Y40037572D01*
X2401414Y39887111D01*
X2495000Y39747049D01*
X2495001Y37485815D01*
X2491444Y37449700D01*
X2505635Y37305615D01*
X2544761Y37176637D01*
X2547664Y37167067D01*
X2615914Y37039380D01*
X2707763Y36927462D01*
X2735808Y36904446D01*
X4142919Y35497335D01*
X4175782Y35332121D01*
X4246264Y35161961D01*
X4348588Y35008822D01*
X4478822Y34878588D01*
X4631961Y34776264D01*
X4762653Y34722130D01*
X4738036Y34705681D01*
X4604319Y34571964D01*
X4499259Y34414731D01*
X4426892Y34240022D01*
X4390000Y34054552D01*
X4390000Y33865448D01*
X4426892Y33679978D01*
X4499259Y33505269D01*
X4574431Y33392766D01*
X4444953Y33260441D01*
X4319937Y33068864D01*
X4236036Y32835810D01*
X4361837Y32657000D01*
X5753000Y32657000D01*
X5753000Y32677000D01*
X6007000Y32677000D01*
X6007000Y32657000D01*
X7398163Y32657000D01*
X7430526Y32703000D01*
X8035910Y32703000D01*
X8115472Y32623438D01*
X8268611Y32521114D01*
X8438771Y32450632D01*
X8619411Y32414700D01*
X8803589Y32414700D01*
X8984229Y32450632D01*
X9154389Y32521114D01*
X9307528Y32623438D01*
X9437762Y32753672D01*
X9540086Y32906811D01*
X9610568Y33076971D01*
X9646500Y33257611D01*
X9646500Y33441789D01*
X9610568Y33622429D01*
X9540086Y33792589D01*
X9437762Y33945728D01*
X9307528Y34075962D01*
X9154389Y34178286D01*
X8984229Y34248768D01*
X8803589Y34284700D01*
X8784747Y34284700D01*
X5811932Y37257514D01*
X5779068Y37422729D01*
X5774953Y37432663D01*
X5846262Y37503972D01*
X5948586Y37657111D01*
X6019068Y37827271D01*
X6055000Y38007911D01*
X6055000Y38192089D01*
X6019068Y38372729D01*
X5948586Y38542889D01*
X5846262Y38696028D01*
X5716028Y38826262D01*
X5691772Y38842470D01*
X5804731Y38889259D01*
X5961964Y38994319D01*
X6095681Y39128036D01*
X6200741Y39285269D01*
X6273108Y39459978D01*
X6310000Y39645448D01*
X6310000Y39834552D01*
X6275101Y40010000D01*
X6532000Y40010000D01*
X6755865Y40057066D01*
X6966246Y40146901D01*
X7155059Y40276053D01*
X7315047Y40439559D01*
X7440063Y40631136D01*
X7512152Y40831380D01*
X9249846Y39093686D01*
X9313914Y38939011D01*
X9416238Y38785872D01*
X9546472Y38655638D01*
X9699611Y38553314D01*
X9869771Y38482832D01*
X10050411Y38446900D01*
X10234589Y38446900D01*
X10415229Y38482832D01*
X10569904Y38546900D01*
X12516433Y38546900D01*
X15101546Y35961786D01*
X15165614Y35807111D01*
X15267938Y35653972D01*
X15398172Y35523738D01*
X15551311Y35421414D01*
X15721471Y35350932D01*
X15902111Y35315000D01*
X16086289Y35315000D01*
X16259600Y35349474D01*
X16259601Y27388515D01*
X16256044Y27352400D01*
X16270235Y27208315D01*
X16303093Y27100000D01*
X16312264Y27069767D01*
X16380514Y26942080D01*
X16472363Y26830162D01*
X16500408Y26807146D01*
X26450001Y16857552D01*
X26450000Y12826705D01*
X26446444Y12790600D01*
X26454803Y12705733D01*
X26460635Y12646516D01*
X26502663Y12507968D01*
X26570913Y12380281D01*
X26662762Y12268363D01*
X26690808Y12245346D01*
X31555001Y7381152D01*
X31555000Y6664447D01*
X31228812Y6338258D01*
X31142411Y6395990D01*
X30872158Y6507932D01*
X30585260Y6565000D01*
X30292740Y6565000D01*
X30005842Y6507932D01*
X29735589Y6395990D01*
X29492368Y6233475D01*
X29285525Y6026632D01*
X29169000Y5852240D01*
X29052475Y6026632D01*
X28845632Y6233475D01*
X28602411Y6395990D01*
X28332158Y6507932D01*
X28045260Y6565000D01*
X27752740Y6565000D01*
X27465842Y6507932D01*
X27195589Y6395990D01*
X26952368Y6233475D01*
X26745525Y6026632D01*
X26583010Y5783411D01*
X26471068Y5513158D01*
X26414000Y5226260D01*
X26414000Y4933740D01*
X26471068Y4646842D01*
X26583010Y4376589D01*
X26745525Y4133368D01*
X26952368Y3926525D01*
X27130502Y3807500D01*
X26952368Y3688475D01*
X26745525Y3481632D01*
X26583010Y3238411D01*
X26471068Y2968158D01*
X26414000Y2681260D01*
X26414000Y2388740D01*
X26471068Y2101842D01*
X26583010Y1831589D01*
X26745525Y1588368D01*
X26952368Y1381525D01*
X27195589Y1219010D01*
X27465842Y1107068D01*
X27752740Y1050000D01*
X28045260Y1050000D01*
X28332158Y1107068D01*
X28602411Y1219010D01*
X28845632Y1381525D01*
X29052475Y1588368D01*
X29169000Y1762760D01*
X29285525Y1588368D01*
X29492368Y1381525D01*
X29735589Y1219010D01*
X30005842Y1107068D01*
X30292740Y1050000D01*
X30585260Y1050000D01*
X30872158Y1107068D01*
X31142411Y1219010D01*
X31385632Y1381525D01*
X31592475Y1588368D01*
X31709000Y1762760D01*
X31825525Y1588368D01*
X32032368Y1381525D01*
X32275589Y1219010D01*
X32545842Y1107068D01*
X32832740Y1050000D01*
X33125260Y1050000D01*
X33412158Y1107068D01*
X33682411Y1219010D01*
X33925632Y1381525D01*
X33940680Y1396573D01*
X34607536Y729717D01*
X15250730Y729717D01*
X15353939Y798679D01*
X15665248Y1109988D01*
X15909841Y1476048D01*
X16078320Y1882792D01*
X16164210Y2314589D01*
X16164210Y2754845D01*
X16078320Y3186642D01*
X15909841Y3593386D01*
X15665248Y3959446D01*
X15353939Y4270755D01*
X14987879Y4515348D01*
X14581135Y4683827D01*
X14149338Y4769717D01*
X13709082Y4769717D01*
X13277285Y4683827D01*
X12870541Y4515348D01*
X12504481Y4270755D01*
X12193172Y3959446D01*
X11948579Y3593386D01*
X11780100Y3186642D01*
X11694210Y2754845D01*
X11694210Y2314589D01*
X11780100Y1882792D01*
X11948579Y1476048D01*
X12193172Y1109988D01*
X12504481Y798679D01*
X12607690Y729717D01*
X8909891Y729717D01*
X8809226Y830382D01*
X9104312Y962317D01*
X9275159Y1303045D01*
X9376250Y1670557D01*
X9403701Y2050729D01*
X9356457Y2428951D01*
X9236333Y2790690D01*
X9104312Y3037683D01*
X8809224Y3169619D01*
X7639605Y2000000D01*
X7653748Y1985857D01*
X7474143Y1806252D01*
X7460000Y1820395D01*
X7445858Y1806252D01*
X7266253Y1985857D01*
X7280395Y2000000D01*
X6110776Y3169619D01*
X5815688Y3037683D01*
X5644841Y2696955D01*
X5543750Y2329443D01*
X5516299Y1949271D01*
X5563543Y1571049D01*
X5683667Y1209310D01*
X5815688Y962317D01*
X6110774Y830382D01*
X6010109Y729717D01*
X1059005Y729717D01*
X931850Y750909D01*
X926895Y752711D01*
X761690Y917916D01*
X759888Y922871D01*
X738696Y1050027D01*
X738696Y3349224D01*
X6290381Y3349224D01*
X7460000Y2179605D01*
X8629619Y3349224D01*
X8497683Y3644312D01*
X8156955Y3815159D01*
X7789443Y3916250D01*
X7409271Y3943701D01*
X7031049Y3896457D01*
X6669310Y3776333D01*
X6422317Y3644312D01*
X6290381Y3349224D01*
X738696Y3349224D01*
X738696Y5350776D01*
X3290381Y5350776D01*
X3422317Y5055688D01*
X3763045Y4884841D01*
X4130557Y4783750D01*
X4510729Y4756299D01*
X4888951Y4803543D01*
X5250690Y4923667D01*
X5497683Y5055688D01*
X5629619Y5350776D01*
X4460000Y6520395D01*
X3290381Y5350776D01*
X738696Y5350776D01*
X738696Y6649271D01*
X2516299Y6649271D01*
X2563543Y6271049D01*
X2683667Y5909310D01*
X2815688Y5662317D01*
X3110776Y5530381D01*
X4280395Y6700000D01*
X4639605Y6700000D01*
X5809224Y5530381D01*
X6104312Y5662317D01*
X6275159Y6003045D01*
X6376250Y6370557D01*
X6403701Y6750729D01*
X6356457Y7128951D01*
X6236333Y7490690D01*
X6104312Y7737683D01*
X5809224Y7869619D01*
X4639605Y6700000D01*
X4280395Y6700000D01*
X3110776Y7869619D01*
X2815688Y7737683D01*
X2644841Y7396955D01*
X2543750Y7029443D01*
X2516299Y6649271D01*
X738696Y6649271D01*
X738696Y8049224D01*
X3290381Y8049224D01*
X4460000Y6879605D01*
X5629619Y8049224D01*
X5497683Y8344312D01*
X5156955Y8515159D01*
X4789443Y8616250D01*
X4409271Y8643701D01*
X4031049Y8596457D01*
X3669310Y8476333D01*
X3422317Y8344312D01*
X3290381Y8049224D01*
X738696Y8049224D01*
X738696Y16290000D01*
X1550476Y16290000D01*
X1568529Y16106709D01*
X1611709Y15964365D01*
X1621994Y15930460D01*
X1708815Y15768028D01*
X1825657Y15625656D01*
X1861336Y15596375D01*
X6141370Y11316341D01*
X6170656Y11280656D01*
X6313028Y11163814D01*
X6475460Y11076993D01*
X6635037Y11028586D01*
X6651708Y11023529D01*
X6835000Y11005476D01*
X6880932Y11010000D01*
X9017711Y11010000D01*
X11389639Y8638072D01*
X9160000Y8638072D01*
X9035518Y8625812D01*
X8915820Y8589502D01*
X8805506Y8530537D01*
X8708815Y8451185D01*
X8629463Y8354494D01*
X8570498Y8244180D01*
X8534188Y8124482D01*
X8521928Y8000000D01*
X8521928Y5400000D01*
X8534188Y5275518D01*
X8570498Y5155820D01*
X8629463Y5045506D01*
X8708815Y4948815D01*
X8805506Y4869463D01*
X8915820Y4810498D01*
X9035518Y4774188D01*
X9160000Y4761928D01*
X11760000Y4761928D01*
X11884482Y4774188D01*
X12004180Y4810498D01*
X12114494Y4869463D01*
X12211185Y4948815D01*
X12290537Y5045506D01*
X12349502Y5155820D01*
X12385812Y5275518D01*
X12398072Y5400000D01*
X12398072Y7629639D01*
X13916370Y6111341D01*
X13945656Y6075656D01*
X14088028Y5958814D01*
X14154873Y5923085D01*
X14250459Y5871993D01*
X14426708Y5818528D01*
X14610000Y5800476D01*
X14655935Y5805000D01*
X18292089Y5805000D01*
X18337359Y5814005D01*
X18383292Y5818529D01*
X18427462Y5831928D01*
X18472729Y5840932D01*
X18515369Y5858594D01*
X18559540Y5871993D01*
X18600248Y5893752D01*
X18642889Y5911414D01*
X18681264Y5937055D01*
X18721972Y5958814D01*
X18757653Y5988097D01*
X18796028Y6013738D01*
X18828665Y6046375D01*
X18864344Y6075656D01*
X18893625Y6111335D01*
X18926262Y6143972D01*
X18951903Y6182347D01*
X18981186Y6218028D01*
X19002945Y6258736D01*
X19028586Y6297111D01*
X19046248Y6339752D01*
X19068007Y6380460D01*
X19081406Y6424631D01*
X19099068Y6467271D01*
X19108072Y6512538D01*
X19121471Y6556708D01*
X19125995Y6602641D01*
X19135000Y6647911D01*
X19135000Y6694068D01*
X19139524Y6740000D01*
X19135000Y6785932D01*
X19135000Y6832089D01*
X19125995Y6877359D01*
X19121471Y6923292D01*
X19108072Y6967462D01*
X19099068Y7012729D01*
X19081406Y7055369D01*
X19068007Y7099540D01*
X19046248Y7140248D01*
X19028586Y7182889D01*
X19002945Y7221264D01*
X18981186Y7261972D01*
X18951903Y7297653D01*
X18926262Y7336028D01*
X18893624Y7368666D01*
X18864344Y7404344D01*
X18828665Y7433625D01*
X18796028Y7466262D01*
X18757653Y7491903D01*
X18721972Y7521186D01*
X18681264Y7542945D01*
X18642889Y7568586D01*
X18600248Y7586248D01*
X18559540Y7608007D01*
X18515369Y7621406D01*
X18472729Y7639068D01*
X18427462Y7648072D01*
X18383292Y7661471D01*
X18337359Y7665995D01*
X18292089Y7675000D01*
X14997289Y7675000D01*
X10098630Y12573659D01*
X10069344Y12609344D01*
X9926972Y12726186D01*
X9764540Y12813007D01*
X9588292Y12866471D01*
X9450932Y12880000D01*
X9405000Y12884524D01*
X9359068Y12880000D01*
X7222289Y12880000D01*
X3425000Y16677289D01*
X3425000Y22377189D01*
X3415995Y22422459D01*
X3411471Y22468392D01*
X3398072Y22512562D01*
X3389068Y22557829D01*
X3371406Y22600469D01*
X3358007Y22644640D01*
X3336248Y22685348D01*
X3318586Y22727989D01*
X3292945Y22766364D01*
X3271186Y22807072D01*
X3241903Y22842753D01*
X3216262Y22881128D01*
X3183625Y22913765D01*
X3154344Y22949444D01*
X3118666Y22978724D01*
X3086028Y23011362D01*
X3047649Y23037006D01*
X3011971Y23066286D01*
X2971268Y23088042D01*
X2932889Y23113686D01*
X2890243Y23131350D01*
X2849539Y23153107D01*
X2805372Y23166505D01*
X2762729Y23184168D01*
X2717459Y23193173D01*
X2673291Y23206571D01*
X2627360Y23211095D01*
X2582089Y23220100D01*
X2535932Y23220100D01*
X2490000Y23224624D01*
X2444068Y23220100D01*
X2397911Y23220100D01*
X2352641Y23211095D01*
X2306708Y23206571D01*
X2262538Y23193172D01*
X2217271Y23184168D01*
X2174631Y23166506D01*
X2130460Y23153107D01*
X2089752Y23131348D01*
X2047111Y23113686D01*
X2008736Y23088045D01*
X1968028Y23066286D01*
X1932347Y23037003D01*
X1893972Y23011362D01*
X1861335Y22978725D01*
X1825656Y22949444D01*
X1796376Y22913766D01*
X1763738Y22881128D01*
X1738094Y22842749D01*
X1708814Y22807071D01*
X1687058Y22766368D01*
X1661414Y22727989D01*
X1643750Y22685343D01*
X1621993Y22644639D01*
X1608595Y22600472D01*
X1590932Y22557829D01*
X1581927Y22512559D01*
X1568529Y22468391D01*
X1564005Y22422460D01*
X1555000Y22377189D01*
X1555000Y22331031D01*
X1555001Y16335942D01*
X1550476Y16290000D01*
X738696Y16290000D01*
X738696Y31491152D01*
X854013Y31441585D01*
X1073000Y31395000D01*
X1573000Y31395000D01*
X1573000Y32403000D01*
X1827000Y32403000D01*
X1827000Y31395000D01*
X2327000Y31395000D01*
X2545987Y31441585D01*
X2751678Y31529997D01*
X2936169Y31656839D01*
X3092369Y31817236D01*
X3214276Y32005024D01*
X3292710Y32224190D01*
X4236036Y32224190D01*
X4319937Y31991136D01*
X4444953Y31799559D01*
X4604941Y31636053D01*
X4793754Y31506901D01*
X5004135Y31417066D01*
X5228000Y31370000D01*
X5753000Y31370000D01*
X5753000Y32403000D01*
X6007000Y32403000D01*
X6007000Y31370000D01*
X6532000Y31370000D01*
X6755865Y31417066D01*
X6966246Y31506901D01*
X7155059Y31636053D01*
X7315047Y31799559D01*
X7440063Y31991136D01*
X7523964Y32224190D01*
X7398163Y32403000D01*
X6007000Y32403000D01*
X5753000Y32403000D01*
X4361837Y32403000D01*
X4236036Y32224190D01*
X3292710Y32224190D01*
X3294119Y32228126D01*
X3167954Y32403000D01*
X1827000Y32403000D01*
X1573000Y32403000D01*
X1553000Y32403000D01*
X1553000Y32657000D01*
X1573000Y32657000D01*
X1573000Y33665000D01*
X1827000Y33665000D01*
X1827000Y32657000D01*
X3167954Y32657000D01*
X3294119Y32831874D01*
X3214276Y33054976D01*
X3092369Y33242764D01*
X2936169Y33403161D01*
X2751678Y33530003D01*
X2545987Y33618415D01*
X2327000Y33665000D01*
X1827000Y33665000D01*
X1573000Y33665000D01*
X1073000Y33665000D01*
X854013Y33618415D01*
X738696Y33568848D01*
X738696Y40131152D01*
X854013Y40081585D01*
X1073000Y40035000D01*
X1573000Y40035000D01*
X1573000Y41043000D01*
X1553000Y41043000D01*
X1553000Y41297000D01*
X1573000Y41297000D01*
X1573000Y42305000D01*
X1073000Y42305000D01*
X854013Y42258415D01*
X738696Y42208848D01*
X738696Y52059090D01*
X1052606Y52373000D01*
X13656726Y52373000D01*
X13463172Y52179446D01*
G36*
X41717901Y10242415D02*
G01*
X41714344Y10206300D01*
X41728535Y10062215D01*
X41759104Y9961444D01*
X41770564Y9923667D01*
X41838814Y9795980D01*
X41930663Y9684062D01*
X41958708Y9661046D01*
X45151075Y6468678D01*
X44975589Y6395990D01*
X44732368Y6233475D01*
X44525525Y6026632D01*
X44403805Y5844466D01*
X44334178Y5961355D01*
X44139269Y6177588D01*
X43905920Y6351641D01*
X43643099Y6476825D01*
X43495890Y6521476D01*
X43266000Y6400155D01*
X43266000Y5207000D01*
X43286000Y5207000D01*
X43286000Y4953000D01*
X43266000Y4953000D01*
X43266000Y2662000D01*
X43286000Y2662000D01*
X43286000Y2408000D01*
X43266000Y2408000D01*
X43266000Y2388000D01*
X43012000Y2388000D01*
X43012000Y2408000D01*
X42992000Y2408000D01*
X42992000Y2662000D01*
X43012000Y2662000D01*
X43012000Y4953000D01*
X42992000Y4953000D01*
X42992000Y5207000D01*
X43012000Y5207000D01*
X43012000Y6400155D01*
X42782110Y6521476D01*
X42634901Y6476825D01*
X42372080Y6351641D01*
X42138731Y6177588D01*
X41943822Y5961355D01*
X41874195Y5844466D01*
X41752475Y6026632D01*
X41545632Y6233475D01*
X41334000Y6374883D01*
X41334000Y8869595D01*
X41337556Y8905700D01*
X41323365Y9049785D01*
X41281337Y9188334D01*
X41213087Y9316020D01*
X41144253Y9399894D01*
X41121238Y9427938D01*
X41093193Y9450954D01*
X37233946Y13310200D01*
X38209095Y13310200D01*
X38245200Y13306644D01*
X38281305Y13310200D01*
X38389285Y13320835D01*
X38527833Y13362863D01*
X38655520Y13431113D01*
X38696811Y13465000D01*
X38717049Y13465000D01*
X38857111Y13371414D01*
X39027271Y13300932D01*
X39207911Y13265000D01*
X39392089Y13265000D01*
X39572729Y13300932D01*
X39742889Y13371414D01*
X39896028Y13473738D01*
X40026262Y13603972D01*
X40128586Y13757111D01*
X40199068Y13927271D01*
X40235000Y14107911D01*
X40235000Y14161000D01*
X40492916Y14161000D01*
X40507711Y14151114D01*
X40677871Y14080632D01*
X40858511Y14044700D01*
X41042689Y14044700D01*
X41223329Y14080632D01*
X41393489Y14151114D01*
X41546628Y14253438D01*
X41676862Y14383672D01*
X41717900Y14445090D01*
X41717901Y10242415D01*
G37*
X41717901Y10242415D02*
X41714344Y10206300D01*
X41728535Y10062215D01*
X41759104Y9961444D01*
X41770564Y9923667D01*
X41838814Y9795980D01*
X41930663Y9684062D01*
X41958708Y9661046D01*
X45151075Y6468678D01*
X44975589Y6395990D01*
X44732368Y6233475D01*
X44525525Y6026632D01*
X44403805Y5844466D01*
X44334178Y5961355D01*
X44139269Y6177588D01*
X43905920Y6351641D01*
X43643099Y6476825D01*
X43495890Y6521476D01*
X43266000Y6400155D01*
X43266000Y5207000D01*
X43286000Y5207000D01*
X43286000Y4953000D01*
X43266000Y4953000D01*
X43266000Y2662000D01*
X43286000Y2662000D01*
X43286000Y2408000D01*
X43266000Y2408000D01*
X43266000Y2388000D01*
X43012000Y2388000D01*
X43012000Y2408000D01*
X42992000Y2408000D01*
X42992000Y2662000D01*
X43012000Y2662000D01*
X43012000Y4953000D01*
X42992000Y4953000D01*
X42992000Y5207000D01*
X43012000Y5207000D01*
X43012000Y6400155D01*
X42782110Y6521476D01*
X42634901Y6476825D01*
X42372080Y6351641D01*
X42138731Y6177588D01*
X41943822Y5961355D01*
X41874195Y5844466D01*
X41752475Y6026632D01*
X41545632Y6233475D01*
X41334000Y6374883D01*
X41334000Y8869595D01*
X41337556Y8905700D01*
X41323365Y9049785D01*
X41281337Y9188334D01*
X41213087Y9316020D01*
X41144253Y9399894D01*
X41121238Y9427938D01*
X41093193Y9450954D01*
X37233946Y13310200D01*
X38209095Y13310200D01*
X38245200Y13306644D01*
X38281305Y13310200D01*
X38389285Y13320835D01*
X38527833Y13362863D01*
X38655520Y13431113D01*
X38696811Y13465000D01*
X38717049Y13465000D01*
X38857111Y13371414D01*
X39027271Y13300932D01*
X39207911Y13265000D01*
X39392089Y13265000D01*
X39572729Y13300932D01*
X39742889Y13371414D01*
X39896028Y13473738D01*
X40026262Y13603972D01*
X40128586Y13757111D01*
X40199068Y13927271D01*
X40235000Y14107911D01*
X40235000Y14161000D01*
X40492916Y14161000D01*
X40507711Y14151114D01*
X40677871Y14080632D01*
X40858511Y14044700D01*
X41042689Y14044700D01*
X41223329Y14080632D01*
X41393489Y14151114D01*
X41546628Y14253438D01*
X41676862Y14383672D01*
X41717900Y14445090D01*
X41717901Y10242415D01*
G36*
X40726000Y2662000D02*
G01*
X40746000Y2662000D01*
X40746000Y2408000D01*
X40726000Y2408000D01*
X40726000Y2388000D01*
X40472000Y2388000D01*
X40472000Y2408000D01*
X40452000Y2408000D01*
X40452000Y2662000D01*
X40472000Y2662000D01*
X40472000Y2682000D01*
X40726000Y2682000D01*
X40726000Y2662000D01*
G37*
X40726000Y2662000D02*
X40746000Y2662000D01*
X40746000Y2408000D01*
X40726000Y2408000D01*
X40726000Y2388000D01*
X40472000Y2388000D01*
X40472000Y2408000D01*
X40452000Y2408000D01*
X40452000Y2662000D01*
X40472000Y2662000D01*
X40472000Y2682000D01*
X40726000Y2682000D01*
X40726000Y2662000D01*
G36*
X62970913Y23834081D02*
G01*
X63062762Y23722163D01*
X63090808Y23699146D01*
X67194701Y19595252D01*
X67194700Y9503610D01*
X67056981Y9595631D01*
X66650237Y9764110D01*
X66218440Y9850000D01*
X65778184Y9850000D01*
X65346387Y9764110D01*
X64939643Y9595631D01*
X64573583Y9351038D01*
X64262274Y9039729D01*
X64017681Y8673669D01*
X63849202Y8266925D01*
X63790854Y7973592D01*
X61372059Y10392387D01*
X61349038Y10420438D01*
X61237120Y10512287D01*
X61109433Y10580537D01*
X60970885Y10622565D01*
X60862905Y10633200D01*
X60826800Y10636756D01*
X60790695Y10633200D01*
X56998277Y10633200D01*
X57231252Y10715843D01*
X57481355Y10864822D01*
X57697588Y11059731D01*
X57871641Y11293080D01*
X57996825Y11555901D01*
X58041476Y11703110D01*
X57920155Y11933000D01*
X56727000Y11933000D01*
X56727000Y11913000D01*
X56473000Y11913000D01*
X56473000Y11933000D01*
X54187000Y11933000D01*
X54187000Y11913000D01*
X53933000Y11913000D01*
X53933000Y11933000D01*
X53913000Y11933000D01*
X53913000Y12187000D01*
X53933000Y12187000D01*
X53933000Y12207000D01*
X54187000Y12207000D01*
X54187000Y12187000D01*
X56473000Y12187000D01*
X56473000Y12207000D01*
X56727000Y12207000D01*
X56727000Y12187000D01*
X57920155Y12187000D01*
X58041476Y12416890D01*
X57996825Y12564099D01*
X57871641Y12826920D01*
X57697588Y13060269D01*
X57481355Y13255178D01*
X57364466Y13324805D01*
X57546632Y13446525D01*
X57753475Y13653368D01*
X57915990Y13896589D01*
X58027932Y14166842D01*
X58085000Y14453740D01*
X58085000Y14746260D01*
X58027932Y15033158D01*
X57915990Y15303411D01*
X57753475Y15546632D01*
X57731777Y15568330D01*
X62689593Y20526146D01*
X62717638Y20549162D01*
X62809487Y20661080D01*
X62877737Y20788767D01*
X62919765Y20927315D01*
X62930400Y21035295D01*
X62933956Y21071400D01*
X62930400Y21107505D01*
X62930400Y23909876D01*
X62970913Y23834081D01*
G37*
X62970913Y23834081D02*
X63062762Y23722163D01*
X63090808Y23699146D01*
X67194701Y19595252D01*
X67194700Y9503610D01*
X67056981Y9595631D01*
X66650237Y9764110D01*
X66218440Y9850000D01*
X65778184Y9850000D01*
X65346387Y9764110D01*
X64939643Y9595631D01*
X64573583Y9351038D01*
X64262274Y9039729D01*
X64017681Y8673669D01*
X63849202Y8266925D01*
X63790854Y7973592D01*
X61372059Y10392387D01*
X61349038Y10420438D01*
X61237120Y10512287D01*
X61109433Y10580537D01*
X60970885Y10622565D01*
X60862905Y10633200D01*
X60826800Y10636756D01*
X60790695Y10633200D01*
X56998277Y10633200D01*
X57231252Y10715843D01*
X57481355Y10864822D01*
X57697588Y11059731D01*
X57871641Y11293080D01*
X57996825Y11555901D01*
X58041476Y11703110D01*
X57920155Y11933000D01*
X56727000Y11933000D01*
X56727000Y11913000D01*
X56473000Y11913000D01*
X56473000Y11933000D01*
X54187000Y11933000D01*
X54187000Y11913000D01*
X53933000Y11913000D01*
X53933000Y11933000D01*
X53913000Y11933000D01*
X53913000Y12187000D01*
X53933000Y12187000D01*
X53933000Y12207000D01*
X54187000Y12207000D01*
X54187000Y12187000D01*
X56473000Y12187000D01*
X56473000Y12207000D01*
X56727000Y12207000D01*
X56727000Y12187000D01*
X57920155Y12187000D01*
X58041476Y12416890D01*
X57996825Y12564099D01*
X57871641Y12826920D01*
X57697588Y13060269D01*
X57481355Y13255178D01*
X57364466Y13324805D01*
X57546632Y13446525D01*
X57753475Y13653368D01*
X57915990Y13896589D01*
X58027932Y14166842D01*
X58085000Y14453740D01*
X58085000Y14746260D01*
X58027932Y15033158D01*
X57915990Y15303411D01*
X57753475Y15546632D01*
X57731777Y15568330D01*
X62689593Y20526146D01*
X62717638Y20549162D01*
X62809487Y20661080D01*
X62877737Y20788767D01*
X62919765Y20927315D01*
X62930400Y21035295D01*
X62933956Y21071400D01*
X62930400Y21107505D01*
X62930400Y23909876D01*
X62970913Y23834081D01*
G36*
X65264210Y51466808D02*
G01*
X65264211Y40381407D01*
X65260654Y40345292D01*
X65274845Y40201207D01*
X65307752Y40092729D01*
X65316874Y40062659D01*
X65385124Y39934972D01*
X65476973Y39823054D01*
X65505018Y39800038D01*
X67803312Y37501743D01*
X67803312Y36876237D01*
X67734350Y36979446D01*
X67423041Y37290755D01*
X67056981Y37535348D01*
X66650237Y37703827D01*
X66218440Y37789717D01*
X65778184Y37789717D01*
X65346387Y37703827D01*
X64939643Y37535348D01*
X64573583Y37290755D01*
X64262274Y36979446D01*
X64017681Y36613386D01*
X63849202Y36206642D01*
X63763312Y35774845D01*
X63763312Y35334589D01*
X63849202Y34902792D01*
X64017681Y34496048D01*
X64262274Y34129988D01*
X64573583Y33818679D01*
X64939643Y33574086D01*
X65346387Y33405607D01*
X65778184Y33319717D01*
X66218440Y33319717D01*
X66650237Y33405607D01*
X67056981Y33574086D01*
X67423041Y33818679D01*
X67734350Y34129988D01*
X67803312Y34233197D01*
X67803313Y21065534D01*
X64579627Y24289220D01*
X64738475Y24448068D01*
X64856100Y24624106D01*
X65027412Y24394431D01*
X65243645Y24199522D01*
X65493748Y24050543D01*
X65768109Y23953219D01*
X65998000Y24073886D01*
X65998000Y25267700D01*
X66252000Y25267700D01*
X66252000Y24073886D01*
X66481891Y23953219D01*
X66756252Y24050543D01*
X67006355Y24199522D01*
X67222588Y24394431D01*
X67396641Y24627780D01*
X67521825Y24890601D01*
X67566476Y25037810D01*
X67445155Y25267700D01*
X66252000Y25267700D01*
X65998000Y25267700D01*
X65978000Y25267700D01*
X65978000Y25521700D01*
X65998000Y25521700D01*
X65998000Y25541700D01*
X66252000Y25541700D01*
X66252000Y25521700D01*
X67445155Y25521700D01*
X67566476Y25751590D01*
X67521825Y25898799D01*
X67396641Y26161620D01*
X67222588Y26394969D01*
X67006355Y26589878D01*
X66889466Y26659505D01*
X67071632Y26781225D01*
X67278475Y26988068D01*
X67440990Y27231289D01*
X67552932Y27501542D01*
X67610000Y27788440D01*
X67610000Y28080960D01*
X67552932Y28367858D01*
X67440990Y28638111D01*
X67278475Y28881332D01*
X67071632Y29088175D01*
X66897240Y29204700D01*
X67071632Y29321225D01*
X67278475Y29528068D01*
X67440990Y29771289D01*
X67552932Y30041542D01*
X67610000Y30328440D01*
X67610000Y30620960D01*
X67552932Y30907858D01*
X67440990Y31178111D01*
X67278475Y31421332D01*
X67071632Y31628175D01*
X66828411Y31790690D01*
X66558158Y31902632D01*
X66271260Y31959700D01*
X65978740Y31959700D01*
X65847061Y31933507D01*
X64729146Y33051421D01*
X64702991Y33083291D01*
X64575846Y33187636D01*
X64430787Y33265172D01*
X64273389Y33312918D01*
X64150719Y33325000D01*
X64150718Y33325000D01*
X64109700Y33329040D01*
X64068682Y33325000D01*
X62035869Y33325000D01*
X59080000Y36280867D01*
X59080000Y37673982D01*
X59084040Y37715000D01*
X59067918Y37878689D01*
X59020172Y38036087D01*
X58942636Y38181146D01*
X58864439Y38276430D01*
X58864437Y38276432D01*
X58838291Y38308291D01*
X58806432Y38334437D01*
X58079357Y39061511D01*
X58088072Y39150000D01*
X58088072Y40850000D01*
X58075812Y40974482D01*
X58039502Y41094180D01*
X57980537Y41204494D01*
X57901185Y41301185D01*
X57804494Y41380537D01*
X57694180Y41439502D01*
X57574482Y41475812D01*
X57450000Y41488072D01*
X55750000Y41488072D01*
X55625518Y41475812D01*
X55505820Y41439502D01*
X55395506Y41380537D01*
X55298815Y41301185D01*
X55219463Y41204494D01*
X55160498Y41094180D01*
X55138487Y41021620D01*
X55006632Y41153475D01*
X54880711Y41237613D01*
X54899686Y41266011D01*
X54970168Y41436171D01*
X55006100Y41616811D01*
X55006100Y41800989D01*
X54970168Y41981629D01*
X54899686Y42151789D01*
X54797362Y42304928D01*
X54667128Y42435162D01*
X54513989Y42537486D01*
X54343829Y42607968D01*
X54163189Y42643900D01*
X53979011Y42643900D01*
X53798371Y42607968D01*
X53628211Y42537486D01*
X53475072Y42435162D01*
X53344838Y42304928D01*
X53242514Y42151789D01*
X53172032Y41981629D01*
X53139169Y41816416D01*
X41575000Y30252246D01*
X41575000Y34161906D01*
X41578555Y34198001D01*
X41575000Y34234096D01*
X41575000Y34234105D01*
X41564365Y34342085D01*
X41522337Y34480633D01*
X41454087Y34608320D01*
X41362238Y34720238D01*
X41334193Y34743254D01*
X40789257Y35288189D01*
X40789253Y35288194D01*
X39482447Y36595000D01*
X40471895Y36595000D01*
X40508000Y36591444D01*
X40544105Y36595000D01*
X40652085Y36605635D01*
X40790633Y36647663D01*
X40918320Y36715913D01*
X41030238Y36807762D01*
X41053259Y36835813D01*
X41263446Y37046000D01*
X43304895Y37046000D01*
X43341000Y37042444D01*
X43377105Y37046000D01*
X43485085Y37056635D01*
X43623633Y37098663D01*
X43751320Y37166913D01*
X43863238Y37258762D01*
X43886259Y37286813D01*
X46790597Y40191150D01*
X47667745Y40191150D01*
X47703850Y40187594D01*
X47739955Y40191150D01*
X47847935Y40201785D01*
X47986483Y40243813D01*
X48114170Y40312063D01*
X48226088Y40403912D01*
X48249109Y40431963D01*
X54883020Y47065873D01*
X54892368Y47056525D01*
X55135589Y46894010D01*
X55405842Y46782068D01*
X55692740Y46725000D01*
X55985260Y46725000D01*
X56272158Y46782068D01*
X56542411Y46894010D01*
X56785632Y47056525D01*
X56992475Y47263368D01*
X57109000Y47437760D01*
X57225525Y47263368D01*
X57432368Y47056525D01*
X57675589Y46894010D01*
X57945842Y46782068D01*
X58078445Y46755691D01*
X55718586Y44395832D01*
X55553371Y44362968D01*
X55383211Y44292486D01*
X55230072Y44190162D01*
X55099838Y44059928D01*
X54997514Y43906789D01*
X54927032Y43736629D01*
X54891100Y43555989D01*
X54891100Y43371811D01*
X54927032Y43191171D01*
X54997514Y43021011D01*
X55099838Y42867872D01*
X55230072Y42737638D01*
X55383211Y42635314D01*
X55553371Y42564832D01*
X55734011Y42528900D01*
X55918189Y42528900D01*
X56098829Y42564832D01*
X56268989Y42635314D01*
X56422128Y42737638D01*
X56552362Y42867872D01*
X56654686Y43021011D01*
X56725168Y43191171D01*
X56758032Y43356386D01*
X60272206Y46870559D01*
X60485842Y46782068D01*
X60772740Y46725000D01*
X61065260Y46725000D01*
X61352158Y46782068D01*
X61622411Y46894010D01*
X61865632Y47056525D01*
X61997487Y47188380D01*
X62019498Y47115820D01*
X62078463Y47005506D01*
X62157815Y46908815D01*
X62254506Y46829463D01*
X62364820Y46770498D01*
X62484518Y46734188D01*
X62609000Y46721928D01*
X64309000Y46721928D01*
X64433482Y46734188D01*
X64553180Y46770498D01*
X64663494Y46829463D01*
X64760185Y46908815D01*
X64839537Y47005506D01*
X64898502Y47115820D01*
X64934812Y47235518D01*
X64947072Y47360000D01*
X64947072Y49060000D01*
X64934812Y49184482D01*
X64898502Y49304180D01*
X64839537Y49414494D01*
X64783849Y49482350D01*
X64839537Y49550206D01*
X64898502Y49660520D01*
X64934812Y49780218D01*
X64947072Y49904700D01*
X64947072Y51604700D01*
X64934812Y51729182D01*
X64905627Y51825391D01*
X65264210Y51466808D01*
G37*
X65264210Y51466808D02*
X65264211Y40381407D01*
X65260654Y40345292D01*
X65274845Y40201207D01*
X65307752Y40092729D01*
X65316874Y40062659D01*
X65385124Y39934972D01*
X65476973Y39823054D01*
X65505018Y39800038D01*
X67803312Y37501743D01*
X67803312Y36876237D01*
X67734350Y36979446D01*
X67423041Y37290755D01*
X67056981Y37535348D01*
X66650237Y37703827D01*
X66218440Y37789717D01*
X65778184Y37789717D01*
X65346387Y37703827D01*
X64939643Y37535348D01*
X64573583Y37290755D01*
X64262274Y36979446D01*
X64017681Y36613386D01*
X63849202Y36206642D01*
X63763312Y35774845D01*
X63763312Y35334589D01*
X63849202Y34902792D01*
X64017681Y34496048D01*
X64262274Y34129988D01*
X64573583Y33818679D01*
X64939643Y33574086D01*
X65346387Y33405607D01*
X65778184Y33319717D01*
X66218440Y33319717D01*
X66650237Y33405607D01*
X67056981Y33574086D01*
X67423041Y33818679D01*
X67734350Y34129988D01*
X67803312Y34233197D01*
X67803313Y21065534D01*
X64579627Y24289220D01*
X64738475Y24448068D01*
X64856100Y24624106D01*
X65027412Y24394431D01*
X65243645Y24199522D01*
X65493748Y24050543D01*
X65768109Y23953219D01*
X65998000Y24073886D01*
X65998000Y25267700D01*
X66252000Y25267700D01*
X66252000Y24073886D01*
X66481891Y23953219D01*
X66756252Y24050543D01*
X67006355Y24199522D01*
X67222588Y24394431D01*
X67396641Y24627780D01*
X67521825Y24890601D01*
X67566476Y25037810D01*
X67445155Y25267700D01*
X66252000Y25267700D01*
X65998000Y25267700D01*
X65978000Y25267700D01*
X65978000Y25521700D01*
X65998000Y25521700D01*
X65998000Y25541700D01*
X66252000Y25541700D01*
X66252000Y25521700D01*
X67445155Y25521700D01*
X67566476Y25751590D01*
X67521825Y25898799D01*
X67396641Y26161620D01*
X67222588Y26394969D01*
X67006355Y26589878D01*
X66889466Y26659505D01*
X67071632Y26781225D01*
X67278475Y26988068D01*
X67440990Y27231289D01*
X67552932Y27501542D01*
X67610000Y27788440D01*
X67610000Y28080960D01*
X67552932Y28367858D01*
X67440990Y28638111D01*
X67278475Y28881332D01*
X67071632Y29088175D01*
X66897240Y29204700D01*
X67071632Y29321225D01*
X67278475Y29528068D01*
X67440990Y29771289D01*
X67552932Y30041542D01*
X67610000Y30328440D01*
X67610000Y30620960D01*
X67552932Y30907858D01*
X67440990Y31178111D01*
X67278475Y31421332D01*
X67071632Y31628175D01*
X66828411Y31790690D01*
X66558158Y31902632D01*
X66271260Y31959700D01*
X65978740Y31959700D01*
X65847061Y31933507D01*
X64729146Y33051421D01*
X64702991Y33083291D01*
X64575846Y33187636D01*
X64430787Y33265172D01*
X64273389Y33312918D01*
X64150719Y33325000D01*
X64150718Y33325000D01*
X64109700Y33329040D01*
X64068682Y33325000D01*
X62035869Y33325000D01*
X59080000Y36280867D01*
X59080000Y37673982D01*
X59084040Y37715000D01*
X59067918Y37878689D01*
X59020172Y38036087D01*
X58942636Y38181146D01*
X58864439Y38276430D01*
X58864437Y38276432D01*
X58838291Y38308291D01*
X58806432Y38334437D01*
X58079357Y39061511D01*
X58088072Y39150000D01*
X58088072Y40850000D01*
X58075812Y40974482D01*
X58039502Y41094180D01*
X57980537Y41204494D01*
X57901185Y41301185D01*
X57804494Y41380537D01*
X57694180Y41439502D01*
X57574482Y41475812D01*
X57450000Y41488072D01*
X55750000Y41488072D01*
X55625518Y41475812D01*
X55505820Y41439502D01*
X55395506Y41380537D01*
X55298815Y41301185D01*
X55219463Y41204494D01*
X55160498Y41094180D01*
X55138487Y41021620D01*
X55006632Y41153475D01*
X54880711Y41237613D01*
X54899686Y41266011D01*
X54970168Y41436171D01*
X55006100Y41616811D01*
X55006100Y41800989D01*
X54970168Y41981629D01*
X54899686Y42151789D01*
X54797362Y42304928D01*
X54667128Y42435162D01*
X54513989Y42537486D01*
X54343829Y42607968D01*
X54163189Y42643900D01*
X53979011Y42643900D01*
X53798371Y42607968D01*
X53628211Y42537486D01*
X53475072Y42435162D01*
X53344838Y42304928D01*
X53242514Y42151789D01*
X53172032Y41981629D01*
X53139169Y41816416D01*
X41575000Y30252246D01*
X41575000Y34161906D01*
X41578555Y34198001D01*
X41575000Y34234096D01*
X41575000Y34234105D01*
X41564365Y34342085D01*
X41522337Y34480633D01*
X41454087Y34608320D01*
X41362238Y34720238D01*
X41334193Y34743254D01*
X40789257Y35288189D01*
X40789253Y35288194D01*
X39482447Y36595000D01*
X40471895Y36595000D01*
X40508000Y36591444D01*
X40544105Y36595000D01*
X40652085Y36605635D01*
X40790633Y36647663D01*
X40918320Y36715913D01*
X41030238Y36807762D01*
X41053259Y36835813D01*
X41263446Y37046000D01*
X43304895Y37046000D01*
X43341000Y37042444D01*
X43377105Y37046000D01*
X43485085Y37056635D01*
X43623633Y37098663D01*
X43751320Y37166913D01*
X43863238Y37258762D01*
X43886259Y37286813D01*
X46790597Y40191150D01*
X47667745Y40191150D01*
X47703850Y40187594D01*
X47739955Y40191150D01*
X47847935Y40201785D01*
X47986483Y40243813D01*
X48114170Y40312063D01*
X48226088Y40403912D01*
X48249109Y40431963D01*
X54883020Y47065873D01*
X54892368Y47056525D01*
X55135589Y46894010D01*
X55405842Y46782068D01*
X55692740Y46725000D01*
X55985260Y46725000D01*
X56272158Y46782068D01*
X56542411Y46894010D01*
X56785632Y47056525D01*
X56992475Y47263368D01*
X57109000Y47437760D01*
X57225525Y47263368D01*
X57432368Y47056525D01*
X57675589Y46894010D01*
X57945842Y46782068D01*
X58078445Y46755691D01*
X55718586Y44395832D01*
X55553371Y44362968D01*
X55383211Y44292486D01*
X55230072Y44190162D01*
X55099838Y44059928D01*
X54997514Y43906789D01*
X54927032Y43736629D01*
X54891100Y43555989D01*
X54891100Y43371811D01*
X54927032Y43191171D01*
X54997514Y43021011D01*
X55099838Y42867872D01*
X55230072Y42737638D01*
X55383211Y42635314D01*
X55553371Y42564832D01*
X55734011Y42528900D01*
X55918189Y42528900D01*
X56098829Y42564832D01*
X56268989Y42635314D01*
X56422128Y42737638D01*
X56552362Y42867872D01*
X56654686Y43021011D01*
X56725168Y43191171D01*
X56758032Y43356386D01*
X60272206Y46870559D01*
X60485842Y46782068D01*
X60772740Y46725000D01*
X61065260Y46725000D01*
X61352158Y46782068D01*
X61622411Y46894010D01*
X61865632Y47056525D01*
X61997487Y47188380D01*
X62019498Y47115820D01*
X62078463Y47005506D01*
X62157815Y46908815D01*
X62254506Y46829463D01*
X62364820Y46770498D01*
X62484518Y46734188D01*
X62609000Y46721928D01*
X64309000Y46721928D01*
X64433482Y46734188D01*
X64553180Y46770498D01*
X64663494Y46829463D01*
X64760185Y46908815D01*
X64839537Y47005506D01*
X64898502Y47115820D01*
X64934812Y47235518D01*
X64947072Y47360000D01*
X64947072Y49060000D01*
X64934812Y49184482D01*
X64898502Y49304180D01*
X64839537Y49414494D01*
X64783849Y49482350D01*
X64839537Y49550206D01*
X64898502Y49660520D01*
X64934812Y49780218D01*
X64947072Y49904700D01*
X64947072Y51604700D01*
X64934812Y51729182D01*
X64905627Y51825391D01*
X65264210Y51466808D01*
G36*
X22247746Y35035307D02*
G01*
X22270762Y35007262D01*
X22302727Y34981029D01*
X22747700Y34536055D01*
X22747701Y33148815D01*
X22744144Y33112700D01*
X22758335Y32968615D01*
X22795846Y32844962D01*
X22800364Y32830067D01*
X22868614Y32702380D01*
X22960463Y32590462D01*
X22988508Y32567446D01*
X23462968Y32092985D01*
X23495832Y31927771D01*
X23566314Y31757611D01*
X23657899Y31620545D01*
X23550208Y31512854D01*
X23522162Y31489837D01*
X23484501Y31443947D01*
X23085808Y31045254D01*
X23057762Y31022237D01*
X22965913Y30910319D01*
X22897663Y30782632D01*
X22877403Y30715844D01*
X22855635Y30644085D01*
X22841444Y30500000D01*
X22845000Y30463895D01*
X22845001Y26056115D01*
X22841444Y26020000D01*
X22854989Y25882474D01*
X22854989Y25654916D01*
X22851433Y25618811D01*
X22854989Y25582707D01*
X22854989Y25582706D01*
X22865624Y25474726D01*
X22907652Y25336178D01*
X22975902Y25208491D01*
X23067752Y25096573D01*
X23095797Y25073557D01*
X23309400Y24859954D01*
X23309401Y22077046D01*
X17729600Y27656846D01*
X17729600Y32712651D01*
X17845771Y32664532D01*
X18026411Y32628600D01*
X18210589Y32628600D01*
X18391229Y32664532D01*
X18561389Y32735014D01*
X18714528Y32837338D01*
X18844762Y32967572D01*
X18947086Y33120711D01*
X19017568Y33290871D01*
X19053500Y33471511D01*
X19053500Y33655689D01*
X19017568Y33836329D01*
X18947086Y34006489D01*
X18853500Y34146551D01*
X18853500Y34874054D01*
X20089991Y36110544D01*
X20187071Y36070332D01*
X20367711Y36034400D01*
X20551889Y36034400D01*
X20732529Y36070332D01*
X20902689Y36140814D01*
X21046289Y36236764D01*
X22247746Y35035307D01*
G37*
X22247746Y35035307D02*
X22270762Y35007262D01*
X22302727Y34981029D01*
X22747700Y34536055D01*
X22747701Y33148815D01*
X22744144Y33112700D01*
X22758335Y32968615D01*
X22795846Y32844962D01*
X22800364Y32830067D01*
X22868614Y32702380D01*
X22960463Y32590462D01*
X22988508Y32567446D01*
X23462968Y32092985D01*
X23495832Y31927771D01*
X23566314Y31757611D01*
X23657899Y31620545D01*
X23550208Y31512854D01*
X23522162Y31489837D01*
X23484501Y31443947D01*
X23085808Y31045254D01*
X23057762Y31022237D01*
X22965913Y30910319D01*
X22897663Y30782632D01*
X22877403Y30715844D01*
X22855635Y30644085D01*
X22841444Y30500000D01*
X22845000Y30463895D01*
X22845001Y26056115D01*
X22841444Y26020000D01*
X22854989Y25882474D01*
X22854989Y25654916D01*
X22851433Y25618811D01*
X22854989Y25582707D01*
X22854989Y25582706D01*
X22865624Y25474726D01*
X22907652Y25336178D01*
X22975902Y25208491D01*
X23067752Y25096573D01*
X23095797Y25073557D01*
X23309400Y24859954D01*
X23309401Y22077046D01*
X17729600Y27656846D01*
X17729600Y32712651D01*
X17845771Y32664532D01*
X18026411Y32628600D01*
X18210589Y32628600D01*
X18391229Y32664532D01*
X18561389Y32735014D01*
X18714528Y32837338D01*
X18844762Y32967572D01*
X18947086Y33120711D01*
X19017568Y33290871D01*
X19053500Y33471511D01*
X19053500Y33655689D01*
X19017568Y33836329D01*
X18947086Y34006489D01*
X18853500Y34146551D01*
X18853500Y34874054D01*
X20089991Y36110544D01*
X20187071Y36070332D01*
X20367711Y36034400D01*
X20551889Y36034400D01*
X20732529Y36070332D01*
X20902689Y36140814D01*
X21046289Y36236764D01*
X22247746Y35035307D01*
G36*
X26502000Y50881700D02*
G01*
X26522000Y50881700D01*
X26522000Y50627700D01*
X26502000Y50627700D01*
X26502000Y50607700D01*
X26248000Y50607700D01*
X26248000Y50627700D01*
X26228000Y50627700D01*
X26228000Y50881700D01*
X26248000Y50881700D01*
X26248000Y50901700D01*
X26502000Y50901700D01*
X26502000Y50881700D01*
G37*
X26502000Y50881700D02*
X26522000Y50881700D01*
X26522000Y50627700D01*
X26502000Y50627700D01*
X26502000Y50607700D01*
X26248000Y50607700D01*
X26248000Y50627700D01*
X26228000Y50627700D01*
X26228000Y50881700D01*
X26248000Y50881700D01*
X26248000Y50901700D01*
X26502000Y50901700D01*
X26502000Y50881700D01*
M02*
