G04 #@! TF.GenerationSoftware,KiCad,Pcbnew,(5.1.4)-1*
G04 #@! TF.CreationDate,2020-03-27T05:00:20+09:00*
G04 #@! TF.ProjectId,Meno,4d656e6f-2e6b-4696-9361-645f70636258,rev?*
G04 #@! TF.SameCoordinates,PX6cf7820PY7a67730*
G04 #@! TF.FileFunction,Profile,NP*
%FSLAX46Y46*%
G04 Gerber Fmt 4.6, Leading zero omitted, Abs format (unit mm)*
G04 Created by KiCad (PCBNEW (5.1.4)-1) date 2020-03-27 05:00:20*
%MOMM*%
%LPD*%
G04 APERTURE LIST*
%ADD10C,0.200000*%
G04 APERTURE END LIST*
D10*
X511516Y53146602D02*
X744267Y53252398D01*
X46014Y735288D02*
X3696Y989199D01*
X511516Y121672D02*
X299924Y290945D01*
X46014Y52554145D02*
X130651Y52786896D01*
X64475748Y53294717D02*
X65999210Y51771255D01*
X65999210Y51771255D02*
X65999210Y40345292D01*
X744267Y37035D02*
X511516Y121672D01*
X998177Y53294717D02*
X64475748Y53294717D01*
X65999210Y40345292D02*
X68538312Y37806190D01*
X3696Y52279076D02*
X46014Y52554145D01*
X68538312Y37806190D02*
X68538312Y5072922D01*
X65258638Y37035D02*
X65004728Y-5283D01*
X998177Y-5283D02*
X744267Y37035D01*
X744267Y53252398D02*
X998177Y53294717D01*
X130651Y502537D02*
X46014Y735288D01*
X68538312Y5072922D02*
X65999210Y2533820D01*
X65956891Y735288D02*
X65872254Y502537D01*
X65872254Y502537D02*
X65702981Y290945D01*
X65702981Y290945D02*
X65491389Y121672D01*
X65004728Y-5283D02*
X998177Y-5283D01*
X299924Y52998488D02*
X511516Y53146602D01*
X299924Y290945D02*
X130651Y502537D01*
X65491389Y121672D02*
X65258638Y37035D01*
X65999210Y2533820D02*
X65999210Y989199D01*
X65999210Y989199D02*
X65956891Y735288D01*
X3696Y989199D02*
X3696Y52279076D01*
X130651Y52786896D02*
X299924Y52998488D01*
M02*
