G04 #@! TF.GenerationSoftware,KiCad,Pcbnew,(5.1.4)-1*
G04 #@! TF.CreationDate,2020-03-27T05:00:20+09:00*
G04 #@! TF.ProjectId,Meno,4d656e6f-2e6b-4696-9361-645f70636258,rev?*
G04 #@! TF.SameCoordinates,PX6cf7820PY7a67730*
G04 #@! TF.FileFunction,Copper,L2,Bot*
G04 #@! TF.FilePolarity,Positive*
%FSLAX46Y46*%
G04 Gerber Fmt 4.6, Leading zero omitted, Abs format (unit mm)*
G04 Created by KiCad (PCBNEW (5.1.4)-1) date 2020-03-27 05:00:20*
%MOMM*%
%LPD*%
G04 APERTURE LIST*
%ADD10R,1.700000X1.700000*%
%ADD11O,1.700000X1.700000*%
%ADD12O,2.100000X1.050000*%
%ADD13O,2.000000X1.000000*%
%ADD14O,1.508000X3.016000*%
%ADD15O,3.016000X1.508000*%
%ADD16C,0.600000*%
%ADD17C,0.900000*%
%ADD18C,0.200000*%
%ADD19C,0.600000*%
%ADD20C,1.200000*%
%ADD21C,0.400000*%
%ADD22C,0.800000*%
%ADD23C,0.254000*%
G04 APERTURE END LIST*
D10*
X63459210Y48214717D03*
D11*
X60919210Y48214717D03*
X58379210Y48214717D03*
X55839210Y48214717D03*
X53299210Y48214717D03*
X50759210Y48214717D03*
X48219210Y48214717D03*
X45679210Y48214717D03*
X43139210Y48214717D03*
X40599210Y48214717D03*
X38059210Y48214717D03*
X35519210Y48214717D03*
X32979210Y48214717D03*
X30439210Y48214717D03*
X27899210Y48214717D03*
X25359210Y48214717D03*
X22819210Y48214717D03*
X20279210Y48214717D03*
X17739210Y48214717D03*
D10*
X63459210Y50754717D03*
D11*
X60919210Y50754717D03*
X58379210Y50754717D03*
X55839210Y50754717D03*
X53299210Y50754717D03*
X50759210Y50754717D03*
X48219210Y50754717D03*
X45679210Y50754717D03*
X27899210Y2534717D03*
X30439210Y2534717D03*
X32979210Y2534717D03*
X35519210Y2534717D03*
X38059210Y2534717D03*
X40599210Y2534717D03*
X43139210Y2534717D03*
D10*
X45679210Y2534717D03*
X63459210Y5074717D03*
D11*
X60919210Y5074717D03*
X58379210Y5074717D03*
X55839210Y5074717D03*
X53299210Y5074717D03*
X50759210Y5074717D03*
X48219210Y5074717D03*
X45679210Y5074717D03*
X43139210Y5074717D03*
X40599210Y5074717D03*
X38059210Y5074717D03*
X35519210Y5074717D03*
X32979210Y5074717D03*
X30439210Y5074717D03*
X27899210Y5074717D03*
D10*
X63459210Y2534717D03*
D11*
X60919210Y2534717D03*
X58379210Y2534717D03*
X55839210Y2534717D03*
X53299210Y2534717D03*
X50759210Y2534717D03*
D10*
X41615210Y50754717D03*
D11*
X39075210Y50754717D03*
X36535210Y50754717D03*
X33995210Y50754717D03*
X31455210Y50754717D03*
X28915210Y50754717D03*
X26375210Y50754717D03*
X23835210Y50754717D03*
X21295210Y50754717D03*
X18755210Y50754717D03*
D12*
X5880000Y32530000D03*
X5880000Y41170000D03*
D13*
X1700000Y32530000D03*
X1700000Y41170000D03*
D14*
X10500000Y6000000D03*
X4500000Y6000000D03*
D15*
X7500000Y1300000D03*
D10*
X56600000Y40000000D03*
D11*
X54060000Y40000000D03*
X56600000Y37460000D03*
X54060000Y37460000D03*
X56600000Y34920000D03*
X54060000Y34920000D03*
X56600000Y32380000D03*
X54060000Y32380000D03*
X56600000Y29840000D03*
X54060000Y29840000D03*
X56600000Y27300000D03*
X54060000Y27300000D03*
X56600000Y24760000D03*
X54060000Y24760000D03*
X56600000Y22220000D03*
X54060000Y22220000D03*
X56600000Y19680000D03*
X54060000Y19680000D03*
X56600000Y17140000D03*
X54060000Y17140000D03*
X56600000Y14600000D03*
X54060000Y14600000D03*
X56600000Y12060000D03*
X54060000Y12060000D03*
D10*
X63585312Y30474717D03*
D11*
X66125312Y30474717D03*
X63585312Y27934717D03*
X66125312Y27934717D03*
X63585312Y25394717D03*
X66125312Y25394717D03*
D16*
X36808800Y31074900D03*
X47599000Y14052100D03*
X34323400Y30082400D03*
D17*
X60200000Y23800000D03*
D16*
X50075550Y11575550D03*
D17*
X43000000Y13500000D03*
X12697150Y38302850D03*
D16*
X59000000Y18000000D03*
X30063392Y41935278D03*
X21996400Y13708200D03*
D17*
X17690000Y23980000D03*
X28100000Y15650000D03*
X21160000Y4900000D03*
D16*
X41900000Y15850000D03*
X40669700Y18602000D03*
X34075000Y16675000D03*
X32988000Y20983200D03*
X22000000Y45500000D03*
X18585180Y44897040D03*
D17*
X12700000Y43950000D03*
X27200000Y17000000D03*
D16*
X37679200Y32773600D03*
X38449500Y37224800D03*
D17*
X13740000Y35530000D03*
X36790000Y11840000D03*
X23700000Y10450000D03*
X23430000Y7110000D03*
D16*
X61450220Y36461700D03*
X51806600Y32928300D03*
X60919360Y31104840D03*
D17*
X8990000Y39250000D03*
X8990000Y34450000D03*
X3430000Y37090000D03*
D16*
X52383200Y31327300D03*
X25850000Y37100000D03*
X26505800Y41231600D03*
X42947500Y20595700D03*
X22606000Y34163000D03*
X22962400Y32486600D03*
X24213600Y25310800D03*
X15951200Y36398200D03*
X46858900Y28822600D03*
X11938000Y48821340D03*
X24976200Y26226000D03*
X45363400Y28299400D03*
X40328000Y27128800D03*
X43084600Y23981500D03*
X38127000Y29583000D03*
X45496400Y29724200D03*
X30339900Y35546300D03*
X39930000Y24410000D03*
X31038100Y35980000D03*
X43895400Y29623800D03*
X33230000Y41950000D03*
X33895600Y36193100D03*
X42932900Y28586700D03*
X27388500Y32974300D03*
X24270000Y44570000D03*
X26568400Y39471600D03*
X24270000Y45600000D03*
X26187000Y19676700D03*
X40390900Y28350000D03*
X36489000Y26539500D03*
X38927400Y29832000D03*
X36704300Y25192000D03*
X40222600Y31350000D03*
X25497700Y44652300D03*
X27225100Y19690400D03*
X40130000Y32175800D03*
X37292600Y24648200D03*
X41135500Y33408800D03*
X26944400Y43212200D03*
X27761400Y21467800D03*
X20750000Y30820000D03*
X39527700Y32766200D03*
X22537400Y21850000D03*
X14147800Y45918120D03*
X16177260Y44244260D03*
X35548200Y25782200D03*
X33916000Y27216900D03*
X41541300Y44216100D03*
X35901800Y28341500D03*
X30945600Y29464000D03*
X29361800Y27085400D03*
X25088100Y29732200D03*
X29927800Y26519400D03*
X42029300Y17980500D03*
X28344000Y29536300D03*
X28944300Y28939500D03*
X28176000Y31243800D03*
X50683700Y35143500D03*
X25078200Y31350000D03*
X27097200Y41772300D03*
X51077700Y33331400D03*
X29455100Y43062700D03*
X29162500Y36220600D03*
X48601700Y29031400D03*
X34347500Y25913000D03*
X28049600Y32350000D03*
X50677400Y30726900D03*
X58699400Y39141400D03*
X32176300Y35419900D03*
X31725000Y43050000D03*
X34569400Y42468800D03*
X34696000Y36058900D03*
X50789300Y20950000D03*
X37849300Y21091600D03*
X38461900Y19973000D03*
X43955100Y19592700D03*
X34031500Y19939700D03*
X46158200Y10115600D03*
X35416600Y16849900D03*
X39924700Y10039300D03*
X34816300Y17445200D03*
X36790200Y17085300D03*
X37194000Y16357200D03*
X46170400Y8502200D03*
X45102900Y13689100D03*
X48582100Y6846000D03*
X33205800Y19984600D03*
X30854400Y10454300D03*
X29784800Y13392400D03*
X10396530Y37596738D03*
X9120000Y36360000D03*
D17*
X21750000Y16900000D03*
X16430000Y11980000D03*
X2070000Y11570000D03*
X13950000Y9850000D03*
D16*
X36149500Y32770400D03*
X33880000Y39400000D03*
X35955000Y42510000D03*
X36247600Y35252100D03*
X17190000Y22980000D03*
X21260000Y21750000D03*
X20360000Y43789600D03*
X20375000Y39674800D03*
X10960000Y32190000D03*
X13770000Y30790000D03*
D18*
X36808800Y31074900D02*
X35816300Y30082400D01*
X35816300Y30082400D02*
X34323400Y30082400D01*
X54060000Y12060000D02*
X52909700Y12060000D01*
X50166200Y11484900D02*
X50075550Y11575550D01*
X52909700Y12060000D02*
X52334600Y11484900D01*
X52334600Y11484900D02*
X50166200Y11484900D01*
X66040000Y24249700D02*
X66040000Y25400000D01*
X66040000Y22336800D02*
X66040000Y24249700D01*
X56600000Y12060000D02*
X56600000Y12896800D01*
X56600000Y12896800D02*
X66040000Y22336800D01*
X26110000Y50850000D02*
X26110000Y49987400D01*
X50166200Y7508600D02*
X50166200Y11484900D01*
X48882900Y6225300D02*
X50166200Y7508600D01*
X45152900Y6225300D02*
X48882900Y6225300D01*
X43140000Y5075000D02*
X44002600Y5075000D01*
X44002600Y5075000D02*
X45152900Y6225300D01*
X50075550Y11575550D02*
X47599000Y14052100D01*
X29739500Y35905900D02*
X29739500Y34666300D01*
X29739500Y34666300D02*
X34323400Y30082400D01*
X29858000Y36024400D02*
X29739500Y35905900D01*
X29858000Y40021100D02*
X29858000Y36024400D01*
X30055400Y44303400D02*
X30055400Y40218500D01*
X30055400Y40218500D02*
X29858000Y40021100D01*
D19*
X1760000Y40980000D02*
X1400000Y41340000D01*
X1760000Y32720000D02*
X1400000Y32360000D01*
X5880000Y41170000D02*
X1700000Y41170000D01*
X5880000Y32530000D02*
X1700000Y32530000D01*
D20*
X43139210Y2535000D02*
X40599210Y2535000D01*
D18*
X26621240Y49476160D02*
X26621240Y47607720D01*
X26110000Y49987400D02*
X26621240Y49476160D01*
X27247700Y46981260D02*
X27377540Y46981260D01*
X26621240Y47607720D02*
X27247700Y46981260D01*
X27377540Y46981260D02*
X30055400Y44303400D01*
D21*
X40669700Y18177736D02*
X40675000Y18172436D01*
X40669700Y18602000D02*
X40669700Y18177736D01*
X40675000Y17075000D02*
X41900000Y15850000D01*
X40675000Y18172436D02*
X40675000Y17075000D01*
D18*
X31233200Y19228400D02*
X32988000Y20983200D01*
X22000000Y45500000D02*
X22000000Y45500000D01*
X31233100Y19228400D02*
X31233200Y19228400D01*
X31110500Y19228400D02*
X31233100Y19228400D01*
X30947600Y19065500D02*
X31110500Y19228400D01*
X17317600Y28137400D02*
X25390600Y20064400D01*
X25390600Y20064400D02*
X25390600Y19588800D01*
X25390600Y19588800D02*
X25913900Y19065500D01*
X31260236Y19065500D02*
X30009500Y19065500D01*
X33650736Y16675000D02*
X31260236Y19065500D01*
X34075000Y16675000D02*
X33650736Y16675000D01*
X25913900Y19065500D02*
X30009500Y19065500D01*
X30009500Y19065500D02*
X30947600Y19065500D01*
X21511260Y45988740D02*
X22000000Y45500000D01*
X17317600Y43908944D02*
X17317600Y43898940D01*
X18292996Y44884340D02*
X17317600Y43908944D01*
X18717260Y44884340D02*
X18292996Y44884340D01*
X17317600Y43898940D02*
X17317600Y28137400D01*
X22367238Y49904718D02*
X21511260Y49048740D01*
X22985211Y49904718D02*
X22367238Y49904718D01*
X23835210Y50754717D02*
X22985211Y49904718D01*
X21511260Y49048740D02*
X21511260Y45988740D01*
D21*
X38449500Y37224800D02*
X37679200Y36454500D01*
X37679200Y36454500D02*
X37679200Y32773600D01*
D19*
X27652300Y7000000D02*
X24500000Y7000000D01*
X30440000Y6277081D02*
X29717081Y7000000D01*
X30440000Y5075000D02*
X30440000Y6277081D01*
X30850800Y13958200D02*
X29654500Y15154500D01*
X27652300Y8037700D02*
X28690000Y7000000D01*
X27652300Y13152300D02*
X27652300Y8037700D01*
X29654500Y15154500D02*
X27652300Y13152300D01*
X29717081Y7000000D02*
X28690000Y7000000D01*
X28690000Y7000000D02*
X27652300Y7000000D01*
X34575000Y10975000D02*
X34300000Y10975000D01*
X33834000Y10975000D02*
X30850800Y13958200D01*
X34300000Y10975000D02*
X33834000Y10975000D01*
D21*
X13740000Y43140000D02*
X13060000Y43820000D01*
X13740000Y35530000D02*
X13740000Y43140000D01*
D19*
X24500000Y7000000D02*
X24500000Y9650000D01*
X24500000Y9650000D02*
X23700000Y10450000D01*
X24500000Y7000000D02*
X24250000Y7000000D01*
X29654500Y16345500D02*
X29654500Y15154500D01*
X27200000Y17000000D02*
X29000000Y17000000D01*
X29000000Y17000000D02*
X29654500Y16345500D01*
X24500000Y7000000D02*
X23540000Y7000000D01*
X23540000Y7000000D02*
X23430000Y7110000D01*
X35288604Y10975000D02*
X34575000Y10975000D01*
X36153604Y11840000D02*
X35288604Y10975000D01*
X36790000Y11840000D02*
X36153604Y11840000D01*
D18*
X62349700Y25400000D02*
X61600100Y26149600D01*
X61600100Y26149600D02*
X56061900Y26149600D01*
X56061900Y26149600D02*
X55210400Y27001100D01*
X55210400Y27001100D02*
X55210400Y27838100D01*
X55210400Y27838100D02*
X54370200Y28678300D01*
X54370200Y28678300D02*
X53556700Y28678300D01*
X53556700Y28678300D02*
X51734000Y30501000D01*
X51734000Y30501000D02*
X51734000Y32855700D01*
X51734000Y32855700D02*
X51806600Y32928300D01*
X63500000Y25400000D02*
X62349700Y25400000D01*
X64075200Y25400000D02*
X63500000Y25400000D01*
X60919360Y35930840D02*
X61450220Y36461700D01*
X60919360Y31104840D02*
X60919360Y35930840D01*
X35053100Y1373800D02*
X33891900Y2535000D01*
X58854800Y1373800D02*
X35053100Y1373800D01*
X59650000Y2169000D02*
X58854800Y1373800D01*
X59650000Y7235100D02*
X59650000Y2169000D01*
X33891900Y2535000D02*
X32980000Y2535000D01*
X63500000Y25400000D02*
X64362700Y25400000D01*
X64362700Y25400000D02*
X65526200Y26563500D01*
X65526200Y26563500D02*
X67165040Y26563500D01*
X67165040Y26563500D02*
X67614800Y26113740D01*
X67614800Y26113740D02*
X67614800Y15199900D01*
X67614800Y15199900D02*
X59650000Y7235100D01*
X4350000Y36010000D02*
X4349999Y36009999D01*
D19*
X3930000Y37090000D02*
X3430000Y37090000D01*
X7690009Y35749991D02*
X8990000Y34450000D01*
X4520009Y35749991D02*
X7690009Y35749991D01*
X3930000Y37090000D02*
X3930000Y36340000D01*
X3930000Y36340000D02*
X4520009Y35749991D01*
X3930000Y38120000D02*
X3930000Y37090000D01*
X4724999Y38914999D02*
X3930000Y38120000D01*
X8384999Y38914999D02*
X4724999Y38914999D01*
X8990000Y39250000D02*
X8720000Y39250000D01*
X8720000Y39250000D02*
X8384999Y38914999D01*
D18*
X54060000Y31468000D02*
X54060000Y32380000D01*
X55330000Y30198000D02*
X54060000Y31468000D01*
X55330000Y29421500D02*
X55330000Y30198000D01*
X64019400Y26782100D02*
X60316300Y26782100D01*
X60316300Y26782100D02*
X58408800Y28689600D01*
X58408800Y28689600D02*
X56061900Y28689600D01*
X56061900Y28689600D02*
X55330000Y29421500D01*
X64967412Y26782100D02*
X66125312Y27940000D01*
X64019400Y26782100D02*
X64967412Y26782100D01*
X52383200Y31327300D02*
X52406900Y31351000D01*
X52406900Y31351000D02*
X52406900Y32691800D01*
X52406900Y32691800D02*
X54060000Y34344900D01*
X54060000Y34920000D02*
X54060000Y34344900D01*
X62349700Y27940000D02*
X63500000Y27940000D01*
X54060000Y34008000D02*
X55330000Y32738000D01*
X54060000Y34920000D02*
X54060000Y34008000D01*
X55330000Y32738000D02*
X55330000Y31961500D01*
X55330000Y31961500D02*
X56061900Y31229600D01*
X59060100Y31229600D02*
X62349700Y27940000D01*
X56061900Y31229600D02*
X59060100Y31229600D01*
X25576900Y34589600D02*
X25576900Y32945000D01*
X25576900Y32945000D02*
X28369400Y30152500D01*
X28369400Y30152500D02*
X28580500Y30152500D01*
X28580500Y30152500D02*
X29544700Y29188300D01*
X29544700Y29188300D02*
X29544700Y28883800D01*
X29544700Y28883800D02*
X31666000Y26762500D01*
X31666000Y26762500D02*
X31666000Y26326700D01*
X31666000Y26326700D02*
X32546300Y25446400D01*
X32546300Y25446400D02*
X32546300Y25104500D01*
X32546300Y25104500D02*
X37159500Y20491300D01*
X37159500Y20491300D02*
X38098000Y20491300D01*
X38098000Y20491300D02*
X38202400Y20595700D01*
X38202400Y20595700D02*
X42947500Y20595700D01*
X22962400Y33382336D02*
X22962400Y32486600D01*
X22606000Y34163000D02*
X22606000Y33738736D01*
X22606000Y33738736D02*
X22962400Y33382336D01*
X26205801Y40931601D02*
X26205801Y40912401D01*
X26505800Y41231600D02*
X26205801Y40931601D01*
X26205801Y40912401D02*
X25806400Y40513000D01*
X25576900Y35355900D02*
X25576900Y34589600D01*
X25806400Y35585400D02*
X25576900Y35355900D01*
X25806400Y40513000D02*
X25806400Y35585400D01*
X24213600Y25310800D02*
X24213600Y25310900D01*
X24213600Y25310900D02*
X23806600Y25310900D01*
X23806600Y25310900D02*
X18490000Y30627500D01*
X18490000Y30627500D02*
X18490000Y42740000D01*
X18490000Y42740000D02*
X19359990Y43609990D01*
X19359990Y43609990D02*
X19359990Y45542090D01*
X18127606Y46624240D02*
X18277840Y46624240D01*
X17739210Y47012636D02*
X18127606Y46624240D01*
X17739210Y48214717D02*
X17739210Y47012636D01*
X19359990Y45542090D02*
X18277840Y46624240D01*
X47200800Y29164500D02*
X46858900Y28822600D01*
X47200800Y37144500D02*
X47200800Y29164500D01*
X57229209Y47172909D02*
X57223880Y47167580D01*
X57223880Y47167580D02*
X47200800Y37144500D01*
X61670000Y50754717D02*
X60370253Y49454970D01*
X60370253Y49454970D02*
X57656630Y49454970D01*
X57656630Y49454970D02*
X57229209Y49027549D01*
X57229209Y49027549D02*
X57229209Y47172909D01*
X15951200Y42440860D02*
X15951200Y36398200D01*
X11938000Y48397076D02*
X11930380Y48389456D01*
X11938000Y48821340D02*
X11938000Y48397076D01*
X11930380Y48389456D02*
X11930380Y46456600D01*
X15012670Y43374310D02*
X15017750Y43374310D01*
X11930380Y46456600D02*
X15012670Y43374310D01*
X14952980Y43439080D02*
X15017750Y43374310D01*
X15017750Y43374310D02*
X15951200Y42440860D01*
X21441100Y29761100D02*
X24976200Y26226000D01*
X21441100Y31728900D02*
X21441100Y29761100D01*
X21030000Y32140000D02*
X21441100Y31728900D01*
X20279210Y46789490D02*
X21030000Y46038700D01*
X20279210Y48214717D02*
X20279210Y46789490D01*
X21030000Y46038700D02*
X21030000Y32140000D01*
X45363400Y28742100D02*
X45363400Y28299400D01*
X46400200Y29778900D02*
X45363400Y28742100D01*
X46400200Y37806200D02*
X46400200Y29778900D01*
X54620160Y46026160D02*
X46400200Y37806200D01*
X58379210Y50754717D02*
X57529211Y49904718D01*
X57207218Y49904718D02*
X56740960Y49438460D01*
X57529211Y49904718D02*
X57207218Y49904718D01*
X56740960Y49438460D02*
X55171240Y49438460D01*
X55171240Y49438460D02*
X54620160Y48887380D01*
X54620160Y48887380D02*
X54620160Y46026160D01*
X23570000Y48310000D02*
X23570000Y47930000D01*
X40041800Y26842600D02*
X40328000Y27128800D01*
X25035850Y46535850D02*
X28029100Y43542600D01*
X24964150Y46535850D02*
X25035850Y46535850D01*
X37641000Y26842600D02*
X40041800Y26842600D01*
X24864830Y46635170D02*
X24964150Y46535850D01*
X28029100Y42255500D02*
X28097800Y42186800D01*
X36737700Y25939200D02*
X37641000Y26842500D01*
X23062430Y46635170D02*
X24864830Y46635170D01*
X22819210Y48214717D02*
X22819210Y46878390D01*
X22819210Y46878390D02*
X23062430Y46635170D01*
X28029100Y43542600D02*
X28029100Y42255500D01*
X36240400Y25939200D02*
X36737700Y25939200D01*
X28097800Y42186800D02*
X28097800Y41357800D01*
X28097800Y41357800D02*
X27653800Y40913800D01*
X27653800Y40913800D02*
X27653800Y34525800D01*
X27653800Y34525800D02*
X36240400Y25939200D01*
X37641000Y26842500D02*
X37641000Y26842600D01*
X48001400Y28544500D02*
X43438400Y23981500D01*
X48001400Y36192400D02*
X48001400Y28544500D01*
X53582700Y41773700D02*
X48001400Y36192400D01*
X56590000Y50850000D02*
X57798800Y52058800D01*
X43438400Y23981500D02*
X43084600Y23981500D01*
X57108002Y41773700D02*
X53582700Y41773700D01*
X62232701Y51648199D02*
X61822100Y52058800D01*
X62232701Y46898399D02*
X62232701Y51648199D01*
X57798800Y52058800D02*
X61822100Y52058800D01*
X62232701Y46898399D02*
X57108002Y41773700D01*
X38127000Y29583000D02*
X37976400Y29432400D01*
X37976400Y29432400D02*
X34124300Y29432400D01*
X34124300Y29432400D02*
X28513600Y35043100D01*
X28513600Y35043100D02*
X28513600Y40641400D01*
X28513600Y40641400D02*
X28898400Y41026200D01*
X28898400Y41026200D02*
X28898400Y42518400D01*
X28898400Y42518400D02*
X28829700Y42587100D01*
X28829700Y42587100D02*
X28829700Y44440000D01*
X28829700Y44440000D02*
X26110000Y47159700D01*
X26110000Y48310000D02*
X26110000Y47159700D01*
X45496400Y38008700D02*
X45496400Y29724200D01*
X52449211Y49904718D02*
X52447258Y49904718D01*
X53299210Y50754717D02*
X52449211Y49904718D01*
X52447258Y49904718D02*
X52031900Y49489360D01*
X52031900Y44544200D02*
X51951780Y44464080D01*
X52031900Y49489360D02*
X52031900Y44544200D01*
X51951780Y44464080D02*
X45496400Y38008700D01*
X30339900Y38848900D02*
X30339900Y35546300D01*
X30638090Y39147090D02*
X30339900Y38848900D01*
X30638090Y39866589D02*
X30638090Y39147090D01*
X30458300Y45351400D02*
X30458300Y42388900D01*
X30458300Y42388900D02*
X30964189Y41883011D01*
X30964189Y41883011D02*
X30964189Y40192687D01*
X30964189Y40192687D02*
X30638090Y39866589D01*
X28749209Y47060491D02*
X29361560Y46448140D01*
X28749209Y47364718D02*
X28749209Y47060491D01*
X27899210Y48214717D02*
X28749209Y47364718D01*
X29361560Y46448140D02*
X30458300Y45351400D01*
X40402500Y24410000D02*
X44896100Y28903600D01*
X39930000Y24410000D02*
X40402500Y24410000D01*
X44896100Y38257600D02*
X50240000Y43601500D01*
X44896100Y28903600D02*
X44896100Y38257600D01*
X50759210Y50754717D02*
X49496980Y49492487D01*
X49496980Y46324660D02*
X50240000Y45581640D01*
X49496980Y49492487D02*
X49496980Y46324660D01*
X50240000Y43601500D02*
X50240000Y45581640D01*
X31038100Y39700900D02*
X31038100Y35980000D01*
X31190000Y48310000D02*
X31190000Y47159700D01*
X31190000Y47159700D02*
X31038100Y47007800D01*
X31038100Y47007800D02*
X31038100Y42494900D01*
X31038100Y42494900D02*
X31364199Y42168801D01*
X31364199Y42168801D02*
X31364199Y40026999D01*
X31364199Y40026999D02*
X31038100Y39700900D01*
X43895400Y38973500D02*
X43895400Y29623800D01*
X47619600Y42697700D02*
X43895400Y38973500D01*
X48219210Y50754717D02*
X46984920Y49520427D01*
X46984920Y46141640D02*
X47619600Y45506960D01*
X46984920Y49520427D02*
X46984920Y46141640D01*
X47619600Y45506960D02*
X47619600Y42697700D01*
X34189999Y41040001D02*
X34189999Y40950001D01*
X33890000Y41340000D02*
X34189999Y41040001D01*
X34189999Y40950001D02*
X34720000Y40420000D01*
X34720000Y37017500D02*
X33895600Y36193100D01*
X34720000Y40420000D02*
X34720000Y37017500D01*
X33579999Y41650001D02*
X33890000Y41340000D01*
X33529999Y41650001D02*
X33579999Y41650001D01*
X33230000Y41950000D02*
X33529999Y41650001D01*
X33890000Y46101846D02*
X33890000Y45910000D01*
X32979210Y47012636D02*
X33890000Y46101846D01*
X32979210Y48214717D02*
X32979210Y47012636D01*
X33890000Y45910000D02*
X33890000Y41340000D01*
X42932900Y29510200D02*
X42932900Y28586700D01*
X45240700Y41134400D02*
X43395200Y39288900D01*
X43395200Y39288900D02*
X43395200Y29972500D01*
X43395200Y29972500D02*
X42932900Y29510200D01*
X44366180Y46689260D02*
X45240700Y45814740D01*
X44366180Y49138840D02*
X44366180Y46689260D01*
X45240700Y45814740D02*
X45240700Y41134400D01*
X44366180Y49441687D02*
X45679210Y50754717D01*
X44366180Y49138840D02*
X44366180Y49441687D01*
X27228800Y33134000D02*
X27388500Y32974300D01*
X27228800Y41054900D02*
X27228800Y33134000D01*
X27228800Y40132000D02*
X26568400Y39471600D01*
X27228800Y41054900D02*
X27228800Y40132000D01*
X27697500Y42021000D02*
X27697500Y41523600D01*
X27544700Y42173800D02*
X27697500Y42021000D01*
X24270000Y44570000D02*
X24569999Y44869999D01*
X24569999Y44869999D02*
X24827397Y44869999D01*
X24827397Y44869999D02*
X25210198Y45252800D01*
X25210198Y45252800D02*
X25752800Y45252800D01*
X27697500Y41523600D02*
X27228800Y41054900D01*
X25752800Y45252800D02*
X27544700Y43460900D01*
X27544700Y43460900D02*
X27544700Y42173800D01*
X26187000Y19676700D02*
X26187000Y25875100D01*
X26187000Y25875100D02*
X23562400Y28499700D01*
X23562400Y44892400D02*
X23562400Y44357600D01*
X24270000Y45600000D02*
X23562400Y44892400D01*
X23562400Y28499700D02*
X23562400Y44357600D01*
X23562400Y44357600D02*
X23562400Y44720600D01*
X40728600Y28687700D02*
X40390900Y28350000D01*
X40728600Y29632900D02*
X40728600Y28687700D01*
X42550600Y31454900D02*
X40728600Y29632900D01*
X41843960Y46901100D02*
X42550600Y46194460D01*
X42550600Y46194460D02*
X42550600Y31454900D01*
X41843960Y49475967D02*
X41843960Y49156040D01*
X41615210Y49704717D02*
X41843960Y49475967D01*
X41615210Y50754717D02*
X41615210Y49704717D01*
X41843960Y49156040D02*
X41843960Y46901100D01*
X42150300Y31843200D02*
X40328300Y30021200D01*
X40328300Y30021200D02*
X40328300Y29251700D01*
X40328300Y29251700D02*
X38385200Y27308600D01*
X38385200Y27308600D02*
X37258100Y27308600D01*
X37258100Y27308600D02*
X36489000Y26539500D01*
X42150300Y45461546D02*
X42150300Y45027580D01*
X40599210Y47012636D02*
X42150300Y45461546D01*
X40599210Y48214717D02*
X40599210Y47012636D01*
X42150300Y45027580D02*
X42150300Y31843200D01*
X37776827Y52053100D02*
X39075210Y50754717D01*
X36553100Y52053100D02*
X37776827Y52053100D01*
X36694900Y52053100D02*
X36553100Y52053100D01*
X36896000Y31863400D02*
X38927400Y29832000D01*
X36115900Y31863400D02*
X36896000Y31863400D01*
X32776600Y35202700D02*
X36115900Y31863400D01*
X32579600Y35865600D02*
X32776600Y35668600D01*
X36553100Y52053100D02*
X33016900Y52053100D01*
X32700000Y51736200D02*
X32700000Y49930000D01*
X32579600Y46310840D02*
X32579600Y35865600D01*
X33016900Y52053100D02*
X32700000Y51736200D01*
X32700000Y49930000D02*
X31742380Y48972380D01*
X31742380Y48972380D02*
X31742380Y47148060D01*
X32776600Y35668600D02*
X32776600Y35202700D01*
X31742380Y47148060D02*
X32579600Y46310840D01*
X42950900Y46220600D02*
X42950900Y30968500D01*
X42950900Y30968500D02*
X41762300Y29779900D01*
X41762300Y29779900D02*
X41762300Y27596700D01*
X41762300Y27596700D02*
X39868000Y25702400D01*
X39868000Y25702400D02*
X37214700Y25702400D01*
X37214700Y25702400D02*
X36704300Y25192000D01*
X43139210Y46408910D02*
X42950900Y46220600D01*
X43139210Y48214717D02*
X43139210Y46408910D01*
X40735400Y31862800D02*
X40222600Y31350000D01*
X40735400Y32489400D02*
X40735400Y31862800D01*
X40530500Y40102800D02*
X40530500Y32694300D01*
X36270000Y49938000D02*
X36812420Y49395580D01*
X36812420Y49395580D02*
X36812420Y46525380D01*
X40530500Y32694300D02*
X40735400Y32489400D01*
X36812420Y46525380D02*
X37459600Y45878200D01*
X37459600Y45878200D02*
X37459600Y43173700D01*
X36270000Y50850000D02*
X36270000Y49938000D01*
X37459600Y43173700D02*
X40530500Y40102800D01*
X27225100Y19690400D02*
X27013300Y19902200D01*
X27013300Y19902200D02*
X27013200Y19902200D01*
X27013200Y19902200D02*
X27013200Y26143400D01*
X27013200Y26143400D02*
X24068700Y29087900D01*
X24068700Y29087900D02*
X24068700Y43223300D01*
X24068700Y43223300D02*
X25497700Y44652300D01*
X40130000Y39313900D02*
X40130000Y32175800D01*
X33995210Y49552636D02*
X34263923Y49283923D01*
X34263923Y49283923D02*
X34263923Y47198457D01*
X34263923Y47198457D02*
X34880300Y46582080D01*
X33995210Y50754717D02*
X33995210Y49552636D01*
X34880300Y46582080D02*
X34880300Y44563600D01*
X34880300Y44563600D02*
X40130000Y39313900D01*
X37702500Y25058100D02*
X37292600Y24648200D01*
X48219210Y47012636D02*
X48497303Y46734543D01*
X48497303Y46734543D02*
X48497303Y42707903D01*
X48219210Y48214717D02*
X48219210Y47012636D01*
X48497303Y42707903D02*
X44495800Y38706400D01*
X40322400Y25058100D02*
X37702500Y25058100D01*
X44495800Y38706400D02*
X44495800Y29231500D01*
X44495800Y29231500D02*
X40322400Y25058100D01*
X41135500Y33408800D02*
X41135500Y40870100D01*
X40080000Y41925600D02*
X40080000Y46320640D01*
X41135500Y40870100D02*
X40080000Y41925600D01*
X40080000Y46320640D02*
X39362380Y47038260D01*
X39362380Y48992380D02*
X39362380Y48812380D01*
X40360000Y49990000D02*
X39362380Y48992380D01*
X40360000Y51580000D02*
X40360000Y49990000D01*
X38857000Y52450000D02*
X39490000Y52450000D01*
X38853500Y52453500D02*
X38857000Y52450000D01*
X39490000Y52450000D02*
X40360000Y51580000D01*
X39362380Y47038260D02*
X39362380Y48812380D01*
X32137603Y52453110D02*
X32137603Y52453890D01*
X32137603Y52453890D02*
X32137993Y52453500D01*
X31951912Y52453500D02*
X32283500Y52453500D01*
X31455210Y51956798D02*
X31951912Y52453500D01*
X31455210Y50754717D02*
X31455210Y51956798D01*
X32137993Y52453500D02*
X32283500Y52453500D01*
X32283500Y52453500D02*
X38853500Y52453500D01*
X24469100Y40736900D02*
X24469100Y29326600D01*
X24469100Y29326600D02*
X27761400Y26034300D01*
X27761400Y26034300D02*
X27761400Y21467800D01*
X26944400Y43212200D02*
X24469100Y40736900D01*
X39527700Y32766200D02*
X39527700Y29583300D01*
X39527700Y29583300D02*
X38913700Y28969300D01*
X38913700Y28969300D02*
X33955700Y28969300D01*
X33955700Y28969300D02*
X28083800Y34841200D01*
X28083800Y34841200D02*
X28083800Y40777700D01*
X28083800Y40777700D02*
X28498100Y41192000D01*
X28498100Y41192000D02*
X28498100Y42352600D01*
X28498100Y42352600D02*
X28429400Y42421300D01*
X28429400Y42421300D02*
X28429400Y43807200D01*
X25144779Y46920920D02*
X24918219Y47147480D01*
X25315680Y46920920D02*
X25144779Y46920920D01*
X28429400Y43807200D02*
X25315680Y46920920D01*
X24918219Y47147480D02*
X24475440Y47147480D01*
X24475440Y47147480D02*
X24046180Y47576740D01*
X27623527Y52046400D02*
X28915210Y50754717D01*
X26343600Y52046400D02*
X27623527Y52046400D01*
X26541600Y52046400D02*
X26343600Y52046400D01*
X24046180Y48916180D02*
X24186180Y48916180D01*
X24046180Y47576740D02*
X24046180Y48916180D01*
X24186180Y48916180D02*
X25110000Y49840000D01*
X25110000Y51660000D02*
X25496400Y52046400D01*
X25110000Y49840000D02*
X25110000Y51660000D01*
X26343600Y52046400D02*
X25496400Y52046400D01*
X19039840Y48889840D02*
X19039840Y46814740D01*
X19039840Y46814740D02*
X19760000Y46094580D01*
X20030000Y49880000D02*
X19039840Y48889840D01*
X19760000Y46094580D02*
X19760000Y31395600D01*
X20030000Y51450000D02*
X20030000Y49880000D01*
X19760000Y31395600D02*
X20345400Y30810200D01*
X20629990Y30810200D02*
X20629990Y30820000D01*
X20345400Y30810200D02*
X20629990Y30810200D01*
X20598400Y52018400D02*
X20030000Y51450000D01*
X24200320Y52018400D02*
X20598400Y52018400D01*
X24391400Y52018400D02*
X24200320Y52018400D01*
X24751600Y52018400D02*
X25110000Y51660000D01*
X24200320Y52018400D02*
X24751600Y52018400D01*
X22537400Y21850000D02*
X16917200Y27470200D01*
X18852400Y52853900D02*
X53681800Y52853900D01*
X54635640Y49551147D02*
X53299210Y48214717D01*
X54635640Y51900060D02*
X54635640Y49551147D01*
X53681800Y52853900D02*
X54635640Y51900060D01*
X16917200Y42465460D02*
X16917200Y42511180D01*
X16917200Y27470200D02*
X16917200Y42465460D01*
X18852400Y52853900D02*
X13389920Y52853900D01*
X13389920Y52853900D02*
X12664440Y52128420D01*
X12664440Y52128420D02*
X12664440Y47675800D01*
X12664440Y47675800D02*
X12672060Y47668180D01*
X12672060Y47668180D02*
X12672060Y47137320D01*
X12672060Y47137320D02*
X13891260Y45918120D01*
X13891260Y45918120D02*
X14147800Y45918120D01*
X14147800Y45918120D02*
X14147800Y45918120D01*
X16389350Y44032170D02*
X16177260Y44244260D01*
X16389350Y43039030D02*
X16389350Y44032170D01*
X16917200Y42511180D02*
X16389350Y43039030D01*
X35548200Y25782200D02*
X36104000Y25226400D01*
X36104000Y25226400D02*
X36104000Y24943400D01*
X36104000Y24943400D02*
X36623500Y24423900D01*
X36623500Y24423900D02*
X36668100Y24423900D01*
X36668100Y24423900D02*
X36668100Y24423800D01*
X36668100Y24423800D02*
X37286300Y23805600D01*
X37286300Y23805600D02*
X40845700Y23805600D01*
X40845700Y23805600D02*
X42821200Y25781100D01*
X42821200Y25781100D02*
X43721100Y25781100D01*
X46258600Y28318600D02*
X46258600Y29071200D01*
X46258600Y29071200D02*
X46800500Y29613100D01*
X46800500Y29613100D02*
X46800500Y37370200D01*
X43721100Y25781100D02*
X46258600Y28318600D01*
X55839210Y46408910D02*
X55704380Y46274080D01*
X55839210Y48214717D02*
X55839210Y46408910D01*
X46800500Y37370200D02*
X55704380Y46274080D01*
X57979600Y48848100D02*
X57979600Y47923300D01*
X33916000Y27216900D02*
X34947900Y26185000D01*
X34947900Y26185000D02*
X34947900Y25533600D01*
X34947900Y25533600D02*
X35299600Y25181900D01*
X35299600Y25181900D02*
X35299700Y25181900D01*
X35299700Y25181900D02*
X35703700Y24777900D01*
X35703700Y24777900D02*
X35703700Y24777600D01*
X35703700Y24777600D02*
X37119700Y23361600D01*
X37119700Y23361600D02*
X40967800Y23361600D01*
X40967800Y23361600D02*
X42188000Y24581800D01*
X42188000Y24581800D02*
X43467200Y24581800D01*
X43467200Y24581800D02*
X47601100Y28715700D01*
X47601100Y28715700D02*
X47601100Y36364300D01*
X58280001Y47043201D02*
X57368400Y46131600D01*
X58280001Y47460001D02*
X58280001Y47043201D01*
X59130000Y48310000D02*
X58280001Y47460001D01*
X47601100Y36364300D02*
X57368400Y46131600D01*
X41541300Y44216100D02*
X41750000Y44007400D01*
X41750000Y44007400D02*
X41750000Y32009000D01*
X41750000Y32009000D02*
X39928000Y30187000D01*
X39928000Y30187000D02*
X39928000Y29417500D01*
X39928000Y29417500D02*
X38852000Y28341500D01*
X38852000Y28341500D02*
X35901800Y28341500D01*
X30945600Y29464000D02*
X32915400Y27494200D01*
X32915400Y27494200D02*
X32915400Y26775600D01*
X32915400Y26775600D02*
X33747200Y25943800D01*
X33747200Y25943800D02*
X33747200Y25601900D01*
X33747200Y25601900D02*
X36788300Y22560800D01*
X36788300Y22560800D02*
X43176000Y22560800D01*
X43176000Y22560800D02*
X49202100Y28586900D01*
X49202100Y28586900D02*
X49202100Y36824700D01*
X49202100Y36824700D02*
X53609200Y41231800D01*
X53609200Y41231800D02*
X57131800Y41231800D01*
X57131800Y41231800D02*
X58277083Y41231800D01*
X63459031Y47164538D02*
X63459031Y46413749D01*
X63459210Y47164717D02*
X63459031Y47164538D01*
X63459210Y48214717D02*
X63459210Y47164717D01*
X58277083Y41231800D02*
X63459031Y46413749D01*
X52419400Y15090300D02*
X52909700Y14600000D01*
X43565300Y15090300D02*
X52419400Y15090300D01*
X43151700Y14676700D02*
X43565300Y15090300D01*
X40625000Y14676700D02*
X43151700Y14676700D01*
X37736900Y18171800D02*
X38945100Y16963600D01*
X38945100Y16963600D02*
X38945100Y16356600D01*
X29361800Y27085400D02*
X29327500Y27051100D01*
X29327500Y27051100D02*
X29327500Y26058900D01*
X52909700Y14600000D02*
X54060000Y14600000D01*
X29327500Y26058900D02*
X36496300Y18890100D01*
X38945100Y16356600D02*
X40625000Y14676700D01*
X36997600Y18890100D02*
X37715900Y18171800D01*
X36496300Y18890100D02*
X36997600Y18890100D01*
X37715900Y18171800D02*
X37736900Y18171800D01*
X36330500Y18489800D02*
X25088100Y29732200D01*
X36831800Y18489800D02*
X36330500Y18489800D01*
X38429100Y16892600D02*
X38429000Y16892600D01*
X38429000Y16892600D02*
X36831800Y18489800D01*
X38429100Y16306400D02*
X38429100Y16892600D01*
X55688000Y14600000D02*
X54488200Y13400200D01*
X54488200Y13400200D02*
X51681300Y13400200D01*
X51681300Y13400200D02*
X50391800Y14689700D01*
X56600000Y14600000D02*
X55688000Y14600000D01*
X40045800Y14689700D02*
X38429100Y16306400D01*
X40045800Y14689700D02*
X40045800Y14679200D01*
X40045800Y14679200D02*
X40450000Y14275000D01*
X43420600Y14275000D02*
X43835300Y14689700D01*
X40450000Y14275000D02*
X43420600Y14275000D01*
X50391800Y14689700D02*
X43835300Y14689700D01*
X29927800Y26519400D02*
X29927800Y26024700D01*
X29927800Y26024700D02*
X36662100Y19290400D01*
X36662100Y19290400D02*
X37163400Y19290400D01*
X37163400Y19290400D02*
X37881700Y18572100D01*
X37881700Y18572100D02*
X37914900Y18572100D01*
X37914900Y18572100D02*
X39395600Y17091400D01*
X39395600Y17091400D02*
X39395600Y16533200D01*
X39395600Y16533200D02*
X40358300Y15570500D01*
X51340200Y15570500D02*
X52909700Y17140000D01*
X54060000Y17140000D02*
X52909700Y17140000D01*
X40358300Y15516700D02*
X40798290Y15076710D01*
X40358300Y15570500D02*
X40358300Y15516700D01*
X43479802Y15570500D02*
X43879500Y15570500D01*
X42986012Y15076710D02*
X43479802Y15570500D01*
X40798290Y15076710D02*
X42986012Y15076710D01*
X43879500Y15570500D02*
X51340200Y15570500D01*
X42029300Y17980500D02*
X42029300Y18094600D01*
X42029300Y18094600D02*
X40921500Y19202400D01*
X40921500Y19202400D02*
X39215000Y19202400D01*
X39215000Y19202400D02*
X38985000Y18972400D01*
X38985000Y18972400D02*
X38047500Y18972400D01*
X38047500Y18972400D02*
X37329200Y19690700D01*
X37329200Y19690700D02*
X36827900Y19690700D01*
X36827900Y19690700D02*
X30865400Y25653200D01*
X30865400Y25653200D02*
X30865400Y26430900D01*
X30865400Y26430900D02*
X29112500Y28183800D01*
X29112500Y28183800D02*
X28799900Y28183800D01*
X28799900Y28183800D02*
X28344000Y28639700D01*
X28344000Y28639700D02*
X28344000Y29536300D01*
X28944300Y28918100D02*
X28944300Y28939500D01*
X31265700Y26160800D02*
X31265700Y26596700D01*
X31265800Y25818900D02*
X31265800Y26160800D01*
X36993700Y20091000D02*
X31265800Y25818900D01*
X37495000Y20091000D02*
X36993700Y20091000D01*
X31265800Y26160800D02*
X31265700Y26160800D01*
X38213300Y19372700D02*
X37495000Y20091000D01*
X56600000Y19680000D02*
X55737300Y19680000D01*
X54578600Y18521300D02*
X43517500Y18521300D01*
X43517500Y18521300D02*
X42436100Y19602700D01*
X31265700Y26596700D02*
X28944300Y28918100D01*
X38710600Y19372700D02*
X38213300Y19372700D01*
X42436100Y19602700D02*
X38940600Y19602700D01*
X55737300Y19680000D02*
X54578600Y18521300D01*
X38940600Y19602700D02*
X38710600Y19372700D01*
X29945000Y29474800D02*
X28176000Y31243800D01*
X32066300Y26492500D02*
X32066300Y26928300D01*
X32946600Y25612200D02*
X32066300Y26492500D01*
X32946600Y25270300D02*
X32946600Y25612200D01*
X32066300Y26928300D02*
X29945000Y29049600D01*
X56600000Y22220000D02*
X55737300Y22220000D01*
X54546700Y23410600D02*
X45627200Y23410600D01*
X29945000Y29049600D02*
X29945000Y29474800D01*
X45627200Y23410600D02*
X43962300Y21745700D01*
X55737300Y22220000D02*
X54546700Y23410600D01*
X43962300Y21745700D02*
X36471200Y21745700D01*
X36471200Y21745700D02*
X32946600Y25270300D01*
X50077000Y34536800D02*
X50683700Y35143500D01*
X50077000Y29533800D02*
X50077000Y34536800D01*
X54060000Y24760000D02*
X54060000Y25550800D01*
X54060000Y25550800D02*
X50077000Y29533800D01*
X25078200Y31350000D02*
X24952700Y31475500D01*
X24952700Y31475500D02*
X24952700Y40575900D01*
X24952700Y40575900D02*
X26244200Y41867400D01*
X27002100Y41867400D02*
X27097200Y41772300D01*
X26244200Y41867400D02*
X27002100Y41867400D01*
X52909700Y27300000D02*
X51277700Y28932000D01*
X51277700Y28932000D02*
X51277700Y30975600D01*
X51277700Y30975600D02*
X51077700Y31175600D01*
X51077700Y31175600D02*
X51077700Y33331400D01*
X54060000Y27300000D02*
X52909700Y27300000D01*
X29162500Y36220600D02*
X29162500Y40724200D01*
X29162500Y40724200D02*
X29455100Y41016800D01*
X29455100Y41016800D02*
X29455100Y43062700D01*
X36954000Y22961200D02*
X42984200Y22961200D01*
X35303300Y24612100D02*
X35303400Y24612100D01*
X35303400Y24611800D02*
X36954000Y22961200D01*
X35303400Y24612100D02*
X35303400Y24611800D01*
X34347500Y25913000D02*
X34347500Y25567900D01*
X34347500Y25567900D02*
X35303300Y24612100D01*
X42984200Y22961200D02*
X48601700Y28578700D01*
X48601700Y28578700D02*
X48601700Y29031400D01*
X30345300Y30054300D02*
X28049600Y32350000D01*
X32466600Y27094100D02*
X30345300Y29215400D01*
X30345300Y29215400D02*
X30345300Y30054300D01*
X33346900Y25778000D02*
X32466600Y26658300D01*
X32466600Y26658300D02*
X32466600Y27094100D01*
X49602400Y28362700D02*
X43385700Y22146000D01*
X49602400Y34911300D02*
X49602400Y28362700D01*
X56600000Y35831900D02*
X55210400Y37221500D01*
X43385700Y22146000D02*
X36637000Y22146000D01*
X56600000Y34920000D02*
X56600000Y35831900D01*
X36637000Y22146000D02*
X33346900Y25436100D01*
X55210400Y37221500D02*
X55210400Y38013900D01*
X55210400Y38013900D02*
X54613900Y38610400D01*
X33346900Y25436100D02*
X33346900Y25778000D01*
X54613900Y38610400D02*
X53301500Y38610400D01*
X53301500Y38610400D02*
X49602400Y34911300D01*
X50677400Y30726900D02*
X50477300Y30927000D01*
X50477300Y30927000D02*
X50477300Y33598600D01*
X52439350Y35839350D02*
X52439350Y35560650D01*
X54060000Y37460000D02*
X52439350Y35839350D01*
X50477300Y33598600D02*
X52439350Y35560650D01*
X31964200Y35632000D02*
X32176300Y35419900D01*
X58281400Y39141400D02*
X58699400Y39141400D01*
X56600000Y37460000D02*
X58281400Y39141400D01*
X31964200Y42288300D02*
X31964200Y42203800D01*
X31964200Y42203800D02*
X31964200Y35632000D01*
X31964200Y42203800D02*
X31964200Y42635600D01*
X31964200Y42635600D02*
X31699200Y42900600D01*
X35258800Y36621700D02*
X34696000Y36058900D01*
X35258800Y40788800D02*
X35258800Y40433200D01*
X35258800Y40433200D02*
X35258800Y36621700D01*
X35258800Y40923336D02*
X35258800Y40433200D01*
X34569400Y42468800D02*
X34569400Y41612736D01*
X34569400Y41612736D02*
X35258800Y40923336D01*
X37849300Y21091600D02*
X37999500Y21241800D01*
X37999500Y21241800D02*
X50497500Y21241800D01*
X50497500Y21241800D02*
X50789300Y20950000D01*
X43955100Y19592700D02*
X43101600Y19592700D01*
X43101600Y19592700D02*
X42663800Y20030500D01*
X42663800Y20030500D02*
X38519400Y20030500D01*
X38519400Y20030500D02*
X38461900Y19973000D01*
X36656700Y18089500D02*
X35881700Y18089500D01*
X44224300Y10115600D02*
X43980500Y10115600D01*
X35881700Y18089500D02*
X34031500Y19939700D01*
X37794400Y16301700D02*
X37794400Y16951800D01*
X43980500Y10115600D02*
X37794400Y16301700D01*
X37794400Y16951800D02*
X36656700Y18089500D01*
X46158200Y10115600D02*
X44224300Y10115600D01*
X59317600Y932600D02*
X60920000Y2535000D01*
X32914400Y932600D02*
X59317600Y932600D01*
X31706820Y2140180D02*
X32914400Y932600D01*
X31706820Y2946400D02*
X31706820Y2140180D01*
X32681900Y3924600D02*
X31829600Y3072300D01*
X36039900Y3924600D02*
X32681900Y3924600D01*
X31829600Y3069180D02*
X31706820Y2946400D01*
X35416600Y15413700D02*
X40550000Y10280300D01*
X35416600Y16849900D02*
X35416600Y15413700D01*
X31829600Y3072300D02*
X31829600Y3069180D01*
X40550000Y10280300D02*
X40550000Y9665500D01*
X40550000Y9665500D02*
X36820880Y5936380D01*
X36820880Y5936380D02*
X36820880Y4705580D01*
X36820880Y4705580D02*
X36039900Y3924600D01*
X39924700Y10039300D02*
X34865800Y15098200D01*
X34865800Y15098200D02*
X34865800Y16551800D01*
X34865800Y16551800D02*
X34816300Y16601300D01*
X34816300Y16601300D02*
X34816300Y17445200D01*
X36593700Y16888800D02*
X36790200Y17085300D01*
X36593700Y15611800D02*
X36593700Y16888800D01*
X41989700Y10215800D02*
X36593700Y15611800D01*
X41989700Y6734500D02*
X41989700Y10215800D01*
X58380000Y2535000D02*
X57468000Y2535000D01*
X57468000Y2535000D02*
X56198000Y3805000D01*
X42741300Y3805000D02*
X41845630Y4700670D01*
X56198000Y3805000D02*
X42741300Y3805000D01*
X41845630Y4700670D02*
X41845630Y6590430D01*
X41845630Y6590430D02*
X41989700Y6734500D01*
X37194000Y16357200D02*
X37194000Y16280300D01*
X37194000Y16280300D02*
X44972100Y8502200D01*
X46170400Y8502200D02*
X44972100Y8502200D01*
X48582100Y6846000D02*
X48582100Y10209900D01*
X48582100Y10209900D02*
X45102900Y13689100D01*
X33205800Y19984600D02*
X33205800Y19916500D01*
X33205800Y19916500D02*
X36094000Y17028300D01*
X36094000Y17028300D02*
X36094000Y15545300D01*
X36094000Y15545300D02*
X40955000Y10684300D01*
X40955000Y10684300D02*
X40955000Y6580300D01*
X40955000Y6580300D02*
X40600000Y6225300D01*
X40600000Y5075000D02*
X40600000Y6225300D01*
X35520000Y6225300D02*
X31291000Y10454300D01*
X31291000Y10454300D02*
X30854400Y10454300D01*
X35520000Y5075000D02*
X35520000Y6225300D01*
X32980000Y6225300D02*
X29784800Y9420500D01*
X29784800Y9420500D02*
X29784800Y13392400D01*
X32980000Y5075000D02*
X32980000Y6225300D01*
X10396530Y37596738D02*
X9139792Y36340000D01*
D22*
X17822000Y11980000D02*
X16430000Y11980000D01*
X20320000Y14478000D02*
X17822000Y11980000D01*
X20328000Y14478000D02*
X20320000Y14478000D01*
X21750000Y16900000D02*
X21750000Y15900000D01*
X21750000Y15900000D02*
X20328000Y14478000D01*
D19*
X2070000Y11570000D02*
X2070000Y10570000D01*
X2790000Y9850000D02*
X2070000Y10570000D01*
X13950000Y9850000D02*
X2790000Y9850000D01*
D18*
X36149500Y32770400D02*
X33231200Y35688700D01*
X33231200Y38278800D02*
X33231200Y38661200D01*
X33231200Y35688700D02*
X33231200Y38278800D01*
X33790000Y39220000D02*
X33910000Y39340000D01*
X33231200Y38661200D02*
X33790000Y39220000D01*
X36254999Y42210001D02*
X36254999Y38204999D01*
X35955000Y42510000D02*
X36254999Y42210001D01*
X36247600Y38197600D02*
X36247600Y35252100D01*
X36254999Y38204999D02*
X36247600Y38197600D01*
X17190000Y22555736D02*
X18235736Y21510000D01*
X17190000Y22980000D02*
X17190000Y22555736D01*
X18235736Y21510000D02*
X21020000Y21510000D01*
X21020000Y21510000D02*
X21260000Y21750000D01*
X20360000Y43789600D02*
X20360000Y39689800D01*
X20360000Y39689800D02*
X20375000Y39674800D01*
X12700000Y31860000D02*
X13770000Y30790000D01*
X11290000Y31860000D02*
X10960000Y32190000D01*
X11490000Y31860000D02*
X11290000Y31860000D01*
X11490000Y31860000D02*
X12700000Y31860000D01*
D23*
G36*
X12050353Y52538739D02*
G01*
X11982103Y52411052D01*
X11959255Y52335733D01*
X11940075Y52272505D01*
X11925884Y52128420D01*
X11929440Y52092315D01*
X11929441Y49756340D01*
X11845911Y49756340D01*
X11665271Y49720408D01*
X11495111Y49649926D01*
X11341972Y49547602D01*
X11211738Y49417368D01*
X11109414Y49264229D01*
X11038932Y49094069D01*
X11003000Y48913429D01*
X11003000Y48729251D01*
X11038932Y48548611D01*
X11109414Y48378451D01*
X11195380Y48249793D01*
X11195381Y46492715D01*
X11191824Y46456600D01*
X11206015Y46312515D01*
X11242382Y46192633D01*
X11248044Y46173967D01*
X11316294Y46046280D01*
X11408143Y45934362D01*
X11436188Y45911346D01*
X12362808Y44984726D01*
X12186060Y44911515D01*
X12008353Y44792775D01*
X11857225Y44641647D01*
X11738485Y44463940D01*
X11656696Y44266483D01*
X11615000Y44056863D01*
X11615000Y43843137D01*
X11656696Y43633517D01*
X11738485Y43436060D01*
X11857225Y43258353D01*
X12008353Y43107225D01*
X12186060Y42988485D01*
X12383517Y42906696D01*
X12593137Y42865000D01*
X12806863Y42865000D01*
X12829608Y42869524D01*
X12905001Y42794131D01*
X12905000Y36229422D01*
X12897225Y36221647D01*
X12778485Y36043940D01*
X12696696Y35846483D01*
X12655000Y35636863D01*
X12655000Y35423137D01*
X12696696Y35213517D01*
X12778485Y35016060D01*
X12897225Y34838353D01*
X13048353Y34687225D01*
X13226060Y34568485D01*
X13423517Y34486696D01*
X13633137Y34445000D01*
X13846863Y34445000D01*
X14056483Y34486696D01*
X14253940Y34568485D01*
X14431647Y34687225D01*
X14582775Y34838353D01*
X14701515Y35016060D01*
X14783304Y35213517D01*
X14825000Y35423137D01*
X14825000Y35636863D01*
X14783304Y35846483D01*
X14701515Y36043940D01*
X14582775Y36221647D01*
X14575000Y36229422D01*
X14575000Y42777614D01*
X15216200Y42136413D01*
X15216201Y36981152D01*
X15122614Y36841089D01*
X15052132Y36670929D01*
X15016200Y36490289D01*
X15016200Y36306111D01*
X15052132Y36125471D01*
X15122614Y35955311D01*
X15224938Y35802172D01*
X15355172Y35671938D01*
X15508311Y35569614D01*
X15678471Y35499132D01*
X15859111Y35463200D01*
X16043289Y35463200D01*
X16182201Y35490832D01*
X16182200Y27506305D01*
X16178644Y27470200D01*
X16192835Y27326115D01*
X16200134Y27302055D01*
X16234863Y27187568D01*
X16303113Y27059881D01*
X16394962Y26947963D01*
X16423008Y26924946D01*
X20788491Y22559463D01*
X20663972Y22476262D01*
X20533738Y22346028D01*
X20466233Y22245000D01*
X18540183Y22245000D01*
X18085800Y22699382D01*
X18089068Y22707271D01*
X18125000Y22887911D01*
X18125000Y23072089D01*
X18089068Y23252729D01*
X18018586Y23422889D01*
X17916262Y23576028D01*
X17786028Y23706262D01*
X17632889Y23808586D01*
X17462729Y23879068D01*
X17282089Y23915000D01*
X17097911Y23915000D01*
X16917271Y23879068D01*
X16747111Y23808586D01*
X16593972Y23706262D01*
X16463738Y23576028D01*
X16361414Y23422889D01*
X16290932Y23252729D01*
X16255000Y23072089D01*
X16255000Y22887911D01*
X16290932Y22707271D01*
X16361414Y22537111D01*
X16463738Y22383972D01*
X16478513Y22369197D01*
X16507663Y22273103D01*
X16575913Y22145416D01*
X16667763Y22033498D01*
X16695808Y22010482D01*
X17690482Y21015807D01*
X17713498Y20987762D01*
X17825416Y20895913D01*
X17953103Y20827663D01*
X18039068Y20801586D01*
X18091650Y20785635D01*
X18235735Y20771444D01*
X18271840Y20775000D01*
X20983895Y20775000D01*
X21020000Y20771444D01*
X21056105Y20775000D01*
X21164085Y20785635D01*
X21260889Y20815000D01*
X21352089Y20815000D01*
X21532729Y20850932D01*
X21702889Y20921414D01*
X21856028Y21023738D01*
X21950158Y21117868D01*
X22094511Y21021414D01*
X22264671Y20950932D01*
X22445311Y20915000D01*
X22629489Y20915000D01*
X22810129Y20950932D01*
X22980289Y21021414D01*
X23133428Y21123738D01*
X23212622Y21202932D01*
X24655600Y19759953D01*
X24655600Y19624905D01*
X24652044Y19588800D01*
X24655600Y19552696D01*
X24655600Y19552695D01*
X24666235Y19444715D01*
X24708263Y19306167D01*
X24776513Y19178480D01*
X24868363Y19066562D01*
X24896408Y19043546D01*
X25368646Y18571308D01*
X25391662Y18543262D01*
X25503580Y18451413D01*
X25631267Y18383163D01*
X25754717Y18345715D01*
X25769815Y18341135D01*
X25913900Y18326944D01*
X25950005Y18330500D01*
X30911495Y18330500D01*
X30947600Y18326944D01*
X30958293Y18327997D01*
X33105482Y16180807D01*
X33128498Y16152762D01*
X33218411Y16078972D01*
X33240416Y16060913D01*
X33368102Y15992663D01*
X33464197Y15963513D01*
X33478972Y15948738D01*
X33632111Y15846414D01*
X33802271Y15775932D01*
X33982911Y15740000D01*
X34130800Y15740000D01*
X34130800Y15134305D01*
X34127244Y15098200D01*
X34141435Y14954115D01*
X34152613Y14917267D01*
X34183463Y14815568D01*
X34251713Y14687881D01*
X34343562Y14575963D01*
X34371608Y14552946D01*
X36145798Y12778755D01*
X35970312Y12761472D01*
X35866432Y12729959D01*
X35794064Y12708007D01*
X35631632Y12621186D01*
X35489260Y12504344D01*
X35459974Y12468659D01*
X34901315Y11910000D01*
X34221289Y11910000D01*
X30589500Y15541789D01*
X30589500Y16299565D01*
X30594024Y16345500D01*
X30575972Y16528792D01*
X30542469Y16639233D01*
X30522507Y16705040D01*
X30435686Y16867472D01*
X30318844Y17009844D01*
X30283160Y17039129D01*
X29693630Y17628659D01*
X29664344Y17664344D01*
X29521972Y17781186D01*
X29359540Y17868007D01*
X29183292Y17921471D01*
X29045932Y17935000D01*
X29000000Y17939524D01*
X28954068Y17935000D01*
X27753623Y17935000D01*
X27713940Y17961515D01*
X27516483Y18043304D01*
X27306863Y18085000D01*
X27093137Y18085000D01*
X26883517Y18043304D01*
X26686060Y17961515D01*
X26508353Y17842775D01*
X26357225Y17691647D01*
X26238485Y17513940D01*
X26156696Y17316483D01*
X26115000Y17106863D01*
X26115000Y16893137D01*
X26156696Y16683517D01*
X26238485Y16486060D01*
X26357225Y16308353D01*
X26508353Y16157225D01*
X26686060Y16038485D01*
X26883517Y15956696D01*
X27093137Y15915000D01*
X27306863Y15915000D01*
X27516483Y15956696D01*
X27713940Y16038485D01*
X27753623Y16065000D01*
X28612711Y16065000D01*
X28719500Y15958211D01*
X28719501Y15541791D01*
X27023641Y13845930D01*
X26987956Y13816644D01*
X26871114Y13674271D01*
X26784293Y13511839D01*
X26752329Y13406467D01*
X26730829Y13335591D01*
X26712776Y13152300D01*
X26717300Y13106368D01*
X26717301Y8083642D01*
X26712776Y8037700D01*
X26722891Y7935000D01*
X25435000Y7935000D01*
X25435000Y9604068D01*
X25439524Y9650000D01*
X25421471Y9833292D01*
X25418565Y9842871D01*
X25368007Y10009540D01*
X25281186Y10171972D01*
X25164344Y10314344D01*
X25128659Y10343630D01*
X24752615Y10719674D01*
X24743304Y10766483D01*
X24661515Y10963940D01*
X24542775Y11141647D01*
X24391647Y11292775D01*
X24213940Y11411515D01*
X24016483Y11493304D01*
X23806863Y11535000D01*
X23593137Y11535000D01*
X23383517Y11493304D01*
X23186060Y11411515D01*
X23008353Y11292775D01*
X22857225Y11141647D01*
X22738485Y10963940D01*
X22656696Y10766483D01*
X22615000Y10556863D01*
X22615000Y10343137D01*
X22656696Y10133517D01*
X22738485Y9936060D01*
X22857225Y9758353D01*
X23008353Y9607225D01*
X23186060Y9488485D01*
X23383517Y9406696D01*
X23430326Y9397385D01*
X23565001Y9262710D01*
X23565000Y8189403D01*
X23536863Y8195000D01*
X23323137Y8195000D01*
X23113517Y8153304D01*
X22916060Y8071515D01*
X22738353Y7952775D01*
X22587225Y7801647D01*
X22468485Y7623940D01*
X22386696Y7426483D01*
X22345000Y7216863D01*
X22345000Y7003137D01*
X22386696Y6793517D01*
X22468485Y6596060D01*
X22587225Y6418353D01*
X22738353Y6267225D01*
X22916060Y6148485D01*
X23113517Y6066696D01*
X23323137Y6025000D01*
X23536863Y6025000D01*
X23737957Y6065000D01*
X24454068Y6065000D01*
X24500000Y6060476D01*
X24545932Y6065000D01*
X26790854Y6065000D01*
X26658504Y5903731D01*
X26520611Y5645751D01*
X26435697Y5365828D01*
X26407025Y5074717D01*
X26435697Y4783606D01*
X26520611Y4503683D01*
X26658504Y4245703D01*
X26844076Y4019583D01*
X27070196Y3834011D01*
X27125001Y3804717D01*
X27070196Y3775423D01*
X26844076Y3589851D01*
X26658504Y3363731D01*
X26520611Y3105751D01*
X26435697Y2825828D01*
X26407025Y2534717D01*
X26435697Y2243606D01*
X26520611Y1963683D01*
X26658504Y1705703D01*
X26844076Y1479583D01*
X27070196Y1294011D01*
X27328176Y1156118D01*
X27608099Y1071204D01*
X27826260Y1049717D01*
X27972160Y1049717D01*
X28190321Y1071204D01*
X28470244Y1156118D01*
X28728224Y1294011D01*
X28954344Y1479583D01*
X29139916Y1705703D01*
X29169210Y1760508D01*
X29198504Y1705703D01*
X29384076Y1479583D01*
X29610196Y1294011D01*
X29868176Y1156118D01*
X30148099Y1071204D01*
X30366260Y1049717D01*
X30512160Y1049717D01*
X30730321Y1071204D01*
X31010244Y1156118D01*
X31268224Y1294011D01*
X31402964Y1404590D01*
X32077836Y729717D01*
X15250730Y729717D01*
X15353939Y798679D01*
X15665248Y1109988D01*
X15909841Y1476048D01*
X16078320Y1882792D01*
X16164210Y2314589D01*
X16164210Y2754845D01*
X16078320Y3186642D01*
X15909841Y3593386D01*
X15665248Y3959446D01*
X15353939Y4270755D01*
X14987879Y4515348D01*
X14581135Y4683827D01*
X14149338Y4769717D01*
X13709082Y4769717D01*
X13277285Y4683827D01*
X12870541Y4515348D01*
X12504481Y4270755D01*
X12193172Y3959446D01*
X11948579Y3593386D01*
X11780100Y3186642D01*
X11694210Y2754845D01*
X11694210Y2314589D01*
X11780100Y1882792D01*
X11948579Y1476048D01*
X12193172Y1109988D01*
X12504481Y798679D01*
X12607690Y729717D01*
X9519942Y729717D01*
X9585870Y885785D01*
X9600286Y958186D01*
X9477677Y1173000D01*
X7627000Y1173000D01*
X7627000Y1153000D01*
X7373000Y1153000D01*
X7373000Y1173000D01*
X5522323Y1173000D01*
X5399714Y958186D01*
X5414130Y885785D01*
X5480058Y729717D01*
X1059005Y729717D01*
X931850Y750909D01*
X926895Y752711D01*
X761690Y917916D01*
X759888Y922871D01*
X738696Y1050027D01*
X738696Y1641814D01*
X5399714Y1641814D01*
X5522323Y1427000D01*
X7373000Y1427000D01*
X7373000Y2689000D01*
X7627000Y2689000D01*
X7627000Y1427000D01*
X9477677Y1427000D01*
X9600286Y1641814D01*
X9585870Y1714215D01*
X9479469Y1966091D01*
X9325974Y2192369D01*
X9131284Y2384354D01*
X8902880Y2534668D01*
X8649540Y2637534D01*
X8381000Y2689000D01*
X7627000Y2689000D01*
X7373000Y2689000D01*
X6619000Y2689000D01*
X6350460Y2637534D01*
X6097120Y2534668D01*
X5868716Y2384354D01*
X5674026Y2192369D01*
X5520531Y1966091D01*
X5414130Y1714215D01*
X5399714Y1641814D01*
X738696Y1641814D01*
X738696Y5873000D01*
X3111000Y5873000D01*
X3111000Y5119000D01*
X3162466Y4850460D01*
X3265332Y4597120D01*
X3415646Y4368716D01*
X3607631Y4174026D01*
X3833909Y4020531D01*
X4085785Y3914130D01*
X4158186Y3899714D01*
X4373000Y4022323D01*
X4373000Y5873000D01*
X4627000Y5873000D01*
X4627000Y4022323D01*
X4841814Y3899714D01*
X4914215Y3914130D01*
X5166091Y4020531D01*
X5392369Y4174026D01*
X5584354Y4368716D01*
X5734668Y4597120D01*
X5837534Y4850460D01*
X5889000Y5119000D01*
X5889000Y5873000D01*
X4627000Y5873000D01*
X4373000Y5873000D01*
X3111000Y5873000D01*
X738696Y5873000D01*
X738696Y6881000D01*
X3111000Y6881000D01*
X3111000Y6127000D01*
X4373000Y6127000D01*
X4373000Y7977677D01*
X4627000Y7977677D01*
X4627000Y6127000D01*
X5889000Y6127000D01*
X5889000Y6822230D01*
X9111000Y6822230D01*
X9111000Y5177771D01*
X9131098Y4973710D01*
X9210523Y4711882D01*
X9339501Y4470581D01*
X9513077Y4259078D01*
X9724580Y4085501D01*
X9965881Y3956523D01*
X10227709Y3877098D01*
X10500000Y3850280D01*
X10772290Y3877098D01*
X11034118Y3956523D01*
X11275419Y4085501D01*
X11486922Y4259077D01*
X11660499Y4470580D01*
X11789477Y4711881D01*
X11868902Y4973709D01*
X11889000Y5177770D01*
X11889000Y6822230D01*
X11868902Y7026291D01*
X11789477Y7288119D01*
X11660499Y7529420D01*
X11486923Y7740923D01*
X11275420Y7914499D01*
X11034119Y8043477D01*
X10772291Y8122902D01*
X10500000Y8149720D01*
X10227710Y8122902D01*
X9965882Y8043477D01*
X9724581Y7914499D01*
X9513078Y7740923D01*
X9339502Y7529420D01*
X9210524Y7288119D01*
X9131098Y7026291D01*
X9111000Y6822230D01*
X5889000Y6822230D01*
X5889000Y6881000D01*
X5837534Y7149540D01*
X5734668Y7402880D01*
X5584354Y7631284D01*
X5392369Y7825974D01*
X5166091Y7979469D01*
X4914215Y8085870D01*
X4841814Y8100286D01*
X4627000Y7977677D01*
X4373000Y7977677D01*
X4158186Y8100286D01*
X4085785Y8085870D01*
X3833909Y7979469D01*
X3607631Y7825974D01*
X3415646Y7631284D01*
X3265332Y7402880D01*
X3162466Y7149540D01*
X3111000Y6881000D01*
X738696Y6881000D01*
X738696Y11676863D01*
X985000Y11676863D01*
X985000Y11463137D01*
X1026696Y11253517D01*
X1108485Y11056060D01*
X1135001Y11016377D01*
X1135001Y10615941D01*
X1130476Y10570000D01*
X1148529Y10386709D01*
X1200374Y10215801D01*
X1201994Y10210460D01*
X1288815Y10048028D01*
X1405657Y9905656D01*
X1441336Y9876375D01*
X2096370Y9221341D01*
X2125656Y9185656D01*
X2268028Y9068814D01*
X2430460Y8981993D01*
X2502828Y8960041D01*
X2606708Y8928528D01*
X2790000Y8910476D01*
X2835935Y8915000D01*
X13396377Y8915000D01*
X13436060Y8888485D01*
X13633517Y8806696D01*
X13843137Y8765000D01*
X14056863Y8765000D01*
X14266483Y8806696D01*
X14463940Y8888485D01*
X14641647Y9007225D01*
X14792775Y9158353D01*
X14911515Y9336060D01*
X14993304Y9533517D01*
X15035000Y9743137D01*
X15035000Y9956863D01*
X14993304Y10166483D01*
X14911515Y10363940D01*
X14792775Y10541647D01*
X14641647Y10692775D01*
X14463940Y10811515D01*
X14266483Y10893304D01*
X14056863Y10935000D01*
X13843137Y10935000D01*
X13633517Y10893304D01*
X13436060Y10811515D01*
X13396377Y10785000D01*
X3177289Y10785000D01*
X3005000Y10957289D01*
X3005000Y11016377D01*
X3031515Y11056060D01*
X3113304Y11253517D01*
X3155000Y11463137D01*
X3155000Y11676863D01*
X3113304Y11886483D01*
X3031515Y12083940D01*
X3029562Y12086863D01*
X15345000Y12086863D01*
X15345000Y11873137D01*
X15386696Y11663517D01*
X15468485Y11466060D01*
X15587225Y11288353D01*
X15738353Y11137225D01*
X15916060Y11018485D01*
X16113517Y10936696D01*
X16323137Y10895000D01*
X16536863Y10895000D01*
X16746483Y10936696D01*
X16766531Y10945000D01*
X17771172Y10945000D01*
X17822000Y10939994D01*
X17872828Y10945000D01*
X17872838Y10945000D01*
X18024895Y10959976D01*
X18219993Y11019159D01*
X18399797Y11115266D01*
X18557396Y11244604D01*
X18589807Y11284097D01*
X20979296Y13673585D01*
X21063396Y13742604D01*
X21095807Y13782097D01*
X22445908Y15132197D01*
X22485396Y15164604D01*
X22534513Y15224453D01*
X22614734Y15322202D01*
X22671420Y15428256D01*
X22710841Y15502007D01*
X22770024Y15697105D01*
X22785000Y15849162D01*
X22785000Y15849165D01*
X22790007Y15900000D01*
X22785000Y15950835D01*
X22785000Y16563469D01*
X22793304Y16583517D01*
X22835000Y16793137D01*
X22835000Y17006863D01*
X22793304Y17216483D01*
X22711515Y17413940D01*
X22592775Y17591647D01*
X22441647Y17742775D01*
X22263940Y17861515D01*
X22066483Y17943304D01*
X21856863Y17985000D01*
X21643137Y17985000D01*
X21433517Y17943304D01*
X21236060Y17861515D01*
X21058353Y17742775D01*
X20907225Y17591647D01*
X20788485Y17413940D01*
X20706696Y17216483D01*
X20665000Y17006863D01*
X20665000Y16793137D01*
X20706696Y16583517D01*
X20715000Y16563468D01*
X20715001Y16328711D01*
X19668709Y15282419D01*
X19584604Y15213396D01*
X19552197Y15173908D01*
X17393290Y13015000D01*
X16766531Y13015000D01*
X16746483Y13023304D01*
X16536863Y13065000D01*
X16323137Y13065000D01*
X16113517Y13023304D01*
X15916060Y12941515D01*
X15738353Y12822775D01*
X15587225Y12671647D01*
X15468485Y12493940D01*
X15386696Y12296483D01*
X15345000Y12086863D01*
X3029562Y12086863D01*
X2912775Y12261647D01*
X2761647Y12412775D01*
X2583940Y12531515D01*
X2386483Y12613304D01*
X2176863Y12655000D01*
X1963137Y12655000D01*
X1753517Y12613304D01*
X1556060Y12531515D01*
X1378353Y12412775D01*
X1227225Y12261647D01*
X1108485Y12083940D01*
X1026696Y11886483D01*
X985000Y11676863D01*
X738696Y11676863D01*
X738696Y31491152D01*
X854013Y31441585D01*
X1073000Y31395000D01*
X1573000Y31395000D01*
X1573000Y32403000D01*
X1827000Y32403000D01*
X1827000Y31395000D01*
X2327000Y31395000D01*
X2545987Y31441585D01*
X2751678Y31529997D01*
X2936169Y31656839D01*
X3092369Y31817236D01*
X3214276Y32005024D01*
X3292710Y32224190D01*
X4236036Y32224190D01*
X4319937Y31991136D01*
X4444953Y31799559D01*
X4604941Y31636053D01*
X4793754Y31506901D01*
X5004135Y31417066D01*
X5228000Y31370000D01*
X5753000Y31370000D01*
X5753000Y32403000D01*
X6007000Y32403000D01*
X6007000Y31370000D01*
X6532000Y31370000D01*
X6755865Y31417066D01*
X6966246Y31506901D01*
X7155059Y31636053D01*
X7315047Y31799559D01*
X7440063Y31991136D01*
X7523964Y32224190D01*
X7483230Y32282089D01*
X10025000Y32282089D01*
X10025000Y32097911D01*
X10060932Y31917271D01*
X10131414Y31747111D01*
X10233738Y31593972D01*
X10363972Y31463738D01*
X10517111Y31361414D01*
X10687271Y31290932D01*
X10867911Y31255000D01*
X10868607Y31255000D01*
X10879680Y31245913D01*
X11007367Y31177663D01*
X11145915Y31135635D01*
X11253895Y31125000D01*
X11253904Y31125000D01*
X11289999Y31121445D01*
X11326094Y31125000D01*
X12395554Y31125000D01*
X12838068Y30682485D01*
X12870932Y30517271D01*
X12941414Y30347111D01*
X13043738Y30193972D01*
X13173972Y30063738D01*
X13327111Y29961414D01*
X13497271Y29890932D01*
X13677911Y29855000D01*
X13862089Y29855000D01*
X14042729Y29890932D01*
X14212889Y29961414D01*
X14366028Y30063738D01*
X14496262Y30193972D01*
X14598586Y30347111D01*
X14669068Y30517271D01*
X14705000Y30697911D01*
X14705000Y30882089D01*
X14669068Y31062729D01*
X14598586Y31232889D01*
X14496262Y31386028D01*
X14366028Y31516262D01*
X14212889Y31618586D01*
X14042729Y31689068D01*
X13877515Y31721932D01*
X13245258Y32354188D01*
X13222238Y32382238D01*
X13110320Y32474087D01*
X12982633Y32542337D01*
X12844085Y32584365D01*
X12736105Y32595000D01*
X12700000Y32598556D01*
X12663895Y32595000D01*
X11804280Y32595000D01*
X11788586Y32632889D01*
X11686262Y32786028D01*
X11556028Y32916262D01*
X11402889Y33018586D01*
X11232729Y33089068D01*
X11052089Y33125000D01*
X10867911Y33125000D01*
X10687271Y33089068D01*
X10517111Y33018586D01*
X10363972Y32916262D01*
X10233738Y32786028D01*
X10131414Y32632889D01*
X10060932Y32462729D01*
X10025000Y32282089D01*
X7483230Y32282089D01*
X7398163Y32403000D01*
X6007000Y32403000D01*
X5753000Y32403000D01*
X4361837Y32403000D01*
X4236036Y32224190D01*
X3292710Y32224190D01*
X3294119Y32228126D01*
X3167954Y32403000D01*
X1827000Y32403000D01*
X1573000Y32403000D01*
X1553000Y32403000D01*
X1553000Y32657000D01*
X1573000Y32657000D01*
X1573000Y33665000D01*
X1827000Y33665000D01*
X1827000Y32657000D01*
X3167954Y32657000D01*
X3294119Y32831874D01*
X3214276Y33054976D01*
X3092369Y33242764D01*
X2936169Y33403161D01*
X2751678Y33530003D01*
X2545987Y33618415D01*
X2327000Y33665000D01*
X1827000Y33665000D01*
X1573000Y33665000D01*
X1073000Y33665000D01*
X854013Y33618415D01*
X738696Y33568848D01*
X738696Y37196863D01*
X2345000Y37196863D01*
X2345000Y36983137D01*
X2386696Y36773517D01*
X2468485Y36576060D01*
X2587225Y36398353D01*
X2738353Y36247225D01*
X2916060Y36128485D01*
X3031609Y36080623D01*
X3061994Y35980460D01*
X3148815Y35818028D01*
X3265657Y35675656D01*
X3301337Y35646374D01*
X3826375Y35121337D01*
X3855665Y35085647D01*
X3998037Y34968805D01*
X4160469Y34881984D01*
X4219877Y34863963D01*
X4336717Y34828519D01*
X4520009Y34810467D01*
X4565944Y34814991D01*
X4905529Y34814991D01*
X4895269Y34810741D01*
X4738036Y34705681D01*
X4604319Y34571964D01*
X4499259Y34414731D01*
X4426892Y34240022D01*
X4390000Y34054552D01*
X4390000Y33865448D01*
X4426892Y33679978D01*
X4499259Y33505269D01*
X4574431Y33392766D01*
X4444953Y33260441D01*
X4319937Y33068864D01*
X4236036Y32835810D01*
X4361837Y32657000D01*
X5753000Y32657000D01*
X5753000Y32677000D01*
X6007000Y32677000D01*
X6007000Y32657000D01*
X7398163Y32657000D01*
X7523964Y32835810D01*
X7440063Y33068864D01*
X7315047Y33260441D01*
X7155059Y33423947D01*
X6966246Y33553099D01*
X6755865Y33642934D01*
X6532000Y33690000D01*
X6275101Y33690000D01*
X6310000Y33865448D01*
X6310000Y34054552D01*
X6273108Y34240022D01*
X6200741Y34414731D01*
X6095681Y34571964D01*
X5961964Y34705681D01*
X5804731Y34810741D01*
X5794471Y34814991D01*
X7302720Y34814991D01*
X7937385Y34180326D01*
X7946696Y34133517D01*
X8028485Y33936060D01*
X8147225Y33758353D01*
X8298353Y33607225D01*
X8476060Y33488485D01*
X8673517Y33406696D01*
X8883137Y33365000D01*
X9096863Y33365000D01*
X9306483Y33406696D01*
X9503940Y33488485D01*
X9681647Y33607225D01*
X9832775Y33758353D01*
X9951515Y33936060D01*
X10033304Y34133517D01*
X10075000Y34343137D01*
X10075000Y34556863D01*
X10033304Y34766483D01*
X9951515Y34963940D01*
X9832775Y35141647D01*
X9681647Y35292775D01*
X9503940Y35411515D01*
X9387262Y35459844D01*
X9392729Y35460932D01*
X9562889Y35531414D01*
X9716028Y35633738D01*
X9846262Y35763972D01*
X9948586Y35917111D01*
X10019068Y36087271D01*
X10042051Y36202813D01*
X10504045Y36664806D01*
X10669259Y36697670D01*
X10839419Y36768152D01*
X10992558Y36870476D01*
X11122792Y37000710D01*
X11225116Y37153849D01*
X11295598Y37324009D01*
X11331530Y37504649D01*
X11331530Y37688827D01*
X11295598Y37869467D01*
X11225116Y38039627D01*
X11122792Y38192766D01*
X10992558Y38323000D01*
X10839419Y38425324D01*
X10669259Y38495806D01*
X10488619Y38531738D01*
X10304441Y38531738D01*
X10123801Y38495806D01*
X9953641Y38425324D01*
X9800502Y38323000D01*
X9670268Y38192766D01*
X9567944Y38039627D01*
X9497462Y37869467D01*
X9464598Y37704253D01*
X9055346Y37295000D01*
X9027911Y37295000D01*
X8847271Y37259068D01*
X8677111Y37188586D01*
X8523972Y37086262D01*
X8393738Y36956028D01*
X8291414Y36802889D01*
X8220932Y36632729D01*
X8201813Y36536612D01*
X8049549Y36617998D01*
X7873301Y36671462D01*
X7735941Y36684991D01*
X7690009Y36689515D01*
X7644077Y36684991D01*
X4907297Y36684991D01*
X4865000Y36727289D01*
X4865000Y37044068D01*
X4869524Y37090000D01*
X4865000Y37135932D01*
X4865000Y37732711D01*
X5112289Y37979999D01*
X8339067Y37979999D01*
X8384999Y37975475D01*
X8430931Y37979999D01*
X8568291Y37993528D01*
X8744539Y38046992D01*
X8906971Y38133813D01*
X8944972Y38165000D01*
X9096863Y38165000D01*
X9306483Y38206696D01*
X9503940Y38288485D01*
X9681647Y38407225D01*
X9832775Y38558353D01*
X9951515Y38736060D01*
X10033304Y38933517D01*
X10075000Y39143137D01*
X10075000Y39356863D01*
X10033304Y39566483D01*
X9951515Y39763940D01*
X9832775Y39941647D01*
X9681647Y40092775D01*
X9503940Y40211515D01*
X9306483Y40293304D01*
X9096863Y40335000D01*
X8883137Y40335000D01*
X8673517Y40293304D01*
X8476060Y40211515D01*
X8298353Y40092775D01*
X8281243Y40075665D01*
X8198028Y40031186D01*
X8055656Y39914344D01*
X8026366Y39878654D01*
X7997711Y39849999D01*
X6306927Y39849999D01*
X6275101Y40010000D01*
X6532000Y40010000D01*
X6755865Y40057066D01*
X6966246Y40146901D01*
X7155059Y40276053D01*
X7315047Y40439559D01*
X7440063Y40631136D01*
X7523964Y40864190D01*
X7398163Y41043000D01*
X6007000Y41043000D01*
X6007000Y41023000D01*
X5753000Y41023000D01*
X5753000Y41043000D01*
X4361837Y41043000D01*
X4236036Y40864190D01*
X4319937Y40631136D01*
X4444953Y40439559D01*
X4574431Y40307234D01*
X4499259Y40194731D01*
X4426892Y40020022D01*
X4390000Y39834552D01*
X4390000Y39790450D01*
X4365459Y39783006D01*
X4203027Y39696185D01*
X4060655Y39579343D01*
X4031375Y39543665D01*
X3301341Y38813630D01*
X3265656Y38784344D01*
X3148814Y38641971D01*
X3061993Y38479539D01*
X3035750Y38393027D01*
X3008529Y38303291D01*
X2990476Y38120000D01*
X2994040Y38083815D01*
X2916060Y38051515D01*
X2738353Y37932775D01*
X2587225Y37781647D01*
X2468485Y37603940D01*
X2386696Y37406483D01*
X2345000Y37196863D01*
X738696Y37196863D01*
X738696Y40131152D01*
X854013Y40081585D01*
X1073000Y40035000D01*
X1573000Y40035000D01*
X1573000Y41043000D01*
X1827000Y41043000D01*
X1827000Y40035000D01*
X2327000Y40035000D01*
X2545987Y40081585D01*
X2751678Y40169997D01*
X2936169Y40296839D01*
X3092369Y40457236D01*
X3214276Y40645024D01*
X3294119Y40868126D01*
X3167954Y41043000D01*
X1827000Y41043000D01*
X1573000Y41043000D01*
X1553000Y41043000D01*
X1553000Y41297000D01*
X1573000Y41297000D01*
X1573000Y42305000D01*
X1827000Y42305000D01*
X1827000Y41297000D01*
X3167954Y41297000D01*
X3294119Y41471874D01*
X3292711Y41475810D01*
X4236036Y41475810D01*
X4361837Y41297000D01*
X5753000Y41297000D01*
X5753000Y42330000D01*
X6007000Y42330000D01*
X6007000Y41297000D01*
X7398163Y41297000D01*
X7523964Y41475810D01*
X7440063Y41708864D01*
X7315047Y41900441D01*
X7155059Y42063947D01*
X6966246Y42193099D01*
X6755865Y42282934D01*
X6532000Y42330000D01*
X6007000Y42330000D01*
X5753000Y42330000D01*
X5228000Y42330000D01*
X5004135Y42282934D01*
X4793754Y42193099D01*
X4604941Y42063947D01*
X4444953Y41900441D01*
X4319937Y41708864D01*
X4236036Y41475810D01*
X3292711Y41475810D01*
X3214276Y41694976D01*
X3092369Y41882764D01*
X2936169Y42043161D01*
X2751678Y42170003D01*
X2545987Y42258415D01*
X2327000Y42305000D01*
X1827000Y42305000D01*
X1573000Y42305000D01*
X1073000Y42305000D01*
X854013Y42258415D01*
X738696Y42208848D01*
X738696Y52222871D01*
X761472Y52370918D01*
X780094Y52422127D01*
X807910Y52456897D01*
X877427Y52505559D01*
X960432Y52543288D01*
X1059004Y52559717D01*
X12067569Y52559717D01*
X12050353Y52538739D01*
X12050353Y52538739D01*
G37*
X12050353Y52538739D02*
X11982103Y52411052D01*
X11959255Y52335733D01*
X11940075Y52272505D01*
X11925884Y52128420D01*
X11929440Y52092315D01*
X11929441Y49756340D01*
X11845911Y49756340D01*
X11665271Y49720408D01*
X11495111Y49649926D01*
X11341972Y49547602D01*
X11211738Y49417368D01*
X11109414Y49264229D01*
X11038932Y49094069D01*
X11003000Y48913429D01*
X11003000Y48729251D01*
X11038932Y48548611D01*
X11109414Y48378451D01*
X11195380Y48249793D01*
X11195381Y46492715D01*
X11191824Y46456600D01*
X11206015Y46312515D01*
X11242382Y46192633D01*
X11248044Y46173967D01*
X11316294Y46046280D01*
X11408143Y45934362D01*
X11436188Y45911346D01*
X12362808Y44984726D01*
X12186060Y44911515D01*
X12008353Y44792775D01*
X11857225Y44641647D01*
X11738485Y44463940D01*
X11656696Y44266483D01*
X11615000Y44056863D01*
X11615000Y43843137D01*
X11656696Y43633517D01*
X11738485Y43436060D01*
X11857225Y43258353D01*
X12008353Y43107225D01*
X12186060Y42988485D01*
X12383517Y42906696D01*
X12593137Y42865000D01*
X12806863Y42865000D01*
X12829608Y42869524D01*
X12905001Y42794131D01*
X12905000Y36229422D01*
X12897225Y36221647D01*
X12778485Y36043940D01*
X12696696Y35846483D01*
X12655000Y35636863D01*
X12655000Y35423137D01*
X12696696Y35213517D01*
X12778485Y35016060D01*
X12897225Y34838353D01*
X13048353Y34687225D01*
X13226060Y34568485D01*
X13423517Y34486696D01*
X13633137Y34445000D01*
X13846863Y34445000D01*
X14056483Y34486696D01*
X14253940Y34568485D01*
X14431647Y34687225D01*
X14582775Y34838353D01*
X14701515Y35016060D01*
X14783304Y35213517D01*
X14825000Y35423137D01*
X14825000Y35636863D01*
X14783304Y35846483D01*
X14701515Y36043940D01*
X14582775Y36221647D01*
X14575000Y36229422D01*
X14575000Y42777614D01*
X15216200Y42136413D01*
X15216201Y36981152D01*
X15122614Y36841089D01*
X15052132Y36670929D01*
X15016200Y36490289D01*
X15016200Y36306111D01*
X15052132Y36125471D01*
X15122614Y35955311D01*
X15224938Y35802172D01*
X15355172Y35671938D01*
X15508311Y35569614D01*
X15678471Y35499132D01*
X15859111Y35463200D01*
X16043289Y35463200D01*
X16182201Y35490832D01*
X16182200Y27506305D01*
X16178644Y27470200D01*
X16192835Y27326115D01*
X16200134Y27302055D01*
X16234863Y27187568D01*
X16303113Y27059881D01*
X16394962Y26947963D01*
X16423008Y26924946D01*
X20788491Y22559463D01*
X20663972Y22476262D01*
X20533738Y22346028D01*
X20466233Y22245000D01*
X18540183Y22245000D01*
X18085800Y22699382D01*
X18089068Y22707271D01*
X18125000Y22887911D01*
X18125000Y23072089D01*
X18089068Y23252729D01*
X18018586Y23422889D01*
X17916262Y23576028D01*
X17786028Y23706262D01*
X17632889Y23808586D01*
X17462729Y23879068D01*
X17282089Y23915000D01*
X17097911Y23915000D01*
X16917271Y23879068D01*
X16747111Y23808586D01*
X16593972Y23706262D01*
X16463738Y23576028D01*
X16361414Y23422889D01*
X16290932Y23252729D01*
X16255000Y23072089D01*
X16255000Y22887911D01*
X16290932Y22707271D01*
X16361414Y22537111D01*
X16463738Y22383972D01*
X16478513Y22369197D01*
X16507663Y22273103D01*
X16575913Y22145416D01*
X16667763Y22033498D01*
X16695808Y22010482D01*
X17690482Y21015807D01*
X17713498Y20987762D01*
X17825416Y20895913D01*
X17953103Y20827663D01*
X18039068Y20801586D01*
X18091650Y20785635D01*
X18235735Y20771444D01*
X18271840Y20775000D01*
X20983895Y20775000D01*
X21020000Y20771444D01*
X21056105Y20775000D01*
X21164085Y20785635D01*
X21260889Y20815000D01*
X21352089Y20815000D01*
X21532729Y20850932D01*
X21702889Y20921414D01*
X21856028Y21023738D01*
X21950158Y21117868D01*
X22094511Y21021414D01*
X22264671Y20950932D01*
X22445311Y20915000D01*
X22629489Y20915000D01*
X22810129Y20950932D01*
X22980289Y21021414D01*
X23133428Y21123738D01*
X23212622Y21202932D01*
X24655600Y19759953D01*
X24655600Y19624905D01*
X24652044Y19588800D01*
X24655600Y19552696D01*
X24655600Y19552695D01*
X24666235Y19444715D01*
X24708263Y19306167D01*
X24776513Y19178480D01*
X24868363Y19066562D01*
X24896408Y19043546D01*
X25368646Y18571308D01*
X25391662Y18543262D01*
X25503580Y18451413D01*
X25631267Y18383163D01*
X25754717Y18345715D01*
X25769815Y18341135D01*
X25913900Y18326944D01*
X25950005Y18330500D01*
X30911495Y18330500D01*
X30947600Y18326944D01*
X30958293Y18327997D01*
X33105482Y16180807D01*
X33128498Y16152762D01*
X33218411Y16078972D01*
X33240416Y16060913D01*
X33368102Y15992663D01*
X33464197Y15963513D01*
X33478972Y15948738D01*
X33632111Y15846414D01*
X33802271Y15775932D01*
X33982911Y15740000D01*
X34130800Y15740000D01*
X34130800Y15134305D01*
X34127244Y15098200D01*
X34141435Y14954115D01*
X34152613Y14917267D01*
X34183463Y14815568D01*
X34251713Y14687881D01*
X34343562Y14575963D01*
X34371608Y14552946D01*
X36145798Y12778755D01*
X35970312Y12761472D01*
X35866432Y12729959D01*
X35794064Y12708007D01*
X35631632Y12621186D01*
X35489260Y12504344D01*
X35459974Y12468659D01*
X34901315Y11910000D01*
X34221289Y11910000D01*
X30589500Y15541789D01*
X30589500Y16299565D01*
X30594024Y16345500D01*
X30575972Y16528792D01*
X30542469Y16639233D01*
X30522507Y16705040D01*
X30435686Y16867472D01*
X30318844Y17009844D01*
X30283160Y17039129D01*
X29693630Y17628659D01*
X29664344Y17664344D01*
X29521972Y17781186D01*
X29359540Y17868007D01*
X29183292Y17921471D01*
X29045932Y17935000D01*
X29000000Y17939524D01*
X28954068Y17935000D01*
X27753623Y17935000D01*
X27713940Y17961515D01*
X27516483Y18043304D01*
X27306863Y18085000D01*
X27093137Y18085000D01*
X26883517Y18043304D01*
X26686060Y17961515D01*
X26508353Y17842775D01*
X26357225Y17691647D01*
X26238485Y17513940D01*
X26156696Y17316483D01*
X26115000Y17106863D01*
X26115000Y16893137D01*
X26156696Y16683517D01*
X26238485Y16486060D01*
X26357225Y16308353D01*
X26508353Y16157225D01*
X26686060Y16038485D01*
X26883517Y15956696D01*
X27093137Y15915000D01*
X27306863Y15915000D01*
X27516483Y15956696D01*
X27713940Y16038485D01*
X27753623Y16065000D01*
X28612711Y16065000D01*
X28719500Y15958211D01*
X28719501Y15541791D01*
X27023641Y13845930D01*
X26987956Y13816644D01*
X26871114Y13674271D01*
X26784293Y13511839D01*
X26752329Y13406467D01*
X26730829Y13335591D01*
X26712776Y13152300D01*
X26717300Y13106368D01*
X26717301Y8083642D01*
X26712776Y8037700D01*
X26722891Y7935000D01*
X25435000Y7935000D01*
X25435000Y9604068D01*
X25439524Y9650000D01*
X25421471Y9833292D01*
X25418565Y9842871D01*
X25368007Y10009540D01*
X25281186Y10171972D01*
X25164344Y10314344D01*
X25128659Y10343630D01*
X24752615Y10719674D01*
X24743304Y10766483D01*
X24661515Y10963940D01*
X24542775Y11141647D01*
X24391647Y11292775D01*
X24213940Y11411515D01*
X24016483Y11493304D01*
X23806863Y11535000D01*
X23593137Y11535000D01*
X23383517Y11493304D01*
X23186060Y11411515D01*
X23008353Y11292775D01*
X22857225Y11141647D01*
X22738485Y10963940D01*
X22656696Y10766483D01*
X22615000Y10556863D01*
X22615000Y10343137D01*
X22656696Y10133517D01*
X22738485Y9936060D01*
X22857225Y9758353D01*
X23008353Y9607225D01*
X23186060Y9488485D01*
X23383517Y9406696D01*
X23430326Y9397385D01*
X23565001Y9262710D01*
X23565000Y8189403D01*
X23536863Y8195000D01*
X23323137Y8195000D01*
X23113517Y8153304D01*
X22916060Y8071515D01*
X22738353Y7952775D01*
X22587225Y7801647D01*
X22468485Y7623940D01*
X22386696Y7426483D01*
X22345000Y7216863D01*
X22345000Y7003137D01*
X22386696Y6793517D01*
X22468485Y6596060D01*
X22587225Y6418353D01*
X22738353Y6267225D01*
X22916060Y6148485D01*
X23113517Y6066696D01*
X23323137Y6025000D01*
X23536863Y6025000D01*
X23737957Y6065000D01*
X24454068Y6065000D01*
X24500000Y6060476D01*
X24545932Y6065000D01*
X26790854Y6065000D01*
X26658504Y5903731D01*
X26520611Y5645751D01*
X26435697Y5365828D01*
X26407025Y5074717D01*
X26435697Y4783606D01*
X26520611Y4503683D01*
X26658504Y4245703D01*
X26844076Y4019583D01*
X27070196Y3834011D01*
X27125001Y3804717D01*
X27070196Y3775423D01*
X26844076Y3589851D01*
X26658504Y3363731D01*
X26520611Y3105751D01*
X26435697Y2825828D01*
X26407025Y2534717D01*
X26435697Y2243606D01*
X26520611Y1963683D01*
X26658504Y1705703D01*
X26844076Y1479583D01*
X27070196Y1294011D01*
X27328176Y1156118D01*
X27608099Y1071204D01*
X27826260Y1049717D01*
X27972160Y1049717D01*
X28190321Y1071204D01*
X28470244Y1156118D01*
X28728224Y1294011D01*
X28954344Y1479583D01*
X29139916Y1705703D01*
X29169210Y1760508D01*
X29198504Y1705703D01*
X29384076Y1479583D01*
X29610196Y1294011D01*
X29868176Y1156118D01*
X30148099Y1071204D01*
X30366260Y1049717D01*
X30512160Y1049717D01*
X30730321Y1071204D01*
X31010244Y1156118D01*
X31268224Y1294011D01*
X31402964Y1404590D01*
X32077836Y729717D01*
X15250730Y729717D01*
X15353939Y798679D01*
X15665248Y1109988D01*
X15909841Y1476048D01*
X16078320Y1882792D01*
X16164210Y2314589D01*
X16164210Y2754845D01*
X16078320Y3186642D01*
X15909841Y3593386D01*
X15665248Y3959446D01*
X15353939Y4270755D01*
X14987879Y4515348D01*
X14581135Y4683827D01*
X14149338Y4769717D01*
X13709082Y4769717D01*
X13277285Y4683827D01*
X12870541Y4515348D01*
X12504481Y4270755D01*
X12193172Y3959446D01*
X11948579Y3593386D01*
X11780100Y3186642D01*
X11694210Y2754845D01*
X11694210Y2314589D01*
X11780100Y1882792D01*
X11948579Y1476048D01*
X12193172Y1109988D01*
X12504481Y798679D01*
X12607690Y729717D01*
X9519942Y729717D01*
X9585870Y885785D01*
X9600286Y958186D01*
X9477677Y1173000D01*
X7627000Y1173000D01*
X7627000Y1153000D01*
X7373000Y1153000D01*
X7373000Y1173000D01*
X5522323Y1173000D01*
X5399714Y958186D01*
X5414130Y885785D01*
X5480058Y729717D01*
X1059005Y729717D01*
X931850Y750909D01*
X926895Y752711D01*
X761690Y917916D01*
X759888Y922871D01*
X738696Y1050027D01*
X738696Y1641814D01*
X5399714Y1641814D01*
X5522323Y1427000D01*
X7373000Y1427000D01*
X7373000Y2689000D01*
X7627000Y2689000D01*
X7627000Y1427000D01*
X9477677Y1427000D01*
X9600286Y1641814D01*
X9585870Y1714215D01*
X9479469Y1966091D01*
X9325974Y2192369D01*
X9131284Y2384354D01*
X8902880Y2534668D01*
X8649540Y2637534D01*
X8381000Y2689000D01*
X7627000Y2689000D01*
X7373000Y2689000D01*
X6619000Y2689000D01*
X6350460Y2637534D01*
X6097120Y2534668D01*
X5868716Y2384354D01*
X5674026Y2192369D01*
X5520531Y1966091D01*
X5414130Y1714215D01*
X5399714Y1641814D01*
X738696Y1641814D01*
X738696Y5873000D01*
X3111000Y5873000D01*
X3111000Y5119000D01*
X3162466Y4850460D01*
X3265332Y4597120D01*
X3415646Y4368716D01*
X3607631Y4174026D01*
X3833909Y4020531D01*
X4085785Y3914130D01*
X4158186Y3899714D01*
X4373000Y4022323D01*
X4373000Y5873000D01*
X4627000Y5873000D01*
X4627000Y4022323D01*
X4841814Y3899714D01*
X4914215Y3914130D01*
X5166091Y4020531D01*
X5392369Y4174026D01*
X5584354Y4368716D01*
X5734668Y4597120D01*
X5837534Y4850460D01*
X5889000Y5119000D01*
X5889000Y5873000D01*
X4627000Y5873000D01*
X4373000Y5873000D01*
X3111000Y5873000D01*
X738696Y5873000D01*
X738696Y6881000D01*
X3111000Y6881000D01*
X3111000Y6127000D01*
X4373000Y6127000D01*
X4373000Y7977677D01*
X4627000Y7977677D01*
X4627000Y6127000D01*
X5889000Y6127000D01*
X5889000Y6822230D01*
X9111000Y6822230D01*
X9111000Y5177771D01*
X9131098Y4973710D01*
X9210523Y4711882D01*
X9339501Y4470581D01*
X9513077Y4259078D01*
X9724580Y4085501D01*
X9965881Y3956523D01*
X10227709Y3877098D01*
X10500000Y3850280D01*
X10772290Y3877098D01*
X11034118Y3956523D01*
X11275419Y4085501D01*
X11486922Y4259077D01*
X11660499Y4470580D01*
X11789477Y4711881D01*
X11868902Y4973709D01*
X11889000Y5177770D01*
X11889000Y6822230D01*
X11868902Y7026291D01*
X11789477Y7288119D01*
X11660499Y7529420D01*
X11486923Y7740923D01*
X11275420Y7914499D01*
X11034119Y8043477D01*
X10772291Y8122902D01*
X10500000Y8149720D01*
X10227710Y8122902D01*
X9965882Y8043477D01*
X9724581Y7914499D01*
X9513078Y7740923D01*
X9339502Y7529420D01*
X9210524Y7288119D01*
X9131098Y7026291D01*
X9111000Y6822230D01*
X5889000Y6822230D01*
X5889000Y6881000D01*
X5837534Y7149540D01*
X5734668Y7402880D01*
X5584354Y7631284D01*
X5392369Y7825974D01*
X5166091Y7979469D01*
X4914215Y8085870D01*
X4841814Y8100286D01*
X4627000Y7977677D01*
X4373000Y7977677D01*
X4158186Y8100286D01*
X4085785Y8085870D01*
X3833909Y7979469D01*
X3607631Y7825974D01*
X3415646Y7631284D01*
X3265332Y7402880D01*
X3162466Y7149540D01*
X3111000Y6881000D01*
X738696Y6881000D01*
X738696Y11676863D01*
X985000Y11676863D01*
X985000Y11463137D01*
X1026696Y11253517D01*
X1108485Y11056060D01*
X1135001Y11016377D01*
X1135001Y10615941D01*
X1130476Y10570000D01*
X1148529Y10386709D01*
X1200374Y10215801D01*
X1201994Y10210460D01*
X1288815Y10048028D01*
X1405657Y9905656D01*
X1441336Y9876375D01*
X2096370Y9221341D01*
X2125656Y9185656D01*
X2268028Y9068814D01*
X2430460Y8981993D01*
X2502828Y8960041D01*
X2606708Y8928528D01*
X2790000Y8910476D01*
X2835935Y8915000D01*
X13396377Y8915000D01*
X13436060Y8888485D01*
X13633517Y8806696D01*
X13843137Y8765000D01*
X14056863Y8765000D01*
X14266483Y8806696D01*
X14463940Y8888485D01*
X14641647Y9007225D01*
X14792775Y9158353D01*
X14911515Y9336060D01*
X14993304Y9533517D01*
X15035000Y9743137D01*
X15035000Y9956863D01*
X14993304Y10166483D01*
X14911515Y10363940D01*
X14792775Y10541647D01*
X14641647Y10692775D01*
X14463940Y10811515D01*
X14266483Y10893304D01*
X14056863Y10935000D01*
X13843137Y10935000D01*
X13633517Y10893304D01*
X13436060Y10811515D01*
X13396377Y10785000D01*
X3177289Y10785000D01*
X3005000Y10957289D01*
X3005000Y11016377D01*
X3031515Y11056060D01*
X3113304Y11253517D01*
X3155000Y11463137D01*
X3155000Y11676863D01*
X3113304Y11886483D01*
X3031515Y12083940D01*
X3029562Y12086863D01*
X15345000Y12086863D01*
X15345000Y11873137D01*
X15386696Y11663517D01*
X15468485Y11466060D01*
X15587225Y11288353D01*
X15738353Y11137225D01*
X15916060Y11018485D01*
X16113517Y10936696D01*
X16323137Y10895000D01*
X16536863Y10895000D01*
X16746483Y10936696D01*
X16766531Y10945000D01*
X17771172Y10945000D01*
X17822000Y10939994D01*
X17872828Y10945000D01*
X17872838Y10945000D01*
X18024895Y10959976D01*
X18219993Y11019159D01*
X18399797Y11115266D01*
X18557396Y11244604D01*
X18589807Y11284097D01*
X20979296Y13673585D01*
X21063396Y13742604D01*
X21095807Y13782097D01*
X22445908Y15132197D01*
X22485396Y15164604D01*
X22534513Y15224453D01*
X22614734Y15322202D01*
X22671420Y15428256D01*
X22710841Y15502007D01*
X22770024Y15697105D01*
X22785000Y15849162D01*
X22785000Y15849165D01*
X22790007Y15900000D01*
X22785000Y15950835D01*
X22785000Y16563469D01*
X22793304Y16583517D01*
X22835000Y16793137D01*
X22835000Y17006863D01*
X22793304Y17216483D01*
X22711515Y17413940D01*
X22592775Y17591647D01*
X22441647Y17742775D01*
X22263940Y17861515D01*
X22066483Y17943304D01*
X21856863Y17985000D01*
X21643137Y17985000D01*
X21433517Y17943304D01*
X21236060Y17861515D01*
X21058353Y17742775D01*
X20907225Y17591647D01*
X20788485Y17413940D01*
X20706696Y17216483D01*
X20665000Y17006863D01*
X20665000Y16793137D01*
X20706696Y16583517D01*
X20715000Y16563468D01*
X20715001Y16328711D01*
X19668709Y15282419D01*
X19584604Y15213396D01*
X19552197Y15173908D01*
X17393290Y13015000D01*
X16766531Y13015000D01*
X16746483Y13023304D01*
X16536863Y13065000D01*
X16323137Y13065000D01*
X16113517Y13023304D01*
X15916060Y12941515D01*
X15738353Y12822775D01*
X15587225Y12671647D01*
X15468485Y12493940D01*
X15386696Y12296483D01*
X15345000Y12086863D01*
X3029562Y12086863D01*
X2912775Y12261647D01*
X2761647Y12412775D01*
X2583940Y12531515D01*
X2386483Y12613304D01*
X2176863Y12655000D01*
X1963137Y12655000D01*
X1753517Y12613304D01*
X1556060Y12531515D01*
X1378353Y12412775D01*
X1227225Y12261647D01*
X1108485Y12083940D01*
X1026696Y11886483D01*
X985000Y11676863D01*
X738696Y11676863D01*
X738696Y31491152D01*
X854013Y31441585D01*
X1073000Y31395000D01*
X1573000Y31395000D01*
X1573000Y32403000D01*
X1827000Y32403000D01*
X1827000Y31395000D01*
X2327000Y31395000D01*
X2545987Y31441585D01*
X2751678Y31529997D01*
X2936169Y31656839D01*
X3092369Y31817236D01*
X3214276Y32005024D01*
X3292710Y32224190D01*
X4236036Y32224190D01*
X4319937Y31991136D01*
X4444953Y31799559D01*
X4604941Y31636053D01*
X4793754Y31506901D01*
X5004135Y31417066D01*
X5228000Y31370000D01*
X5753000Y31370000D01*
X5753000Y32403000D01*
X6007000Y32403000D01*
X6007000Y31370000D01*
X6532000Y31370000D01*
X6755865Y31417066D01*
X6966246Y31506901D01*
X7155059Y31636053D01*
X7315047Y31799559D01*
X7440063Y31991136D01*
X7523964Y32224190D01*
X7483230Y32282089D01*
X10025000Y32282089D01*
X10025000Y32097911D01*
X10060932Y31917271D01*
X10131414Y31747111D01*
X10233738Y31593972D01*
X10363972Y31463738D01*
X10517111Y31361414D01*
X10687271Y31290932D01*
X10867911Y31255000D01*
X10868607Y31255000D01*
X10879680Y31245913D01*
X11007367Y31177663D01*
X11145915Y31135635D01*
X11253895Y31125000D01*
X11253904Y31125000D01*
X11289999Y31121445D01*
X11326094Y31125000D01*
X12395554Y31125000D01*
X12838068Y30682485D01*
X12870932Y30517271D01*
X12941414Y30347111D01*
X13043738Y30193972D01*
X13173972Y30063738D01*
X13327111Y29961414D01*
X13497271Y29890932D01*
X13677911Y29855000D01*
X13862089Y29855000D01*
X14042729Y29890932D01*
X14212889Y29961414D01*
X14366028Y30063738D01*
X14496262Y30193972D01*
X14598586Y30347111D01*
X14669068Y30517271D01*
X14705000Y30697911D01*
X14705000Y30882089D01*
X14669068Y31062729D01*
X14598586Y31232889D01*
X14496262Y31386028D01*
X14366028Y31516262D01*
X14212889Y31618586D01*
X14042729Y31689068D01*
X13877515Y31721932D01*
X13245258Y32354188D01*
X13222238Y32382238D01*
X13110320Y32474087D01*
X12982633Y32542337D01*
X12844085Y32584365D01*
X12736105Y32595000D01*
X12700000Y32598556D01*
X12663895Y32595000D01*
X11804280Y32595000D01*
X11788586Y32632889D01*
X11686262Y32786028D01*
X11556028Y32916262D01*
X11402889Y33018586D01*
X11232729Y33089068D01*
X11052089Y33125000D01*
X10867911Y33125000D01*
X10687271Y33089068D01*
X10517111Y33018586D01*
X10363972Y32916262D01*
X10233738Y32786028D01*
X10131414Y32632889D01*
X10060932Y32462729D01*
X10025000Y32282089D01*
X7483230Y32282089D01*
X7398163Y32403000D01*
X6007000Y32403000D01*
X5753000Y32403000D01*
X4361837Y32403000D01*
X4236036Y32224190D01*
X3292710Y32224190D01*
X3294119Y32228126D01*
X3167954Y32403000D01*
X1827000Y32403000D01*
X1573000Y32403000D01*
X1553000Y32403000D01*
X1553000Y32657000D01*
X1573000Y32657000D01*
X1573000Y33665000D01*
X1827000Y33665000D01*
X1827000Y32657000D01*
X3167954Y32657000D01*
X3294119Y32831874D01*
X3214276Y33054976D01*
X3092369Y33242764D01*
X2936169Y33403161D01*
X2751678Y33530003D01*
X2545987Y33618415D01*
X2327000Y33665000D01*
X1827000Y33665000D01*
X1573000Y33665000D01*
X1073000Y33665000D01*
X854013Y33618415D01*
X738696Y33568848D01*
X738696Y37196863D01*
X2345000Y37196863D01*
X2345000Y36983137D01*
X2386696Y36773517D01*
X2468485Y36576060D01*
X2587225Y36398353D01*
X2738353Y36247225D01*
X2916060Y36128485D01*
X3031609Y36080623D01*
X3061994Y35980460D01*
X3148815Y35818028D01*
X3265657Y35675656D01*
X3301337Y35646374D01*
X3826375Y35121337D01*
X3855665Y35085647D01*
X3998037Y34968805D01*
X4160469Y34881984D01*
X4219877Y34863963D01*
X4336717Y34828519D01*
X4520009Y34810467D01*
X4565944Y34814991D01*
X4905529Y34814991D01*
X4895269Y34810741D01*
X4738036Y34705681D01*
X4604319Y34571964D01*
X4499259Y34414731D01*
X4426892Y34240022D01*
X4390000Y34054552D01*
X4390000Y33865448D01*
X4426892Y33679978D01*
X4499259Y33505269D01*
X4574431Y33392766D01*
X4444953Y33260441D01*
X4319937Y33068864D01*
X4236036Y32835810D01*
X4361837Y32657000D01*
X5753000Y32657000D01*
X5753000Y32677000D01*
X6007000Y32677000D01*
X6007000Y32657000D01*
X7398163Y32657000D01*
X7523964Y32835810D01*
X7440063Y33068864D01*
X7315047Y33260441D01*
X7155059Y33423947D01*
X6966246Y33553099D01*
X6755865Y33642934D01*
X6532000Y33690000D01*
X6275101Y33690000D01*
X6310000Y33865448D01*
X6310000Y34054552D01*
X6273108Y34240022D01*
X6200741Y34414731D01*
X6095681Y34571964D01*
X5961964Y34705681D01*
X5804731Y34810741D01*
X5794471Y34814991D01*
X7302720Y34814991D01*
X7937385Y34180326D01*
X7946696Y34133517D01*
X8028485Y33936060D01*
X8147225Y33758353D01*
X8298353Y33607225D01*
X8476060Y33488485D01*
X8673517Y33406696D01*
X8883137Y33365000D01*
X9096863Y33365000D01*
X9306483Y33406696D01*
X9503940Y33488485D01*
X9681647Y33607225D01*
X9832775Y33758353D01*
X9951515Y33936060D01*
X10033304Y34133517D01*
X10075000Y34343137D01*
X10075000Y34556863D01*
X10033304Y34766483D01*
X9951515Y34963940D01*
X9832775Y35141647D01*
X9681647Y35292775D01*
X9503940Y35411515D01*
X9387262Y35459844D01*
X9392729Y35460932D01*
X9562889Y35531414D01*
X9716028Y35633738D01*
X9846262Y35763972D01*
X9948586Y35917111D01*
X10019068Y36087271D01*
X10042051Y36202813D01*
X10504045Y36664806D01*
X10669259Y36697670D01*
X10839419Y36768152D01*
X10992558Y36870476D01*
X11122792Y37000710D01*
X11225116Y37153849D01*
X11295598Y37324009D01*
X11331530Y37504649D01*
X11331530Y37688827D01*
X11295598Y37869467D01*
X11225116Y38039627D01*
X11122792Y38192766D01*
X10992558Y38323000D01*
X10839419Y38425324D01*
X10669259Y38495806D01*
X10488619Y38531738D01*
X10304441Y38531738D01*
X10123801Y38495806D01*
X9953641Y38425324D01*
X9800502Y38323000D01*
X9670268Y38192766D01*
X9567944Y38039627D01*
X9497462Y37869467D01*
X9464598Y37704253D01*
X9055346Y37295000D01*
X9027911Y37295000D01*
X8847271Y37259068D01*
X8677111Y37188586D01*
X8523972Y37086262D01*
X8393738Y36956028D01*
X8291414Y36802889D01*
X8220932Y36632729D01*
X8201813Y36536612D01*
X8049549Y36617998D01*
X7873301Y36671462D01*
X7735941Y36684991D01*
X7690009Y36689515D01*
X7644077Y36684991D01*
X4907297Y36684991D01*
X4865000Y36727289D01*
X4865000Y37044068D01*
X4869524Y37090000D01*
X4865000Y37135932D01*
X4865000Y37732711D01*
X5112289Y37979999D01*
X8339067Y37979999D01*
X8384999Y37975475D01*
X8430931Y37979999D01*
X8568291Y37993528D01*
X8744539Y38046992D01*
X8906971Y38133813D01*
X8944972Y38165000D01*
X9096863Y38165000D01*
X9306483Y38206696D01*
X9503940Y38288485D01*
X9681647Y38407225D01*
X9832775Y38558353D01*
X9951515Y38736060D01*
X10033304Y38933517D01*
X10075000Y39143137D01*
X10075000Y39356863D01*
X10033304Y39566483D01*
X9951515Y39763940D01*
X9832775Y39941647D01*
X9681647Y40092775D01*
X9503940Y40211515D01*
X9306483Y40293304D01*
X9096863Y40335000D01*
X8883137Y40335000D01*
X8673517Y40293304D01*
X8476060Y40211515D01*
X8298353Y40092775D01*
X8281243Y40075665D01*
X8198028Y40031186D01*
X8055656Y39914344D01*
X8026366Y39878654D01*
X7997711Y39849999D01*
X6306927Y39849999D01*
X6275101Y40010000D01*
X6532000Y40010000D01*
X6755865Y40057066D01*
X6966246Y40146901D01*
X7155059Y40276053D01*
X7315047Y40439559D01*
X7440063Y40631136D01*
X7523964Y40864190D01*
X7398163Y41043000D01*
X6007000Y41043000D01*
X6007000Y41023000D01*
X5753000Y41023000D01*
X5753000Y41043000D01*
X4361837Y41043000D01*
X4236036Y40864190D01*
X4319937Y40631136D01*
X4444953Y40439559D01*
X4574431Y40307234D01*
X4499259Y40194731D01*
X4426892Y40020022D01*
X4390000Y39834552D01*
X4390000Y39790450D01*
X4365459Y39783006D01*
X4203027Y39696185D01*
X4060655Y39579343D01*
X4031375Y39543665D01*
X3301341Y38813630D01*
X3265656Y38784344D01*
X3148814Y38641971D01*
X3061993Y38479539D01*
X3035750Y38393027D01*
X3008529Y38303291D01*
X2990476Y38120000D01*
X2994040Y38083815D01*
X2916060Y38051515D01*
X2738353Y37932775D01*
X2587225Y37781647D01*
X2468485Y37603940D01*
X2386696Y37406483D01*
X2345000Y37196863D01*
X738696Y37196863D01*
X738696Y40131152D01*
X854013Y40081585D01*
X1073000Y40035000D01*
X1573000Y40035000D01*
X1573000Y41043000D01*
X1827000Y41043000D01*
X1827000Y40035000D01*
X2327000Y40035000D01*
X2545987Y40081585D01*
X2751678Y40169997D01*
X2936169Y40296839D01*
X3092369Y40457236D01*
X3214276Y40645024D01*
X3294119Y40868126D01*
X3167954Y41043000D01*
X1827000Y41043000D01*
X1573000Y41043000D01*
X1553000Y41043000D01*
X1553000Y41297000D01*
X1573000Y41297000D01*
X1573000Y42305000D01*
X1827000Y42305000D01*
X1827000Y41297000D01*
X3167954Y41297000D01*
X3294119Y41471874D01*
X3292711Y41475810D01*
X4236036Y41475810D01*
X4361837Y41297000D01*
X5753000Y41297000D01*
X5753000Y42330000D01*
X6007000Y42330000D01*
X6007000Y41297000D01*
X7398163Y41297000D01*
X7523964Y41475810D01*
X7440063Y41708864D01*
X7315047Y41900441D01*
X7155059Y42063947D01*
X6966246Y42193099D01*
X6755865Y42282934D01*
X6532000Y42330000D01*
X6007000Y42330000D01*
X5753000Y42330000D01*
X5228000Y42330000D01*
X5004135Y42282934D01*
X4793754Y42193099D01*
X4604941Y42063947D01*
X4444953Y41900441D01*
X4319937Y41708864D01*
X4236036Y41475810D01*
X3292711Y41475810D01*
X3214276Y41694976D01*
X3092369Y41882764D01*
X2936169Y42043161D01*
X2751678Y42170003D01*
X2545987Y42258415D01*
X2327000Y42305000D01*
X1827000Y42305000D01*
X1573000Y42305000D01*
X1073000Y42305000D01*
X854013Y42258415D01*
X738696Y42208848D01*
X738696Y52222871D01*
X761472Y52370918D01*
X780094Y52422127D01*
X807910Y52456897D01*
X877427Y52505559D01*
X960432Y52543288D01*
X1059004Y52559717D01*
X12067569Y52559717D01*
X12050353Y52538739D01*
G36*
X40726210Y2661717D02*
G01*
X43012210Y2661717D01*
X43012210Y2681717D01*
X43266210Y2681717D01*
X43266210Y2661717D01*
X43286210Y2661717D01*
X43286210Y2407717D01*
X43266210Y2407717D01*
X43266210Y2387717D01*
X43012210Y2387717D01*
X43012210Y2407717D01*
X40726210Y2407717D01*
X40726210Y2387717D01*
X40472210Y2387717D01*
X40472210Y2407717D01*
X40452210Y2407717D01*
X40452210Y2661717D01*
X40472210Y2661717D01*
X40472210Y2681717D01*
X40726210Y2681717D01*
X40726210Y2661717D01*
X40726210Y2661717D01*
G37*
X40726210Y2661717D02*
X43012210Y2661717D01*
X43012210Y2681717D01*
X43266210Y2681717D01*
X43266210Y2661717D01*
X43286210Y2661717D01*
X43286210Y2407717D01*
X43266210Y2407717D01*
X43266210Y2387717D01*
X43012210Y2387717D01*
X43012210Y2407717D01*
X40726210Y2407717D01*
X40726210Y2387717D01*
X40472210Y2387717D01*
X40472210Y2407717D01*
X40452210Y2407717D01*
X40452210Y2661717D01*
X40472210Y2661717D01*
X40472210Y2681717D01*
X40726210Y2681717D01*
X40726210Y2661717D01*
G36*
X44167900Y13781189D02*
G01*
X44167900Y13597011D01*
X44203832Y13416371D01*
X44274314Y13246211D01*
X44376638Y13093072D01*
X44506872Y12962838D01*
X44660011Y12860514D01*
X44830171Y12790032D01*
X44995386Y12757168D01*
X47847101Y9905452D01*
X47847100Y7428951D01*
X47753514Y7288889D01*
X47683032Y7118729D01*
X47647100Y6938089D01*
X47647100Y6753911D01*
X47683032Y6573271D01*
X47723282Y6476099D01*
X47648176Y6453316D01*
X47390196Y6315423D01*
X47164076Y6129851D01*
X46978504Y5903731D01*
X46949210Y5848926D01*
X46919916Y5903731D01*
X46734344Y6129851D01*
X46508224Y6315423D01*
X46250244Y6453316D01*
X45970321Y6538230D01*
X45752160Y6559717D01*
X45606260Y6559717D01*
X45388099Y6538230D01*
X45108176Y6453316D01*
X44850196Y6315423D01*
X44624076Y6129851D01*
X44438504Y5903731D01*
X44404009Y5839194D01*
X44334388Y5956072D01*
X44139479Y6172305D01*
X43906130Y6346358D01*
X43643309Y6471542D01*
X43496100Y6516193D01*
X43266210Y6394872D01*
X43266210Y5201717D01*
X43286210Y5201717D01*
X43286210Y4947717D01*
X43266210Y4947717D01*
X43266210Y4927717D01*
X43012210Y4927717D01*
X43012210Y4947717D01*
X42992210Y4947717D01*
X42992210Y5201717D01*
X43012210Y5201717D01*
X43012210Y6394872D01*
X42782320Y6516193D01*
X42682352Y6485871D01*
X42714065Y6590415D01*
X42724700Y6698395D01*
X42724700Y6698396D01*
X42728256Y6734500D01*
X42724700Y6770605D01*
X42724700Y9710153D01*
X44426846Y8008007D01*
X44449862Y7979962D01*
X44499136Y7939524D01*
X44561780Y7888113D01*
X44689466Y7819863D01*
X44828015Y7777835D01*
X44972100Y7763644D01*
X45008205Y7767200D01*
X45587449Y7767200D01*
X45727511Y7673614D01*
X45897671Y7603132D01*
X46078311Y7567200D01*
X46262489Y7567200D01*
X46443129Y7603132D01*
X46613289Y7673614D01*
X46766428Y7775938D01*
X46896662Y7906172D01*
X46998986Y8059311D01*
X47069468Y8229471D01*
X47105400Y8410111D01*
X47105400Y8594289D01*
X47069468Y8774929D01*
X46998986Y8945089D01*
X46896662Y9098228D01*
X46766428Y9228462D01*
X46639944Y9312976D01*
X46754228Y9389338D01*
X46884462Y9519572D01*
X46986786Y9672711D01*
X47057268Y9842871D01*
X47093200Y10023511D01*
X47093200Y10207689D01*
X47057268Y10388329D01*
X46986786Y10558489D01*
X46884462Y10711628D01*
X46754228Y10841862D01*
X46601089Y10944186D01*
X46430929Y11014668D01*
X46250289Y11050600D01*
X46066111Y11050600D01*
X45885471Y11014668D01*
X45715311Y10944186D01*
X45575249Y10850600D01*
X44284947Y10850600D01*
X41595547Y13540000D01*
X43384495Y13540000D01*
X43420600Y13536444D01*
X43456705Y13540000D01*
X43564685Y13550635D01*
X43703233Y13592663D01*
X43830920Y13660913D01*
X43942838Y13752762D01*
X43965859Y13780813D01*
X44139746Y13954700D01*
X44202414Y13954700D01*
X44167900Y13781189D01*
X44167900Y13781189D01*
G37*
X44167900Y13781189D02*
X44167900Y13597011D01*
X44203832Y13416371D01*
X44274314Y13246211D01*
X44376638Y13093072D01*
X44506872Y12962838D01*
X44660011Y12860514D01*
X44830171Y12790032D01*
X44995386Y12757168D01*
X47847101Y9905452D01*
X47847100Y7428951D01*
X47753514Y7288889D01*
X47683032Y7118729D01*
X47647100Y6938089D01*
X47647100Y6753911D01*
X47683032Y6573271D01*
X47723282Y6476099D01*
X47648176Y6453316D01*
X47390196Y6315423D01*
X47164076Y6129851D01*
X46978504Y5903731D01*
X46949210Y5848926D01*
X46919916Y5903731D01*
X46734344Y6129851D01*
X46508224Y6315423D01*
X46250244Y6453316D01*
X45970321Y6538230D01*
X45752160Y6559717D01*
X45606260Y6559717D01*
X45388099Y6538230D01*
X45108176Y6453316D01*
X44850196Y6315423D01*
X44624076Y6129851D01*
X44438504Y5903731D01*
X44404009Y5839194D01*
X44334388Y5956072D01*
X44139479Y6172305D01*
X43906130Y6346358D01*
X43643309Y6471542D01*
X43496100Y6516193D01*
X43266210Y6394872D01*
X43266210Y5201717D01*
X43286210Y5201717D01*
X43286210Y4947717D01*
X43266210Y4947717D01*
X43266210Y4927717D01*
X43012210Y4927717D01*
X43012210Y4947717D01*
X42992210Y4947717D01*
X42992210Y5201717D01*
X43012210Y5201717D01*
X43012210Y6394872D01*
X42782320Y6516193D01*
X42682352Y6485871D01*
X42714065Y6590415D01*
X42724700Y6698395D01*
X42724700Y6698396D01*
X42728256Y6734500D01*
X42724700Y6770605D01*
X42724700Y9710153D01*
X44426846Y8008007D01*
X44449862Y7979962D01*
X44499136Y7939524D01*
X44561780Y7888113D01*
X44689466Y7819863D01*
X44828015Y7777835D01*
X44972100Y7763644D01*
X45008205Y7767200D01*
X45587449Y7767200D01*
X45727511Y7673614D01*
X45897671Y7603132D01*
X46078311Y7567200D01*
X46262489Y7567200D01*
X46443129Y7603132D01*
X46613289Y7673614D01*
X46766428Y7775938D01*
X46896662Y7906172D01*
X46998986Y8059311D01*
X47069468Y8229471D01*
X47105400Y8410111D01*
X47105400Y8594289D01*
X47069468Y8774929D01*
X46998986Y8945089D01*
X46896662Y9098228D01*
X46766428Y9228462D01*
X46639944Y9312976D01*
X46754228Y9389338D01*
X46884462Y9519572D01*
X46986786Y9672711D01*
X47057268Y9842871D01*
X47093200Y10023511D01*
X47093200Y10207689D01*
X47057268Y10388329D01*
X46986786Y10558489D01*
X46884462Y10711628D01*
X46754228Y10841862D01*
X46601089Y10944186D01*
X46430929Y11014668D01*
X46250289Y11050600D01*
X46066111Y11050600D01*
X45885471Y11014668D01*
X45715311Y10944186D01*
X45575249Y10850600D01*
X44284947Y10850600D01*
X41595547Y13540000D01*
X43384495Y13540000D01*
X43420600Y13536444D01*
X43456705Y13540000D01*
X43564685Y13550635D01*
X43703233Y13592663D01*
X43830920Y13660913D01*
X43942838Y13752762D01*
X43965859Y13780813D01*
X44139746Y13954700D01*
X44202414Y13954700D01*
X44167900Y13781189D01*
G36*
X66252312Y25521717D02*
G01*
X66272312Y25521717D01*
X66272312Y25267717D01*
X66252312Y25267717D01*
X66252312Y24073903D01*
X66482203Y23953236D01*
X66756564Y24050560D01*
X66879800Y24123968D01*
X66879801Y15504348D01*
X59155808Y7780354D01*
X59127762Y7757337D01*
X59035913Y7645419D01*
X58967663Y7517732D01*
X58939983Y7426483D01*
X58925635Y7379185D01*
X58911444Y7235100D01*
X58915000Y7198995D01*
X58915000Y6464007D01*
X58670321Y6538230D01*
X58452160Y6559717D01*
X58306260Y6559717D01*
X58088099Y6538230D01*
X57808176Y6453316D01*
X57550196Y6315423D01*
X57324076Y6129851D01*
X57138504Y5903731D01*
X57109210Y5848926D01*
X57079916Y5903731D01*
X56894344Y6129851D01*
X56668224Y6315423D01*
X56410244Y6453316D01*
X56130321Y6538230D01*
X55912160Y6559717D01*
X55766260Y6559717D01*
X55548099Y6538230D01*
X55268176Y6453316D01*
X55010196Y6315423D01*
X54784076Y6129851D01*
X54598504Y5903731D01*
X54569210Y5848926D01*
X54539916Y5903731D01*
X54354344Y6129851D01*
X54128224Y6315423D01*
X53870244Y6453316D01*
X53590321Y6538230D01*
X53372160Y6559717D01*
X53226260Y6559717D01*
X53008099Y6538230D01*
X52728176Y6453316D01*
X52470196Y6315423D01*
X52244076Y6129851D01*
X52058504Y5903731D01*
X52029210Y5848926D01*
X51999916Y5903731D01*
X51814344Y6129851D01*
X51588224Y6315423D01*
X51330244Y6453316D01*
X51050321Y6538230D01*
X50832160Y6559717D01*
X50686260Y6559717D01*
X50468099Y6538230D01*
X50188176Y6453316D01*
X49930196Y6315423D01*
X49704076Y6129851D01*
X49518504Y5903731D01*
X49489210Y5848926D01*
X49459916Y5903731D01*
X49274344Y6129851D01*
X49227052Y6168662D01*
X49308362Y6249972D01*
X49410686Y6403111D01*
X49481168Y6573271D01*
X49517100Y6753911D01*
X49517100Y6938089D01*
X49481168Y7118729D01*
X49410686Y7288889D01*
X49317100Y7428951D01*
X49317100Y10173795D01*
X49320656Y10209900D01*
X49306465Y10353985D01*
X49301009Y10371972D01*
X49264437Y10492533D01*
X49196187Y10620220D01*
X49104338Y10732138D01*
X49076293Y10755154D01*
X48128337Y11703110D01*
X52618524Y11703110D01*
X52663175Y11555901D01*
X52788359Y11293080D01*
X52962412Y11059731D01*
X53178645Y10864822D01*
X53428748Y10715843D01*
X53703109Y10618519D01*
X53933000Y10739186D01*
X53933000Y11933000D01*
X54187000Y11933000D01*
X54187000Y10739186D01*
X54416891Y10618519D01*
X54691252Y10715843D01*
X54941355Y10864822D01*
X55157588Y11059731D01*
X55330000Y11290880D01*
X55502412Y11059731D01*
X55718645Y10864822D01*
X55968748Y10715843D01*
X56243109Y10618519D01*
X56473000Y10739186D01*
X56473000Y11933000D01*
X56727000Y11933000D01*
X56727000Y10739186D01*
X56956891Y10618519D01*
X57231252Y10715843D01*
X57481355Y10864822D01*
X57697588Y11059731D01*
X57871641Y11293080D01*
X57996825Y11555901D01*
X58041476Y11703110D01*
X57920155Y11933000D01*
X56727000Y11933000D01*
X56473000Y11933000D01*
X54187000Y11933000D01*
X53933000Y11933000D01*
X52739845Y11933000D01*
X52618524Y11703110D01*
X48128337Y11703110D01*
X46034832Y13796614D01*
X46003386Y13954700D01*
X50087354Y13954700D01*
X51136046Y12906007D01*
X51159062Y12877962D01*
X51270980Y12786113D01*
X51398667Y12717863D01*
X51537215Y12675835D01*
X51645195Y12665200D01*
X51645204Y12665200D01*
X51681299Y12661645D01*
X51717394Y12665200D01*
X52711330Y12665200D01*
X52663175Y12564099D01*
X52618524Y12416890D01*
X52739845Y12187000D01*
X53933000Y12187000D01*
X53933000Y12207000D01*
X54187000Y12207000D01*
X54187000Y12187000D01*
X56473000Y12187000D01*
X56473000Y12207000D01*
X56727000Y12207000D01*
X56727000Y12187000D01*
X57920155Y12187000D01*
X58041476Y12416890D01*
X57996825Y12564099D01*
X57871641Y12826920D01*
X57697588Y13060269D01*
X57481355Y13255178D01*
X57364477Y13324799D01*
X57429014Y13359294D01*
X57655134Y13544866D01*
X57840706Y13770986D01*
X57978599Y14028966D01*
X58063513Y14308889D01*
X58092185Y14600000D01*
X58063513Y14891111D01*
X57978599Y15171034D01*
X57840706Y15429014D01*
X57655134Y15655134D01*
X57429014Y15840706D01*
X57374209Y15870000D01*
X57429014Y15899294D01*
X57655134Y16084866D01*
X57840706Y16310986D01*
X57978599Y16568966D01*
X58063513Y16848889D01*
X58092185Y17140000D01*
X58063513Y17431111D01*
X57978599Y17711034D01*
X57840706Y17969014D01*
X57655134Y18195134D01*
X57429014Y18380706D01*
X57374209Y18410000D01*
X57429014Y18439294D01*
X57655134Y18624866D01*
X57840706Y18850986D01*
X57978599Y19108966D01*
X58063513Y19388889D01*
X58092185Y19680000D01*
X58063513Y19971111D01*
X57978599Y20251034D01*
X57840706Y20509014D01*
X57655134Y20735134D01*
X57429014Y20920706D01*
X57374209Y20950000D01*
X57429014Y20979294D01*
X57655134Y21164866D01*
X57840706Y21390986D01*
X57978599Y21648966D01*
X58063513Y21928889D01*
X58092185Y22220000D01*
X58063513Y22511111D01*
X57978599Y22791034D01*
X57840706Y23049014D01*
X57655134Y23275134D01*
X57429014Y23460706D01*
X57374209Y23490000D01*
X57429014Y23519294D01*
X57655134Y23704866D01*
X57840706Y23930986D01*
X57978599Y24188966D01*
X58063513Y24468889D01*
X58092185Y24760000D01*
X58063513Y25051111D01*
X57978599Y25331034D01*
X57933932Y25414600D01*
X61295654Y25414600D01*
X61804446Y24905807D01*
X61827462Y24877762D01*
X61939380Y24785913D01*
X62067067Y24717663D01*
X62205615Y24675635D01*
X62290305Y24667294D01*
X62344606Y24565703D01*
X62530178Y24339583D01*
X62756298Y24154011D01*
X63014278Y24016118D01*
X63294201Y23931204D01*
X63512362Y23909717D01*
X63658262Y23909717D01*
X63876423Y23931204D01*
X64156346Y24016118D01*
X64414326Y24154011D01*
X64640446Y24339583D01*
X64826018Y24565703D01*
X64856896Y24623473D01*
X65027724Y24394448D01*
X65243957Y24199539D01*
X65494060Y24050560D01*
X65768421Y23953236D01*
X65998312Y24073903D01*
X65998312Y25267717D01*
X65978312Y25267717D01*
X65978312Y25521717D01*
X65998312Y25521717D01*
X65998312Y25541717D01*
X66252312Y25541717D01*
X66252312Y25521717D01*
X66252312Y25521717D01*
G37*
X66252312Y25521717D02*
X66272312Y25521717D01*
X66272312Y25267717D01*
X66252312Y25267717D01*
X66252312Y24073903D01*
X66482203Y23953236D01*
X66756564Y24050560D01*
X66879800Y24123968D01*
X66879801Y15504348D01*
X59155808Y7780354D01*
X59127762Y7757337D01*
X59035913Y7645419D01*
X58967663Y7517732D01*
X58939983Y7426483D01*
X58925635Y7379185D01*
X58911444Y7235100D01*
X58915000Y7198995D01*
X58915000Y6464007D01*
X58670321Y6538230D01*
X58452160Y6559717D01*
X58306260Y6559717D01*
X58088099Y6538230D01*
X57808176Y6453316D01*
X57550196Y6315423D01*
X57324076Y6129851D01*
X57138504Y5903731D01*
X57109210Y5848926D01*
X57079916Y5903731D01*
X56894344Y6129851D01*
X56668224Y6315423D01*
X56410244Y6453316D01*
X56130321Y6538230D01*
X55912160Y6559717D01*
X55766260Y6559717D01*
X55548099Y6538230D01*
X55268176Y6453316D01*
X55010196Y6315423D01*
X54784076Y6129851D01*
X54598504Y5903731D01*
X54569210Y5848926D01*
X54539916Y5903731D01*
X54354344Y6129851D01*
X54128224Y6315423D01*
X53870244Y6453316D01*
X53590321Y6538230D01*
X53372160Y6559717D01*
X53226260Y6559717D01*
X53008099Y6538230D01*
X52728176Y6453316D01*
X52470196Y6315423D01*
X52244076Y6129851D01*
X52058504Y5903731D01*
X52029210Y5848926D01*
X51999916Y5903731D01*
X51814344Y6129851D01*
X51588224Y6315423D01*
X51330244Y6453316D01*
X51050321Y6538230D01*
X50832160Y6559717D01*
X50686260Y6559717D01*
X50468099Y6538230D01*
X50188176Y6453316D01*
X49930196Y6315423D01*
X49704076Y6129851D01*
X49518504Y5903731D01*
X49489210Y5848926D01*
X49459916Y5903731D01*
X49274344Y6129851D01*
X49227052Y6168662D01*
X49308362Y6249972D01*
X49410686Y6403111D01*
X49481168Y6573271D01*
X49517100Y6753911D01*
X49517100Y6938089D01*
X49481168Y7118729D01*
X49410686Y7288889D01*
X49317100Y7428951D01*
X49317100Y10173795D01*
X49320656Y10209900D01*
X49306465Y10353985D01*
X49301009Y10371972D01*
X49264437Y10492533D01*
X49196187Y10620220D01*
X49104338Y10732138D01*
X49076293Y10755154D01*
X48128337Y11703110D01*
X52618524Y11703110D01*
X52663175Y11555901D01*
X52788359Y11293080D01*
X52962412Y11059731D01*
X53178645Y10864822D01*
X53428748Y10715843D01*
X53703109Y10618519D01*
X53933000Y10739186D01*
X53933000Y11933000D01*
X54187000Y11933000D01*
X54187000Y10739186D01*
X54416891Y10618519D01*
X54691252Y10715843D01*
X54941355Y10864822D01*
X55157588Y11059731D01*
X55330000Y11290880D01*
X55502412Y11059731D01*
X55718645Y10864822D01*
X55968748Y10715843D01*
X56243109Y10618519D01*
X56473000Y10739186D01*
X56473000Y11933000D01*
X56727000Y11933000D01*
X56727000Y10739186D01*
X56956891Y10618519D01*
X57231252Y10715843D01*
X57481355Y10864822D01*
X57697588Y11059731D01*
X57871641Y11293080D01*
X57996825Y11555901D01*
X58041476Y11703110D01*
X57920155Y11933000D01*
X56727000Y11933000D01*
X56473000Y11933000D01*
X54187000Y11933000D01*
X53933000Y11933000D01*
X52739845Y11933000D01*
X52618524Y11703110D01*
X48128337Y11703110D01*
X46034832Y13796614D01*
X46003386Y13954700D01*
X50087354Y13954700D01*
X51136046Y12906007D01*
X51159062Y12877962D01*
X51270980Y12786113D01*
X51398667Y12717863D01*
X51537215Y12675835D01*
X51645195Y12665200D01*
X51645204Y12665200D01*
X51681299Y12661645D01*
X51717394Y12665200D01*
X52711330Y12665200D01*
X52663175Y12564099D01*
X52618524Y12416890D01*
X52739845Y12187000D01*
X53933000Y12187000D01*
X53933000Y12207000D01*
X54187000Y12207000D01*
X54187000Y12187000D01*
X56473000Y12187000D01*
X56473000Y12207000D01*
X56727000Y12207000D01*
X56727000Y12187000D01*
X57920155Y12187000D01*
X58041476Y12416890D01*
X57996825Y12564099D01*
X57871641Y12826920D01*
X57697588Y13060269D01*
X57481355Y13255178D01*
X57364477Y13324799D01*
X57429014Y13359294D01*
X57655134Y13544866D01*
X57840706Y13770986D01*
X57978599Y14028966D01*
X58063513Y14308889D01*
X58092185Y14600000D01*
X58063513Y14891111D01*
X57978599Y15171034D01*
X57840706Y15429014D01*
X57655134Y15655134D01*
X57429014Y15840706D01*
X57374209Y15870000D01*
X57429014Y15899294D01*
X57655134Y16084866D01*
X57840706Y16310986D01*
X57978599Y16568966D01*
X58063513Y16848889D01*
X58092185Y17140000D01*
X58063513Y17431111D01*
X57978599Y17711034D01*
X57840706Y17969014D01*
X57655134Y18195134D01*
X57429014Y18380706D01*
X57374209Y18410000D01*
X57429014Y18439294D01*
X57655134Y18624866D01*
X57840706Y18850986D01*
X57978599Y19108966D01*
X58063513Y19388889D01*
X58092185Y19680000D01*
X58063513Y19971111D01*
X57978599Y20251034D01*
X57840706Y20509014D01*
X57655134Y20735134D01*
X57429014Y20920706D01*
X57374209Y20950000D01*
X57429014Y20979294D01*
X57655134Y21164866D01*
X57840706Y21390986D01*
X57978599Y21648966D01*
X58063513Y21928889D01*
X58092185Y22220000D01*
X58063513Y22511111D01*
X57978599Y22791034D01*
X57840706Y23049014D01*
X57655134Y23275134D01*
X57429014Y23460706D01*
X57374209Y23490000D01*
X57429014Y23519294D01*
X57655134Y23704866D01*
X57840706Y23930986D01*
X57978599Y24188966D01*
X58063513Y24468889D01*
X58092185Y24760000D01*
X58063513Y25051111D01*
X57978599Y25331034D01*
X57933932Y25414600D01*
X61295654Y25414600D01*
X61804446Y24905807D01*
X61827462Y24877762D01*
X61939380Y24785913D01*
X62067067Y24717663D01*
X62205615Y24675635D01*
X62290305Y24667294D01*
X62344606Y24565703D01*
X62530178Y24339583D01*
X62756298Y24154011D01*
X63014278Y24016118D01*
X63294201Y23931204D01*
X63512362Y23909717D01*
X63658262Y23909717D01*
X63876423Y23931204D01*
X64156346Y24016118D01*
X64414326Y24154011D01*
X64640446Y24339583D01*
X64826018Y24565703D01*
X64856896Y24623473D01*
X65027724Y24394448D01*
X65243957Y24199539D01*
X65494060Y24050560D01*
X65768421Y23953236D01*
X65998312Y24073903D01*
X65998312Y25267717D01*
X65978312Y25267717D01*
X65978312Y25521717D01*
X65998312Y25521717D01*
X65998312Y25541717D01*
X66252312Y25541717D01*
X66252312Y25521717D01*
G36*
X31347714Y34977011D02*
G01*
X31450038Y34823872D01*
X31580272Y34693638D01*
X31733411Y34591314D01*
X31903571Y34520832D01*
X32084211Y34484900D01*
X32268389Y34484900D01*
X32424000Y34515853D01*
X35570646Y31369207D01*
X35593662Y31341162D01*
X35705580Y31249313D01*
X35833267Y31181063D01*
X35971815Y31139035D01*
X36079795Y31128400D01*
X36079804Y31128400D01*
X36115899Y31124845D01*
X36151994Y31128400D01*
X36591554Y31128400D01*
X37470832Y30249122D01*
X37400738Y30179028D01*
X37392968Y30167400D01*
X34428747Y30167400D01*
X29841021Y34755125D01*
X29897011Y34717714D01*
X30067171Y34647232D01*
X30247811Y34611300D01*
X30431989Y34611300D01*
X30612629Y34647232D01*
X30782789Y34717714D01*
X30935928Y34820038D01*
X31066162Y34950272D01*
X31129457Y35045000D01*
X31130189Y35045000D01*
X31305138Y35079800D01*
X31347714Y34977011D01*
X31347714Y34977011D01*
G37*
X31347714Y34977011D02*
X31450038Y34823872D01*
X31580272Y34693638D01*
X31733411Y34591314D01*
X31903571Y34520832D01*
X32084211Y34484900D01*
X32268389Y34484900D01*
X32424000Y34515853D01*
X35570646Y31369207D01*
X35593662Y31341162D01*
X35705580Y31249313D01*
X35833267Y31181063D01*
X35971815Y31139035D01*
X36079795Y31128400D01*
X36079804Y31128400D01*
X36115899Y31124845D01*
X36151994Y31128400D01*
X36591554Y31128400D01*
X37470832Y30249122D01*
X37400738Y30179028D01*
X37392968Y30167400D01*
X34428747Y30167400D01*
X29841021Y34755125D01*
X29897011Y34717714D01*
X30067171Y34647232D01*
X30247811Y34611300D01*
X30431989Y34611300D01*
X30612629Y34647232D01*
X30782789Y34717714D01*
X30935928Y34820038D01*
X31066162Y34950272D01*
X31129457Y35045000D01*
X31130189Y35045000D01*
X31305138Y35079800D01*
X31347714Y34977011D01*
G36*
X30229189Y41578564D02*
G01*
X30229190Y40497134D01*
X30143899Y40411844D01*
X30115852Y40388826D01*
X30024003Y40276908D01*
X29986763Y40207236D01*
X29959688Y40156582D01*
X29955753Y40149221D01*
X29913725Y40010673D01*
X29903815Y39910054D01*
X29899534Y39866590D01*
X29903090Y39830485D01*
X29903090Y39451536D01*
X29897500Y39445946D01*
X29897500Y40419754D01*
X29949292Y40471546D01*
X29977337Y40494562D01*
X30069187Y40606480D01*
X30137437Y40734167D01*
X30179465Y40872715D01*
X30190100Y40980695D01*
X30190100Y40980696D01*
X30193656Y41016800D01*
X30190100Y41052905D01*
X30190100Y41617654D01*
X30229189Y41578564D01*
X30229189Y41578564D01*
G37*
X30229189Y41578564D02*
X30229190Y40497134D01*
X30143899Y40411844D01*
X30115852Y40388826D01*
X30024003Y40276908D01*
X29986763Y40207236D01*
X29959688Y40156582D01*
X29955753Y40149221D01*
X29913725Y40010673D01*
X29903815Y39910054D01*
X29899534Y39866590D01*
X29903090Y39830485D01*
X29903090Y39451536D01*
X29897500Y39445946D01*
X29897500Y40419754D01*
X29949292Y40471546D01*
X29977337Y40494562D01*
X30069187Y40606480D01*
X30137437Y40734167D01*
X30179465Y40872715D01*
X30190100Y40980695D01*
X30190100Y40980696D01*
X30193656Y41016800D01*
X30190100Y41052905D01*
X30190100Y41617654D01*
X30229189Y41578564D01*
G36*
X26844076Y49269851D02*
G01*
X26658504Y49043731D01*
X26629210Y48988926D01*
X26599916Y49043731D01*
X26414454Y49269717D01*
X26502212Y49269717D01*
X26502212Y49434561D01*
X26732100Y49313241D01*
X26879309Y49357892D01*
X27051002Y49439671D01*
X26844076Y49269851D01*
X26844076Y49269851D01*
G37*
X26844076Y49269851D02*
X26658504Y49043731D01*
X26629210Y48988926D01*
X26599916Y49043731D01*
X26414454Y49269717D01*
X26502212Y49269717D01*
X26502212Y49434561D01*
X26732100Y49313241D01*
X26879309Y49357892D01*
X27051002Y49439671D01*
X26844076Y49269851D01*
G36*
X26502210Y50881717D02*
G01*
X26522210Y50881717D01*
X26522210Y50627717D01*
X26502210Y50627717D01*
X26502210Y50607717D01*
X26248210Y50607717D01*
X26248210Y50627717D01*
X26228210Y50627717D01*
X26228210Y50881717D01*
X26248210Y50881717D01*
X26248210Y50901717D01*
X26502210Y50901717D01*
X26502210Y50881717D01*
X26502210Y50881717D01*
G37*
X26502210Y50881717D02*
X26522210Y50881717D01*
X26522210Y50627717D01*
X26502210Y50627717D01*
X26502210Y50607717D01*
X26248210Y50607717D01*
X26248210Y50627717D01*
X26228210Y50627717D01*
X26228210Y50881717D01*
X26248210Y50881717D01*
X26248210Y50901717D01*
X26502210Y50901717D01*
X26502210Y50881717D01*
M02*
