G04 #@! TF.GenerationSoftware,KiCad,Pcbnew,(5.1.4)-1*
G04 #@! TF.CreationDate,2020-03-21T04:08:05+09:00*
G04 #@! TF.ProjectId,Meno,4d656e6f-2e6b-4696-9361-645f70636258,rev?*
G04 #@! TF.SameCoordinates,PX6cf7820PY7a67730*
G04 #@! TF.FileFunction,Legend,Top*
G04 #@! TF.FilePolarity,Positive*
%FSLAX46Y46*%
G04 Gerber Fmt 4.6, Leading zero omitted, Abs format (unit mm)*
G04 Created by KiCad (PCBNEW (5.1.4)-1) date 2020-03-21 04:08:05*
%MOMM*%
%LPD*%
G04 APERTURE LIST*
%ADD10C,0.150000*%
%ADD11C,0.500000*%
%ADD12C,0.120000*%
%ADD13C,0.200000*%
%ADD14C,0.152400*%
%ADD15C,0.127000*%
G04 APERTURE END LIST*
D10*
X22079047Y8168572D02*
X22840952Y8168572D01*
X22460000Y7787620D02*
X22460000Y8549524D01*
X16379047Y17368572D02*
X17140952Y17368572D01*
X16760000Y16987620D02*
X16760000Y17749524D01*
D11*
X35620000Y43040000D02*
G75*
G03X35620000Y43040000I-250000J0D01*
G01*
D10*
X50839047Y40520239D02*
X50386666Y40520239D01*
X50341428Y40067858D01*
X50386666Y40113096D01*
X50477142Y40158334D01*
X50703333Y40158334D01*
X50793809Y40113096D01*
X50839047Y40067858D01*
X50884285Y39977381D01*
X50884285Y39751191D01*
X50839047Y39660715D01*
X50793809Y39615477D01*
X50703333Y39570239D01*
X50477142Y39570239D01*
X50386666Y39615477D01*
X50341428Y39660715D01*
X51155714Y40520239D02*
X51472380Y39570239D01*
X51789047Y40520239D01*
X46409047Y41948572D02*
X47170952Y41948572D01*
X46790000Y41567620D02*
X46790000Y42329524D01*
X12939047Y48908572D02*
X13700952Y48908572D01*
X13320000Y48527620D02*
X13320000Y49289524D01*
X21336047Y27728572D02*
X22097952Y27728572D01*
X21717000Y27347620D02*
X21717000Y28109524D01*
X21336047Y30198572D02*
X22097952Y30198572D01*
X21717000Y29817620D02*
X21717000Y30579524D01*
X21336047Y24058572D02*
X22097952Y24058572D01*
X21717000Y23677620D02*
X21717000Y24439524D01*
X20009523Y20837620D02*
X19533333Y20837620D01*
X19533333Y21837620D01*
X46952380Y15714286D02*
X45952380Y15714286D01*
X45952380Y16095239D01*
X46000000Y16190477D01*
X46047619Y16238096D01*
X46142857Y16285715D01*
X46285714Y16285715D01*
X46380952Y16238096D01*
X46428571Y16190477D01*
X46476190Y16095239D01*
X46476190Y15714286D01*
X45952380Y16619048D02*
X46952380Y16857143D01*
X46238095Y17047620D01*
X46952380Y17238096D01*
X45952380Y17476191D01*
X46952380Y17857143D02*
X45952380Y17857143D01*
X46666666Y18190477D01*
X45952380Y18523810D01*
X46952380Y18523810D01*
X45952380Y19142858D02*
X46190476Y19142858D01*
X46095238Y18904762D02*
X46190476Y19142858D01*
X46095238Y19380953D01*
X46380952Y19000000D02*
X46190476Y19142858D01*
X46380952Y19285715D01*
X47500000Y19500000D02*
X47500000Y14500000D01*
X48500000Y19884524D02*
X48500000Y19586905D01*
X48202380Y19705953D02*
X48500000Y19586905D01*
X48797619Y19705953D01*
X48321428Y19348810D02*
X48500000Y19586905D01*
X48678571Y19348810D01*
X48500000Y17384524D02*
X48500000Y17086905D01*
X48202380Y17205953D02*
X48500000Y17086905D01*
X48797619Y17205953D01*
X48321428Y16848810D02*
X48500000Y17086905D01*
X48678571Y16848810D01*
X48500000Y14884524D02*
X48500000Y14586905D01*
X48202380Y14705953D02*
X48500000Y14586905D01*
X48797619Y14705953D01*
X48321428Y14348810D02*
X48500000Y14586905D01*
X48678571Y14348810D01*
X18168971Y43971429D02*
X17218971Y43971429D01*
X17218971Y44197620D01*
X17264210Y44333334D01*
X17354686Y44423810D01*
X17445162Y44469048D01*
X17626114Y44514286D01*
X17761829Y44514286D01*
X17942781Y44469048D01*
X18033257Y44423810D01*
X18123733Y44333334D01*
X18168971Y44197620D01*
X18168971Y43971429D01*
X18168971Y45419048D02*
X18168971Y44876191D01*
X18168971Y45147620D02*
X17218971Y45147620D01*
X17354686Y45057143D01*
X17445162Y44966667D01*
X17490400Y44876191D01*
X17535638Y46233334D02*
X18168971Y46233334D01*
X17173733Y46007143D02*
X17852305Y45780953D01*
X17852305Y46369048D01*
X20708971Y43971429D02*
X19758971Y43971429D01*
X19758971Y44197620D01*
X19804210Y44333334D01*
X19894686Y44423810D01*
X19985162Y44469048D01*
X20166114Y44514286D01*
X20301829Y44514286D01*
X20482781Y44469048D01*
X20573257Y44423810D01*
X20663733Y44333334D01*
X20708971Y44197620D01*
X20708971Y43971429D01*
X20708971Y45419048D02*
X20708971Y44876191D01*
X20708971Y45147620D02*
X19758971Y45147620D01*
X19894686Y45057143D01*
X19985162Y44966667D01*
X20030400Y44876191D01*
X19758971Y46278572D02*
X19758971Y45826191D01*
X20211352Y45780953D01*
X20166114Y45826191D01*
X20120876Y45916667D01*
X20120876Y46142858D01*
X20166114Y46233334D01*
X20211352Y46278572D01*
X20301829Y46323810D01*
X20528019Y46323810D01*
X20618495Y46278572D01*
X20663733Y46233334D01*
X20708971Y46142858D01*
X20708971Y45916667D01*
X20663733Y45826191D01*
X20618495Y45780953D01*
X23248971Y43971429D02*
X22298971Y43971429D01*
X22298971Y44197620D01*
X22344210Y44333334D01*
X22434686Y44423810D01*
X22525162Y44469048D01*
X22706114Y44514286D01*
X22841829Y44514286D01*
X23022781Y44469048D01*
X23113257Y44423810D01*
X23203733Y44333334D01*
X23248971Y44197620D01*
X23248971Y43971429D01*
X23248971Y45419048D02*
X23248971Y44876191D01*
X23248971Y45147620D02*
X22298971Y45147620D01*
X22434686Y45057143D01*
X22525162Y44966667D01*
X22570400Y44876191D01*
X22298971Y46233334D02*
X22298971Y46052381D01*
X22344210Y45961905D01*
X22389448Y45916667D01*
X22525162Y45826191D01*
X22706114Y45780953D01*
X23068019Y45780953D01*
X23158495Y45826191D01*
X23203733Y45871429D01*
X23248971Y45961905D01*
X23248971Y46142858D01*
X23203733Y46233334D01*
X23158495Y46278572D01*
X23068019Y46323810D01*
X22841829Y46323810D01*
X22751352Y46278572D01*
X22706114Y46233334D01*
X22660876Y46142858D01*
X22660876Y45961905D01*
X22706114Y45871429D01*
X22751352Y45826191D01*
X22841829Y45780953D01*
X25788971Y43971429D02*
X24838971Y43971429D01*
X24838971Y44197620D01*
X24884210Y44333334D01*
X24974686Y44423810D01*
X25065162Y44469048D01*
X25246114Y44514286D01*
X25381829Y44514286D01*
X25562781Y44469048D01*
X25653257Y44423810D01*
X25743733Y44333334D01*
X25788971Y44197620D01*
X25788971Y43971429D01*
X25788971Y45419048D02*
X25788971Y44876191D01*
X25788971Y45147620D02*
X24838971Y45147620D01*
X24974686Y45057143D01*
X25065162Y44966667D01*
X25110400Y44876191D01*
X24838971Y45735715D02*
X24838971Y46369048D01*
X25788971Y45961905D01*
X28328971Y43971429D02*
X27378971Y43971429D01*
X27378971Y44197620D01*
X27424210Y44333334D01*
X27514686Y44423810D01*
X27605162Y44469048D01*
X27786114Y44514286D01*
X27921829Y44514286D01*
X28102781Y44469048D01*
X28193257Y44423810D01*
X28283733Y44333334D01*
X28328971Y44197620D01*
X28328971Y43971429D01*
X28328971Y45419048D02*
X28328971Y44876191D01*
X28328971Y45147620D02*
X27378971Y45147620D01*
X27514686Y45057143D01*
X27605162Y44966667D01*
X27650400Y44876191D01*
X27786114Y45961905D02*
X27740876Y45871429D01*
X27695638Y45826191D01*
X27605162Y45780953D01*
X27559924Y45780953D01*
X27469448Y45826191D01*
X27424210Y45871429D01*
X27378971Y45961905D01*
X27378971Y46142858D01*
X27424210Y46233334D01*
X27469448Y46278572D01*
X27559924Y46323810D01*
X27605162Y46323810D01*
X27695638Y46278572D01*
X27740876Y46233334D01*
X27786114Y46142858D01*
X27786114Y45961905D01*
X27831352Y45871429D01*
X27876590Y45826191D01*
X27967067Y45780953D01*
X28148019Y45780953D01*
X28238495Y45826191D01*
X28283733Y45871429D01*
X28328971Y45961905D01*
X28328971Y46142858D01*
X28283733Y46233334D01*
X28238495Y46278572D01*
X28148019Y46323810D01*
X27967067Y46323810D01*
X27876590Y46278572D01*
X27831352Y46233334D01*
X27786114Y46142858D01*
X30868971Y43971429D02*
X29918971Y43971429D01*
X29918971Y44197620D01*
X29964210Y44333334D01*
X30054686Y44423810D01*
X30145162Y44469048D01*
X30326114Y44514286D01*
X30461829Y44514286D01*
X30642781Y44469048D01*
X30733257Y44423810D01*
X30823733Y44333334D01*
X30868971Y44197620D01*
X30868971Y43971429D01*
X30868971Y45419048D02*
X30868971Y44876191D01*
X30868971Y45147620D02*
X29918971Y45147620D01*
X30054686Y45057143D01*
X30145162Y44966667D01*
X30190400Y44876191D01*
X30868971Y45871429D02*
X30868971Y46052381D01*
X30823733Y46142858D01*
X30778495Y46188096D01*
X30642781Y46278572D01*
X30461829Y46323810D01*
X30099924Y46323810D01*
X30009448Y46278572D01*
X29964210Y46233334D01*
X29918971Y46142858D01*
X29918971Y45961905D01*
X29964210Y45871429D01*
X30009448Y45826191D01*
X30099924Y45780953D01*
X30326114Y45780953D01*
X30416590Y45826191D01*
X30461829Y45871429D01*
X30507067Y45961905D01*
X30507067Y46142858D01*
X30461829Y46233334D01*
X30416590Y46278572D01*
X30326114Y46323810D01*
X33408971Y43971429D02*
X32458971Y43971429D01*
X32458971Y44197620D01*
X32504210Y44333334D01*
X32594686Y44423810D01*
X32685162Y44469048D01*
X32866114Y44514286D01*
X33001829Y44514286D01*
X33182781Y44469048D01*
X33273257Y44423810D01*
X33363733Y44333334D01*
X33408971Y44197620D01*
X33408971Y43971429D01*
X32549448Y44876191D02*
X32504210Y44921429D01*
X32458971Y45011905D01*
X32458971Y45238096D01*
X32504210Y45328572D01*
X32549448Y45373810D01*
X32639924Y45419048D01*
X32730400Y45419048D01*
X32866114Y45373810D01*
X33408971Y44830953D01*
X33408971Y45419048D01*
X32458971Y46007143D02*
X32458971Y46097620D01*
X32504210Y46188096D01*
X32549448Y46233334D01*
X32639924Y46278572D01*
X32820876Y46323810D01*
X33047067Y46323810D01*
X33228019Y46278572D01*
X33318495Y46233334D01*
X33363733Y46188096D01*
X33408971Y46097620D01*
X33408971Y46007143D01*
X33363733Y45916667D01*
X33318495Y45871429D01*
X33228019Y45826191D01*
X33047067Y45780953D01*
X32820876Y45780953D01*
X32639924Y45826191D01*
X32549448Y45871429D01*
X32504210Y45916667D01*
X32458971Y46007143D01*
X35948971Y43971429D02*
X34998971Y43971429D01*
X34998971Y44197620D01*
X35044210Y44333334D01*
X35134686Y44423810D01*
X35225162Y44469048D01*
X35406114Y44514286D01*
X35541829Y44514286D01*
X35722781Y44469048D01*
X35813257Y44423810D01*
X35903733Y44333334D01*
X35948971Y44197620D01*
X35948971Y43971429D01*
X35089448Y44876191D02*
X35044210Y44921429D01*
X34998971Y45011905D01*
X34998971Y45238096D01*
X35044210Y45328572D01*
X35089448Y45373810D01*
X35179924Y45419048D01*
X35270400Y45419048D01*
X35406114Y45373810D01*
X35948971Y44830953D01*
X35948971Y45419048D01*
X35948971Y46323810D02*
X35948971Y45780953D01*
X35948971Y46052381D02*
X34998971Y46052381D01*
X35134686Y45961905D01*
X35225162Y45871429D01*
X35270400Y45780953D01*
X38488971Y43971429D02*
X37538971Y43971429D01*
X37538971Y44197620D01*
X37584210Y44333334D01*
X37674686Y44423810D01*
X37765162Y44469048D01*
X37946114Y44514286D01*
X38081829Y44514286D01*
X38262781Y44469048D01*
X38353257Y44423810D01*
X38443733Y44333334D01*
X38488971Y44197620D01*
X38488971Y43971429D01*
X37629448Y44876191D02*
X37584210Y44921429D01*
X37538971Y45011905D01*
X37538971Y45238096D01*
X37584210Y45328572D01*
X37629448Y45373810D01*
X37719924Y45419048D01*
X37810400Y45419048D01*
X37946114Y45373810D01*
X38488971Y44830953D01*
X38488971Y45419048D01*
X37629448Y45780953D02*
X37584210Y45826191D01*
X37538971Y45916667D01*
X37538971Y46142858D01*
X37584210Y46233334D01*
X37629448Y46278572D01*
X37719924Y46323810D01*
X37810400Y46323810D01*
X37946114Y46278572D01*
X38488971Y45735715D01*
X38488971Y46323810D01*
X41028971Y43971429D02*
X40078971Y43971429D01*
X40078971Y44197620D01*
X40124210Y44333334D01*
X40214686Y44423810D01*
X40305162Y44469048D01*
X40486114Y44514286D01*
X40621829Y44514286D01*
X40802781Y44469048D01*
X40893257Y44423810D01*
X40983733Y44333334D01*
X41028971Y44197620D01*
X41028971Y43971429D01*
X40169448Y44876191D02*
X40124210Y44921429D01*
X40078971Y45011905D01*
X40078971Y45238096D01*
X40124210Y45328572D01*
X40169448Y45373810D01*
X40259924Y45419048D01*
X40350400Y45419048D01*
X40486114Y45373810D01*
X41028971Y44830953D01*
X41028971Y45419048D01*
X40078971Y45735715D02*
X40078971Y46323810D01*
X40440876Y46007143D01*
X40440876Y46142858D01*
X40486114Y46233334D01*
X40531352Y46278572D01*
X40621829Y46323810D01*
X40848019Y46323810D01*
X40938495Y46278572D01*
X40983733Y46233334D01*
X41028971Y46142858D01*
X41028971Y45871429D01*
X40983733Y45780953D01*
X40938495Y45735715D01*
X43568971Y43971429D02*
X42618971Y43971429D01*
X42618971Y44197620D01*
X42664210Y44333334D01*
X42754686Y44423810D01*
X42845162Y44469048D01*
X43026114Y44514286D01*
X43161829Y44514286D01*
X43342781Y44469048D01*
X43433257Y44423810D01*
X43523733Y44333334D01*
X43568971Y44197620D01*
X43568971Y43971429D01*
X42709448Y44876191D02*
X42664210Y44921429D01*
X42618971Y45011905D01*
X42618971Y45238096D01*
X42664210Y45328572D01*
X42709448Y45373810D01*
X42799924Y45419048D01*
X42890400Y45419048D01*
X43026114Y45373810D01*
X43568971Y44830953D01*
X43568971Y45419048D01*
X42935638Y46233334D02*
X43568971Y46233334D01*
X42573733Y46007143D02*
X43252305Y45780953D01*
X43252305Y46369048D01*
X46108971Y43971429D02*
X45158971Y43971429D01*
X45158971Y44197620D01*
X45204210Y44333334D01*
X45294686Y44423810D01*
X45385162Y44469048D01*
X45566114Y44514286D01*
X45701829Y44514286D01*
X45882781Y44469048D01*
X45973257Y44423810D01*
X46063733Y44333334D01*
X46108971Y44197620D01*
X46108971Y43971429D01*
X45249448Y44876191D02*
X45204210Y44921429D01*
X45158971Y45011905D01*
X45158971Y45238096D01*
X45204210Y45328572D01*
X45249448Y45373810D01*
X45339924Y45419048D01*
X45430400Y45419048D01*
X45566114Y45373810D01*
X46108971Y44830953D01*
X46108971Y45419048D01*
X45158971Y46278572D02*
X45158971Y45826191D01*
X45611352Y45780953D01*
X45566114Y45826191D01*
X45520876Y45916667D01*
X45520876Y46142858D01*
X45566114Y46233334D01*
X45611352Y46278572D01*
X45701829Y46323810D01*
X45928019Y46323810D01*
X46018495Y46278572D01*
X46063733Y46233334D01*
X46108971Y46142858D01*
X46108971Y45916667D01*
X46063733Y45826191D01*
X46018495Y45780953D01*
X48648971Y43971429D02*
X47698971Y43971429D01*
X47698971Y44197620D01*
X47744210Y44333334D01*
X47834686Y44423810D01*
X47925162Y44469048D01*
X48106114Y44514286D01*
X48241829Y44514286D01*
X48422781Y44469048D01*
X48513257Y44423810D01*
X48603733Y44333334D01*
X48648971Y44197620D01*
X48648971Y43971429D01*
X47789448Y44876191D02*
X47744210Y44921429D01*
X47698971Y45011905D01*
X47698971Y45238096D01*
X47744210Y45328572D01*
X47789448Y45373810D01*
X47879924Y45419048D01*
X47970400Y45419048D01*
X48106114Y45373810D01*
X48648971Y44830953D01*
X48648971Y45419048D01*
X47698971Y46233334D02*
X47698971Y46052381D01*
X47744210Y45961905D01*
X47789448Y45916667D01*
X47925162Y45826191D01*
X48106114Y45780953D01*
X48468019Y45780953D01*
X48558495Y45826191D01*
X48603733Y45871429D01*
X48648971Y45961905D01*
X48648971Y46142858D01*
X48603733Y46233334D01*
X48558495Y46278572D01*
X48468019Y46323810D01*
X48241829Y46323810D01*
X48151352Y46278572D01*
X48106114Y46233334D01*
X48060876Y46142858D01*
X48060876Y45961905D01*
X48106114Y45871429D01*
X48151352Y45826191D01*
X48241829Y45780953D01*
X51188971Y43971429D02*
X50238971Y43971429D01*
X50238971Y44197620D01*
X50284210Y44333334D01*
X50374686Y44423810D01*
X50465162Y44469048D01*
X50646114Y44514286D01*
X50781829Y44514286D01*
X50962781Y44469048D01*
X51053257Y44423810D01*
X51143733Y44333334D01*
X51188971Y44197620D01*
X51188971Y43971429D01*
X50329448Y44876191D02*
X50284210Y44921429D01*
X50238971Y45011905D01*
X50238971Y45238096D01*
X50284210Y45328572D01*
X50329448Y45373810D01*
X50419924Y45419048D01*
X50510400Y45419048D01*
X50646114Y45373810D01*
X51188971Y44830953D01*
X51188971Y45419048D01*
X50238971Y45735715D02*
X50238971Y46369048D01*
X51188971Y45961905D01*
X53728971Y43971429D02*
X52778971Y43971429D01*
X52778971Y44197620D01*
X52824210Y44333334D01*
X52914686Y44423810D01*
X53005162Y44469048D01*
X53186114Y44514286D01*
X53321829Y44514286D01*
X53502781Y44469048D01*
X53593257Y44423810D01*
X53683733Y44333334D01*
X53728971Y44197620D01*
X53728971Y43971429D01*
X52869448Y44876191D02*
X52824210Y44921429D01*
X52778971Y45011905D01*
X52778971Y45238096D01*
X52824210Y45328572D01*
X52869448Y45373810D01*
X52959924Y45419048D01*
X53050400Y45419048D01*
X53186114Y45373810D01*
X53728971Y44830953D01*
X53728971Y45419048D01*
X53186114Y45961905D02*
X53140876Y45871429D01*
X53095638Y45826191D01*
X53005162Y45780953D01*
X52959924Y45780953D01*
X52869448Y45826191D01*
X52824210Y45871429D01*
X52778971Y45961905D01*
X52778971Y46142858D01*
X52824210Y46233334D01*
X52869448Y46278572D01*
X52959924Y46323810D01*
X53005162Y46323810D01*
X53095638Y46278572D01*
X53140876Y46233334D01*
X53186114Y46142858D01*
X53186114Y45961905D01*
X53231352Y45871429D01*
X53276590Y45826191D01*
X53367067Y45780953D01*
X53548019Y45780953D01*
X53638495Y45826191D01*
X53683733Y45871429D01*
X53728971Y45961905D01*
X53728971Y46142858D01*
X53683733Y46233334D01*
X53638495Y46278572D01*
X53548019Y46323810D01*
X53367067Y46323810D01*
X53276590Y46278572D01*
X53231352Y46233334D01*
X53186114Y46142858D01*
X56268971Y43971429D02*
X55318971Y43971429D01*
X55318971Y44197620D01*
X55364210Y44333334D01*
X55454686Y44423810D01*
X55545162Y44469048D01*
X55726114Y44514286D01*
X55861829Y44514286D01*
X56042781Y44469048D01*
X56133257Y44423810D01*
X56223733Y44333334D01*
X56268971Y44197620D01*
X56268971Y43971429D01*
X55409448Y44876191D02*
X55364210Y44921429D01*
X55318971Y45011905D01*
X55318971Y45238096D01*
X55364210Y45328572D01*
X55409448Y45373810D01*
X55499924Y45419048D01*
X55590400Y45419048D01*
X55726114Y45373810D01*
X56268971Y44830953D01*
X56268971Y45419048D01*
X56268971Y45871429D02*
X56268971Y46052381D01*
X56223733Y46142858D01*
X56178495Y46188096D01*
X56042781Y46278572D01*
X55861829Y46323810D01*
X55499924Y46323810D01*
X55409448Y46278572D01*
X55364210Y46233334D01*
X55318971Y46142858D01*
X55318971Y45961905D01*
X55364210Y45871429D01*
X55409448Y45826191D01*
X55499924Y45780953D01*
X55726114Y45780953D01*
X55816590Y45826191D01*
X55861829Y45871429D01*
X55907067Y45961905D01*
X55907067Y46142858D01*
X55861829Y46233334D01*
X55816590Y46278572D01*
X55726114Y46323810D01*
X58808971Y43971429D02*
X57858971Y43971429D01*
X57858971Y44197620D01*
X57904210Y44333334D01*
X57994686Y44423810D01*
X58085162Y44469048D01*
X58266114Y44514286D01*
X58401829Y44514286D01*
X58582781Y44469048D01*
X58673257Y44423810D01*
X58763733Y44333334D01*
X58808971Y44197620D01*
X58808971Y43971429D01*
X57858971Y44830953D02*
X57858971Y45419048D01*
X58220876Y45102381D01*
X58220876Y45238096D01*
X58266114Y45328572D01*
X58311352Y45373810D01*
X58401829Y45419048D01*
X58628019Y45419048D01*
X58718495Y45373810D01*
X58763733Y45328572D01*
X58808971Y45238096D01*
X58808971Y44966667D01*
X58763733Y44876191D01*
X58718495Y44830953D01*
X57858971Y46007143D02*
X57858971Y46097620D01*
X57904210Y46188096D01*
X57949448Y46233334D01*
X58039924Y46278572D01*
X58220876Y46323810D01*
X58447067Y46323810D01*
X58628019Y46278572D01*
X58718495Y46233334D01*
X58763733Y46188096D01*
X58808971Y46097620D01*
X58808971Y46007143D01*
X58763733Y45916667D01*
X58718495Y45871429D01*
X58628019Y45826191D01*
X58447067Y45780953D01*
X58220876Y45780953D01*
X58039924Y45826191D01*
X57949448Y45871429D01*
X57904210Y45916667D01*
X57858971Y46007143D01*
X61348971Y43971429D02*
X60398971Y43971429D01*
X60398971Y44197620D01*
X60444210Y44333334D01*
X60534686Y44423810D01*
X60625162Y44469048D01*
X60806114Y44514286D01*
X60941829Y44514286D01*
X61122781Y44469048D01*
X61213257Y44423810D01*
X61303733Y44333334D01*
X61348971Y44197620D01*
X61348971Y43971429D01*
X60398971Y44830953D02*
X60398971Y45419048D01*
X60760876Y45102381D01*
X60760876Y45238096D01*
X60806114Y45328572D01*
X60851352Y45373810D01*
X60941829Y45419048D01*
X61168019Y45419048D01*
X61258495Y45373810D01*
X61303733Y45328572D01*
X61348971Y45238096D01*
X61348971Y44966667D01*
X61303733Y44876191D01*
X61258495Y44830953D01*
X61348971Y46323810D02*
X61348971Y45780953D01*
X61348971Y46052381D02*
X60398971Y46052381D01*
X60534686Y45961905D01*
X60625162Y45871429D01*
X60670400Y45780953D01*
X63888971Y43971429D02*
X62938971Y43971429D01*
X62938971Y44197620D01*
X62984210Y44333334D01*
X63074686Y44423810D01*
X63165162Y44469048D01*
X63346114Y44514286D01*
X63481829Y44514286D01*
X63662781Y44469048D01*
X63753257Y44423810D01*
X63843733Y44333334D01*
X63888971Y44197620D01*
X63888971Y43971429D01*
X62938971Y44830953D02*
X62938971Y45419048D01*
X63300876Y45102381D01*
X63300876Y45238096D01*
X63346114Y45328572D01*
X63391352Y45373810D01*
X63481829Y45419048D01*
X63708019Y45419048D01*
X63798495Y45373810D01*
X63843733Y45328572D01*
X63888971Y45238096D01*
X63888971Y44966667D01*
X63843733Y44876191D01*
X63798495Y44830953D01*
X63029448Y45780953D02*
X62984210Y45826191D01*
X62938971Y45916667D01*
X62938971Y46142858D01*
X62984210Y46233334D01*
X63029448Y46278572D01*
X63119924Y46323810D01*
X63210400Y46323810D01*
X63346114Y46278572D01*
X63888971Y45735715D01*
X63888971Y46323810D01*
X44210952Y42977620D02*
X44401428Y42977620D01*
X44496666Y42930000D01*
X44591904Y42834762D01*
X44639523Y42644286D01*
X44639523Y42310953D01*
X44591904Y42120477D01*
X44496666Y42025239D01*
X44401428Y41977620D01*
X44210952Y41977620D01*
X44115714Y42025239D01*
X44020476Y42120477D01*
X43972857Y42310953D01*
X43972857Y42644286D01*
X44020476Y42834762D01*
X44115714Y42930000D01*
X44210952Y42977620D01*
X45068095Y41977620D02*
X45068095Y42977620D01*
X45639523Y41977620D01*
X45639523Y42977620D01*
X63785714Y32547620D02*
X63214285Y32547620D01*
X63500000Y32547620D02*
X63500000Y33547620D01*
X63404761Y33404762D01*
X63309523Y33309524D01*
X63214285Y33261905D01*
X58846428Y39570239D02*
X58846428Y40520239D01*
X59072619Y40520239D01*
X59208333Y40475000D01*
X59298809Y40384524D01*
X59344047Y40294048D01*
X59389285Y40113096D01*
X59389285Y39977381D01*
X59344047Y39796429D01*
X59298809Y39705953D01*
X59208333Y39615477D01*
X59072619Y39570239D01*
X58846428Y39570239D01*
X60203571Y40203572D02*
X60203571Y39570239D01*
X59977380Y40565477D02*
X59751190Y39886905D01*
X60339285Y39886905D01*
X60610714Y40520239D02*
X61198809Y40520239D01*
X60882142Y40158334D01*
X61017857Y40158334D01*
X61108333Y40113096D01*
X61153571Y40067858D01*
X61198809Y39977381D01*
X61198809Y39751191D01*
X61153571Y39660715D01*
X61108333Y39615477D01*
X61017857Y39570239D01*
X60746428Y39570239D01*
X60655952Y39615477D01*
X60610714Y39660715D01*
X58846428Y37030239D02*
X58846428Y37980239D01*
X59072619Y37980239D01*
X59208333Y37935000D01*
X59298809Y37844524D01*
X59344047Y37754048D01*
X59389285Y37573096D01*
X59389285Y37437381D01*
X59344047Y37256429D01*
X59298809Y37165953D01*
X59208333Y37075477D01*
X59072619Y37030239D01*
X58846428Y37030239D01*
X60203571Y37663572D02*
X60203571Y37030239D01*
X59977380Y38025477D02*
X59751190Y37346905D01*
X60339285Y37346905D01*
X60655952Y37889762D02*
X60701190Y37935000D01*
X60791666Y37980239D01*
X61017857Y37980239D01*
X61108333Y37935000D01*
X61153571Y37889762D01*
X61198809Y37799286D01*
X61198809Y37708810D01*
X61153571Y37573096D01*
X60610714Y37030239D01*
X61198809Y37030239D01*
X58846428Y34490239D02*
X58846428Y35440239D01*
X59072619Y35440239D01*
X59208333Y35395000D01*
X59298809Y35304524D01*
X59344047Y35214048D01*
X59389285Y35033096D01*
X59389285Y34897381D01*
X59344047Y34716429D01*
X59298809Y34625953D01*
X59208333Y34535477D01*
X59072619Y34490239D01*
X58846428Y34490239D01*
X60203571Y35123572D02*
X60203571Y34490239D01*
X59977380Y35485477D02*
X59751190Y34806905D01*
X60339285Y34806905D01*
X61198809Y34490239D02*
X60655952Y34490239D01*
X60927380Y34490239D02*
X60927380Y35440239D01*
X60836904Y35304524D01*
X60746428Y35214048D01*
X60655952Y35168810D01*
X58846428Y31950239D02*
X58846428Y32900239D01*
X59072619Y32900239D01*
X59208333Y32855000D01*
X59298809Y32764524D01*
X59344047Y32674048D01*
X59389285Y32493096D01*
X59389285Y32357381D01*
X59344047Y32176429D01*
X59298809Y32085953D01*
X59208333Y31995477D01*
X59072619Y31950239D01*
X58846428Y31950239D01*
X60203571Y32583572D02*
X60203571Y31950239D01*
X59977380Y32945477D02*
X59751190Y32266905D01*
X60339285Y32266905D01*
X60882142Y32900239D02*
X60972619Y32900239D01*
X61063095Y32855000D01*
X61108333Y32809762D01*
X61153571Y32719286D01*
X61198809Y32538334D01*
X61198809Y32312143D01*
X61153571Y32131191D01*
X61108333Y32040715D01*
X61063095Y31995477D01*
X60972619Y31950239D01*
X60882142Y31950239D01*
X60791666Y31995477D01*
X60746428Y32040715D01*
X60701190Y32131191D01*
X60655952Y32312143D01*
X60655952Y32538334D01*
X60701190Y32719286D01*
X60746428Y32809762D01*
X60791666Y32855000D01*
X60882142Y32900239D01*
X58846428Y29410239D02*
X58846428Y30360239D01*
X59072619Y30360239D01*
X59208333Y30315000D01*
X59298809Y30224524D01*
X59344047Y30134048D01*
X59389285Y29953096D01*
X59389285Y29817381D01*
X59344047Y29636429D01*
X59298809Y29545953D01*
X59208333Y29455477D01*
X59072619Y29410239D01*
X58846428Y29410239D01*
X59705952Y30360239D02*
X60294047Y30360239D01*
X59977380Y29998334D01*
X60113095Y29998334D01*
X60203571Y29953096D01*
X60248809Y29907858D01*
X60294047Y29817381D01*
X60294047Y29591191D01*
X60248809Y29500715D01*
X60203571Y29455477D01*
X60113095Y29410239D01*
X59841666Y29410239D01*
X59751190Y29455477D01*
X59705952Y29500715D01*
X60746428Y29410239D02*
X60927380Y29410239D01*
X61017857Y29455477D01*
X61063095Y29500715D01*
X61153571Y29636429D01*
X61198809Y29817381D01*
X61198809Y30179286D01*
X61153571Y30269762D01*
X61108333Y30315000D01*
X61017857Y30360239D01*
X60836904Y30360239D01*
X60746428Y30315000D01*
X60701190Y30269762D01*
X60655952Y30179286D01*
X60655952Y29953096D01*
X60701190Y29862620D01*
X60746428Y29817381D01*
X60836904Y29772143D01*
X61017857Y29772143D01*
X61108333Y29817381D01*
X61153571Y29862620D01*
X61198809Y29953096D01*
X58846428Y26870239D02*
X58846428Y27820239D01*
X59072619Y27820239D01*
X59208333Y27775000D01*
X59298809Y27684524D01*
X59344047Y27594048D01*
X59389285Y27413096D01*
X59389285Y27277381D01*
X59344047Y27096429D01*
X59298809Y27005953D01*
X59208333Y26915477D01*
X59072619Y26870239D01*
X58846428Y26870239D01*
X59705952Y27820239D02*
X60294047Y27820239D01*
X59977380Y27458334D01*
X60113095Y27458334D01*
X60203571Y27413096D01*
X60248809Y27367858D01*
X60294047Y27277381D01*
X60294047Y27051191D01*
X60248809Y26960715D01*
X60203571Y26915477D01*
X60113095Y26870239D01*
X59841666Y26870239D01*
X59751190Y26915477D01*
X59705952Y26960715D01*
X60836904Y27413096D02*
X60746428Y27458334D01*
X60701190Y27503572D01*
X60655952Y27594048D01*
X60655952Y27639286D01*
X60701190Y27729762D01*
X60746428Y27775000D01*
X60836904Y27820239D01*
X61017857Y27820239D01*
X61108333Y27775000D01*
X61153571Y27729762D01*
X61198809Y27639286D01*
X61198809Y27594048D01*
X61153571Y27503572D01*
X61108333Y27458334D01*
X61017857Y27413096D01*
X60836904Y27413096D01*
X60746428Y27367858D01*
X60701190Y27322620D01*
X60655952Y27232143D01*
X60655952Y27051191D01*
X60701190Y26960715D01*
X60746428Y26915477D01*
X60836904Y26870239D01*
X61017857Y26870239D01*
X61108333Y26915477D01*
X61153571Y26960715D01*
X61198809Y27051191D01*
X61198809Y27232143D01*
X61153571Y27322620D01*
X61108333Y27367858D01*
X61017857Y27413096D01*
X58846428Y24330239D02*
X58846428Y25280239D01*
X59072619Y25280239D01*
X59208333Y25235000D01*
X59298809Y25144524D01*
X59344047Y25054048D01*
X59389285Y24873096D01*
X59389285Y24737381D01*
X59344047Y24556429D01*
X59298809Y24465953D01*
X59208333Y24375477D01*
X59072619Y24330239D01*
X58846428Y24330239D01*
X59705952Y25280239D02*
X60294047Y25280239D01*
X59977380Y24918334D01*
X60113095Y24918334D01*
X60203571Y24873096D01*
X60248809Y24827858D01*
X60294047Y24737381D01*
X60294047Y24511191D01*
X60248809Y24420715D01*
X60203571Y24375477D01*
X60113095Y24330239D01*
X59841666Y24330239D01*
X59751190Y24375477D01*
X59705952Y24420715D01*
X60610714Y25280239D02*
X61244047Y25280239D01*
X60836904Y24330239D01*
X58846428Y21790239D02*
X58846428Y22740239D01*
X59072619Y22740239D01*
X59208333Y22695000D01*
X59298809Y22604524D01*
X59344047Y22514048D01*
X59389285Y22333096D01*
X59389285Y22197381D01*
X59344047Y22016429D01*
X59298809Y21925953D01*
X59208333Y21835477D01*
X59072619Y21790239D01*
X58846428Y21790239D01*
X59705952Y22740239D02*
X60294047Y22740239D01*
X59977380Y22378334D01*
X60113095Y22378334D01*
X60203571Y22333096D01*
X60248809Y22287858D01*
X60294047Y22197381D01*
X60294047Y21971191D01*
X60248809Y21880715D01*
X60203571Y21835477D01*
X60113095Y21790239D01*
X59841666Y21790239D01*
X59751190Y21835477D01*
X59705952Y21880715D01*
X61108333Y22740239D02*
X60927380Y22740239D01*
X60836904Y22695000D01*
X60791666Y22649762D01*
X60701190Y22514048D01*
X60655952Y22333096D01*
X60655952Y21971191D01*
X60701190Y21880715D01*
X60746428Y21835477D01*
X60836904Y21790239D01*
X61017857Y21790239D01*
X61108333Y21835477D01*
X61153571Y21880715D01*
X61198809Y21971191D01*
X61198809Y22197381D01*
X61153571Y22287858D01*
X61108333Y22333096D01*
X61017857Y22378334D01*
X60836904Y22378334D01*
X60746428Y22333096D01*
X60701190Y22287858D01*
X60655952Y22197381D01*
X49436428Y37030239D02*
X49436428Y37980239D01*
X49662619Y37980239D01*
X49798333Y37935000D01*
X49888809Y37844524D01*
X49934047Y37754048D01*
X49979285Y37573096D01*
X49979285Y37437381D01*
X49934047Y37256429D01*
X49888809Y37165953D01*
X49798333Y37075477D01*
X49662619Y37030239D01*
X49436428Y37030239D01*
X50838809Y37980239D02*
X50386428Y37980239D01*
X50341190Y37527858D01*
X50386428Y37573096D01*
X50476904Y37618334D01*
X50703095Y37618334D01*
X50793571Y37573096D01*
X50838809Y37527858D01*
X50884047Y37437381D01*
X50884047Y37211191D01*
X50838809Y37120715D01*
X50793571Y37075477D01*
X50703095Y37030239D01*
X50476904Y37030239D01*
X50386428Y37075477D01*
X50341190Y37120715D01*
X51200714Y37980239D02*
X51788809Y37980239D01*
X51472142Y37618334D01*
X51607857Y37618334D01*
X51698333Y37573096D01*
X51743571Y37527858D01*
X51788809Y37437381D01*
X51788809Y37211191D01*
X51743571Y37120715D01*
X51698333Y37075477D01*
X51607857Y37030239D01*
X51336428Y37030239D01*
X51245952Y37075477D01*
X51200714Y37120715D01*
X49436428Y34490239D02*
X49436428Y35440239D01*
X49662619Y35440239D01*
X49798333Y35395000D01*
X49888809Y35304524D01*
X49934047Y35214048D01*
X49979285Y35033096D01*
X49979285Y34897381D01*
X49934047Y34716429D01*
X49888809Y34625953D01*
X49798333Y34535477D01*
X49662619Y34490239D01*
X49436428Y34490239D01*
X50838809Y35440239D02*
X50386428Y35440239D01*
X50341190Y34987858D01*
X50386428Y35033096D01*
X50476904Y35078334D01*
X50703095Y35078334D01*
X50793571Y35033096D01*
X50838809Y34987858D01*
X50884047Y34897381D01*
X50884047Y34671191D01*
X50838809Y34580715D01*
X50793571Y34535477D01*
X50703095Y34490239D01*
X50476904Y34490239D01*
X50386428Y34535477D01*
X50341190Y34580715D01*
X51245952Y35349762D02*
X51291190Y35395000D01*
X51381666Y35440239D01*
X51607857Y35440239D01*
X51698333Y35395000D01*
X51743571Y35349762D01*
X51788809Y35259286D01*
X51788809Y35168810D01*
X51743571Y35033096D01*
X51200714Y34490239D01*
X51788809Y34490239D01*
X49436428Y31950239D02*
X49436428Y32900239D01*
X49662619Y32900239D01*
X49798333Y32855000D01*
X49888809Y32764524D01*
X49934047Y32674048D01*
X49979285Y32493096D01*
X49979285Y32357381D01*
X49934047Y32176429D01*
X49888809Y32085953D01*
X49798333Y31995477D01*
X49662619Y31950239D01*
X49436428Y31950239D01*
X50838809Y32900239D02*
X50386428Y32900239D01*
X50341190Y32447858D01*
X50386428Y32493096D01*
X50476904Y32538334D01*
X50703095Y32538334D01*
X50793571Y32493096D01*
X50838809Y32447858D01*
X50884047Y32357381D01*
X50884047Y32131191D01*
X50838809Y32040715D01*
X50793571Y31995477D01*
X50703095Y31950239D01*
X50476904Y31950239D01*
X50386428Y31995477D01*
X50341190Y32040715D01*
X51788809Y31950239D02*
X51245952Y31950239D01*
X51517380Y31950239D02*
X51517380Y32900239D01*
X51426904Y32764524D01*
X51336428Y32674048D01*
X51245952Y32628810D01*
X49436428Y29410239D02*
X49436428Y30360239D01*
X49662619Y30360239D01*
X49798333Y30315000D01*
X49888809Y30224524D01*
X49934047Y30134048D01*
X49979285Y29953096D01*
X49979285Y29817381D01*
X49934047Y29636429D01*
X49888809Y29545953D01*
X49798333Y29455477D01*
X49662619Y29410239D01*
X49436428Y29410239D01*
X50838809Y30360239D02*
X50386428Y30360239D01*
X50341190Y29907858D01*
X50386428Y29953096D01*
X50476904Y29998334D01*
X50703095Y29998334D01*
X50793571Y29953096D01*
X50838809Y29907858D01*
X50884047Y29817381D01*
X50884047Y29591191D01*
X50838809Y29500715D01*
X50793571Y29455477D01*
X50703095Y29410239D01*
X50476904Y29410239D01*
X50386428Y29455477D01*
X50341190Y29500715D01*
X51472142Y30360239D02*
X51562619Y30360239D01*
X51653095Y30315000D01*
X51698333Y30269762D01*
X51743571Y30179286D01*
X51788809Y29998334D01*
X51788809Y29772143D01*
X51743571Y29591191D01*
X51698333Y29500715D01*
X51653095Y29455477D01*
X51562619Y29410239D01*
X51472142Y29410239D01*
X51381666Y29455477D01*
X51336428Y29500715D01*
X51291190Y29591191D01*
X51245952Y29772143D01*
X51245952Y29998334D01*
X51291190Y30179286D01*
X51336428Y30269762D01*
X51381666Y30315000D01*
X51472142Y30360239D01*
X49436428Y26870239D02*
X49436428Y27820239D01*
X49662619Y27820239D01*
X49798333Y27775000D01*
X49888809Y27684524D01*
X49934047Y27594048D01*
X49979285Y27413096D01*
X49979285Y27277381D01*
X49934047Y27096429D01*
X49888809Y27005953D01*
X49798333Y26915477D01*
X49662619Y26870239D01*
X49436428Y26870239D01*
X50793571Y27503572D02*
X50793571Y26870239D01*
X50567380Y27865477D02*
X50341190Y27186905D01*
X50929285Y27186905D01*
X51336428Y26870239D02*
X51517380Y26870239D01*
X51607857Y26915477D01*
X51653095Y26960715D01*
X51743571Y27096429D01*
X51788809Y27277381D01*
X51788809Y27639286D01*
X51743571Y27729762D01*
X51698333Y27775000D01*
X51607857Y27820239D01*
X51426904Y27820239D01*
X51336428Y27775000D01*
X51291190Y27729762D01*
X51245952Y27639286D01*
X51245952Y27413096D01*
X51291190Y27322620D01*
X51336428Y27277381D01*
X51426904Y27232143D01*
X51607857Y27232143D01*
X51698333Y27277381D01*
X51743571Y27322620D01*
X51788809Y27413096D01*
X49436428Y24330239D02*
X49436428Y25280239D01*
X49662619Y25280239D01*
X49798333Y25235000D01*
X49888809Y25144524D01*
X49934047Y25054048D01*
X49979285Y24873096D01*
X49979285Y24737381D01*
X49934047Y24556429D01*
X49888809Y24465953D01*
X49798333Y24375477D01*
X49662619Y24330239D01*
X49436428Y24330239D01*
X50793571Y24963572D02*
X50793571Y24330239D01*
X50567380Y25325477D02*
X50341190Y24646905D01*
X50929285Y24646905D01*
X51426904Y24873096D02*
X51336428Y24918334D01*
X51291190Y24963572D01*
X51245952Y25054048D01*
X51245952Y25099286D01*
X51291190Y25189762D01*
X51336428Y25235000D01*
X51426904Y25280239D01*
X51607857Y25280239D01*
X51698333Y25235000D01*
X51743571Y25189762D01*
X51788809Y25099286D01*
X51788809Y25054048D01*
X51743571Y24963572D01*
X51698333Y24918334D01*
X51607857Y24873096D01*
X51426904Y24873096D01*
X51336428Y24827858D01*
X51291190Y24782620D01*
X51245952Y24692143D01*
X51245952Y24511191D01*
X51291190Y24420715D01*
X51336428Y24375477D01*
X51426904Y24330239D01*
X51607857Y24330239D01*
X51698333Y24375477D01*
X51743571Y24420715D01*
X51788809Y24511191D01*
X51788809Y24692143D01*
X51743571Y24782620D01*
X51698333Y24827858D01*
X51607857Y24873096D01*
X49436428Y21790239D02*
X49436428Y22740239D01*
X49662619Y22740239D01*
X49798333Y22695000D01*
X49888809Y22604524D01*
X49934047Y22514048D01*
X49979285Y22333096D01*
X49979285Y22197381D01*
X49934047Y22016429D01*
X49888809Y21925953D01*
X49798333Y21835477D01*
X49662619Y21790239D01*
X49436428Y21790239D01*
X50793571Y22423572D02*
X50793571Y21790239D01*
X50567380Y22785477D02*
X50341190Y22106905D01*
X50929285Y22106905D01*
X51200714Y22740239D02*
X51834047Y22740239D01*
X51426904Y21790239D01*
X49436428Y19250239D02*
X49436428Y20200239D01*
X49662619Y20200239D01*
X49798333Y20155000D01*
X49888809Y20064524D01*
X49934047Y19974048D01*
X49979285Y19793096D01*
X49979285Y19657381D01*
X49934047Y19476429D01*
X49888809Y19385953D01*
X49798333Y19295477D01*
X49662619Y19250239D01*
X49436428Y19250239D01*
X50793571Y19883572D02*
X50793571Y19250239D01*
X50567380Y20245477D02*
X50341190Y19566905D01*
X50929285Y19566905D01*
X51698333Y20200239D02*
X51517380Y20200239D01*
X51426904Y20155000D01*
X51381666Y20109762D01*
X51291190Y19974048D01*
X51245952Y19793096D01*
X51245952Y19431191D01*
X51291190Y19340715D01*
X51336428Y19295477D01*
X51426904Y19250239D01*
X51607857Y19250239D01*
X51698333Y19295477D01*
X51743571Y19340715D01*
X51788809Y19431191D01*
X51788809Y19657381D01*
X51743571Y19747858D01*
X51698333Y19793096D01*
X51607857Y19838334D01*
X51426904Y19838334D01*
X51336428Y19793096D01*
X51291190Y19747858D01*
X51245952Y19657381D01*
X58846428Y19250239D02*
X58846428Y20200239D01*
X59072619Y20200239D01*
X59208333Y20155000D01*
X59298809Y20064524D01*
X59344047Y19974048D01*
X59389285Y19793096D01*
X59389285Y19657381D01*
X59344047Y19476429D01*
X59298809Y19385953D01*
X59208333Y19295477D01*
X59072619Y19250239D01*
X58846428Y19250239D01*
X59705952Y20200239D02*
X60294047Y20200239D01*
X59977380Y19838334D01*
X60113095Y19838334D01*
X60203571Y19793096D01*
X60248809Y19747858D01*
X60294047Y19657381D01*
X60294047Y19431191D01*
X60248809Y19340715D01*
X60203571Y19295477D01*
X60113095Y19250239D01*
X59841666Y19250239D01*
X59751190Y19295477D01*
X59705952Y19340715D01*
X61153571Y20200239D02*
X60701190Y20200239D01*
X60655952Y19747858D01*
X60701190Y19793096D01*
X60791666Y19838334D01*
X61017857Y19838334D01*
X61108333Y19793096D01*
X61153571Y19747858D01*
X61198809Y19657381D01*
X61198809Y19431191D01*
X61153571Y19340715D01*
X61108333Y19295477D01*
X61017857Y19250239D01*
X60791666Y19250239D01*
X60701190Y19295477D01*
X60655952Y19340715D01*
X58846428Y16710239D02*
X58846428Y17660239D01*
X59072619Y17660239D01*
X59208333Y17615000D01*
X59298809Y17524524D01*
X59344047Y17434048D01*
X59389285Y17253096D01*
X59389285Y17117381D01*
X59344047Y16936429D01*
X59298809Y16845953D01*
X59208333Y16755477D01*
X59072619Y16710239D01*
X58846428Y16710239D01*
X59705952Y17660239D02*
X60294047Y17660239D01*
X59977380Y17298334D01*
X60113095Y17298334D01*
X60203571Y17253096D01*
X60248809Y17207858D01*
X60294047Y17117381D01*
X60294047Y16891191D01*
X60248809Y16800715D01*
X60203571Y16755477D01*
X60113095Y16710239D01*
X59841666Y16710239D01*
X59751190Y16755477D01*
X59705952Y16800715D01*
X61108333Y17343572D02*
X61108333Y16710239D01*
X60882142Y17705477D02*
X60655952Y17026905D01*
X61244047Y17026905D01*
X58846428Y14170239D02*
X58846428Y15120239D01*
X59072619Y15120239D01*
X59208333Y15075000D01*
X59298809Y14984524D01*
X59344047Y14894048D01*
X59389285Y14713096D01*
X59389285Y14577381D01*
X59344047Y14396429D01*
X59298809Y14305953D01*
X59208333Y14215477D01*
X59072619Y14170239D01*
X58846428Y14170239D01*
X59705952Y15120239D02*
X60294047Y15120239D01*
X59977380Y14758334D01*
X60113095Y14758334D01*
X60203571Y14713096D01*
X60248809Y14667858D01*
X60294047Y14577381D01*
X60294047Y14351191D01*
X60248809Y14260715D01*
X60203571Y14215477D01*
X60113095Y14170239D01*
X59841666Y14170239D01*
X59751190Y14215477D01*
X59705952Y14260715D01*
X60610714Y15120239D02*
X61198809Y15120239D01*
X60882142Y14758334D01*
X61017857Y14758334D01*
X61108333Y14713096D01*
X61153571Y14667858D01*
X61198809Y14577381D01*
X61198809Y14351191D01*
X61153571Y14260715D01*
X61108333Y14215477D01*
X61017857Y14170239D01*
X60746428Y14170239D01*
X60655952Y14215477D01*
X60610714Y14260715D01*
X49436428Y16710239D02*
X49436428Y17660239D01*
X49662619Y17660239D01*
X49798333Y17615000D01*
X49888809Y17524524D01*
X49934047Y17434048D01*
X49979285Y17253096D01*
X49979285Y17117381D01*
X49934047Y16936429D01*
X49888809Y16845953D01*
X49798333Y16755477D01*
X49662619Y16710239D01*
X49436428Y16710239D01*
X50793571Y17343572D02*
X50793571Y16710239D01*
X50567380Y17705477D02*
X50341190Y17026905D01*
X50929285Y17026905D01*
X51743571Y17660239D02*
X51291190Y17660239D01*
X51245952Y17207858D01*
X51291190Y17253096D01*
X51381666Y17298334D01*
X51607857Y17298334D01*
X51698333Y17253096D01*
X51743571Y17207858D01*
X51788809Y17117381D01*
X51788809Y16891191D01*
X51743571Y16800715D01*
X51698333Y16755477D01*
X51607857Y16710239D01*
X51381666Y16710239D01*
X51291190Y16755477D01*
X51245952Y16800715D01*
X49436428Y14170239D02*
X49436428Y15120239D01*
X49662619Y15120239D01*
X49798333Y15075000D01*
X49888809Y14984524D01*
X49934047Y14894048D01*
X49979285Y14713096D01*
X49979285Y14577381D01*
X49934047Y14396429D01*
X49888809Y14305953D01*
X49798333Y14215477D01*
X49662619Y14170239D01*
X49436428Y14170239D01*
X50793571Y14803572D02*
X50793571Y14170239D01*
X50567380Y15165477D02*
X50341190Y14486905D01*
X50929285Y14486905D01*
X51698333Y14803572D02*
X51698333Y14170239D01*
X51472142Y15165477D02*
X51245952Y14486905D01*
X51834047Y14486905D01*
X49866190Y12535000D02*
X49775714Y12580239D01*
X49640000Y12580239D01*
X49504285Y12535000D01*
X49413809Y12444524D01*
X49368571Y12354048D01*
X49323333Y12173096D01*
X49323333Y12037381D01*
X49368571Y11856429D01*
X49413809Y11765953D01*
X49504285Y11675477D01*
X49640000Y11630239D01*
X49730476Y11630239D01*
X49866190Y11675477D01*
X49911428Y11720715D01*
X49911428Y12037381D01*
X49730476Y12037381D01*
X50318571Y11630239D02*
X50318571Y12580239D01*
X50861428Y11630239D01*
X50861428Y12580239D01*
X51313809Y11630239D02*
X51313809Y12580239D01*
X51540000Y12580239D01*
X51675714Y12535000D01*
X51766190Y12444524D01*
X51811428Y12354048D01*
X51856666Y12173096D01*
X51856666Y12037381D01*
X51811428Y11856429D01*
X51766190Y11765953D01*
X51675714Y11675477D01*
X51540000Y11630239D01*
X51313809Y11630239D01*
X59276190Y12535000D02*
X59185714Y12580239D01*
X59050000Y12580239D01*
X58914285Y12535000D01*
X58823809Y12444524D01*
X58778571Y12354048D01*
X58733333Y12173096D01*
X58733333Y12037381D01*
X58778571Y11856429D01*
X58823809Y11765953D01*
X58914285Y11675477D01*
X59050000Y11630239D01*
X59140476Y11630239D01*
X59276190Y11675477D01*
X59321428Y11720715D01*
X59321428Y12037381D01*
X59140476Y12037381D01*
X59728571Y11630239D02*
X59728571Y12580239D01*
X60271428Y11630239D01*
X60271428Y12580239D01*
X60723809Y11630239D02*
X60723809Y12580239D01*
X60950000Y12580239D01*
X61085714Y12535000D01*
X61176190Y12444524D01*
X61221428Y12354048D01*
X61266666Y12173096D01*
X61266666Y12037381D01*
X61221428Y11856429D01*
X61176190Y11765953D01*
X61085714Y11675477D01*
X60950000Y11630239D01*
X60723809Y11630239D01*
X63618333Y7321429D02*
X63618333Y7773810D01*
X63889761Y7230953D02*
X62939761Y7547620D01*
X63889761Y7864286D01*
X62939761Y8588096D02*
X62939761Y8407143D01*
X62985000Y8316667D01*
X63030238Y8271429D01*
X63165952Y8180953D01*
X63346904Y8135715D01*
X63708809Y8135715D01*
X63799285Y8180953D01*
X63844523Y8226191D01*
X63889761Y8316667D01*
X63889761Y8497620D01*
X63844523Y8588096D01*
X63799285Y8633334D01*
X63708809Y8678572D01*
X63482619Y8678572D01*
X63392142Y8633334D01*
X63346904Y8588096D01*
X63301666Y8497620D01*
X63301666Y8316667D01*
X63346904Y8226191D01*
X63392142Y8180953D01*
X63482619Y8135715D01*
X61078333Y7321429D02*
X61078333Y7773810D01*
X61349761Y7230953D02*
X60399761Y7547620D01*
X61349761Y7864286D01*
X60399761Y8090477D02*
X60399761Y8723810D01*
X61349761Y8316667D01*
X58538333Y7321429D02*
X58538333Y7773810D01*
X58809761Y7230953D02*
X57859761Y7547620D01*
X58809761Y7864286D01*
X58266904Y8316667D02*
X58221666Y8226191D01*
X58176428Y8180953D01*
X58085952Y8135715D01*
X58040714Y8135715D01*
X57950238Y8180953D01*
X57905000Y8226191D01*
X57859761Y8316667D01*
X57859761Y8497620D01*
X57905000Y8588096D01*
X57950238Y8633334D01*
X58040714Y8678572D01*
X58085952Y8678572D01*
X58176428Y8633334D01*
X58221666Y8588096D01*
X58266904Y8497620D01*
X58266904Y8316667D01*
X58312142Y8226191D01*
X58357380Y8180953D01*
X58447857Y8135715D01*
X58628809Y8135715D01*
X58719285Y8180953D01*
X58764523Y8226191D01*
X58809761Y8316667D01*
X58809761Y8497620D01*
X58764523Y8588096D01*
X58719285Y8633334D01*
X58628809Y8678572D01*
X58447857Y8678572D01*
X58357380Y8633334D01*
X58312142Y8588096D01*
X58266904Y8497620D01*
X55998333Y7321429D02*
X55998333Y7773810D01*
X56269761Y7230953D02*
X55319761Y7547620D01*
X56269761Y7864286D01*
X56269761Y8226191D02*
X56269761Y8407143D01*
X56224523Y8497620D01*
X56179285Y8542858D01*
X56043571Y8633334D01*
X55862619Y8678572D01*
X55500714Y8678572D01*
X55410238Y8633334D01*
X55365000Y8588096D01*
X55319761Y8497620D01*
X55319761Y8316667D01*
X55365000Y8226191D01*
X55410238Y8180953D01*
X55500714Y8135715D01*
X55726904Y8135715D01*
X55817380Y8180953D01*
X55862619Y8226191D01*
X55907857Y8316667D01*
X55907857Y8497620D01*
X55862619Y8588096D01*
X55817380Y8633334D01*
X55726904Y8678572D01*
X53458333Y7369048D02*
X53458333Y7821429D01*
X53729761Y7278572D02*
X52779761Y7595239D01*
X53729761Y7911905D01*
X53729761Y8726191D02*
X53729761Y8183334D01*
X53729761Y8454762D02*
X52779761Y8454762D01*
X52915476Y8364286D01*
X53005952Y8273810D01*
X53051190Y8183334D01*
X52779761Y9314286D02*
X52779761Y9404762D01*
X52825000Y9495239D01*
X52870238Y9540477D01*
X52960714Y9585715D01*
X53141666Y9630953D01*
X53367857Y9630953D01*
X53548809Y9585715D01*
X53639285Y9540477D01*
X53684523Y9495239D01*
X53729761Y9404762D01*
X53729761Y9314286D01*
X53684523Y9223810D01*
X53639285Y9178572D01*
X53548809Y9133334D01*
X53367857Y9088096D01*
X53141666Y9088096D01*
X52960714Y9133334D01*
X52870238Y9178572D01*
X52825000Y9223810D01*
X52779761Y9314286D01*
X50918333Y7369048D02*
X50918333Y7821429D01*
X51189761Y7278572D02*
X50239761Y7595239D01*
X51189761Y7911905D01*
X51189761Y8726191D02*
X51189761Y8183334D01*
X51189761Y8454762D02*
X50239761Y8454762D01*
X50375476Y8364286D01*
X50465952Y8273810D01*
X50511190Y8183334D01*
X51189761Y9630953D02*
X51189761Y9088096D01*
X51189761Y9359524D02*
X50239761Y9359524D01*
X50375476Y9269048D01*
X50465952Y9178572D01*
X50511190Y9088096D01*
X48378333Y7369048D02*
X48378333Y7821429D01*
X48649761Y7278572D02*
X47699761Y7595239D01*
X48649761Y7911905D01*
X48649761Y8726191D02*
X48649761Y8183334D01*
X48649761Y8454762D02*
X47699761Y8454762D01*
X47835476Y8364286D01*
X47925952Y8273810D01*
X47971190Y8183334D01*
X47790238Y9088096D02*
X47745000Y9133334D01*
X47699761Y9223810D01*
X47699761Y9450000D01*
X47745000Y9540477D01*
X47790238Y9585715D01*
X47880714Y9630953D01*
X47971190Y9630953D01*
X48106904Y9585715D01*
X48649761Y9042858D01*
X48649761Y9630953D01*
X45159761Y7527381D02*
X46109761Y7844048D01*
X45159761Y8160715D01*
X46109761Y8477381D02*
X45476428Y8477381D01*
X45159761Y8477381D02*
X45205000Y8432143D01*
X45250238Y8477381D01*
X45205000Y8522620D01*
X45159761Y8477381D01*
X45250238Y8477381D01*
X45476428Y8929762D02*
X46109761Y8929762D01*
X45566904Y8929762D02*
X45521666Y8975000D01*
X45476428Y9065477D01*
X45476428Y9201191D01*
X45521666Y9291667D01*
X45612142Y9336905D01*
X46109761Y9336905D01*
X42665000Y7776191D02*
X42619761Y7685715D01*
X42619761Y7550000D01*
X42665000Y7414286D01*
X42755476Y7323810D01*
X42845952Y7278572D01*
X43026904Y7233334D01*
X43162619Y7233334D01*
X43343571Y7278572D01*
X43434047Y7323810D01*
X43524523Y7414286D01*
X43569761Y7550000D01*
X43569761Y7640477D01*
X43524523Y7776191D01*
X43479285Y7821429D01*
X43162619Y7821429D01*
X43162619Y7640477D01*
X43569761Y8228572D02*
X42619761Y8228572D01*
X43569761Y8771429D01*
X42619761Y8771429D01*
X43569761Y9223810D02*
X42619761Y9223810D01*
X42619761Y9450000D01*
X42665000Y9585715D01*
X42755476Y9676191D01*
X42845952Y9721429D01*
X43026904Y9766667D01*
X43162619Y9766667D01*
X43343571Y9721429D01*
X43434047Y9676191D01*
X43524523Y9585715D01*
X43569761Y9450000D01*
X43569761Y9223810D01*
X40758333Y7369048D02*
X40758333Y7821429D01*
X41029761Y7278572D02*
X40079761Y7595239D01*
X41029761Y7911905D01*
X41029761Y8726191D02*
X41029761Y8183334D01*
X41029761Y8454762D02*
X40079761Y8454762D01*
X40215476Y8364286D01*
X40305952Y8273810D01*
X40351190Y8183334D01*
X40079761Y9042858D02*
X40079761Y9630953D01*
X40441666Y9314286D01*
X40441666Y9450000D01*
X40486904Y9540477D01*
X40532142Y9585715D01*
X40622619Y9630953D01*
X40848809Y9630953D01*
X40939285Y9585715D01*
X40984523Y9540477D01*
X41029761Y9450000D01*
X41029761Y9178572D01*
X40984523Y9088096D01*
X40939285Y9042858D01*
X37539761Y8869048D02*
X37539761Y8416667D01*
X37992142Y8371429D01*
X37946904Y8416667D01*
X37901666Y8507143D01*
X37901666Y8733334D01*
X37946904Y8823810D01*
X37992142Y8869048D01*
X38082619Y8914286D01*
X38308809Y8914286D01*
X38399285Y8869048D01*
X38444523Y8823810D01*
X38489761Y8733334D01*
X38489761Y8507143D01*
X38444523Y8416667D01*
X38399285Y8371429D01*
X37539761Y9185715D02*
X38489761Y9502381D01*
X37539761Y9819048D01*
X35678333Y7369048D02*
X35678333Y7821429D01*
X35949761Y7278572D02*
X34999761Y7595239D01*
X35949761Y7911905D01*
X35949761Y8726191D02*
X35949761Y8183334D01*
X35949761Y8454762D02*
X34999761Y8454762D01*
X35135476Y8364286D01*
X35225952Y8273810D01*
X35271190Y8183334D01*
X35316428Y9540477D02*
X35949761Y9540477D01*
X34954523Y9314286D02*
X35633095Y9088096D01*
X35633095Y9676191D01*
X33138333Y7369048D02*
X33138333Y7821429D01*
X33409761Y7278572D02*
X32459761Y7595239D01*
X33409761Y7911905D01*
X33409761Y8726191D02*
X33409761Y8183334D01*
X33409761Y8454762D02*
X32459761Y8454762D01*
X32595476Y8364286D01*
X32685952Y8273810D01*
X32731190Y8183334D01*
X32459761Y9585715D02*
X32459761Y9133334D01*
X32912142Y9088096D01*
X32866904Y9133334D01*
X32821666Y9223810D01*
X32821666Y9450000D01*
X32866904Y9540477D01*
X32912142Y9585715D01*
X33002619Y9630953D01*
X33228809Y9630953D01*
X33319285Y9585715D01*
X33364523Y9540477D01*
X33409761Y9450000D01*
X33409761Y9223810D01*
X33364523Y9133334D01*
X33319285Y9088096D01*
X30869761Y7190477D02*
X29919761Y7190477D01*
X29919761Y7823810D02*
X29919761Y8004762D01*
X29965000Y8095239D01*
X30055476Y8185715D01*
X30236428Y8230953D01*
X30553095Y8230953D01*
X30734047Y8185715D01*
X30824523Y8095239D01*
X30869761Y8004762D01*
X30869761Y7823810D01*
X30824523Y7733334D01*
X30734047Y7642858D01*
X30553095Y7597620D01*
X30236428Y7597620D01*
X30055476Y7642858D01*
X29965000Y7733334D01*
X29919761Y7823810D01*
X30869761Y9180953D02*
X30417380Y8864286D01*
X30869761Y8638096D02*
X29919761Y8638096D01*
X29919761Y9000000D01*
X29965000Y9090477D01*
X30010238Y9135715D01*
X30100714Y9180953D01*
X30236428Y9180953D01*
X30326904Y9135715D01*
X30372142Y9090477D01*
X30417380Y9000000D01*
X30417380Y8638096D01*
X30372142Y9588096D02*
X30372142Y9904762D01*
X30869761Y10040477D02*
X30869761Y9588096D01*
X29919761Y9588096D01*
X29919761Y10040477D01*
X30372142Y10764286D02*
X30372142Y10447620D01*
X30869761Y10447620D02*
X29919761Y10447620D01*
X29919761Y10900000D01*
X25761904Y18152381D02*
X25761904Y18961905D01*
X25714285Y19057143D01*
X25666666Y19104762D01*
X25571428Y19152381D01*
X25380952Y19152381D01*
X25285714Y19104762D01*
X25238095Y19057143D01*
X25190476Y18961905D01*
X25190476Y18152381D01*
X24190476Y19152381D02*
X24761904Y19152381D01*
X24476190Y19152381D02*
X24476190Y18152381D01*
X24571428Y18295239D01*
X24666666Y18390477D01*
X24761904Y18438096D01*
X19533333Y24517620D02*
X19200000Y24993810D01*
X18961904Y24517620D02*
X18961904Y25517620D01*
X19342857Y25517620D01*
X19438095Y25470000D01*
X19485714Y25422381D01*
X19533333Y25327143D01*
X19533333Y25184286D01*
X19485714Y25089048D01*
X19438095Y25041429D01*
X19342857Y24993810D01*
X18961904Y24993810D01*
X19866666Y25517620D02*
X20533333Y24517620D01*
X20533333Y25517620D02*
X19866666Y24517620D01*
X18938095Y31247620D02*
X19509523Y31247620D01*
X19223809Y30247620D02*
X19223809Y31247620D01*
X19747619Y31247620D02*
X20414285Y30247620D01*
X20414285Y31247620D02*
X19747619Y30247620D01*
X11392380Y47957620D02*
X10916190Y47624286D01*
X11392380Y47386191D02*
X10392380Y47386191D01*
X10392380Y47767143D01*
X10440000Y47862381D01*
X10487619Y47910000D01*
X10582857Y47957620D01*
X10725714Y47957620D01*
X10820952Y47910000D01*
X10868571Y47862381D01*
X10916190Y47767143D01*
X10916190Y47386191D01*
X10868571Y48386191D02*
X10868571Y48719524D01*
X11392380Y48862381D02*
X11392380Y48386191D01*
X10392380Y48386191D01*
X10392380Y48862381D01*
X11344761Y49243334D02*
X11392380Y49386191D01*
X11392380Y49624286D01*
X11344761Y49719524D01*
X11297142Y49767143D01*
X11201904Y49814762D01*
X11106666Y49814762D01*
X11011428Y49767143D01*
X10963809Y49719524D01*
X10916190Y49624286D01*
X10868571Y49433810D01*
X10820952Y49338572D01*
X10773333Y49290953D01*
X10678095Y49243334D01*
X10582857Y49243334D01*
X10487619Y49290953D01*
X10440000Y49338572D01*
X10392380Y49433810D01*
X10392380Y49671905D01*
X10440000Y49814762D01*
X10868571Y50243334D02*
X10868571Y50576667D01*
X11392380Y50719524D02*
X11392380Y50243334D01*
X10392380Y50243334D01*
X10392380Y50719524D01*
X10392380Y51005239D02*
X10392380Y51576667D01*
X11392380Y51290953D02*
X10392380Y51290953D01*
D11*
X11740000Y33900000D02*
G75*
G03X11740000Y33900000I-250000J0D01*
G01*
D10*
X63379121Y22347620D02*
X63379121Y23347620D01*
X64426740Y22442858D02*
X64379121Y22395239D01*
X64236264Y22347620D01*
X64141026Y22347620D01*
X63998169Y22395239D01*
X63902931Y22490477D01*
X63855312Y22585715D01*
X63807692Y22776191D01*
X63807692Y22919048D01*
X63855312Y23109524D01*
X63902931Y23204762D01*
X63998169Y23300000D01*
X64141026Y23347620D01*
X64236264Y23347620D01*
X64379121Y23300000D01*
X64426740Y23252381D01*
X64807692Y22395239D02*
X64950550Y22347620D01*
X65188645Y22347620D01*
X65283883Y22395239D01*
X65331502Y22442858D01*
X65379121Y22538096D01*
X65379121Y22633334D01*
X65331502Y22728572D01*
X65283883Y22776191D01*
X65188645Y22823810D01*
X64998169Y22871429D01*
X64902931Y22919048D01*
X64855312Y22966667D01*
X64807692Y23061905D01*
X64807692Y23157143D01*
X64855312Y23252381D01*
X64902931Y23300000D01*
X64998169Y23347620D01*
X65236264Y23347620D01*
X65379121Y23300000D01*
X65807692Y22347620D02*
X65807692Y23347620D01*
X66188645Y23347620D01*
X66283883Y23300000D01*
X66331502Y23252381D01*
X66379121Y23157143D01*
X66379121Y23014286D01*
X66331502Y22919048D01*
X66283883Y22871429D01*
X66188645Y22823810D01*
X65807692Y22823810D01*
D11*
X41902500Y18687500D02*
G75*
G03X41902500Y18687500I-250000J0D01*
G01*
D12*
X64789210Y2534717D02*
X64789210Y1204717D01*
X64789210Y1204717D02*
X63459210Y1204717D01*
X62255312Y31804717D02*
X63585312Y31804717D01*
X62255312Y30474717D02*
X62255312Y31804717D01*
X57930000Y41330000D02*
X57930000Y40000000D01*
X56600000Y41330000D02*
X57930000Y41330000D01*
X64789210Y48214717D02*
X64789210Y46884717D01*
X64789210Y46884717D02*
X63459210Y46884717D01*
X13515680Y43810320D02*
X13520000Y47980000D01*
X15515680Y43810320D02*
X15520000Y47980000D01*
X13515680Y43810320D02*
X15515680Y43810320D01*
X21569680Y17537680D02*
X17400000Y17542000D01*
X21569680Y19537680D02*
X17400000Y19542000D01*
X21569680Y17537680D02*
X21569680Y19537680D01*
X24704320Y13149680D02*
X24700000Y8980000D01*
X22704320Y13149680D02*
X22700000Y8980000D01*
X24704320Y13149680D02*
X22704320Y13149680D01*
X17840000Y22010000D02*
X20700000Y22010000D01*
X17840000Y23930000D02*
X17840000Y22010000D01*
X20700000Y23930000D02*
X17840000Y23930000D01*
X17840000Y25690000D02*
X20700000Y25690000D01*
X17840000Y27610000D02*
X17840000Y25690000D01*
X20700000Y27610000D02*
X17840000Y27610000D01*
X17840000Y28140000D02*
X20700000Y28140000D01*
X17840000Y30060000D02*
X17840000Y28140000D01*
X20700000Y30060000D02*
X17840000Y30060000D01*
X42970000Y39870000D02*
X45830000Y39870000D01*
X42970000Y41790000D02*
X42970000Y39870000D01*
X45830000Y41790000D02*
X42970000Y41790000D01*
X37090000Y14391252D02*
X37090000Y13868748D01*
X38510000Y14391252D02*
X38510000Y13868748D01*
X13590000Y19461252D02*
X13590000Y18938748D01*
X15010000Y19461252D02*
X15010000Y18938748D01*
X15010000Y14338748D02*
X15010000Y14861252D01*
X13590000Y14338748D02*
X13590000Y14861252D01*
X26840548Y7494200D02*
X27363052Y7494200D01*
X26840548Y8914200D02*
X27363052Y8914200D01*
X24200000Y4971252D02*
X24200000Y4448748D01*
X25620000Y4971252D02*
X25620000Y4448748D01*
X16620000Y5081252D02*
X16620000Y4558748D01*
X18040000Y5081252D02*
X18040000Y4558748D01*
X14440000Y10091052D02*
X14440000Y9568548D01*
X15860000Y10091052D02*
X15860000Y9568548D01*
X23470800Y36075252D02*
X23470800Y35552748D01*
X24890800Y36075252D02*
X24890800Y35552748D01*
X23445400Y40698052D02*
X23445400Y40175548D01*
X24865400Y40698052D02*
X24865400Y40175548D01*
X32259200Y39601252D02*
X32259200Y39078748D01*
X33679200Y39601252D02*
X33679200Y39078748D01*
X41950000Y39013748D02*
X41950000Y39536252D01*
X40530000Y39013748D02*
X40530000Y39536252D01*
X44898748Y24120000D02*
X45421252Y24120000D01*
X44898748Y25540000D02*
X45421252Y25540000D01*
X22500000Y28031252D02*
X22500000Y27508748D01*
X23920000Y28031252D02*
X23920000Y27508748D01*
X32690000Y14391252D02*
X32690000Y13868748D01*
X34110000Y14391252D02*
X34110000Y13868748D01*
X34890000Y14391252D02*
X34890000Y13868748D01*
X36310000Y14391252D02*
X36310000Y13868748D01*
X39190000Y14391252D02*
X39190000Y13868748D01*
X40610000Y14391252D02*
X40610000Y13868748D01*
X29871600Y39601252D02*
X29871600Y39078748D01*
X31291600Y39601252D02*
X31291600Y39078748D01*
X27484000Y39601252D02*
X27484000Y39078748D01*
X28904000Y39601252D02*
X28904000Y39078748D01*
X1898748Y42650000D02*
X2421252Y42650000D01*
X1898748Y44070000D02*
X2421252Y44070000D01*
X6088748Y42650000D02*
X6611252Y42650000D01*
X6088748Y44070000D02*
X6611252Y44070000D01*
X11810000Y44838748D02*
X11810000Y45361252D01*
X10390000Y44838748D02*
X10390000Y45361252D01*
X45081252Y39210000D02*
X44558748Y39210000D01*
X45081252Y37790000D02*
X44558748Y37790000D01*
X11964600Y10091052D02*
X11964600Y9568548D01*
X13384600Y10091052D02*
X13384600Y9568548D01*
X15261252Y23680000D02*
X14738748Y23680000D01*
X15261252Y22260000D02*
X14738748Y22260000D01*
X15261252Y27360000D02*
X14738748Y27360000D01*
X15261252Y25940000D02*
X14738748Y25940000D01*
X15261252Y29810000D02*
X14738748Y29810000D01*
X15261252Y28390000D02*
X14738748Y28390000D01*
X3780000Y25413748D02*
X3780000Y28186252D01*
X360000Y25413748D02*
X360000Y28186252D01*
X22770000Y4110000D02*
X22770000Y6560000D01*
X19550000Y5910000D02*
X19550000Y4110000D01*
X20380000Y8510000D02*
X18920000Y8510000D01*
X20380000Y11670000D02*
X17220000Y11670000D01*
X20380000Y11670000D02*
X20380000Y10740000D01*
X20380000Y8510000D02*
X20380000Y9440000D01*
D13*
X4350000Y32060000D02*
X3100000Y32060000D01*
X4350000Y41640000D02*
X3100000Y41640000D01*
D12*
X34540000Y37650000D02*
X39940000Y37650000D01*
X34540000Y42050000D02*
X34540000Y37650000D01*
D14*
X2093400Y46133400D02*
X8646600Y46133400D01*
X8646600Y46133400D02*
X8646600Y46441659D01*
X8646600Y52686600D02*
X2093400Y52686600D01*
X2093400Y52686600D02*
X2093400Y52378341D01*
X2093400Y50941661D02*
X2093400Y47878339D01*
X2093400Y46441659D02*
X2093400Y46133400D01*
X8646600Y47878339D02*
X8646600Y50941661D01*
X8646600Y52378341D02*
X8646600Y52686600D01*
X6868600Y49410000D02*
G75*
G03X6868600Y49410000I-1498600J0D01*
G01*
D15*
X0Y1500000D02*
X0Y10500000D01*
X0Y10500000D02*
X11200000Y10500000D01*
X11200000Y1500000D02*
X9350000Y1500000D01*
X11200000Y10500000D02*
X11200000Y7550000D01*
X5750000Y1500000D02*
X0Y1500000D01*
X11200000Y4550000D02*
X11200000Y1500000D01*
D12*
X12750000Y13190000D02*
X6740000Y13190000D01*
X10500000Y20010000D02*
X6740000Y20010000D01*
X6740000Y13190000D02*
X6740000Y14450000D01*
X6740000Y20010000D02*
X6740000Y18750000D01*
X41100000Y19940000D02*
X42390000Y19940000D01*
X26880000Y33460000D02*
X26880000Y32760000D01*
X27580000Y33460000D02*
X26880000Y33460000D01*
X41100000Y33460000D02*
X41100000Y32760000D01*
X40400000Y33460000D02*
X41100000Y33460000D01*
X26880000Y19240000D02*
X26880000Y19940000D01*
X27580000Y19240000D02*
X26880000Y19240000D01*
X41100000Y19240000D02*
X41100000Y19940000D01*
X40400000Y19240000D02*
X41100000Y19240000D01*
D10*
X12175000Y34625000D02*
X12750000Y34625000D01*
X12175000Y40375000D02*
X12825000Y40375000D01*
X22825000Y40375000D02*
X22175000Y40375000D01*
X22825000Y34625000D02*
X22175000Y34625000D01*
X12175000Y34625000D02*
X12175000Y40375000D01*
X22825000Y34625000D02*
X22825000Y40375000D01*
X12750000Y34625000D02*
X12750000Y33025000D01*
X13202380Y45761905D02*
X12202380Y45761905D01*
X12202380Y46000000D01*
X12250000Y46142858D01*
X12345238Y46238096D01*
X12440476Y46285715D01*
X12630952Y46333334D01*
X12773809Y46333334D01*
X12964285Y46285715D01*
X13059523Y46238096D01*
X13154761Y46142858D01*
X13202380Y46000000D01*
X13202380Y45761905D01*
X12202380Y47238096D02*
X12202380Y46761905D01*
X12678571Y46714286D01*
X12630952Y46761905D01*
X12583333Y46857143D01*
X12583333Y47095239D01*
X12630952Y47190477D01*
X12678571Y47238096D01*
X12773809Y47285715D01*
X13011904Y47285715D01*
X13107142Y47238096D01*
X13154761Y47190477D01*
X13202380Y47095239D01*
X13202380Y46857143D01*
X13154761Y46761905D01*
X13107142Y46714286D01*
X18311904Y16184620D02*
X18311904Y17184620D01*
X18550000Y17184620D01*
X18692857Y17137000D01*
X18788095Y17041762D01*
X18835714Y16946524D01*
X18883333Y16756048D01*
X18883333Y16613191D01*
X18835714Y16422715D01*
X18788095Y16327477D01*
X18692857Y16232239D01*
X18550000Y16184620D01*
X18311904Y16184620D01*
X19216666Y17184620D02*
X19883333Y17184620D01*
X19454761Y16184620D01*
X22971904Y13577620D02*
X22971904Y14577620D01*
X23210000Y14577620D01*
X23352857Y14530000D01*
X23448095Y14434762D01*
X23495714Y14339524D01*
X23543333Y14149048D01*
X23543333Y14006191D01*
X23495714Y13815715D01*
X23448095Y13720477D01*
X23352857Y13625239D01*
X23210000Y13577620D01*
X22971904Y13577620D01*
X24400476Y14577620D02*
X24210000Y14577620D01*
X24114761Y14530000D01*
X24067142Y14482381D01*
X23971904Y14339524D01*
X23924285Y14149048D01*
X23924285Y13768096D01*
X23971904Y13672858D01*
X24019523Y13625239D01*
X24114761Y13577620D01*
X24305238Y13577620D01*
X24400476Y13625239D01*
X24448095Y13672858D01*
X24495714Y13768096D01*
X24495714Y14006191D01*
X24448095Y14101429D01*
X24400476Y14149048D01*
X24305238Y14196667D01*
X24114761Y14196667D01*
X24019523Y14149048D01*
X23971904Y14101429D01*
X23924285Y14006191D01*
X37633333Y11157960D02*
X37157142Y11157960D01*
X37157142Y12157960D01*
X38490476Y11157960D02*
X37919047Y11157960D01*
X38204761Y11157960D02*
X38204761Y12157960D01*
X38109523Y12015102D01*
X38014285Y11919864D01*
X37919047Y11872245D01*
X16307142Y18557143D02*
X16354761Y18509524D01*
X16402380Y18366667D01*
X16402380Y18271429D01*
X16354761Y18128572D01*
X16259523Y18033334D01*
X16164285Y17985715D01*
X15973809Y17938096D01*
X15830952Y17938096D01*
X15640476Y17985715D01*
X15545238Y18033334D01*
X15450000Y18128572D01*
X15402380Y18271429D01*
X15402380Y18366667D01*
X15450000Y18509524D01*
X15497619Y18557143D01*
X16402380Y19509524D02*
X16402380Y18938096D01*
X16402380Y19223810D02*
X15402380Y19223810D01*
X15545238Y19128572D01*
X15640476Y19033334D01*
X15688095Y18938096D01*
X16402380Y20461905D02*
X16402380Y19890477D01*
X16402380Y20176191D02*
X15402380Y20176191D01*
X15545238Y20080953D01*
X15640476Y19985715D01*
X15688095Y19890477D01*
X16347142Y13957143D02*
X16394761Y13909524D01*
X16442380Y13766667D01*
X16442380Y13671429D01*
X16394761Y13528572D01*
X16299523Y13433334D01*
X16204285Y13385715D01*
X16013809Y13338096D01*
X15870952Y13338096D01*
X15680476Y13385715D01*
X15585238Y13433334D01*
X15490000Y13528572D01*
X15442380Y13671429D01*
X15442380Y13766667D01*
X15490000Y13909524D01*
X15537619Y13957143D01*
X16442380Y14909524D02*
X16442380Y14338096D01*
X16442380Y14623810D02*
X15442380Y14623810D01*
X15585238Y14528572D01*
X15680476Y14433334D01*
X15728095Y14338096D01*
X15442380Y15528572D02*
X15442380Y15623810D01*
X15490000Y15719048D01*
X15537619Y15766667D01*
X15632857Y15814286D01*
X15823333Y15861905D01*
X16061428Y15861905D01*
X16251904Y15814286D01*
X16347142Y15766667D01*
X16394761Y15719048D01*
X16442380Y15623810D01*
X16442380Y15528572D01*
X16394761Y15433334D01*
X16347142Y15385715D01*
X16251904Y15338096D01*
X16061428Y15290477D01*
X15823333Y15290477D01*
X15632857Y15338096D01*
X15537619Y15385715D01*
X15490000Y15433334D01*
X15442380Y15528572D01*
X26458942Y9432858D02*
X26411323Y9385239D01*
X26268466Y9337620D01*
X26173228Y9337620D01*
X26030371Y9385239D01*
X25935133Y9480477D01*
X25887514Y9575715D01*
X25839895Y9766191D01*
X25839895Y9909048D01*
X25887514Y10099524D01*
X25935133Y10194762D01*
X26030371Y10290000D01*
X26173228Y10337620D01*
X26268466Y10337620D01*
X26411323Y10290000D01*
X26458942Y10242381D01*
X27411323Y9337620D02*
X26839895Y9337620D01*
X27125609Y9337620D02*
X27125609Y10337620D01*
X27030371Y10194762D01*
X26935133Y10099524D01*
X26839895Y10051905D01*
X28268466Y10004286D02*
X28268466Y9337620D01*
X28030371Y10385239D02*
X27792276Y9670953D01*
X28411323Y9670953D01*
X23887142Y1822858D02*
X23839523Y1775239D01*
X23696666Y1727620D01*
X23601428Y1727620D01*
X23458571Y1775239D01*
X23363333Y1870477D01*
X23315714Y1965715D01*
X23268095Y2156191D01*
X23268095Y2299048D01*
X23315714Y2489524D01*
X23363333Y2584762D01*
X23458571Y2680000D01*
X23601428Y2727620D01*
X23696666Y2727620D01*
X23839523Y2680000D01*
X23887142Y2632381D01*
X24839523Y1727620D02*
X24268095Y1727620D01*
X24553809Y1727620D02*
X24553809Y2727620D01*
X24458571Y2584762D01*
X24363333Y2489524D01*
X24268095Y2441905D01*
X25172857Y2727620D02*
X25791904Y2727620D01*
X25458571Y2346667D01*
X25601428Y2346667D01*
X25696666Y2299048D01*
X25744285Y2251429D01*
X25791904Y2156191D01*
X25791904Y1918096D01*
X25744285Y1822858D01*
X25696666Y1775239D01*
X25601428Y1727620D01*
X25315714Y1727620D01*
X25220476Y1775239D01*
X25172857Y1822858D01*
X16967142Y6772858D02*
X16919523Y6725239D01*
X16776666Y6677620D01*
X16681428Y6677620D01*
X16538571Y6725239D01*
X16443333Y6820477D01*
X16395714Y6915715D01*
X16348095Y7106191D01*
X16348095Y7249048D01*
X16395714Y7439524D01*
X16443333Y7534762D01*
X16538571Y7630000D01*
X16681428Y7677620D01*
X16776666Y7677620D01*
X16919523Y7630000D01*
X16967142Y7582381D01*
X17919523Y6677620D02*
X17348095Y6677620D01*
X17633809Y6677620D02*
X17633809Y7677620D01*
X17538571Y7534762D01*
X17443333Y7439524D01*
X17348095Y7391905D01*
X18300476Y7582381D02*
X18348095Y7630000D01*
X18443333Y7677620D01*
X18681428Y7677620D01*
X18776666Y7630000D01*
X18824285Y7582381D01*
X18871904Y7487143D01*
X18871904Y7391905D01*
X18824285Y7249048D01*
X18252857Y6677620D01*
X18871904Y6677620D01*
X15507142Y5937143D02*
X15554761Y5889524D01*
X15602380Y5746667D01*
X15602380Y5651429D01*
X15554761Y5508572D01*
X15459523Y5413334D01*
X15364285Y5365715D01*
X15173809Y5318096D01*
X15030952Y5318096D01*
X14840476Y5365715D01*
X14745238Y5413334D01*
X14650000Y5508572D01*
X14602380Y5651429D01*
X14602380Y5746667D01*
X14650000Y5889524D01*
X14697619Y5937143D01*
X15602380Y6889524D02*
X15602380Y6318096D01*
X15602380Y6603810D02*
X14602380Y6603810D01*
X14745238Y6508572D01*
X14840476Y6413334D01*
X14888095Y6318096D01*
X14602380Y7794286D02*
X14602380Y7318096D01*
X15078571Y7270477D01*
X15030952Y7318096D01*
X14983333Y7413334D01*
X14983333Y7651429D01*
X15030952Y7746667D01*
X15078571Y7794286D01*
X15173809Y7841905D01*
X15411904Y7841905D01*
X15507142Y7794286D01*
X15554761Y7746667D01*
X15602380Y7651429D01*
X15602380Y7413334D01*
X15554761Y7318096D01*
X15507142Y7270477D01*
X26147142Y35647334D02*
X26194761Y35599715D01*
X26242380Y35456858D01*
X26242380Y35361620D01*
X26194761Y35218762D01*
X26099523Y35123524D01*
X26004285Y35075905D01*
X25813809Y35028286D01*
X25670952Y35028286D01*
X25480476Y35075905D01*
X25385238Y35123524D01*
X25290000Y35218762D01*
X25242380Y35361620D01*
X25242380Y35456858D01*
X25290000Y35599715D01*
X25337619Y35647334D01*
X26242380Y36123524D02*
X26242380Y36314000D01*
X26194761Y36409239D01*
X26147142Y36456858D01*
X26004285Y36552096D01*
X25813809Y36599715D01*
X25432857Y36599715D01*
X25337619Y36552096D01*
X25290000Y36504477D01*
X25242380Y36409239D01*
X25242380Y36218762D01*
X25290000Y36123524D01*
X25337619Y36075905D01*
X25432857Y36028286D01*
X25670952Y36028286D01*
X25766190Y36075905D01*
X25813809Y36123524D01*
X25861428Y36218762D01*
X25861428Y36409239D01*
X25813809Y36504477D01*
X25766190Y36552096D01*
X25670952Y36599715D01*
X26162542Y40270134D02*
X26210161Y40222515D01*
X26257780Y40079658D01*
X26257780Y39984420D01*
X26210161Y39841562D01*
X26114923Y39746324D01*
X26019685Y39698705D01*
X25829209Y39651086D01*
X25686352Y39651086D01*
X25495876Y39698705D01*
X25400638Y39746324D01*
X25305400Y39841562D01*
X25257780Y39984420D01*
X25257780Y40079658D01*
X25305400Y40222515D01*
X25353019Y40270134D01*
X25686352Y40841562D02*
X25638733Y40746324D01*
X25591114Y40698705D01*
X25495876Y40651086D01*
X25448257Y40651086D01*
X25353019Y40698705D01*
X25305400Y40746324D01*
X25257780Y40841562D01*
X25257780Y41032039D01*
X25305400Y41127277D01*
X25353019Y41174896D01*
X25448257Y41222515D01*
X25495876Y41222515D01*
X25591114Y41174896D01*
X25638733Y41127277D01*
X25686352Y41032039D01*
X25686352Y40841562D01*
X25733971Y40746324D01*
X25781590Y40698705D01*
X25876828Y40651086D01*
X26067304Y40651086D01*
X26162542Y40698705D01*
X26210161Y40746324D01*
X26257780Y40841562D01*
X26257780Y41032039D01*
X26210161Y41127277D01*
X26162542Y41174896D01*
X26067304Y41222515D01*
X25876828Y41222515D01*
X25781590Y41174896D01*
X25733971Y41127277D01*
X25686352Y41032039D01*
X32802533Y36465238D02*
X32754914Y36417619D01*
X32612057Y36370000D01*
X32516819Y36370000D01*
X32373961Y36417619D01*
X32278723Y36512857D01*
X32231104Y36608095D01*
X32183485Y36798571D01*
X32183485Y36941428D01*
X32231104Y37131904D01*
X32278723Y37227142D01*
X32373961Y37322380D01*
X32516819Y37370000D01*
X32612057Y37370000D01*
X32754914Y37322380D01*
X32802533Y37274761D01*
X33659676Y37370000D02*
X33469200Y37370000D01*
X33373961Y37322380D01*
X33326342Y37274761D01*
X33231104Y37131904D01*
X33183485Y36941428D01*
X33183485Y36560476D01*
X33231104Y36465238D01*
X33278723Y36417619D01*
X33373961Y36370000D01*
X33564438Y36370000D01*
X33659676Y36417619D01*
X33707295Y36465238D01*
X33754914Y36560476D01*
X33754914Y36798571D01*
X33707295Y36893809D01*
X33659676Y36941428D01*
X33564438Y36989047D01*
X33373961Y36989047D01*
X33278723Y36941428D01*
X33231104Y36893809D01*
X33183485Y36798571D01*
X41073333Y36465238D02*
X41025714Y36417619D01*
X40882857Y36370000D01*
X40787619Y36370000D01*
X40644761Y36417619D01*
X40549523Y36512857D01*
X40501904Y36608095D01*
X40454285Y36798571D01*
X40454285Y36941428D01*
X40501904Y37131904D01*
X40549523Y37227142D01*
X40644761Y37322380D01*
X40787619Y37370000D01*
X40882857Y37370000D01*
X41025714Y37322380D01*
X41073333Y37274761D01*
X41406666Y37370000D02*
X42073333Y37370000D01*
X41644761Y36370000D01*
X44993333Y22812858D02*
X44945714Y22765239D01*
X44802857Y22717620D01*
X44707619Y22717620D01*
X44564761Y22765239D01*
X44469523Y22860477D01*
X44421904Y22955715D01*
X44374285Y23146191D01*
X44374285Y23289048D01*
X44421904Y23479524D01*
X44469523Y23574762D01*
X44564761Y23670000D01*
X44707619Y23717620D01*
X44802857Y23717620D01*
X44945714Y23670000D01*
X44993333Y23622381D01*
X45326666Y23717620D02*
X45945714Y23717620D01*
X45612380Y23336667D01*
X45755238Y23336667D01*
X45850476Y23289048D01*
X45898095Y23241429D01*
X45945714Y23146191D01*
X45945714Y22908096D01*
X45898095Y22812858D01*
X45850476Y22765239D01*
X45755238Y22717620D01*
X45469523Y22717620D01*
X45374285Y22765239D01*
X45326666Y22812858D01*
X25147142Y27603334D02*
X25194761Y27555715D01*
X25242380Y27412858D01*
X25242380Y27317620D01*
X25194761Y27174762D01*
X25099523Y27079524D01*
X25004285Y27031905D01*
X24813809Y26984286D01*
X24670952Y26984286D01*
X24480476Y27031905D01*
X24385238Y27079524D01*
X24290000Y27174762D01*
X24242380Y27317620D01*
X24242380Y27412858D01*
X24290000Y27555715D01*
X24337619Y27603334D01*
X24337619Y27984286D02*
X24290000Y28031905D01*
X24242380Y28127143D01*
X24242380Y28365239D01*
X24290000Y28460477D01*
X24337619Y28508096D01*
X24432857Y28555715D01*
X24528095Y28555715D01*
X24670952Y28508096D01*
X25242380Y27936667D01*
X25242380Y28555715D01*
X33233333Y11253198D02*
X33185714Y11205579D01*
X33042857Y11157960D01*
X32947619Y11157960D01*
X32804761Y11205579D01*
X32709523Y11300817D01*
X32661904Y11396055D01*
X32614285Y11586531D01*
X32614285Y11729388D01*
X32661904Y11919864D01*
X32709523Y12015102D01*
X32804761Y12110340D01*
X32947619Y12157960D01*
X33042857Y12157960D01*
X33185714Y12110340D01*
X33233333Y12062721D01*
X34090476Y11824626D02*
X34090476Y11157960D01*
X33852380Y12205579D02*
X33614285Y11491293D01*
X34233333Y11491293D01*
X35433333Y11253198D02*
X35385714Y11205579D01*
X35242857Y11157960D01*
X35147619Y11157960D01*
X35004761Y11205579D01*
X34909523Y11300817D01*
X34861904Y11396055D01*
X34814285Y11586531D01*
X34814285Y11729388D01*
X34861904Y11919864D01*
X34909523Y12015102D01*
X35004761Y12110340D01*
X35147619Y12157960D01*
X35242857Y12157960D01*
X35385714Y12110340D01*
X35433333Y12062721D01*
X36338095Y12157960D02*
X35861904Y12157960D01*
X35814285Y11681769D01*
X35861904Y11729388D01*
X35957142Y11777007D01*
X36195238Y11777007D01*
X36290476Y11729388D01*
X36338095Y11681769D01*
X36385714Y11586531D01*
X36385714Y11348436D01*
X36338095Y11253198D01*
X36290476Y11205579D01*
X36195238Y11157960D01*
X35957142Y11157960D01*
X35861904Y11205579D01*
X35814285Y11253198D01*
X39733333Y11253198D02*
X39685714Y11205579D01*
X39542857Y11157960D01*
X39447619Y11157960D01*
X39304761Y11205579D01*
X39209523Y11300817D01*
X39161904Y11396055D01*
X39114285Y11586531D01*
X39114285Y11729388D01*
X39161904Y11919864D01*
X39209523Y12015102D01*
X39304761Y12110340D01*
X39447619Y12157960D01*
X39542857Y12157960D01*
X39685714Y12110340D01*
X39733333Y12062721D01*
X40685714Y11157960D02*
X40114285Y11157960D01*
X40400000Y11157960D02*
X40400000Y12157960D01*
X40304761Y12015102D01*
X40209523Y11919864D01*
X40114285Y11872245D01*
X30414933Y36370000D02*
X30081600Y36846190D01*
X29843504Y36370000D02*
X29843504Y37370000D01*
X30224457Y37370000D01*
X30319695Y37322380D01*
X30367314Y37274761D01*
X30414933Y37179523D01*
X30414933Y37036666D01*
X30367314Y36941428D01*
X30319695Y36893809D01*
X30224457Y36846190D01*
X29843504Y36846190D01*
X30795885Y37274761D02*
X30843504Y37322380D01*
X30938742Y37370000D01*
X31176838Y37370000D01*
X31272076Y37322380D01*
X31319695Y37274761D01*
X31367314Y37179523D01*
X31367314Y37084285D01*
X31319695Y36941428D01*
X30748266Y36370000D01*
X31367314Y36370000D01*
X28027333Y36370000D02*
X27694000Y36846190D01*
X27455904Y36370000D02*
X27455904Y37370000D01*
X27836857Y37370000D01*
X27932095Y37322380D01*
X27979714Y37274761D01*
X28027333Y37179523D01*
X28027333Y37036666D01*
X27979714Y36941428D01*
X27932095Y36893809D01*
X27836857Y36846190D01*
X27455904Y36846190D01*
X28360666Y37370000D02*
X28979714Y37370000D01*
X28646380Y36989047D01*
X28789238Y36989047D01*
X28884476Y36941428D01*
X28932095Y36893809D01*
X28979714Y36798571D01*
X28979714Y36560476D01*
X28932095Y36465238D01*
X28884476Y36417619D01*
X28789238Y36370000D01*
X28503523Y36370000D01*
X28408285Y36417619D01*
X28360666Y36465238D01*
X1993333Y44537620D02*
X1660000Y45013810D01*
X1421904Y44537620D02*
X1421904Y45537620D01*
X1802857Y45537620D01*
X1898095Y45490000D01*
X1945714Y45442381D01*
X1993333Y45347143D01*
X1993333Y45204286D01*
X1945714Y45109048D01*
X1898095Y45061429D01*
X1802857Y45013810D01*
X1421904Y45013810D01*
X2469523Y44537620D02*
X2660000Y44537620D01*
X2755238Y44585239D01*
X2802857Y44632858D01*
X2898095Y44775715D01*
X2945714Y44966191D01*
X2945714Y45347143D01*
X2898095Y45442381D01*
X2850476Y45490000D01*
X2755238Y45537620D01*
X2564761Y45537620D01*
X2469523Y45490000D01*
X2421904Y45442381D01*
X2374285Y45347143D01*
X2374285Y45109048D01*
X2421904Y45013810D01*
X2469523Y44966191D01*
X2564761Y44918572D01*
X2755238Y44918572D01*
X2850476Y44966191D01*
X2898095Y45013810D01*
X2945714Y45109048D01*
X6183333Y44537620D02*
X5850000Y45013810D01*
X5611904Y44537620D02*
X5611904Y45537620D01*
X5992857Y45537620D01*
X6088095Y45490000D01*
X6135714Y45442381D01*
X6183333Y45347143D01*
X6183333Y45204286D01*
X6135714Y45109048D01*
X6088095Y45061429D01*
X5992857Y45013810D01*
X5611904Y45013810D01*
X6754761Y45109048D02*
X6659523Y45156667D01*
X6611904Y45204286D01*
X6564285Y45299524D01*
X6564285Y45347143D01*
X6611904Y45442381D01*
X6659523Y45490000D01*
X6754761Y45537620D01*
X6945238Y45537620D01*
X7040476Y45490000D01*
X7088095Y45442381D01*
X7135714Y45347143D01*
X7135714Y45299524D01*
X7088095Y45204286D01*
X7040476Y45156667D01*
X6945238Y45109048D01*
X6754761Y45109048D01*
X6659523Y45061429D01*
X6611904Y45013810D01*
X6564285Y44918572D01*
X6564285Y44728096D01*
X6611904Y44632858D01*
X6659523Y44585239D01*
X6754761Y44537620D01*
X6945238Y44537620D01*
X7040476Y44585239D01*
X7088095Y44632858D01*
X7135714Y44728096D01*
X7135714Y44918572D01*
X7088095Y45013810D01*
X7040476Y45061429D01*
X6945238Y45109048D01*
X9892380Y44933334D02*
X9416190Y44600000D01*
X9892380Y44361905D02*
X8892380Y44361905D01*
X8892380Y44742858D01*
X8940000Y44838096D01*
X8987619Y44885715D01*
X9082857Y44933334D01*
X9225714Y44933334D01*
X9320952Y44885715D01*
X9368571Y44838096D01*
X9416190Y44742858D01*
X9416190Y44361905D01*
X9892380Y45885715D02*
X9892380Y45314286D01*
X9892380Y45600000D02*
X8892380Y45600000D01*
X9035238Y45504762D01*
X9130476Y45409524D01*
X9178095Y45314286D01*
X47692380Y38333334D02*
X47216190Y38000000D01*
X47692380Y37761905D02*
X46692380Y37761905D01*
X46692380Y38142858D01*
X46740000Y38238096D01*
X46787619Y38285715D01*
X46882857Y38333334D01*
X47025714Y38333334D01*
X47120952Y38285715D01*
X47168571Y38238096D01*
X47216190Y38142858D01*
X47216190Y37761905D01*
X46692380Y38666667D02*
X46692380Y39333334D01*
X47692380Y38904762D01*
X13152380Y6007143D02*
X12676190Y5673810D01*
X13152380Y5435715D02*
X12152380Y5435715D01*
X12152380Y5816667D01*
X12200000Y5911905D01*
X12247619Y5959524D01*
X12342857Y6007143D01*
X12485714Y6007143D01*
X12580952Y5959524D01*
X12628571Y5911905D01*
X12676190Y5816667D01*
X12676190Y5435715D01*
X13152380Y6959524D02*
X13152380Y6388096D01*
X13152380Y6673810D02*
X12152380Y6673810D01*
X12295238Y6578572D01*
X12390476Y6483334D01*
X12438095Y6388096D01*
X12152380Y7578572D02*
X12152380Y7673810D01*
X12200000Y7769048D01*
X12247619Y7816667D01*
X12342857Y7864286D01*
X12533333Y7911905D01*
X12771428Y7911905D01*
X12961904Y7864286D01*
X13057142Y7816667D01*
X13104761Y7769048D01*
X13152380Y7673810D01*
X13152380Y7578572D01*
X13104761Y7483334D01*
X13057142Y7435715D01*
X12961904Y7388096D01*
X12771428Y7340477D01*
X12533333Y7340477D01*
X12342857Y7388096D01*
X12247619Y7435715D01*
X12200000Y7483334D01*
X12152380Y7578572D01*
X14789333Y20897620D02*
X14456000Y21373810D01*
X14217904Y20897620D02*
X14217904Y21897620D01*
X14598857Y21897620D01*
X14694095Y21850000D01*
X14741714Y21802381D01*
X14789333Y21707143D01*
X14789333Y21564286D01*
X14741714Y21469048D01*
X14694095Y21421429D01*
X14598857Y21373810D01*
X14217904Y21373810D01*
X15646476Y21564286D02*
X15646476Y20897620D01*
X15408380Y21945239D02*
X15170285Y21230953D01*
X15789333Y21230953D01*
X14833333Y24547620D02*
X14500000Y25023810D01*
X14261904Y24547620D02*
X14261904Y25547620D01*
X14642857Y25547620D01*
X14738095Y25500000D01*
X14785714Y25452381D01*
X14833333Y25357143D01*
X14833333Y25214286D01*
X14785714Y25119048D01*
X14738095Y25071429D01*
X14642857Y25023810D01*
X14261904Y25023810D01*
X15690476Y25547620D02*
X15500000Y25547620D01*
X15404761Y25500000D01*
X15357142Y25452381D01*
X15261904Y25309524D01*
X15214285Y25119048D01*
X15214285Y24738096D01*
X15261904Y24642858D01*
X15309523Y24595239D01*
X15404761Y24547620D01*
X15595238Y24547620D01*
X15690476Y24595239D01*
X15738095Y24642858D01*
X15785714Y24738096D01*
X15785714Y24976191D01*
X15738095Y25071429D01*
X15690476Y25119048D01*
X15595238Y25166667D01*
X15404761Y25166667D01*
X15309523Y25119048D01*
X15261904Y25071429D01*
X15214285Y24976191D01*
X14833333Y30237620D02*
X14500000Y30713810D01*
X14261904Y30237620D02*
X14261904Y31237620D01*
X14642857Y31237620D01*
X14738095Y31190000D01*
X14785714Y31142381D01*
X14833333Y31047143D01*
X14833333Y30904286D01*
X14785714Y30809048D01*
X14738095Y30761429D01*
X14642857Y30713810D01*
X14261904Y30713810D01*
X15738095Y31237620D02*
X15261904Y31237620D01*
X15214285Y30761429D01*
X15261904Y30809048D01*
X15357142Y30856667D01*
X15595238Y30856667D01*
X15690476Y30809048D01*
X15738095Y30761429D01*
X15785714Y30666191D01*
X15785714Y30428096D01*
X15738095Y30332858D01*
X15690476Y30285239D01*
X15595238Y30237620D01*
X15357142Y30237620D01*
X15261904Y30285239D01*
X15214285Y30332858D01*
X1736666Y23091429D02*
X1403333Y23091429D01*
X1403333Y22567620D02*
X1403333Y23567620D01*
X1879523Y23567620D01*
X2784285Y22567620D02*
X2212857Y22567620D01*
X2498571Y22567620D02*
X2498571Y23567620D01*
X2403333Y23424762D01*
X2308095Y23329524D01*
X2212857Y23281905D01*
X20398095Y2197620D02*
X20398095Y1388096D01*
X20445714Y1292858D01*
X20493333Y1245239D01*
X20588571Y1197620D01*
X20779047Y1197620D01*
X20874285Y1245239D01*
X20921904Y1292858D01*
X20969523Y1388096D01*
X20969523Y2197620D01*
X21874285Y1864286D02*
X21874285Y1197620D01*
X21636190Y2245239D02*
X21398095Y1530953D01*
X22017142Y1530953D01*
X19524761Y12042381D02*
X19429523Y12090000D01*
X19334285Y12185239D01*
X19191428Y12328096D01*
X19096190Y12375715D01*
X19000952Y12375715D01*
X19048571Y12137620D02*
X18953333Y12185239D01*
X18858095Y12280477D01*
X18810476Y12470953D01*
X18810476Y12804286D01*
X18858095Y12994762D01*
X18953333Y13090000D01*
X19048571Y13137620D01*
X19239047Y13137620D01*
X19334285Y13090000D01*
X19429523Y12994762D01*
X19477142Y12804286D01*
X19477142Y12470953D01*
X19429523Y12280477D01*
X19334285Y12185239D01*
X19239047Y12137620D01*
X19048571Y12137620D01*
X20429523Y12137620D02*
X19858095Y12137620D01*
X20143809Y12137620D02*
X20143809Y13137620D01*
X20048571Y12994762D01*
X19953333Y12899524D01*
X19858095Y12851905D01*
X2646666Y31547620D02*
X2646666Y30833334D01*
X2599047Y30690477D01*
X2503809Y30595239D01*
X2360952Y30547620D01*
X2265714Y30547620D01*
X3646666Y30547620D02*
X3075238Y30547620D01*
X3360952Y30547620D02*
X3360952Y31547620D01*
X3265714Y31404762D01*
X3170476Y31309524D01*
X3075238Y31261905D01*
X36763809Y42873810D02*
X36763809Y42397620D01*
X36430476Y43397620D02*
X36763809Y42873810D01*
X37097142Y43397620D01*
X37954285Y42397620D02*
X37382857Y42397620D01*
X37668571Y42397620D02*
X37668571Y43397620D01*
X37573333Y43254762D01*
X37478095Y43159524D01*
X37382857Y43111905D01*
X4952380Y12738096D02*
X5761904Y12738096D01*
X5857142Y12785715D01*
X5904761Y12833334D01*
X5952380Y12928572D01*
X5952380Y13119048D01*
X5904761Y13214286D01*
X5857142Y13261905D01*
X5761904Y13309524D01*
X4952380Y13309524D01*
X4952380Y13690477D02*
X4952380Y14309524D01*
X5333333Y13976191D01*
X5333333Y14119048D01*
X5380952Y14214286D01*
X5428571Y14261905D01*
X5523809Y14309524D01*
X5761904Y14309524D01*
X5857142Y14261905D01*
X5904761Y14214286D01*
X5952380Y14119048D01*
X5952380Y13833334D01*
X5904761Y13738096D01*
X5857142Y13690477D01*
X11677380Y41238096D02*
X12486904Y41238096D01*
X12582142Y41285715D01*
X12629761Y41333334D01*
X12677380Y41428572D01*
X12677380Y41619048D01*
X12629761Y41714286D01*
X12582142Y41761905D01*
X12486904Y41809524D01*
X11677380Y41809524D01*
X11772619Y42238096D02*
X11725000Y42285715D01*
X11677380Y42380953D01*
X11677380Y42619048D01*
X11725000Y42714286D01*
X11772619Y42761905D01*
X11867857Y42809524D01*
X11963095Y42809524D01*
X12105952Y42761905D01*
X12677380Y42190477D01*
X12677380Y42809524D01*
M02*
