G04 #@! TF.GenerationSoftware,KiCad,Pcbnew,(5.1.4)-1*
G04 #@! TF.CreationDate,2020-03-19T18:17:23+09:00*
G04 #@! TF.ProjectId,Meno,4d656e6f-2e6b-4696-9361-645f70636258,rev?*
G04 #@! TF.SameCoordinates,PX6cf7820PY7a67730*
G04 #@! TF.FileFunction,Soldermask,Bot*
G04 #@! TF.FilePolarity,Negative*
%FSLAX46Y46*%
G04 Gerber Fmt 4.6, Leading zero omitted, Abs format (unit mm)*
G04 Created by KiCad (PCBNEW (5.1.4)-1) date 2020-03-19 18:17:23*
%MOMM*%
%LPD*%
G04 APERTURE LIST*
%ADD10C,0.650000*%
%ADD11O,2.100000X1.050000*%
%ADD12O,2.000000X1.000000*%
%ADD13O,1.508000X3.016000*%
%ADD14O,3.016000X1.508000*%
%ADD15R,1.700000X1.700000*%
%ADD16O,1.700000X1.700000*%
%ADD17C,0.600000*%
%ADD18C,0.900000*%
G04 APERTURE END LIST*
D10*
X5350000Y39740000D03*
X5350000Y33960000D03*
D11*
X5880000Y32530000D03*
X5880000Y41170000D03*
D12*
X1700000Y32530000D03*
X1700000Y41170000D03*
D13*
X10500000Y6000000D03*
X4500000Y6000000D03*
D14*
X7500000Y1300000D03*
D15*
X56600000Y40000000D03*
D16*
X54060000Y40000000D03*
X56600000Y37460000D03*
X54060000Y37460000D03*
X56600000Y34920000D03*
X54060000Y34920000D03*
X56600000Y32380000D03*
X54060000Y32380000D03*
X56600000Y29840000D03*
X54060000Y29840000D03*
X56600000Y27300000D03*
X54060000Y27300000D03*
X56600000Y24760000D03*
X54060000Y24760000D03*
X56600000Y22220000D03*
X54060000Y22220000D03*
X56600000Y19680000D03*
X54060000Y19680000D03*
X56600000Y17140000D03*
X54060000Y17140000D03*
X56600000Y14600000D03*
X54060000Y14600000D03*
X56600000Y12060000D03*
X54060000Y12060000D03*
X27900000Y5075000D03*
X27900000Y2535000D03*
X30440000Y5075000D03*
X30440000Y2535000D03*
X32980000Y5075000D03*
X32980000Y2535000D03*
X35520000Y5075000D03*
X35520000Y2535000D03*
X38060000Y5075000D03*
X38060000Y2535000D03*
X40600000Y5075000D03*
X40600000Y2535000D03*
X43140000Y5075000D03*
X43140000Y2535000D03*
X45680000Y5075000D03*
X45680000Y2535000D03*
X48220000Y5075000D03*
X48220000Y2535000D03*
X50760000Y5075000D03*
X50760000Y2535000D03*
X53300000Y5075000D03*
X53300000Y2535000D03*
X55840000Y5075000D03*
X55840000Y2535000D03*
X58380000Y5075000D03*
X58380000Y2535000D03*
X60920000Y5075000D03*
X60920000Y2535000D03*
X63460000Y5075000D03*
D15*
X63460000Y2535000D03*
D16*
X18490000Y50850000D03*
X18490000Y48310000D03*
X21030000Y50850000D03*
X21030000Y48310000D03*
X23570000Y50850000D03*
X23570000Y48310000D03*
X26110000Y50850000D03*
X26110000Y48310000D03*
X28650000Y50850000D03*
X28650000Y48310000D03*
X31190000Y50850000D03*
X31190000Y48310000D03*
X33730000Y50850000D03*
X33730000Y48310000D03*
X36270000Y50850000D03*
X36270000Y48310000D03*
X38810000Y50850000D03*
X38810000Y48310000D03*
X41350000Y50850000D03*
X41350000Y48310000D03*
X43890000Y50850000D03*
X43890000Y48310000D03*
X46430000Y50850000D03*
X46430000Y48310000D03*
X48970000Y50850000D03*
X48970000Y48310000D03*
X51510000Y50850000D03*
X51510000Y48310000D03*
X54050000Y50850000D03*
X54050000Y48310000D03*
X56590000Y50850000D03*
X56590000Y48310000D03*
X59130000Y50850000D03*
X59130000Y48310000D03*
X61670000Y50850000D03*
X61670000Y48310000D03*
X64210000Y50850000D03*
D15*
X64210000Y48310000D03*
D16*
X66040000Y25400000D03*
X63500000Y25400000D03*
X66040000Y27940000D03*
X63500000Y27940000D03*
X66040000Y30480000D03*
D15*
X63500000Y30480000D03*
D17*
X36808800Y31074900D03*
X47599000Y14052100D03*
X34323400Y30082400D03*
X58500000Y9000000D03*
D18*
X60200000Y23800000D03*
D17*
X50075550Y11575550D03*
D18*
X43000000Y13500000D03*
X12697150Y38302850D03*
D17*
X59000000Y18000000D03*
X30063392Y41935278D03*
X21996400Y13708200D03*
D18*
X17690000Y23980000D03*
X28100000Y15650000D03*
X21160000Y4900000D03*
D17*
X41900000Y15850000D03*
X40669700Y18602000D03*
X34075000Y16675000D03*
X32988000Y20983200D03*
X22000000Y45500000D03*
X17517200Y45000000D03*
D18*
X12700000Y43950000D03*
X27200000Y17000000D03*
D17*
X37679200Y32773600D03*
X38449500Y37224800D03*
D18*
X13740000Y35530000D03*
X36790000Y11840000D03*
X23700000Y10450000D03*
X23430000Y7110000D03*
D17*
X51806600Y32928300D03*
D18*
X8990000Y39250000D03*
X8990000Y34450000D03*
X3430000Y37090000D03*
D17*
X52383200Y31327300D03*
X25850000Y37100000D03*
X26505800Y41231600D03*
X42947500Y20595700D03*
X22606000Y34163000D03*
X22962400Y32486600D03*
X24213600Y25310800D03*
X15951200Y36398200D03*
X46858900Y28822600D03*
X16068500Y48738419D03*
X24976200Y26226000D03*
X45363400Y28299400D03*
X40328000Y27128800D03*
X43084600Y23981500D03*
X38127000Y29583000D03*
X45496400Y29724200D03*
X30339900Y35546300D03*
X39930000Y24410000D03*
X31038100Y35980000D03*
X43895400Y29623800D03*
X33230000Y41950000D03*
X33895600Y36193100D03*
X42932900Y28586700D03*
X27388500Y32974300D03*
X24500000Y45000000D03*
X26568400Y39471600D03*
X24536400Y45999400D03*
X26187000Y19676700D03*
X40390900Y28350000D03*
X36489000Y26539500D03*
X38927400Y29832000D03*
X36704300Y25192000D03*
X40222600Y31350000D03*
X25497700Y44652300D03*
X27225100Y19690400D03*
X40130000Y32175800D03*
X37292600Y24648200D03*
X41135500Y33408800D03*
X26944400Y43212200D03*
X27761400Y21467800D03*
X20750000Y30820000D03*
X39527700Y32766200D03*
X22537400Y21850000D03*
X35548200Y25782200D03*
X33916000Y27216900D03*
X41541300Y44216100D03*
X35901800Y28341500D03*
X30945600Y29464000D03*
X29361800Y27085400D03*
X25088100Y29732200D03*
X29927800Y26519400D03*
X42029300Y17980500D03*
X28344000Y29536300D03*
X28944300Y28939500D03*
X28176000Y31243800D03*
X50683700Y35143500D03*
X25078200Y31350000D03*
X27097200Y41772300D03*
X51077700Y33331400D03*
X29455100Y43062700D03*
X29162500Y36220600D03*
X48601700Y29031400D03*
X34347500Y25913000D03*
X28049600Y32350000D03*
X50677400Y30726900D03*
X58699400Y39141400D03*
X32176300Y35419900D03*
X31725000Y43050000D03*
X34569400Y42468800D03*
X34696000Y36058900D03*
X50789300Y20950000D03*
X37849300Y21091600D03*
X38461900Y19973000D03*
X43955100Y19592700D03*
X34031500Y19939700D03*
X46158200Y10115600D03*
X35416600Y16849900D03*
X39924700Y10039300D03*
X34816300Y17445200D03*
X36790200Y17085300D03*
X37194000Y16357200D03*
X46170400Y8502200D03*
X45102900Y13689100D03*
X48582100Y6846000D03*
X33205800Y19984600D03*
X30854400Y10454300D03*
X29784800Y13392400D03*
X10396530Y37596738D03*
X9120000Y36360000D03*
D18*
X21750000Y16900000D03*
X16430000Y11980000D03*
X2070000Y11570000D03*
X13950000Y9850000D03*
D17*
X36149500Y32770400D03*
X33880000Y39400000D03*
X35955000Y42510000D03*
X36247600Y35252100D03*
X17190000Y22980000D03*
X21260000Y21750000D03*
X20360000Y43789600D03*
X20375000Y39674800D03*
X10960000Y32190000D03*
X13770000Y30790000D03*
M02*
