M48
; DRILL file {KiCad (5.1.4)-1} date 2020/03/19 18:17:49
; FORMAT={3:3/ absolute / metric / suppress leading zeros}
; #@! TF.CreationDate,2020-03-19T18:17:49+09:00
; #@! TF.GenerationSoftware,Kicad,Pcbnew,(5.1.4)-1
FMAT,2
METRIC,TZ
T1C0.300
T2C0.500
T3C0.600
T4C1.000
T5C0.650
%
G90
G05
T1
X9120Y36360
X10397Y37597
X10960Y32190
X13770Y30790
X15951Y36398
X16069Y48738
X17190Y22980
X17517Y45000
X20360Y43790
X20375Y39675
X20750Y30820
X21260Y21750
X21996Y13708
X22000Y45500
X22537Y21850
X22606Y34163
X22962Y32487
X24214Y25311
X24500Y45000
X24536Y45999
X24976Y26226
X25078Y31350
X25088Y29732
X25498Y44652
X25850Y37100
X26187Y19677
X26506Y41232
X26568Y39472
X26944Y43212
X27097Y41772
X27225Y19690
X27389Y32974
X27761Y21468
X28050Y32350
X28176Y31244
X28344Y29536
X28944Y28940
X29163Y36221
X29362Y27085
X29455Y43063
X29785Y13392
X29928Y26519
X30063Y41935
X30340Y35546
X30854Y10454
X30946Y29464
X31038Y35980
X31725Y43050
X32176Y35420
X32988Y20983
X33206Y19985
X33230Y41950
X33880Y39400
X33896Y36193
X33916Y27217
X34032Y19940
X34075Y16675
X34323Y30082
X34347Y25913
X34569Y42469
X34696Y36059
X34816Y17445
X35417Y16850
X35548Y25782
X35902Y28342
X35955Y42510
X36149Y32770
X36248Y35252
X36489Y26540
X36704Y25192
X36790Y17085
X36809Y31075
X37194Y16357
X37293Y24648
X37679Y32774
X37849Y21092
X38127Y29583
X38450Y37225
X38462Y19973
X38927Y29832
X39528Y32766
X39925Y10039
X39930Y24410
X40130Y32176
X40223Y31350
X40328Y27129
X40391Y28350
X40670Y18602
X41136Y33409
X41541Y44216
X41900Y15850
X42029Y17981
X42933Y28587
X42948Y20596
X43085Y23982
X43895Y29624
X43955Y19593
X45103Y13689
X45363Y28299
X45496Y29724
X46158Y10116
X46170Y8502
X46859Y28823
X47599Y14052
X48582Y6846
X48602Y29031
X50076Y11576
X50677Y30727
X50684Y35143
X50789Y20950
X51078Y33331
X51807Y32928
X52383Y31327
X58500Y9000
X58699Y39141
X59000Y18000
T2
X2070Y11570
X3430Y37090
X8990Y39250
X8990Y34450
X12697Y38303
X12700Y43950
X13740Y35530
X13950Y9850
X16430Y11980
X17690Y23980
X21160Y4900
X21750Y16900
X23430Y7110
X23700Y10450
X27200Y17000
X28100Y15650
X36790Y11840
X43000Y13500
X60200Y23800
T4
X63500Y30480
X63500Y27940
X63500Y25400
X66040Y30480
X66040Y27940
X66040Y25400
X18490Y50850
X18490Y48310
X21030Y50850
X21030Y48310
X23570Y50850
X23570Y48310
X26110Y50850
X26110Y48310
X28650Y50850
X28650Y48310
X31190Y50850
X31190Y48310
X33730Y50850
X33730Y48310
X36270Y50850
X36270Y48310
X38810Y50850
X38810Y48310
X41350Y50850
X41350Y48310
X43890Y50850
X43890Y48310
X46430Y50850
X46430Y48310
X48970Y50850
X48970Y48310
X51510Y50850
X51510Y48310
X54050Y50850
X54050Y48310
X56590Y50850
X56590Y48310
X59130Y50850
X59130Y48310
X61670Y50850
X61670Y48310
X64210Y50850
X64210Y48310
X27900Y5075
X27900Y2535
X30440Y5075
X30440Y2535
X32980Y5075
X32980Y2535
X35520Y5075
X35520Y2535
X38060Y5075
X38060Y2535
X40600Y5075
X40600Y2535
X43140Y5075
X43140Y2535
X45680Y5075
X45680Y2535
X48220Y5075
X48220Y2535
X50760Y5075
X50760Y2535
X53300Y5075
X53300Y2535
X55840Y5075
X55840Y2535
X58380Y5075
X58380Y2535
X60920Y5075
X60920Y2535
X63460Y5075
X63460Y2535
X54060Y40000
X54060Y37460
X54060Y34920
X54060Y32380
X54060Y29840
X54060Y27300
X54060Y24760
X54060Y22220
X54060Y19680
X54060Y17140
X54060Y14600
X54060Y12060
X56600Y40000
X56600Y37460
X56600Y34920
X56600Y32380
X56600Y29840
X56600Y27300
X56600Y24760
X56600Y22220
X56600Y19680
X56600Y17140
X56600Y14600
X56600Y12060
T5
X5350Y39740
X5350Y33960
T3
G00X2100Y41170
M15
G01X1300Y41170
M16
G05
G00X2100Y32530
M15
G01X1300Y32530
M16
G05
G00X6430Y41170
M15
G01X5330Y41170
M16
G05
G00X6430Y32530
M15
G01X5330Y32530
M16
G05
T4
G00X4500Y5700
M15
G01X4500Y6300
M16
G05
G00X7800Y1300
M15
G01X7200Y1300
M16
G05
G00X10500Y5700
M15
G01X10500Y6300
M16
G05
T0
M30
